<svg width="112" height="24" viewBox="0 0 112 24" fill="none" xmlns="http://www.w3.org/2000/svg">
<rect x="0.5" y="0.5" width="33" height="23" rx="3.5" fill="white"/>
<path fill-rule="evenodd" clip-rule="evenodd" d="M10.7501 15.8579H8.69031L7.14576 9.79198C7.07245 9.51295 6.91679 9.26627 6.68782 9.15001C6.11639 8.85784 5.48672 8.62531 4.7998 8.50804V8.2745H8.11789C8.57583 8.2745 8.91929 8.62531 8.97653 9.03274L9.77793 13.4083L11.8367 8.2745H13.8392L10.7501 15.8579ZM14.984 15.8579H13.0388L14.6406 8.2745H16.5858L14.984 15.8579ZM19.1025 10.3753C19.1597 9.96689 19.5032 9.73335 19.9039 9.73335C20.5336 9.67471 21.2195 9.79199 21.7919 10.0832L22.1354 8.45042C21.5629 8.21688 20.9333 8.09961 20.3619 8.09961C18.4738 8.09961 17.1 9.15002 17.1 10.6078C17.1 11.7169 18.0731 12.2992 18.7601 12.65C19.5032 12.9998 19.7894 13.2334 19.7322 13.5832C19.7322 14.1079 19.1597 14.3414 18.5883 14.3414C17.9014 14.3414 17.2145 14.1665 16.5858 13.8743L16.2424 15.5081C16.9293 15.7992 17.6724 15.9165 18.3594 15.9165C20.4763 15.9741 21.7919 14.9247 21.7919 13.3496C21.7919 11.3661 19.1025 11.2498 19.1025 10.3753ZM28.5998 15.8579L27.0553 8.2745H25.3962C25.0528 8.2745 24.7093 8.50804 24.5948 8.85784L21.7347 15.8579H23.7372L24.1369 14.7498H26.5973L26.8263 15.8579H28.5998ZM25.6824 10.3167L26.2539 13.1747H24.6521L25.6824 10.3167Z" fill="#172B85"/>
<rect x="0.5" y="0.5" width="33" height="23" rx="3.5" stroke="#F9F7F6"/>
<rect x="39.5" y="0.5" width="33" height="23" rx="3.5" fill="white"/>
<path fill-rule="evenodd" clip-rule="evenodd" d="M56.179 16.8297C54.9949 17.8278 53.459 18.4303 51.7807 18.4303C48.0358 18.4303 45 15.4306 45 11.7303C45 8.02997 48.0358 5.03027 51.7807 5.03027C53.459 5.03027 54.9949 5.63277 56.179 6.63081C57.363 5.63277 58.8989 5.03027 60.5773 5.03027C64.3221 5.03027 67.358 8.02997 67.358 11.7303C67.358 15.4306 64.3221 18.4303 60.5773 18.4303C58.8989 18.4303 57.363 17.8278 56.179 16.8297Z" fill="#ED0006"/>
<path fill-rule="evenodd" clip-rule="evenodd" d="M56.1787 16.8297C57.6366 15.6008 58.5611 13.7722 58.5611 11.7303C58.5611 9.68832 57.6366 7.85972 56.1787 6.63081C57.3628 5.63277 58.8987 5.03027 60.577 5.03027C64.3219 5.03027 67.3577 8.02997 67.3577 11.7303C67.3577 15.4306 64.3219 18.4303 60.577 18.4303C58.8987 18.4303 57.3628 17.8278 56.1787 16.8297Z" fill="#F9A000"/>
<path fill-rule="evenodd" clip-rule="evenodd" d="M56.1793 16.8297C57.6372 15.6008 58.5616 13.7722 58.5616 11.7303C58.5616 9.68835 57.6372 7.85976 56.1793 6.63086C54.7213 7.85976 53.7969 9.68835 53.7969 11.7303C53.7969 13.7722 54.7213 15.6008 56.1793 16.8297Z" fill="#FF5E00"/>
<rect x="39.5" y="0.5" width="33" height="23" rx="3.5" stroke="#F9F7F6"/>
<g clip-path="url(#clip0_1114_18242)">
<path d="M112 21.7143C112 22.8243 111.1 23.7242 109.99 23.7242H80.0098C78.8998 23.7243 78 22.8243 78 21.7143V2.28622C78 1.17624 78.8998 0.276367 80.0098 0.276367H109.99C111.1 0.276367 112 1.17624 112 2.28622V21.7143Z" fill="#306FC5"/>
<path d="M82.9531 9.65816H83.969L83.4612 8.36523L82.9531 9.65816Z" fill="white"/>
<path d="M88.3555 13.999V14.5994H90.064V15.246H88.3555V15.9388H90.2486L91.1259 14.9689L90.2949 13.999H88.3555Z" fill="white"/>
<path d="M101.701 8.36523L101.146 9.65816H102.209L101.701 8.36523Z" fill="white"/>
<path d="M93.2963 16.3077V13.6758L92.0957 14.9688L93.2963 16.3077Z" fill="white"/>
<path d="M95.5588 14.4148C95.5126 14.1377 95.3277 13.999 95.0505 13.999H94.0811V14.8302H95.097C95.374 14.8302 95.5588 14.6918 95.5588 14.4148Z" fill="white"/>
<path d="M98.7909 14.7376C98.8833 14.6913 98.9296 14.5527 98.9296 14.4144C98.9759 14.2299 98.8833 14.1374 98.7909 14.0911C98.6988 14.0449 98.5601 14.0449 98.4218 14.0449H97.498V14.7838H98.4217C98.56 14.7838 98.6987 14.7838 98.7909 14.7376Z" fill="white"/>
<path d="M105.44 7.16504V7.71913L105.163 7.16504H102.993V7.71913L102.716 7.16504H99.7611C99.2532 7.16504 98.8374 7.25748 98.4682 7.44215V7.16504H96.3904V7.21126V7.44215C96.1596 7.25754 95.8825 7.16504 95.5131 7.16504H88.0789L87.5708 8.31945L87.063 7.16504H85.4008H84.7081V7.71913L84.4772 7.16504H84.431H82.4455L81.5219 9.3352L80.46 11.6901L80.4404 11.7364H80.46H82.8149H82.8444L82.8611 11.6901L83.1383 10.9976H83.7386L84.0156 11.7364H86.6935V11.6901V11.1823L86.9245 11.7363H88.2635L88.4942 11.1823V11.6901V11.7364H89.5563H94.8665H94.9127V10.5358H95.0052C95.0975 10.5358 95.0975 10.5358 95.0975 10.6743V11.6902H98.4221V11.4131C98.6992 11.5518 99.1145 11.6902 99.6686 11.6902H101.054L101.331 10.9515H101.977L102.254 11.6902H104.932V11.2285V10.9977L105.348 11.6902H105.44H105.487H107.518V7.16504H105.44H105.44ZM89.7873 11.0439H89.3255H89.0485V10.767V8.50419L89.0023 8.61011V8.60884L87.9281 11.0439H87.8941H87.6471H87.2475L86.1394 8.50419V11.0439H84.5696L84.2464 10.3513H82.6763L82.353 11.0439H81.5413L82.9073 7.81157H84.0616L85.3544 10.9052V7.81157H85.6314H86.5778L86.5995 7.85786H86.6011L87.1837 9.12582L87.6021 10.0758L87.6169 10.0279L88.5403 7.81164H89.7872V11.0439H89.7873ZM92.9735 8.50419H91.1726V9.10443H92.9273V9.75083H91.1726V10.3975H92.9735V11.0899H90.3877V7.81164H92.9735V8.50419ZM96.2669 9.69485C96.2681 9.69591 96.2696 9.69664 96.2711 9.69764C96.2885 9.7161 96.3035 9.73463 96.3162 9.75236C96.4047 9.86831 96.4762 10.0408 96.4798 10.2936C96.4801 10.298 96.4803 10.3023 96.4805 10.3067C96.4805 10.3092 96.481 10.3114 96.481 10.314C96.481 10.3155 96.4809 10.3166 96.4809 10.318C96.4819 10.3434 96.4826 10.3694 96.4826 10.3975V11.044H95.7901V10.6744C95.7901 10.4897 95.7901 10.2126 95.6514 10.0279C95.6077 9.98432 95.5636 9.95556 95.5155 9.93511C95.4463 9.89029 95.3152 9.88955 95.0975 9.88955H94.2661V11.044H93.4813V7.81164H95.2361C95.6514 7.81164 95.9286 7.81164 96.1595 7.95016C96.3858 8.08603 96.5224 8.31134 96.5276 8.66814C96.5169 9.15955 96.2015 9.42916 95.9747 9.52007C95.9747 9.52007 96.1288 9.55108 96.2669 9.69485ZM97.8218 11.0439H97.0367V7.81157H97.8218V11.0439ZM106.826 11.0439H105.81L104.332 8.59649V10.6282L104.328 10.6234V11.0459H103.547V11.044H102.762L102.485 10.3513H100.869L100.592 11.09H99.7148C99.3456 11.09 98.8836 10.9977 98.6067 10.7207C98.3296 10.4436 98.1912 10.0742 98.1912 9.47405C98.1912 9.01233 98.2835 8.55027 98.6067 8.18099C98.8374 7.90374 99.2531 7.81164 99.7609 7.81164H100.5V8.50419H99.7609C99.4839 8.50419 99.3456 8.55021 99.1606 8.689C99.0223 8.82745 98.9299 9.10443 98.9299 9.42763C98.9299 9.79712 98.9761 10.0279 99.1606 10.2126C99.2994 10.3513 99.484 10.3976 99.7148 10.3976H100.038L101.1 7.85799H101.562H102.254L103.547 10.9517V10.7939V9.75097V9.65873V7.85806H104.702L106.041 10.1205V7.85806H106.826V11.044H106.826V11.0439Z" fill="white"/>
<path d="M95.6081 9.15754C95.6216 9.14313 95.6338 9.1268 95.6442 9.10807C95.686 9.04186 95.7339 8.9226 95.7081 8.75984C95.707 8.74489 95.7043 8.73108 95.7011 8.71773C95.7003 8.71402 95.7004 8.71076 95.6994 8.70704L95.6989 8.70711C95.676 8.62802 95.6173 8.57941 95.5588 8.54993C95.4662 8.50391 95.3277 8.50391 95.1893 8.50391H94.2656V9.24281H95.1893C95.3277 9.24281 95.4663 9.24281 95.5588 9.19652C95.5727 9.18948 95.5851 9.17992 95.5969 9.1691L95.5971 9.1697C95.5971 9.16963 95.6019 9.16471 95.6081 9.15754Z" fill="white"/>
<path d="M109.55 15.6614C109.55 15.3382 109.457 15.0149 109.319 14.784V12.7062H109.317V12.5675C109.317 12.5675 107.381 12.5675 107.093 12.5675C106.805 12.5675 106.456 12.8445 106.456 12.8445V12.5675H104.332C104.009 12.5675 103.593 12.66 103.408 12.8445V12.5675H99.6222V12.7062V12.8444C99.3454 12.6137 98.837 12.5674 98.6063 12.5674H96.1128V12.7062V12.8444C95.882 12.6137 95.3277 12.5674 95.0505 12.5674H92.2804L91.6338 13.2601L91.0335 12.5674H90.8402H90.5256H86.8779V12.7061V13.0709V17.2313H90.9413L91.609 16.5634L92.1877 17.2313H92.2341H94.5754H94.6815H94.7277H94.7737V16.7696V16.1693H95.0047C95.3277 16.1693 95.7434 16.1693 96.0666 16.0306V17.1849V17.2774H98.1445V17.1849V16.0768H98.2366C98.3754 16.0768 98.3754 16.0768 98.3754 16.2153V17.1849V17.2774H104.655C105.071 17.2774 105.486 17.1849 105.717 17.0002V17.1849V17.2774H107.703C108.118 17.2774 108.534 17.2313 108.811 17.0465C109.236 16.7914 109.504 16.3399 109.544 15.8014C109.546 15.7855 109.548 15.7696 109.549 15.7536L109.547 15.751C109.548 15.7211 109.55 15.6915 109.55 15.6614ZM95.0048 15.3844H94.0811V15.5226V15.7998V16.0769V16.5848H92.5634L91.68 15.5689L91.677 15.5723L91.6338 15.5226L90.618 16.5848H87.6629V13.3526H90.6642L91.4842 14.2508L91.6566 14.4388L91.68 14.4146L92.6498 13.3527H95.097C95.5719 13.3527 96.1037 13.4699 96.3053 13.9531C96.3295 14.0488 96.3436 14.1552 96.3436 14.2761C96.3436 15.1995 95.6971 15.3844 95.0048 15.3844ZM99.6222 15.3381C99.7145 15.4763 99.7607 15.6613 99.7607 15.9385V16.5848H98.9758V16.1693C98.9758 15.9843 98.9758 15.6613 98.8371 15.5226C98.745 15.3844 98.56 15.3844 98.2832 15.3844H97.4521V16.5848H96.6672V13.3064H98.4217C98.7909 13.3064 99.1141 13.3064 99.3454 13.4448C99.5761 13.5835 99.7607 13.8144 99.7607 14.1838C99.7607 14.6916 99.4376 14.9686 99.2066 15.0611C99.4376 15.1531 99.5761 15.2457 99.6222 15.3381ZM102.808 13.9988H101.007V14.5991H102.762V15.2457H101.007V15.8922H102.808V16.5848H100.223V13.3064H102.808V13.9988ZM104.748 16.5848H103.27V15.8923H104.748C104.886 15.8923 104.978 15.8923 105.071 15.7998C105.117 15.7536 105.163 15.6614 105.163 15.5689C105.163 15.4764 105.117 15.3845 105.071 15.3382C105.025 15.292 104.932 15.2458 104.794 15.2458C104.055 15.1996 103.178 15.2458 103.178 14.2301C103.178 13.7683 103.455 13.2603 104.286 13.2603H105.809V14.0451H104.378C104.24 14.0451 104.147 14.0451 104.055 14.0913C103.963 14.1376 103.963 14.2301 103.963 14.3223C103.963 14.4609 104.055 14.5071 104.147 14.5529C104.24 14.5992 104.332 14.5992 104.424 14.5992H104.84C105.255 14.5992 105.532 14.6916 105.717 14.8763C105.856 15.0149 105.948 15.2458 105.948 15.5689C105.948 16.2614 105.533 16.5848 104.748 16.5848ZM108.719 16.2614C108.534 16.4463 108.211 16.5848 107.749 16.5848H106.272V15.8923H107.749C107.887 15.8923 107.98 15.8923 108.072 15.7998C108.118 15.7536 108.165 15.6614 108.165 15.5689C108.165 15.4764 108.118 15.3845 108.072 15.3382C108.026 15.292 107.934 15.2458 107.795 15.2458C107.057 15.1996 106.179 15.2458 106.179 14.2301C106.179 13.7913 106.43 13.3948 107.049 13.2771C107.123 13.2668 107.202 13.2603 107.287 13.2603H108.811V14.0451H107.795H107.426H107.38C107.241 14.0451 107.149 14.0451 107.057 14.0913C107.01 14.1376 106.964 14.2301 106.964 14.3223C106.964 14.4609 107.01 14.5071 107.149 14.5529C107.241 14.5992 107.333 14.5992 107.426 14.5992H107.472H107.841C108.043 14.5992 108.196 14.6241 108.335 14.6732C108.463 14.7195 108.887 14.9089 108.981 15.4033C108.99 15.4551 108.996 15.5091 108.996 15.5689C108.996 15.8461 108.903 16.0769 108.719 16.2614Z" fill="white"/>
</g>
<defs>
<clipPath id="clip0_1114_18242">
<rect width="34" height="24" fill="white" transform="translate(78)"/>
</clipPath>
</defs>
</svg>
