<svg width="95" height="44" viewBox="0 0 95 44" fill="none" xmlns="http://www.w3.org/2000/svg">
<path d="M5.528 31.208C4.248 31.208 3.128 30.888 2.168 30.248C1.208 29.64 0.728 28.584 0.728 27.08C0.728 26.536 0.792 26.056 0.92 25.64C1.08 25.224 1.256 24.904 1.448 24.68C1.768 24.328 1.992 24.152 2.12 24.152C2.248 24.152 2.312 24.248 2.312 24.44C2.312 24.6 2.264 24.776 2.168 24.968C1.848 25.512 1.688 26.072 1.688 26.648C1.688 27.672 2.136 28.552 3.032 29.288C3.768 29.768 4.632 30.008 5.624 30.008C6.52 30.008 7.432 29.848 8.36 29.528C9.32 29.24 10.184 28.84 10.952 28.328C11.752 27.784 12.328 27.192 12.68 26.552C12.904 26.04 13.016 25.512 13.016 24.968C13.016 24.424 12.888 23.864 12.632 23.288C12.376 22.68 11.928 22.12 11.288 21.608C11 21.352 10.552 21.032 9.944 20.648C9.368 20.232 8.776 19.816 8.168 19.4C7.56 18.984 7.048 18.664 6.632 18.44C4.552 17.416 3.064 16.28 2.168 15.032C1.272 13.784 0.824 12.504 0.824 11.192C0.824 10.008 1.16 8.84 1.832 7.688C2.536 6.536 3.464 5.464 4.616 4.472C5.8 3.48 7.144 2.616 8.648 1.88C10.184 1.144 11.784 0.599999 13.448 0.247998C13.704 0.183999 13.992 0.135999 14.312 0.103997C14.664 0.0719976 14.984 0.0559978 15.272 0.0559978C16.072 0.0559978 16.776 0.183998 17.384 0.439999C17.832 0.695999 18.184 0.999999 18.44 1.352C18.728 1.704 18.872 2.104 18.872 2.552C18.872 2.872 18.824 3.208 18.728 3.56C18.664 3.88 18.504 4.216 18.248 4.568C18.088 4.792 17.864 5.032 17.576 5.288C17.288 5.544 16.984 5.768 16.664 5.96C16.632 5.96 16.6 5.976 16.568 6.008C16.568 6.008 16.552 6.008 16.52 6.008C16.328 6.008 16.232 5.944 16.232 5.816C16.232 5.72 16.328 5.608 16.52 5.48C16.68 5.384 16.872 5.208 17.096 4.952C17.32 4.696 17.464 4.488 17.528 4.328C17.784 3.848 17.912 3.384 17.912 2.936C17.912 1.848 17.128 1.304 15.56 1.304C15.336 1.304 15.08 1.32 14.792 1.352C14.504 1.384 14.2 1.416 13.88 1.448C11.96 1.928 10.136 2.696 8.408 3.752C6.68 4.776 5.272 5.944 4.184 7.256C3.128 8.568 2.6 9.912 2.6 11.288C2.6 12.376 2.984 13.464 3.752 14.552C4.552 15.608 5.784 16.6 7.448 17.528C7.576 17.56 7.752 17.64 7.976 17.768C8.2 17.896 8.28 17.96 8.216 17.96C8.952 18.344 9.72 18.776 10.52 19.256C11.352 19.736 12.088 20.296 12.728 20.936C13.368 21.576 13.752 22.328 13.88 23.192C13.912 23.352 13.928 23.512 13.928 23.672C13.96 23.832 13.976 23.992 13.976 24.152C13.976 25.144 13.704 26.088 13.16 26.984C12.648 27.88 12.008 28.664 11.24 29.336C10.536 29.88 9.656 30.328 8.6 30.68C7.576 31.032 6.552 31.208 5.528 31.208ZM19.6303 15.992C19.5023 15.992 19.3583 15.96 19.1983 15.896C19.0703 15.832 19.0063 15.704 19.0063 15.512C19.0063 15.16 19.2143 14.888 19.6303 14.696C20.0783 14.472 20.4463 14.36 20.7343 14.36C20.8943 14.36 21.0383 14.392 21.1663 14.456C21.3263 14.52 21.4062 14.632 21.4062 14.792C21.4062 15.144 21.1823 15.432 20.7343 15.656C20.2863 15.88 19.9183 15.992 19.6303 15.992ZM22.5103 26.792C22.0303 27.368 21.5343 27.864 21.0223 28.28C20.5423 28.664 20.0783 28.856 19.6303 28.856C19.2143 28.856 18.8463 28.664 18.5263 28.28C18.2063 27.864 17.9343 27.192 17.7103 26.264C17.6783 25.976 17.6303 25.56 17.5663 25.016C17.5343 24.472 17.5183 23.912 17.5183 23.336C17.5183 22.728 17.5343 22.152 17.5663 21.608C17.6303 21.032 17.6783 20.584 17.7103 20.264C17.7743 20.008 17.9023 19.72 18.0943 19.4C18.3183 19.08 18.5903 18.92 18.9103 18.92C19.1983 18.92 19.3423 19.08 19.3423 19.4C19.3423 19.432 19.3263 19.464 19.2943 19.496C19.2943 19.528 19.2943 19.56 19.2943 19.592C19.1663 20.328 19.0703 21.064 19.0063 21.8C18.9423 22.504 18.9103 23.224 18.9103 23.96C18.9103 25.24 19.0063 26.168 19.1983 26.744C19.4223 27.32 19.7263 27.608 20.1103 27.608C20.3983 27.608 20.7343 27.48 21.1183 27.224C21.5023 26.936 21.9343 26.568 22.4143 26.12C22.8303 25.736 23.2303 25.304 23.6143 24.824C23.9983 24.344 24.4143 23.736 24.8623 23C24.9263 22.84 25.0223 22.76 25.1503 22.76C25.3743 22.76 25.4063 22.92 25.2463 23.24C24.9263 23.752 24.5263 24.312 24.0463 24.92C23.5663 25.528 23.0543 26.152 22.5103 26.792ZM23.7031 43.304C22.3271 43.304 21.3351 42.952 20.7271 42.248C20.1191 41.544 19.8151 40.664 19.8151 39.608C19.8151 39 19.9111 38.36 20.1031 37.688C20.5831 35.992 21.4151 34.552 22.5991 33.368C23.7831 32.184 25.1591 31.224 26.7271 30.488C28.2951 29.784 29.8631 29.304 31.4311 29.048C31.6551 27.832 31.8311 26.712 31.9591 25.688C32.1191 24.664 32.2311 23.848 32.2951 23.24C31.8151 23.72 31.2071 24.296 30.4711 24.968C29.7351 25.64 28.9511 26.248 28.1191 26.792C27.3191 27.304 26.5191 27.56 25.7191 27.56C25.6551 27.56 25.5751 27.56 25.4791 27.56C25.3831 27.56 25.3031 27.544 25.2391 27.512C24.3431 27.32 23.8951 26.824 23.8951 26.024C23.8951 25.32 24.2151 24.472 24.8551 23.48C25.4951 22.456 26.3111 21.448 27.3031 20.456C28.2951 19.464 29.3351 18.648 30.4231 18.008C31.5431 17.336 32.5511 17 33.4471 17C33.7351 17 33.9431 17.016 34.0711 17.048C34.4231 17.112 34.7751 17.304 35.1271 17.624C35.4791 17.912 35.6071 18.264 35.5111 18.68C35.5111 18.872 35.4311 18.936 35.2711 18.872C35.1751 18.872 35.1271 18.776 35.1271 18.584C34.9991 18.328 34.7431 18.168 34.3591 18.104L33.2551 17.96C32.5191 17.96 31.7191 18.232 30.8551 18.776C30.0231 19.288 29.2231 19.96 28.4551 20.792C27.6871 21.592 27.0311 22.44 26.4871 23.336C25.9431 24.2 25.6071 24.968 25.4791 25.64C25.4471 25.736 25.4151 25.832 25.3831 25.928C25.3831 26.024 25.3831 26.12 25.3831 26.216C25.3831 26.408 25.4471 26.6 25.5751 26.792C25.7031 26.952 25.9271 27.032 26.2471 27.032C26.6951 27.032 27.2071 26.856 27.7831 26.504C28.3591 26.152 28.9511 25.72 29.5591 25.208C30.1991 24.696 30.7591 24.2 31.2391 23.72C31.7511 23.208 32.1191 22.808 32.3431 22.52C32.4071 22.2 32.4711 21.8 32.5351 21.32C32.5991 20.84 32.7591 20.408 33.0151 20.024C33.3671 19.544 33.7031 19.304 34.0231 19.304C34.5031 19.304 34.6631 19.624 34.5031 20.264C34.4391 20.616 34.2151 21.016 33.8311 21.464C33.4791 21.912 33.1751 22.296 32.9191 22.616C32.9191 23.256 32.8551 24.152 32.7271 25.304C32.5991 26.424 32.4551 27.624 32.2951 28.904C32.4551 28.872 32.5831 28.856 32.6791 28.856C32.8071 28.856 32.9191 28.856 33.0151 28.856C33.4311 28.856 33.6391 28.904 33.6391 29C33.6391 29.224 33.1591 29.416 32.1991 29.576C32.0391 30.952 31.8151 32.424 31.5271 33.992C31.2391 35.592 30.7911 37.096 30.1831 38.504C29.6071 39.912 28.7911 41.064 27.7351 41.96C26.7111 42.856 25.3671 43.304 23.7031 43.304ZM24.5671 42.488C25.7831 42.36 26.7911 41.816 27.5911 40.856C28.3911 39.896 29.0311 38.728 29.5111 37.352C30.0231 35.976 30.4231 34.6 30.7111 33.224C30.9991 31.848 31.2071 30.68 31.3351 29.72C29.8951 29.976 28.4711 30.44 27.0631 31.112C25.6871 31.784 24.4711 32.68 23.4151 33.8C22.3271 34.92 21.5431 36.28 21.0631 37.88C20.8711 38.456 20.7751 39.016 20.7751 39.56C20.7751 40.456 21.0791 41.192 21.6871 41.768C22.2631 42.376 23.2231 42.616 24.5671 42.488ZM35.9199 29.048C35.6959 29.048 35.5039 28.968 35.3439 28.808C35.1839 28.616 35.1039 28.392 35.1039 28.136C35.1039 27.944 35.1519 27.784 35.2479 27.656C35.5039 27.08 35.7279 26.376 35.9199 25.544C36.1119 24.712 36.2559 23.864 36.3519 23C36.4479 22.136 36.4959 21.4 36.4959 20.792C36.4959 20.184 36.4319 19.528 36.3039 18.824C36.2079 18.12 35.8879 17.56 35.3439 17.144C35.2479 17.144 35.1999 17.08 35.1999 16.952C35.1999 16.888 35.2319 16.856 35.2959 16.856C35.3919 16.856 35.4719 16.888 35.5359 16.952C36.2719 17.4 36.7839 18.088 37.0719 19.016C37.3919 19.912 37.5519 20.888 37.5519 21.944C37.5519 22.712 37.4879 23.496 37.3599 24.296C37.2319 25.064 37.0719 25.8 36.8799 26.504C37.6159 25.928 38.3999 25.128 39.2319 24.104C40.0639 23.08 40.7839 22.152 41.3919 21.32C41.5839 21.064 41.8079 20.824 42.0639 20.6C42.3199 20.344 42.6239 20.216 42.9759 20.216C43.1999 20.216 43.3119 20.36 43.3119 20.648C43.3119 20.68 43.2959 20.744 43.2639 20.84C43.2639 20.904 43.2479 20.984 43.2159 21.08C43.1519 21.368 43.0239 21.944 42.8319 22.808C42.6719 23.64 42.5919 24.472 42.5919 25.304C42.5919 26.008 42.6879 26.616 42.8799 27.128C43.0719 27.64 43.4239 27.896 43.9359 27.896C44.1599 27.896 44.3999 27.848 44.6559 27.752C44.9119 27.624 45.1039 27.464 45.2319 27.272C45.2639 27.272 45.2799 27.256 45.2799 27.224C45.3119 27.192 45.3439 27.176 45.3759 27.176C45.4399 27.176 45.4719 27.208 45.4719 27.272C45.4719 27.592 45.2479 27.832 44.7999 27.992C44.3519 28.152 43.9999 28.232 43.7439 28.232C42.9119 28.232 42.3039 27.864 41.9199 27.128C41.5679 26.392 41.3919 25.576 41.3919 24.68C41.3919 24.392 41.4079 24.104 41.4399 23.816C41.4719 23.528 41.5199 23.256 41.5839 23V22.904C41.5839 22.776 41.5039 22.712 41.3439 22.712C41.1839 22.712 41.0079 22.808 40.8159 23C40.5599 23.288 40.2239 23.688 39.8079 24.2C39.3919 24.68 38.9599 25.192 38.5119 25.736C38.0959 26.28 37.7279 26.776 37.4079 27.224C37.0879 27.64 36.8799 27.912 36.7839 28.04C36.7199 28.168 36.6239 28.376 36.4959 28.664C36.3679 28.92 36.1759 29.048 35.9199 29.048ZM46.478 28.568C46.062 28.568 45.742 28.392 45.518 28.04C45.326 27.688 45.198 27.288 45.134 26.84C45.102 26.392 45.102 26.04 45.134 25.784C45.326 24.312 45.822 22.84 46.622 21.368C47.422 19.896 48.414 18.584 49.598 17.432C50.814 16.28 52.094 15.48 53.438 15.032C53.694 14.936 53.918 14.872 54.11 14.84C54.334 14.808 54.542 14.792 54.734 14.792C55.726 14.792 56.222 15.176 56.222 15.944C56.222 16.328 56.094 16.712 55.838 17.096L55.454 17.72C55.422 17.816 55.374 17.864 55.31 17.864C55.246 17.864 55.198 17.816 55.166 17.72C55.134 17.624 55.15 17.528 55.214 17.432C55.278 17.336 55.326 17.24 55.358 17.144C55.422 17.048 55.486 16.952 55.55 16.856C55.71 16.536 55.79 16.296 55.79 16.136C55.79 15.912 55.694 15.768 55.502 15.704C55.342 15.608 55.134 15.56 54.878 15.56C54.75 15.56 54.606 15.576 54.446 15.608C54.318 15.608 54.19 15.624 54.062 15.656C53.39 15.88 52.798 16.168 52.286 16.52C51.806 16.872 51.326 17.32 50.846 17.864C50.27 18.472 49.646 19.272 48.974 20.264C48.302 21.224 47.71 22.2 47.198 23.192C46.718 24.184 46.43 25.064 46.334 25.832C46.27 26.024 46.238 26.328 46.238 26.744C46.238 27.032 46.27 27.336 46.334 27.656C46.43 27.944 46.59 28.088 46.814 28.088C47.102 28.088 47.374 27.944 47.63 27.656C47.886 27.368 48.094 27.128 48.254 26.936C48.798 26.168 49.406 25.208 50.078 24.056C50.75 22.904 51.278 21.816 51.662 20.792L51.758 20.264C51.822 20.008 51.95 19.72 52.142 19.4C52.334 19.08 52.606 18.92 52.958 18.92C53.246 18.92 53.39 19.08 53.39 19.4C53.39 19.432 53.374 19.464 53.342 19.496C53.342 19.528 53.342 19.56 53.342 19.592C53.214 20.328 53.118 21.064 53.054 21.8C52.99 22.504 52.958 23.224 52.958 23.96C52.958 25.272 53.086 26.248 53.342 26.888C53.598 27.496 53.918 27.8 54.302 27.8C54.686 27.8 55.102 27.592 55.55 27.176C56.03 26.76 56.478 26.296 56.894 25.784C57.342 25.24 57.678 24.824 57.902 24.536L58.958 23.096C59.054 22.968 59.134 22.904 59.198 22.904C59.262 22.904 59.294 22.952 59.294 23.048C59.294 23.208 59.262 23.336 59.198 23.432C58.878 23.976 58.494 24.552 58.046 25.16C57.63 25.736 57.15 26.344 56.606 26.984C56.19 27.496 55.726 27.928 55.214 28.28C54.702 28.632 54.222 28.808 53.774 28.808C53.358 28.808 52.974 28.616 52.622 28.232C52.27 27.848 51.982 27.192 51.758 26.264C51.694 25.912 51.63 25.4 51.566 24.728C51.534 24.024 51.534 23.304 51.566 22.568C51.374 23.048 51.102 23.624 50.75 24.296C50.398 24.968 49.982 25.64 49.502 26.312C49.054 26.952 48.558 27.496 48.014 27.944C47.502 28.36 46.99 28.568 46.478 28.568ZM60.803 30.632C60.643 30.632 60.467 30.536 60.275 30.344C59.827 29.8 59.523 29.224 59.363 28.616C59.203 27.976 59.123 27.32 59.123 26.648C59.123 26.328 59.139 26.024 59.171 25.736C59.235 25.416 59.267 25.128 59.267 24.872C59.267 24.616 59.251 24.36 59.219 24.104C59.187 23.816 59.155 23.544 59.123 23.288C59.091 22.744 59.059 22.184 59.027 21.608C58.995 21.032 58.947 20.456 58.883 19.88C58.883 19.784 58.867 19.704 58.835 19.64C58.835 19.544 58.835 19.448 58.835 19.352C58.835 18.488 59.107 17.96 59.651 17.768C60.195 17.576 60.803 17.416 61.475 17.288C61.827 16.488 62.195 15.688 62.579 14.888C62.995 14.056 63.443 13.272 63.923 12.536C64.147 12.12 64.531 11.912 65.075 11.912C65.363 11.912 65.507 12.04 65.507 12.296C65.507 12.456 65.459 12.616 65.363 12.776C65.299 12.904 65.219 13.048 65.123 13.208C64.259 14.456 63.443 15.752 62.675 17.096C62.995 17.032 63.283 17 63.539 17C63.827 16.968 64.147 16.92 64.499 16.856C64.787 16.792 65.091 16.744 65.411 16.712C65.731 16.68 66.035 16.664 66.323 16.664C66.387 16.664 66.595 16.68 66.947 16.712C67.299 16.744 67.475 16.824 67.475 16.952C67.475 17.048 67.395 17.112 67.235 17.144C67.107 17.144 67.011 17.16 66.947 17.192C66.147 17.288 65.347 17.4 64.547 17.528C63.779 17.656 62.995 17.816 62.195 18.008C62.003 18.456 61.731 19.048 61.379 19.784C61.059 20.52 60.755 21.256 60.467 21.992C60.211 22.728 60.051 23.336 59.987 23.816V24.104C59.987 25.192 60.051 26.232 60.179 27.224C60.307 28.184 60.675 29.128 61.283 30.056C61.283 30.088 61.283 30.104 61.283 30.104C61.315 30.136 61.331 30.168 61.331 30.2C61.331 30.36 61.267 30.472 61.139 30.536C61.043 30.6 60.931 30.632 60.803 30.632ZM59.699 22.52C59.859 21.816 60.067 21.128 60.323 20.456C60.579 19.752 60.835 19.048 61.091 18.344C60.611 18.408 60.275 18.472 60.083 18.536C59.923 18.568 59.779 18.872 59.651 19.448C59.587 19.544 59.555 19.688 59.555 19.88C59.555 20.328 59.571 20.776 59.603 21.224C59.635 21.64 59.667 22.072 59.699 22.52ZM66.3541 28.856C66.2261 28.888 66.1141 28.92 66.0181 28.952C65.9221 28.952 65.8421 28.952 65.7781 28.952C65.3621 28.952 65.1541 28.744 65.1541 28.328C65.1541 28.072 65.2341 27.752 65.3941 27.368L66.9301 23.96C67.2181 23.32 67.5221 22.536 67.8421 21.608C68.1621 20.68 68.3221 19.816 68.3221 19.016C68.3221 18.888 68.3061 18.744 68.2741 18.584C68.2421 18.424 68.1461 18.344 67.9861 18.344C67.7941 18.344 67.5541 18.456 67.2661 18.68C66.9781 18.904 66.7701 19.016 66.6421 19.016C66.5461 19.016 66.4981 18.984 66.4981 18.92C66.4981 18.728 66.6421 18.552 66.9301 18.392C67.2181 18.2 67.5381 18.04 67.8901 17.912C68.2421 17.784 68.4981 17.72 68.6581 17.72C69.1061 17.72 69.4261 17.864 69.6181 18.152C69.8421 18.44 69.9541 18.792 69.9541 19.208C69.9541 19.656 69.7941 20.264 69.4741 21.032C69.1861 21.768 68.8341 22.568 68.4181 23.432C68.0021 24.264 67.5861 25.048 67.1701 25.784C66.7541 26.52 66.4341 27.096 66.2101 27.512C66.1141 27.704 66.0661 27.848 66.0661 27.944C66.0661 28.136 66.1621 28.232 66.3541 28.232C66.5461 28.232 66.7221 28.168 66.8821 28.04C67.3941 27.688 68.0341 27.112 68.8021 26.312C69.5701 25.48 70.2901 24.6 70.9621 23.672C71.6341 22.712 72.0821 21.896 72.3061 21.224C72.4021 20.904 72.6581 20.744 73.0741 20.744C73.2981 20.744 73.4901 20.792 73.6501 20.888C73.8101 20.984 73.8901 21.128 73.8901 21.32C73.8901 21.384 73.8421 21.528 73.7461 21.752C73.6821 21.944 73.6181 22.088 73.5541 22.184C73.2341 22.984 72.8981 23.768 72.5461 24.536C72.1941 25.304 72.0181 26.104 72.0181 26.936C72.0181 27.256 72.0501 27.464 72.1141 27.56C72.1781 27.624 72.2741 27.656 72.4021 27.656C72.6581 27.656 73.0101 27.432 73.4581 26.984C73.9061 26.536 74.3381 26.072 74.7541 25.592C75.1701 25.08 75.4421 24.728 75.5701 24.536C75.7301 24.312 75.8741 24.2 76.0021 24.2C76.0981 24.2 76.1461 24.232 76.1461 24.296C76.1461 24.424 76.0341 24.616 75.8101 24.872C75.5861 25.128 75.2661 25.544 74.8501 26.12C74.4341 26.696 73.9861 27.24 73.5061 27.752C73.0261 28.232 72.5781 28.472 72.1621 28.472C71.6501 28.472 71.2501 28.312 70.9621 27.992C70.7061 27.64 70.5781 27.224 70.5781 26.744C70.5781 26.328 70.6581 25.88 70.8181 25.4C71.0101 24.888 71.1701 24.472 71.2981 24.152C70.9141 24.536 70.4181 25.08 69.8101 25.784C69.2341 26.456 68.6421 27.096 68.0341 27.704C67.4261 28.312 66.8661 28.696 66.3541 28.856ZM79.8223 30.968C80.3663 30.968 80.8943 30.792 81.4062 30.44C81.9183 30.12 82.3343 29.8 82.6543 29.48C82.7503 29.352 82.8303 29.288 82.8943 29.288C82.9583 29.288 82.9903 29.336 82.9903 29.432C82.9903 29.592 82.9263 29.736 82.7983 29.864C82.3823 30.376 81.8543 30.792 81.2143 31.112C80.6063 31.464 79.9983 31.64 79.3903 31.64C78.8463 31.64 78.3823 31.448 77.9983 31.064C77.6463 30.712 77.4703 30.136 77.4703 29.336C77.4703 28.312 77.7103 27.304 78.1903 26.312C78.7023 25.32 79.3103 24.344 80.0143 23.384C80.7183 22.424 81.3743 21.512 81.9823 20.648C82.2383 20.232 82.3663 19.896 82.3663 19.64C82.3663 19.192 82.0783 18.824 81.5023 18.536C81.2463 18.408 80.9423 18.216 80.5903 17.96C80.2383 17.672 80.0143 17.4 79.9183 17.144C79.5023 18.296 78.9423 19.576 78.2383 20.984C77.5663 22.392 76.6703 23.784 75.5503 25.16C75.4222 25.352 75.2942 25.448 75.1662 25.448C75.1022 25.448 75.0702 25.4 75.0702 25.304C75.0702 25.176 75.1342 25.032 75.2622 24.872C75.6143 24.456 76.0303 23.864 76.5103 23.096C76.9903 22.296 77.4543 21.432 77.9023 20.504C78.3823 19.544 78.7663 18.616 79.0543 17.72C79.3743 16.824 79.5343 16.04 79.5343 15.368C79.5983 15.016 79.7903 14.84 80.1103 14.84C80.3663 14.84 80.4943 14.984 80.4943 15.272C80.4623 15.368 80.4463 15.512 80.4463 15.704C80.4463 15.992 80.5103 16.28 80.6383 16.568C80.7663 16.856 80.9583 17.08 81.2143 17.24C81.4703 17.432 81.8383 17.608 82.3183 17.768C82.8303 17.896 83.2783 18.056 83.6623 18.248C84.0783 18.44 84.2863 18.744 84.2863 19.16C84.2863 19.352 84.1423 19.688 83.8543 20.168C83.5663 20.616 83.2143 21.112 82.7983 21.656C82.4143 22.2 82.0303 22.712 81.6463 23.192C81.2943 23.64 81.0383 23.96 80.8783 24.152C80.2703 24.952 79.6783 25.8 79.1023 26.696C78.5583 27.56 78.2863 28.456 78.2863 29.384C78.2863 29.928 78.4303 30.328 78.7183 30.584C79.0383 30.84 79.4063 30.968 79.8223 30.968ZM87.7138 29.528C87.1058 29.592 86.6098 29.464 86.2258 29.144C85.8738 28.824 85.6978 28.328 85.6978 27.656C85.6978 26.952 85.8578 26.136 86.1777 25.208C86.4978 24.28 86.8818 23.384 87.3298 22.52C87.7778 21.656 88.1778 20.952 88.5298 20.408C88.4978 20.376 88.4338 20.28 88.3378 20.12C88.2738 19.928 88.2418 19.768 88.2418 19.64C88.2418 19.512 88.2898 19.448 88.3858 19.448C88.4818 19.448 88.6578 19.528 88.9138 19.688C89.1378 19.336 89.4098 18.92 89.7298 18.44C90.0818 17.96 90.4498 17.544 90.8338 17.192C91.2498 16.808 91.6818 16.616 92.1298 16.616C92.6098 16.616 92.9138 16.856 93.0418 17.336C93.2018 17.816 93.2818 18.216 93.2818 18.536C93.2818 19.176 93.0418 19.704 92.5618 20.12C92.0818 20.536 91.4738 20.776 90.7378 20.84C90.4498 20.84 90.1458 20.808 89.8258 20.744C89.5378 20.648 89.3618 20.568 89.2978 20.504C89.0738 20.952 88.7538 21.608 88.3378 22.472C87.9538 23.336 87.6018 24.216 87.2818 25.112C86.9618 26.008 86.8018 26.76 86.8018 27.368C86.8018 27.72 86.8978 28.024 87.0898 28.28C87.3138 28.536 87.6338 28.648 88.0498 28.616C88.6898 28.552 89.3778 28.28 90.1138 27.8C90.8818 27.288 91.6338 26.68 92.3698 25.976C93.1058 25.24 93.7138 24.52 94.1938 23.816C94.2578 23.72 94.3218 23.672 94.3858 23.672C94.4498 23.672 94.4978 23.72 94.5298 23.816C94.5618 23.912 94.5618 23.992 94.5298 24.056C94.0818 24.76 93.4578 25.528 92.6578 26.36C91.8898 27.192 91.0578 27.912 90.1618 28.52C89.2978 29.128 88.4818 29.464 87.7138 29.528ZM90.5938 20.264C91.0418 20.2 91.3618 20.008 91.5538 19.688C91.7458 19.368 91.8098 18.984 91.7458 18.536C91.7458 18.408 91.7138 18.28 91.6497 18.152C91.6178 17.992 91.5218 17.912 91.3618 17.912C91.0738 17.944 90.7378 18.248 90.3538 18.824C90.0018 19.368 89.7458 19.768 89.5858 20.024C89.6498 20.056 89.8098 20.104 90.0658 20.168C90.3538 20.232 90.5298 20.264 90.5938 20.264Z" fill="#000034"/>
</svg>
