<svg width="268" height="195" viewBox="0 0 268 195" fill="none" xmlns="http://www.w3.org/2000/svg">
<g clip-path="url(#clip0_701_10461)">
<path d="M75.4714 75.7438L44.0498 48.8311L4.31436 94.5162L35.7359 121.429L75.4714 75.7438Z" fill="url(#paint0_linear_701_10461)"/>
<g opacity="0.2">
<path d="M27.1871 100.873L25.8481 99.6135L34.6685 89.9553L36.0268 91.2277L27.1871 100.873Z" fill="#17BD8D"/>
<path d="M36.2996 99.1383L35.0256 100.515L25.5742 91.7039L26.8289 90.314L36.2996 99.1383Z" fill="#17BD8D"/>
</g>
<path d="M55.7032 72.5939C55.682 72.6313 52.4853 69.9295 48.6037 66.5923C44.7139 63.2257 41.5762 60.5078 41.5974 60.4705C41.6187 60.4331 44.8153 63.1349 48.6969 66.4721C52.5867 69.8387 55.7245 72.5566 55.7032 72.5939Z" fill="#D6D8EA"/>
<path d="M62.1148 83.8859C62.0936 83.9233 56.8161 79.4488 50.3736 73.869C43.9098 68.3266 38.7042 63.7693 38.7255 63.7319C38.7467 63.6945 44.0242 68.169 50.4667 73.7488C56.9387 79.3206 62.1361 83.8486 62.1148 83.8859Z" fill="#D6D8EA"/>
<path d="M59.127 87.3221C59.1058 87.3595 53.8283 82.885 47.3857 77.3052C40.9219 71.7627 35.7164 67.2054 35.7376 67.1681C35.7589 67.1307 41.0363 71.6052 47.4789 77.185C53.9427 82.7274 59.1777 87.2767 59.127 87.3221Z" fill="#D6D8EA"/>
<path d="M56.1598 90.7214C56.1385 90.7588 50.861 86.2843 44.4185 80.7044C37.9547 75.162 32.7491 70.6047 32.7704 70.5673C32.7916 70.5299 38.0691 75.0045 44.5117 80.5843C50.9542 86.1641 56.181 90.684 56.1598 90.7214Z" fill="#D6D8EA"/>
<path d="M53.1715 94.1579C53.1502 94.1953 47.8728 89.7208 41.4302 84.141C34.9664 78.5985 29.7609 74.0412 29.7821 74.0039C29.8033 73.9665 35.0808 78.441 41.5234 84.0208C47.9954 89.5926 53.1927 94.1205 53.1715 94.1579Z" fill="#D6D8EA"/>
<path d="M219.992 74.1269L177.995 102.006L219.341 163.348L261.338 135.469L219.992 74.1269Z" fill="url(#paint1_linear_701_10461)"/>
<g opacity="0.2">
<path d="M239.174 132.599L238.707 135.379L218.84 132.514L219.264 129.734L239.174 132.599Z" fill="#F53D6B"/>
<path d="M229.155 122.656L232 123.035L228.816 142.499L225.972 142.078L229.155 122.656Z" fill="#F53D6B"/>
</g>
<path d="M209.914 96.2085C209.958 96.2527 205.726 99.1269 200.513 102.576C195.3 106.025 191.022 108.811 190.978 108.766C190.933 108.722 195.166 105.848 200.379 102.399C205.637 98.95 209.869 96.1643 209.914 96.2085Z" fill="#D6D8EA"/>
<path d="M225.375 92.3616C225.42 92.4059 218.425 97.1371 209.781 102.885C201.137 108.634 194.053 113.232 194.053 113.188C194.008 113.144 201.004 108.413 209.692 102.664C218.291 96.9603 225.331 92.3174 225.375 92.3616Z" fill="#D6D8EA"/>
<path d="M228.45 96.9603C228.494 97.0045 221.499 101.736 212.855 107.484C204.211 113.232 197.127 117.831 197.127 117.787C197.083 117.743 204.078 113.011 212.766 107.263C221.365 101.559 228.405 96.9161 228.45 96.9603Z" fill="#D6D8EA"/>
<path d="M231.568 101.559C231.612 101.603 224.617 106.334 215.973 112.083C207.33 117.831 200.245 122.43 200.245 122.385C200.201 122.341 207.196 117.61 215.884 111.862C224.483 106.113 231.523 101.515 231.568 101.559Z" fill="#D6D8EA"/>
<path d="M234.643 106.158C234.687 106.202 227.692 110.933 219.049 116.681C210.405 122.43 203.321 127.028 203.321 126.984C203.276 126.94 210.271 122.209 218.959 116.46C227.559 110.712 234.598 106.113 234.643 106.158Z" fill="#D6D8EA"/>
<g opacity="0.5">
<path d="M110.897 54.3319H164.587C164.587 54.3319 159.641 30.8081 137.363 30.8081C117.492 30.8081 110.897 54.3319 110.897 54.3319Z" fill="#4EFDEA"/>
<path d="M138.299 11.3525H137.141V30.8083H138.299V11.3525Z" fill="#4EFDEA"/>
</g>
<path opacity="0.7" d="M257.218 194.47C257.218 194.514 199.608 194.602 128.587 194.602C57.5654 194.602 0 194.558 0 194.47C0 194.425 57.5654 194.337 128.631 194.337C199.652 194.381 257.218 194.425 257.218 194.47Z" fill="#000034"/>
<path d="M14.2576 166.789C15.7724 166.833 17.1982 167.673 18.1784 168.779C19.1586 169.884 19.7824 171.299 20.1834 172.758C20.9409 175.544 20.4953 178.86 19.6488 181.646C16.619 180.585 14.7031 177.357 13.8566 175.633C12.5199 172.935 11.7179 167.275 14.2576 166.789Z" fill="#EBECF3"/>
<path d="M24.0157 185.051C23.0355 183.68 23.0355 181.779 23.7929 180.276C24.5504 178.772 26.0207 177.711 27.6247 177.225C28.3821 177.003 29.2287 176.915 29.897 177.313C30.5208 177.711 30.7435 178.507 30.699 179.214C30.6099 179.922 30.2534 180.585 29.8079 181.16C28.293 183.15 26.5108 184.83 24.0157 185.051Z" fill="#EBECF3"/>
<path d="M24.3718 194.381C24.3718 194.381 24.3272 194.16 24.2381 193.806C24.149 193.408 24.0599 192.878 23.9263 192.214C23.7035 190.888 23.3025 188.986 23.6144 186.864C23.8817 184.786 24.7282 182.973 25.6194 181.912C26.0649 181.381 26.4659 180.983 26.7778 180.762C26.9115 180.629 27.0451 180.541 27.1342 180.497C27.2233 180.452 27.2679 180.408 27.2679 180.408C27.3125 180.452 26.555 180.895 25.7085 182C24.8619 183.061 24.0599 184.83 23.7926 186.908C23.5253 188.986 23.8817 190.844 24.0599 192.214C24.149 192.878 24.2381 193.452 24.3272 193.806C24.3718 194.16 24.3718 194.381 24.3718 194.381Z" fill="#263238"/>
<path d="M15.2382 171.034C15.2382 171.034 15.2827 171.123 15.3718 171.255C15.461 171.432 15.5501 171.653 15.6837 171.919C15.9511 172.493 16.3521 173.378 16.7976 174.439C17.7333 176.561 18.9363 179.48 20.2284 182.796C21.5205 186.068 22.5898 189.075 23.3472 191.242C23.7482 192.347 24.0156 193.231 24.2383 193.851C24.3275 194.16 24.4166 194.381 24.4611 194.558C24.5057 194.735 24.5502 194.823 24.5057 194.823C24.5057 194.823 24.4611 194.735 24.4166 194.602C24.3275 194.425 24.2829 194.204 24.1492 193.895C23.9265 193.276 23.6146 192.391 23.2136 191.33C22.4116 189.163 21.2977 186.201 20.0056 182.885C18.7135 179.612 17.5105 176.65 16.6194 174.527C16.1738 173.466 15.8174 172.626 15.5946 172.007C15.461 171.742 15.3718 171.476 15.3273 171.299C15.2382 171.123 15.1936 171.034 15.2382 171.034Z" fill="#263238"/>
<path d="M20.7184 188.19C18.9361 185.139 15.5499 183.061 12.0301 182.84C11.139 182.796 10.0251 182.928 9.62409 183.724C9.22309 184.52 9.75776 185.493 10.3815 186.156C12.9212 188.898 17.243 189.871 20.7629 188.456" fill="#EBECF3"/>
<path d="M13.4111 185.228C13.4111 185.228 13.6339 185.228 13.9904 185.228C14.1686 185.228 14.3913 185.272 14.6587 185.316C14.926 185.361 15.1933 185.405 15.5052 185.493C15.8171 185.582 16.1736 185.626 16.53 185.759C16.8864 185.847 17.2874 186.024 17.6884 186.201C18.4904 186.555 19.2924 186.997 20.0944 187.616C20.8964 188.235 21.5647 188.898 22.0994 189.561C22.3667 189.915 22.5895 190.225 22.8123 190.578C23.0351 190.888 23.1687 191.197 23.347 191.507C23.5252 191.772 23.6143 192.082 23.7034 192.303C23.7925 192.524 23.8816 192.745 23.9262 192.922C24.0153 193.276 24.1044 193.453 24.0598 193.453C24.0153 193.453 23.7925 192.701 23.2133 191.551C23.0351 191.286 22.9014 190.976 22.6786 190.667C22.5004 190.357 22.2331 190.048 21.9657 189.694C21.4311 189.031 20.7628 188.367 20.0053 187.793C19.2033 187.218 18.4013 186.731 17.6439 186.378C17.2429 186.201 16.8864 186.068 16.53 185.936C16.1736 185.803 15.8171 185.714 15.5052 185.626C14.2131 185.316 13.4111 185.272 13.4111 185.228Z" fill="#263238"/>
<path d="M94.7245 103.69L78.9519 184.078L76.9023 194.602L182.097 194.071C186.82 194.027 191.008 189.871 192.523 183.724L211.192 107.847C212.35 103.16 209.811 98.2959 206.246 98.2959L99.8038 98.4286C97.3978 98.3843 95.3482 100.551 94.7245 103.69Z" fill="url(#paint2_linear_701_10461)"/>
<g opacity="0.5">
<path d="M94.7245 103.69L78.9519 184.078L76.9023 194.602L182.097 194.071C186.82 194.027 191.008 189.871 192.523 183.724L211.192 107.847C212.35 103.16 209.811 98.2959 206.246 98.2959L99.8038 98.4286C97.3978 98.3843 95.3482 100.551 94.7245 103.69Z" fill="white"/>
</g>
<path d="M172.028 178.64L160.889 89.5851C160.444 85.9151 157.503 83.2178 154.028 83.2178L129.611 83.3062C127.785 83.3062 126.092 84.0579 124.799 85.4287L113.215 97.677L45.3128 98.0307C41.1692 98.0307 37.9612 101.966 38.5404 106.344L48.8773 188.677C49.3228 192.303 52.2635 195.044 55.6942 195.044L174.033 194.823C187.221 195.089 188.469 191.242 188.469 191.242C173.365 194.469 172.028 178.64 172.028 178.64Z" fill="url(#paint3_linear_701_10461)"/>
</g>
<defs>
<linearGradient id="paint0_linear_701_10461" x1="59.7606" y1="62.2874" x2="20.3746" y2="108.272" gradientUnits="userSpaceOnUse">
<stop stop-color="#EFF0F5"/>
<stop offset="1" stop-color="#EFF0F5" stop-opacity="0"/>
</linearGradient>
<linearGradient id="paint1_linear_701_10461" x1="198.994" y1="88.0666" x2="239.906" y2="149.696" gradientUnits="userSpaceOnUse">
<stop stop-color="#EFF0F5"/>
<stop offset="1" stop-color="#EFF0F5" stop-opacity="0"/>
</linearGradient>
<linearGradient id="paint2_linear_701_10461" x1="85.8739" y1="194.602" x2="200.822" y2="194.602" gradientUnits="userSpaceOnUse">
<stop stop-color="#4EFDEA"/>
<stop offset="1" stop-color="#5766FF"/>
</linearGradient>
<linearGradient id="paint3_linear_701_10461" x1="48.4724" y1="195.044" x2="176.594" y2="195.044" gradientUnits="userSpaceOnUse">
<stop stop-color="#A7FEF5"/>
<stop offset="1" stop-color="#ABB3FF"/>
</linearGradient>
<clipPath id="clip0_701_10461">
<rect width="268" height="195" fill="white"/>
</clipPath>
</defs>
</svg>
