<svg width="18" height="20" viewBox="0 0 18 20" fill="none" xmlns="http://www.w3.org/2000/svg">
<path d="M13.167 11.6667C13.167 11.8877 13.0792 12.0997 12.9229 12.2559C12.7666 12.4122 12.5547 12.5 12.3337 12.5H5.66699C5.44598 12.5 5.23402 12.4122 5.07774 12.2559C4.92146 12.0997 4.83366 11.8877 4.83366 11.6667C4.83366 11.4457 4.92146 11.2337 5.07774 11.0774C5.23402 10.9211 5.44598 10.8334 5.66699 10.8334H12.3337C12.5547 10.8334 12.7666 10.9211 12.9229 11.0774C13.0792 11.2337 13.167 11.4457 13.167 11.6667ZM9.83366 14.1667H5.66699C5.44598 14.1667 5.23402 14.2545 5.07774 14.4108C4.92146 14.567 4.83366 14.779 4.83366 15C4.83366 15.221 4.92146 15.433 5.07774 15.5893C5.23402 15.7456 5.44598 15.8334 5.66699 15.8334H9.83366C10.0547 15.8334 10.2666 15.7456 10.4229 15.5893C10.5792 15.433 10.667 15.221 10.667 15C10.667 14.779 10.5792 14.567 10.4229 14.4108C10.2666 14.2545 10.0547 14.1667 9.83366 14.1667ZM17.3337 8.73752V15.8334C17.3323 16.938 16.8929 17.9971 16.1118 18.7782C15.3307 19.5593 14.2717 19.9987 13.167 20H4.83366C3.729 19.9987 2.66996 19.5593 1.88884 18.7782C1.10773 17.9971 0.668315 16.938 0.666992 15.8334V4.16669C0.668315 3.06202 1.10773 2.00298 1.88884 1.22187C2.66996 0.440754 3.729 0.00134242 4.83366 1.92072e-05H8.59616C9.36251 -0.00195323 10.1216 0.148009 10.8297 0.441235C11.5377 0.734461 12.1806 1.16513 12.7212 1.70835L15.6245 4.61335C16.168 5.15355 16.599 5.79623 16.8923 6.50416C17.1857 7.2121 17.3357 7.9712 17.3337 8.73752ZM11.5428 2.88669C11.2806 2.63265 10.9861 2.41412 10.667 2.23669V5.83335C10.667 6.05437 10.7548 6.26633 10.9111 6.42261C11.0674 6.57889 11.2793 6.66669 11.5003 6.66669H15.097C14.9195 6.34768 14.7006 6.05347 14.4462 5.79169L11.5428 2.88669ZM15.667 8.73752C15.667 8.60002 15.6403 8.46835 15.6278 8.33335H11.5003C10.8373 8.33335 10.2014 8.06996 9.73256 7.60112C9.26372 7.13228 9.00033 6.49639 9.00033 5.83335V1.70585C8.86532 1.69335 8.73283 1.66669 8.59616 1.66669H4.83366C4.17062 1.66669 3.53473 1.93008 3.06589 2.39892C2.59705 2.86776 2.33366 3.50364 2.33366 4.16669V15.8334C2.33366 16.4964 2.59705 17.1323 3.06589 17.6011C3.53473 18.07 4.17062 18.3334 4.83366 18.3334H13.167C13.83 18.3334 14.4659 18.07 14.9348 17.6011C15.4036 17.1323 15.667 16.4964 15.667 15.8334V8.73752Z" fill="white"/>
</svg>
