<svg xmlns="http://www.w3.org/2000/svg" viewBox="-27 -28.5 30 30" width="12" height="12">
  <path d="M -17.9998 -15.4998 C -17.8682 -15.5006 -17.7377 -15.4753 -17.6159 -15.4256 C -17.4941 -15.3758 -17.3833 -15.3025 -17.2898 -15.2098 L -12.7098 -10.6198 C -12.6169 -10.5261 -12.5063 -10.4517 -12.3844 -10.4009 C -12.2625 -10.3502 -12.1318 -10.324 -11.9998 -10.324 C -11.8678 -10.324 -11.7371 -10.3502 -11.6152 -10.4009 C -11.4934 -10.4517 -11.3828 -10.5261 -11.2898 -10.6198 L -6.7098 -15.2098 C -6.5215 -15.3981 -6.2661 -15.5039 -5.9998 -15.5039 C -5.7335 -15.5039 -5.4781 -15.3981 -5.2898 -15.2098 C -5.1015 -15.0215 -4.9957 -14.7661 -4.9957 -14.4998 C -4.9957 -14.3679 -5.0217 -14.2374 -5.0722 -14.1156 C -5.1226 -13.9937 -5.1966 -13.883 -5.2898 -13.7898 L -9.8798 -9.2098 C -10.4498 -8.6622 -11.2095 -8.3564 -11.9998 -8.3564 C -12.7902 -8.3564 -13.5499 -8.6622 -14.1198 -9.2098 L -18.7098 -13.7898 C -18.8035 -13.8828 -18.8779 -13.9934 -18.9287 -14.1152 C -18.9795 -14.2371 -19.0056 -14.3678 -19.0056 -14.4998 C -19.0056 -14.6318 -18.9795 -14.7625 -18.9287 -14.8844 C -18.8779 -15.0062 -18.8035 -15.1168 -18.7098 -15.2098 C -18.6164 -15.3025 -18.5056 -15.3758 -18.3837 -15.4256 C -18.2619 -15.4753 -18.1314 -15.5006 -17.9998 -15.4998 Z" fill="#979AB8"/>
</svg>