<svg width="16" height="18" viewBox="0 0 16 18" fill="none" xmlns="http://www.w3.org/2000/svg">
<path d="M8.00013 0.00488281C6.51622 0.00505031 5.0657 0.44541 3.83215 1.27024C2.59859 2.09506 1.63743 3.26728 1.07031 4.63855C0.503195 6.00981 0.355601 7.5185 0.64621 8.97368C0.936819 10.4289 1.65257 11.7651 2.70288 12.8134L8.00013 17.9944L13.3034 12.8074C14.352 11.7584 15.0661 10.4222 15.3553 8.96744C15.6445 7.51272 15.4959 6.00491 14.9283 4.63463C14.3607 3.26435 13.3995 2.09313 12.1664 1.26906C10.9332 0.444983 9.48333 0.00505121 8.00013 0.00488281ZM12.2489 11.7409L8.00013 15.8996L3.75738 11.7469C2.91856 10.908 2.34723 9.8393 2.11561 8.67582C1.88399 7.51234 2.00247 6.3063 2.45608 5.21014C2.90969 4.11398 3.67807 3.17688 4.66411 2.51728C5.65015 1.85769 6.80959 1.5052 7.9959 1.50436C9.18221 1.50352 10.3421 1.85437 11.3291 2.51257C12.3161 3.17078 13.0858 4.10678 13.5409 5.20231C13.9961 6.29783 14.1163 7.50369 13.8863 8.6675C13.6563 9.83131 13.0865 10.9008 12.2489 11.7409ZM11.0136 5.56688L9.13863 4.13438C8.81139 3.88554 8.41162 3.7508 8.00051 3.7508C7.5894 3.7508 7.18962 3.88554 6.86238 4.13438L4.98738 5.56688C4.75882 5.74229 4.57352 5.96777 4.44571 6.22598C4.31791 6.4842 4.251 6.76827 4.25013 7.05638V10.4996H11.7501V7.05638C11.7492 6.76835 11.6824 6.48436 11.5547 6.22616C11.4271 5.96797 11.242 5.74245 11.0136 5.56688ZM10.2501 8.99963H8.75013V7.49963H7.25013V8.99963H5.75013V7.05638C5.75013 6.99817 5.76369 6.94075 5.78972 6.88868C5.81576 6.83661 5.85356 6.79131 5.90013 6.75638L7.77513 5.32463C7.84058 5.27452 7.92071 5.24736 8.00313 5.24736C8.08556 5.24736 8.16569 5.27452 8.23113 5.32463L10.1061 6.75713C10.1527 6.79206 10.1905 6.83736 10.2165 6.88943C10.2426 6.9415 10.2561 6.99892 10.2561 7.05713L10.2501 8.99963Z" fill="#84849A"/>
</svg>
