<svg width="19" height="19" viewBox="0 0 19 19" fill="none" xmlns="http://www.w3.org/2000/svg">
<circle opacity="0.5" cx="9.34367" cy="9.27872" r="9.16203" fill="white"/>
<g clip-path="url(#clip0_126_64344)">
<path d="M7.60882 13.4428C7.56315 13.4431 7.51787 13.4343 7.47559 13.4171C7.43331 13.3998 7.39485 13.3743 7.36242 13.3422C7.32989 13.3099 7.30408 13.2715 7.28646 13.2292C7.26884 13.187 7.25977 13.1416 7.25977 13.0958C7.25977 13.05 7.26884 13.0046 7.28646 12.9623C7.30408 12.92 7.32989 12.8816 7.36242 12.8494L10.1978 10.014C10.3928 9.8188 10.5023 9.55418 10.5023 9.27828C10.5023 9.00237 10.3928 8.73775 10.1978 8.54254L7.36242 5.70717C7.29707 5.64182 7.26036 5.55319 7.26036 5.46077C7.26036 5.36835 7.29707 5.27972 7.36242 5.21437C7.42777 5.14902 7.51641 5.1123 7.60882 5.1123C7.70124 5.1123 7.78988 5.14902 7.85523 5.21437L10.6906 8.04973C10.8522 8.21092 10.9804 8.40241 11.0679 8.61322C11.1554 8.82403 11.2004 9.05003 11.2004 9.27828C11.2004 9.50652 11.1554 9.73252 11.0679 9.94333C10.9804 10.1541 10.8522 10.3456 10.6906 10.5068L7.85523 13.3422C7.8228 13.3743 7.78434 13.3998 7.74206 13.4171C7.69977 13.4343 7.6545 13.4431 7.60882 13.4428Z" fill="#4B4E68"/>
</g>
<defs>
<clipPath id="clip0_126_64344">
<rect width="8.32911" height="8.32911" fill="white" transform="translate(5.17969 5.11377)"/>
</clipPath>
</defs>
</svg>
