<svg width="14" height="15" viewBox="0 0 14 15" fill="none" xmlns="http://www.w3.org/2000/svg">
<path fill-rule="evenodd" clip-rule="evenodd" d="M5.68662 4.0752H10.1389C12.5294 4.0752 13.4292 5.1611 13.2902 6.75851C13.0615 9.39233 11.2859 10.8495 8.93215 10.8495H7.74381C7.42087 10.8495 7.20365 11.0413 7.11631 11.561L6.60604 14.5806C6.57271 14.7765 6.45778 14.892 6.28539 14.9054H3.49382C3.23064 14.9054 3.13754 14.7249 3.2065 14.3341L4.91201 4.64754C4.97982 4.25979 5.21542 4.0752 5.68662 4.0752Z" fill="#009EE3"/>
<path fill-rule="evenodd" clip-rule="evenodd" d="M2.90056 0.742188H7.35743C8.61243 0.742188 10.1019 0.778281 11.0971 1.56719C11.7626 2.09416 12.112 2.93257 12.0315 3.83285C11.758 6.88639 9.72262 8.59724 6.99196 8.59724H4.79456C4.41989 8.59724 4.1728 8.81999 4.06707 9.42224L3.45336 12.9233C3.41314 13.1502 3.30395 13.2843 3.10398 13.3008H0.358378C0.0538216 13.3008 -0.0542097 13.0914 0.0250899 12.6387L2.00183 1.40631C2.08113 0.956688 2.35581 0.742188 2.90056 0.742188Z" fill="#113984"/>
<path fill-rule="evenodd" clip-rule="evenodd" d="M4.13184 9.06954L4.90989 4.64857C4.9777 4.26082 5.21445 4.0752 5.68565 4.0752H10.1379C10.8746 4.0752 11.4711 4.17832 11.9377 4.3691C11.4906 7.08748 9.5311 8.59723 6.96593 8.59723H4.76738C4.47777 8.59723 4.2617 8.73026 4.13184 9.06954Z" fill="#172C70"/>
</svg>
