<svg width="44" height="44" viewBox="0 0 44 44" fill="none" xmlns="http://www.w3.org/2000/svg">
<circle cx="22" cy="22" r="21.5" stroke="white"/>
<g clip-path="url(#clip0_0_3756)">
<path d="M26.1667 32C26.2764 32.0006 26.3851 31.9796 26.4866 31.9381C26.5882 31.8966 26.6805 31.8355 26.7584 31.7583C26.8365 31.6808 26.8985 31.5887 26.9408 31.4871C26.9831 31.3856 27.0049 31.2766 27.0049 31.1666C27.0049 31.0566 26.9831 30.9477 26.9408 30.8462C26.8985 30.7446 26.8365 30.6524 26.7584 30.575L19.9501 23.7666C19.4819 23.2979 19.2189 22.6625 19.2189 22C19.2189 21.3375 19.4819 20.7021 19.9501 20.2333L26.7584 13.425C26.9153 13.2681 27.0035 13.0552 27.0035 12.8333C27.0035 12.6114 26.9153 12.3986 26.7584 12.2417C26.6015 12.0847 26.3886 11.9966 26.1667 11.9966C25.9448 11.9966 25.732 12.0847 25.5751 12.2417L18.7667 19.05C18.3787 19.437 18.0708 19.8968 17.8608 20.403C17.6507 20.9092 17.5426 21.4519 17.5426 22C17.5426 22.548 17.6507 23.0907 17.8608 23.5969C18.0708 24.1031 18.3787 24.5629 18.7667 24.95L25.5751 31.7583C25.6529 31.8355 25.7453 31.8966 25.8468 31.9381C25.9483 31.9796 26.057 32.0006 26.1667 32Z" fill="white"/>
</g>
<defs>
<clipPath id="clip0_0_3756">
<rect width="20" height="20" fill="white" transform="matrix(-1 0 0 1 32 12)"/>
</clipPath>
</defs>
</svg>
