<svg width="243" height="243" viewBox="0 0 243 243" fill="none" xmlns="http://www.w3.org/2000/svg">
<g opacity="0.7" clip-path="url(#clip0_313_8150)">
<path d="M121.5 0C119.482 0 117.475 0.0517324 115.481 0.153773L10.7808 80.6798C7.17565 91.9 5.22168 103.86 5.22168 116.279C5.22168 180.498 57.2816 232.558 121.501 232.558C185.719 232.558 237.779 180.498 237.779 116.279C237.779 52.0599 185.719 0 121.5 0V0Z" fill="url(#paint0_linear_313_8150)"/>
<path d="M227.016 164.071L157.682 43.981C160.902 52.4233 162.672 61.5762 162.672 71.1362V218.29C162.672 223.471 161.066 228.283 158.33 232.259L217.971 197.825C229.771 191.013 233.828 175.871 227.016 164.071Z" fill="#D7FFFB"/>
<path d="M216.088 170.38L162.672 77.8599V215.183L211.662 186.899C217.437 183.565 219.422 176.155 216.088 170.38Z" fill="#50FFEC"/>
<path d="M158.612 221.773C157.297 221.773 156.016 221.095 155.303 219.877C154.236 218.052 154.849 215.706 156.675 214.637L209.728 183.593C213.693 181.303 215.049 176.241 212.771 172.295L155.296 73.1867C154.235 71.3571 154.858 69.0135 156.687 67.9523C158.517 66.8906 160.861 67.5142 161.922 69.3438L219.401 168.459C223.795 176.068 221.181 185.825 213.578 190.215L160.543 221.249C159.935 221.604 159.269 221.773 158.612 221.773Z" fill="#99FFF5"/>
<path d="M115.482 0.153809C113.731 0.243035 111.991 0.375451 110.261 0.541564L110.263 0.542988L101.614 1.70104V1.69676C58.7064 9.09213 23.8491 40.0025 10.7808 80.6798V218.29C10.7808 231.916 21.8653 243 35.4904 243H138.897C152.522 243 163.606 231.916 163.606 218.29V71.1359C163.606 38.9906 143.652 11.4201 115.482 0.153809ZM87.1934 59.9926C79.1293 59.9926 72.592 53.4553 72.592 45.3917C72.592 37.3276 79.1293 30.7903 87.1934 30.7903C95.2574 30.7903 101.795 37.3276 101.795 45.3917C101.795 53.4553 95.2574 59.9926 87.1934 59.9926Z" fill="url(#paint1_linear_313_8150)"/>
<path d="M79.5416 40.6904C80.7684 43.885 83.7722 45.9491 87.1937 45.9491H87.1946C89.31 45.9486 91.0243 44.2338 91.0238 42.119C91.0233 40.0041 89.309 38.2898 87.1942 38.2898H87.1937H87.1932C86.824 38.2898 86.7343 38.0568 86.6915 37.9448L75.7176 9.36523C73.3588 10.3766 71.0389 11.4611 68.7632 12.6211L79.5416 40.6904Z" fill="#C8CEFC"/>
<path d="M150.989 71.1359C150.989 35.9593 122.371 7.34082 87.194 7.34082C84.6126 7.34082 82.0682 7.49934 79.5661 7.79882C58.9552 15.7713 41.1839 29.4438 28.1901 46.8886C25.1051 54.368 23.3984 62.5559 23.3984 71.1364V218.29C23.3984 224.958 28.8232 230.383 35.4905 230.383H138.897C145.564 230.383 150.989 224.958 150.989 218.29V71.1359ZM87.1935 59.9926C79.1294 59.9926 72.5922 53.4553 72.5922 45.3917C72.5922 37.3276 79.1294 30.7903 87.1935 30.7903C95.2576 30.7903 101.795 37.3276 101.795 45.3917C101.795 53.4553 95.2576 59.9926 87.1935 59.9926Z" fill="url(#paint2_linear_313_8150)"/>
<path d="M70.407 202.866C67.8066 201.775 66.5831 198.782 67.6747 196.181L96.4645 127.581C97.5556 124.981 100.549 123.757 103.149 124.849C105.749 125.94 106.973 128.933 105.881 131.533L77.0914 200.134C76.0055 202.721 73.0202 203.962 70.407 202.866Z" fill="#E3E7FC"/>
<path d="M66.8717 161.03C57.0416 161.03 49.0444 152.108 49.0444 141.142C49.0444 130.176 57.0416 121.253 66.8717 121.253C76.7018 121.253 84.699 130.176 84.699 141.142C84.699 152.109 76.7013 161.03 66.8717 161.03ZM66.8717 131.466C62.6728 131.466 59.2571 135.807 59.2571 141.142C59.2571 146.477 62.6733 150.818 66.8717 150.818C71.0706 150.818 74.4863 146.477 74.4863 141.142C74.4863 135.807 71.0701 131.466 66.8717 131.466Z" fill="#E3E7FC"/>
<path d="M105.754 207.934C95.9234 207.934 87.9263 199.012 87.9263 188.045C87.9263 177.079 95.9234 168.157 105.754 168.157C115.584 168.157 123.581 177.079 123.581 188.045C123.581 199.012 115.584 207.934 105.754 207.934ZM105.754 178.369C101.555 178.369 98.1389 182.71 98.1389 188.045C98.1389 193.38 101.555 197.721 105.754 197.721C109.952 197.721 113.368 193.38 113.368 188.045C113.369 182.71 109.952 178.369 105.754 178.369Z" fill="#E3E7FC"/>
<path d="M154.819 218.291V71.1361C154.819 35.5612 127.205 6.31487 92.2871 3.70215C80.278 6.80942 69.0217 11.7862 58.8485 18.3054C67.2941 13.7558 76.9472 11.1706 87.194 11.1706C120.259 11.1706 147.159 38.071 147.159 71.1361V218.291C147.159 222.846 143.453 226.553 138.897 226.553H35.4901C30.9338 226.553 27.2276 222.846 27.2276 218.291V71.1361C27.2276 55.0819 33.5703 40.4815 43.8802 29.7074C34.7995 37.8546 27.0074 47.407 20.8484 58.0264C20.0112 62.2694 19.5684 66.652 19.5684 71.1365V218.291C19.5684 227.07 26.7108 234.213 35.4901 234.213H138.897C147.676 234.212 154.819 227.07 154.819 218.291Z" fill="#DDE0FF"/>
<path d="M101.614 1.70053L87.697 37.945C87.6538 38.057 87.5646 38.2901 87.1944 38.2901C85.079 38.2901 83.3647 40.0048 83.3647 42.1197C83.3647 44.2345 85.0795 45.9493 87.1944 45.9493C90.6163 45.9493 93.6206 43.8852 94.847 40.6906L110.263 0.54248C107.347 0.822025 104.463 1.20978 101.614 1.70053Z" fill="#5D67D3"/>
<g clip-path="url(#clip1_313_8150)">
<path d="M89.4138 86.9999L99.7068 76.7069C99.8889 76.5183 99.9897 76.2657 99.9875 76.0035C99.9852 75.7413 99.88 75.4905 99.6946 75.3051C99.5092 75.1197 99.2584 75.0145 98.9962 75.0122C98.734 75.01 98.4814 75.1108 98.2928 75.2929L87.9998 85.5859L77.7068 75.2929C77.5182 75.1108 77.2656 75.01 77.0034 75.0122C76.7412 75.0145 76.4904 75.1197 76.305 75.3051C76.1196 75.4905 76.0144 75.7413 76.0121 76.0035C76.0098 76.2657 76.1106 76.5183 76.2928 76.7069L86.5858 86.9999L76.2928 97.2929C76.1053 97.4804 76 97.7348 76 97.9999C76 98.2651 76.1053 98.5194 76.2928 98.7069C76.4803 98.8944 76.7346 98.9997 76.9998 98.9997C77.265 98.9997 77.5193 98.8944 77.7068 98.7069L87.9998 88.4139L98.2928 98.7069C98.4803 98.8944 98.7346 98.9997 98.9998 98.9997C99.2649 98.9997 99.5193 98.8944 99.7068 98.7069C99.8943 98.5194 99.9996 98.2651 99.9996 97.9999C99.9996 97.7348 99.8943 97.4804 99.7068 97.2929L89.4138 86.9999Z" fill="#D6DAFB"/>
</g>
</g>
<defs>
<linearGradient id="paint0_linear_313_8150" x1="121.5" y1="0" x2="121.5" y2="232.558" gradientUnits="userSpaceOnUse">
<stop stop-color="#EFF0F5"/>
<stop offset="1" stop-color="#EFF0F5" stop-opacity="0"/>
</linearGradient>
<linearGradient id="paint1_linear_313_8150" x1="20.9691" y1="243" x2="151.508" y2="243" gradientUnits="userSpaceOnUse">
<stop stop-color="#4EFDEA"/>
<stop offset="1" stop-color="#5766FF"/>
</linearGradient>
<linearGradient id="paint2_linear_313_8150" x1="31.9045" y1="230.382" x2="140.888" y2="230.382" gradientUnits="userSpaceOnUse">
<stop stop-color="#4EFDEA"/>
<stop offset="1" stop-color="#5766FF"/>
</linearGradient>
<clipPath id="clip0_313_8150">
<rect width="243" height="243" fill="white"/>
</clipPath>
<clipPath id="clip1_313_8150">
<rect width="24" height="24" fill="white" transform="translate(76 75)"/>
</clipPath>
</defs>
</svg>
