<svg width="288" height="267" viewBox="0 0 288 267" fill="none" xmlns="http://www.w3.org/2000/svg">
<path d="M287.408 140.083C284.18 213.575 217.246 270.338 137.923 266.847C58.5996 263.356 -3.10749 200.963 0.121133 127.471C3.34976 53.9798 70.2832 -2.7835 149.607 0.707454C228.93 4.19841 290.637 66.5916 287.408 140.083Z" fill="url(#paint0_linear_310_6760)"/>
<path opacity="0.3" d="M180.499 134.433C180.458 157.921 178.844 181.47 174.707 204.636C173.658 210.427 172.447 216.178 170.994 221.889C169.541 227.599 167.867 233.249 165.808 238.758C163.73 244.267 161.329 249.695 158.08 254.659C156.445 257.121 154.569 259.482 152.268 261.419C151.118 262.388 149.867 263.235 148.475 263.861C147.082 264.486 145.569 264.87 144.035 264.91C142.502 264.95 140.968 264.648 139.555 264.083C138.143 263.518 136.851 262.71 135.661 261.762C133.3 259.885 131.403 257.545 129.728 255.103C126.419 250.179 123.977 244.751 121.879 239.242C119.8 233.734 118.105 228.083 116.632 222.373C115.179 216.682 113.948 210.911 112.879 205.14C110.76 193.578 109.327 181.894 108.359 170.17C107.39 158.446 106.906 146.702 106.845 134.958C106.825 129.086 106.987 123.214 107.188 117.342C107.41 111.469 107.733 105.597 108.157 99.7455C109.025 88.0216 110.316 76.338 112.253 64.7351C113.222 58.9437 114.352 53.1726 115.704 47.4418C117.056 41.7311 118.65 36.0407 120.607 30.4915C121.596 27.727 122.666 24.9826 123.897 22.2988C125.128 19.615 126.5 16.9918 128.114 14.5299C129.728 12.0681 131.585 9.70718 133.905 7.83054C135.056 6.90231 136.347 6.07497 137.739 5.53014C139.132 4.96513 140.645 4.68262 142.138 4.74316C143.652 4.78352 145.125 5.16692 146.497 5.77228C147.869 6.37765 149.12 7.20499 150.291 8.13322C152.611 10.0099 154.508 12.3103 156.223 14.7115C159.593 19.5747 162.136 24.9221 164.355 30.3704C166.535 35.8389 168.351 41.4486 169.925 47.1189C171.499 52.7892 172.81 58.52 173.961 64.2912C178.582 87.396 180.418 110.925 180.499 134.433ZM178.743 134.433C178.763 122.729 178.319 111.026 177.351 99.3419C176.382 87.6785 174.929 76.0353 172.77 64.5333C171.68 58.7823 170.429 53.0717 168.936 47.4014C167.443 41.7513 165.707 36.1617 163.589 30.7134C161.47 25.2853 158.988 19.9379 155.719 15.1151C154.064 12.7138 152.208 10.4538 149.988 8.59733C148.878 7.6691 147.667 6.86195 146.356 6.27676C145.044 5.69157 143.632 5.30817 142.219 5.26781C140.786 5.22745 139.354 5.50996 138.042 6.05479C136.71 6.59962 135.5 7.3866 134.39 8.29465C132.17 10.1511 130.374 12.4717 128.8 14.9133C127.246 17.3752 125.915 19.9782 124.724 22.6419C123.533 25.3055 122.504 28.0296 121.556 30.7941C119.659 36.3232 118.166 41.9935 116.854 47.6839C115.563 53.3945 114.513 59.1455 113.605 64.9369C111.809 76.4994 110.639 88.1628 109.913 99.8464C109.166 111.53 108.904 123.254 108.924 134.958C108.884 146.662 109.287 158.365 110.155 170.049C111.022 181.712 112.374 193.356 114.392 204.898C115.401 210.669 116.572 216.4 117.984 222.07C119.397 227.74 121.031 233.37 123.049 238.839C125.067 244.307 127.448 249.675 130.657 254.518C132.271 256.919 134.107 259.199 136.327 260.995C137.437 261.883 138.647 262.67 139.959 263.195C141.271 263.719 142.663 264.022 144.055 263.982C145.448 263.941 146.84 263.578 148.111 262.993C149.403 262.408 150.573 261.58 151.663 260.652C153.842 258.776 155.638 256.475 157.212 254.054C160.36 249.17 162.701 243.783 164.698 238.314C166.696 232.826 168.31 227.196 169.703 221.525C171.095 215.855 172.266 210.104 173.254 204.353C175.252 192.831 176.584 181.188 177.452 169.504C178.339 157.841 178.763 146.137 178.743 134.433Z" fill="white"/>
<path opacity="0.3" d="M239.764 134.433C239.683 149.567 237.746 164.701 233.69 179.291C229.574 193.84 223.358 207.844 214.924 220.415C210.706 226.691 205.924 232.603 200.597 237.971C195.269 243.339 189.357 248.141 182.96 252.177C176.543 256.193 169.622 259.401 162.378 261.58C155.133 263.76 147.566 264.91 139.999 264.91C132.432 264.91 124.865 263.78 117.621 261.601C110.377 259.421 103.435 256.213 97.0182 252.197C90.6013 248.161 84.6888 243.359 79.3414 238.011C73.994 232.644 69.2116 226.752 64.974 220.456C56.5191 207.884 50.304 193.88 46.1673 179.311C44.1292 172.006 42.6158 164.58 41.6068 157.074C40.6181 149.567 40.1136 142 40.0732 134.433C40.1136 126.866 40.6181 119.299 41.627 111.792C42.636 104.286 44.1494 96.8599 46.2076 89.5551C50.3645 75.0061 56.5998 61.0019 65.0547 48.4305C69.2923 42.1548 74.0747 36.2626 79.4221 30.895C84.7696 25.5476 90.682 20.745 97.0787 16.7294C103.496 12.734 110.417 9.54571 117.661 7.36639C124.905 5.18706 132.452 4.03687 140.019 4.03687C147.587 4.05704 155.133 5.18706 162.358 7.38656C169.602 9.56589 176.523 12.7542 182.92 16.7698C189.317 20.7854 195.229 25.588 200.556 30.9555C205.904 36.303 210.666 42.2154 214.883 48.491C223.318 61.0423 229.553 75.0465 233.67 89.5955C237.706 104.165 239.663 119.299 239.764 134.433ZM237.766 134.433C237.746 119.48 235.89 104.508 231.934 90.0596C227.959 75.6518 221.986 61.7284 213.773 49.2175C209.657 42.962 204.996 37.0698 199.769 31.7223C194.543 26.3749 188.752 21.532 182.436 17.5164C176.099 13.521 169.279 10.2923 162.115 8.11301C154.952 5.93368 147.486 4.78348 139.979 4.7633C132.493 4.80366 125.006 5.95386 117.863 8.13319C110.699 10.3125 103.879 13.5411 97.563 17.5366C91.247 21.5723 85.4758 26.4153 80.2495 31.7627C75.0231 37.1303 70.3618 43.0225 66.2655 49.2578C58.0527 61.7687 52.0999 75.6922 48.1448 90.1C46.1875 97.3038 44.7548 104.669 43.7862 112.075C42.8176 119.48 42.3333 126.967 42.3333 134.433C42.3535 141.899 42.8378 149.386 43.8063 156.791C44.7749 164.197 46.2076 171.562 48.1852 178.766C52.1402 193.174 58.1132 207.077 66.326 219.568C70.4223 225.823 75.0837 231.695 80.31 237.063C85.5364 242.41 91.3075 247.253 97.6033 251.249C103.919 255.244 110.74 258.453 117.903 260.632C125.047 262.811 132.513 263.982 139.999 264.022C147.486 263.982 154.952 262.831 162.095 260.652C169.239 258.473 176.079 255.285 182.395 251.289C188.711 247.274 194.482 242.451 199.729 237.103C204.955 231.756 209.637 225.864 213.733 219.628C221.966 207.117 227.959 193.214 231.934 178.806C235.869 164.358 237.726 149.386 237.766 134.433Z" fill="white"/>
<path opacity="0.3" d="M23.5273 82.7953L53.493 82.5532L83.4587 82.4119L143.39 82.311L203.322 82.4321L233.287 82.5734L263.253 82.8357C263.293 82.8357 263.334 82.876 263.334 82.9164C263.334 82.9568 263.293 82.9971 263.253 82.9971L233.287 83.2594L203.322 83.4007L143.39 83.5218L83.4587 83.4209L53.493 83.2998L23.5273 83.0577C23.4466 83.0577 23.4062 82.9971 23.4062 82.9164C23.4062 82.8559 23.4668 82.7953 23.5273 82.7953Z" fill="white"/>
<path opacity="0.3" d="M58.2968 32.6103C65.3797 32.4892 72.4826 32.4488 79.5654 32.3681L100.834 32.2269C107.917 32.1663 115.02 32.1663 122.103 32.1663L143.371 32.126L185.929 32.2471L207.197 32.3883C214.28 32.469 221.383 32.5296 228.466 32.6506C228.506 32.6506 228.546 32.691 228.546 32.7313C228.546 32.7717 228.506 32.8121 228.466 32.8121C221.383 32.9331 214.28 32.9937 207.197 33.0744L185.929 33.2156L143.371 33.3367L122.103 33.2964C115.02 33.2762 107.917 33.2762 100.834 33.2358L79.5654 33.0946C72.4826 33.0138 65.3797 32.9735 58.2968 32.8524C58.2161 32.8524 58.1758 32.7919 58.1758 32.7112C58.1758 32.6506 58.2161 32.6103 58.2968 32.6103Z" fill="white"/>
<path opacity="0.3" d="M13.1152 132.98L45.684 132.738L78.2528 132.597L143.39 132.496L208.528 132.617L241.097 132.758L273.665 133.02C273.706 133.02 273.746 133.061 273.746 133.101C273.746 133.142 273.706 133.182 273.665 133.182L241.097 133.444L208.528 133.586L143.39 133.707L78.2528 133.606L45.684 133.464L13.1152 133.222C13.0345 133.222 12.9941 133.162 12.9941 133.081C12.9941 133.041 13.0345 132.98 13.1152 132.98Z" fill="white"/>
<path opacity="0.3" d="M23.5273 183.185L53.493 182.943L83.4587 182.802L143.39 182.701L203.322 182.822L233.287 182.964L263.253 183.226C263.293 183.226 263.334 183.266 263.334 183.307C263.334 183.347 263.293 183.387 263.253 183.387L233.287 183.65L203.322 183.791L143.39 183.912L83.4587 183.811L53.493 183.67L23.5273 183.428C23.4466 183.428 23.4062 183.367 23.4062 183.286C23.4062 183.246 23.4668 183.185 23.5273 183.185Z" fill="white"/>
<path d="M232.783 233.956H62.5735C62.3112 233.956 62.1094 233.754 62.1094 233.491C62.1094 233.229 62.3112 233.027 62.5735 233.027H232.783C233.045 233.027 233.247 233.229 233.247 233.491C233.247 233.754 233.045 233.956 232.783 233.956Z" fill="white"/>
<g opacity="0.6">
<path d="M129.558 24.1136L121.595 21.5088C121.428 21.453 121.26 21.4716 121.093 21.546L112.534 25.5648C112.311 25.6764 112.162 25.8997 112.144 26.1602C112.144 26.4206 112.274 26.6439 112.497 26.7741L119.065 30.3092L129.558 24.1136Z" fill="url(#paint1_linear_310_6760)"/>
<path d="M71.5428 46.6077C71.5428 46.6077 151.77 11.2572 155.305 11.499C158.84 11.7595 165.52 13.8061 167.25 13.3968C168.98 12.9875 175.269 12.5782 174.748 17.2668C174.227 21.9554 107.861 52.0033 99.0977 51.1661C90.3345 50.3288 68.5474 50.0498 68.5474 50.0498C68.5474 50.0498 65.9426 47.5752 71.5428 46.6077Z" fill="url(#paint2_linear_310_6760)"/>
<path d="M94.8567 36.691L81.163 32.8954C80.3072 32.6536 79.5258 32.1884 78.9304 31.5372L71.9161 23.9089C71.3579 23.295 70.4648 23.1275 69.7392 23.481C67.3577 24.616 62.4645 27.0347 62.5761 27.6301C62.7249 28.4115 69.9811 47.2775 69.9811 47.2775L94.8567 36.691Z" fill="url(#paint3_linear_310_6760)"/>
<path d="M73.0157 49.2124L72.9971 53.5661C72.9971 54.2918 73.332 54.9616 73.9087 55.4267C74.4855 55.8732 75.2297 56.0221 75.9368 55.8546L80.1974 54.8313C80.8672 54.6639 81.444 54.2545 81.7789 53.6406L87.3047 43.1284L73.0157 49.2124Z" fill="url(#paint4_linear_310_6760)"/>
<path d="M120.271 52.3195C120.271 52.3195 123.62 54.8685 127.825 53.8638C132.03 52.8591 136.942 50.459 137.556 48.7473C138.17 47.0355 137.63 35.5373 129.462 39.1468C121.276 42.7749 112.494 50.1241 120.271 52.3195Z" fill="url(#paint5_linear_310_6760)"/>
<path d="M112.773 42.1052L131.862 33.8071L120.271 59.334C120.104 59.6875 119.806 59.9665 119.434 60.0968L107.731 63.9481C107.229 64.1156 106.671 63.9853 106.298 63.5946C105.926 63.2225 105.796 62.6643 105.964 62.1434L112.773 42.1052Z" fill="url(#paint6_linear_310_6760)"/>
<path d="M136.515 49.3056C136.57 49.3056 136.626 49.287 136.664 49.2684C136.924 49.1753 137.129 48.8218 137.259 48.2637C137.705 46.4217 137.389 42.775 135.305 40.4493C134.691 39.7609 133.78 39.4446 132.868 39.5935C132.124 39.7237 131.231 40.1703 131.249 41.5657C131.287 43.7611 134.431 48.0776 135.863 49.0451C136.143 49.2312 136.347 49.3056 136.515 49.3056ZM133.259 39.947C133.929 39.9284 134.598 40.2075 135.045 40.7098C137.017 42.9053 137.315 46.4589 136.905 48.1706C136.794 48.673 136.626 48.8777 136.533 48.9149C136.515 48.9149 136.403 48.9521 136.087 48.7288C134.598 47.7241 131.659 43.482 131.64 41.5471C131.621 40.6168 132.049 40.0958 132.942 39.947C133.054 39.9656 133.166 39.947 133.259 39.947Z" fill="#91B3FA"/>
<path d="M64.1553 32.1325L66.2205 31.6301L71.3184 44.3935L69.2532 45.4168L64.1553 32.1325Z" fill="url(#paint7_linear_310_6760)"/>
<path d="M101.981 39.9099C101.813 39.2215 102.241 38.5517 102.93 38.3843L103.004 38.3657C103.692 38.1982 104.362 38.6261 104.53 39.3145L104.716 40.1146C104.883 40.803 104.455 41.4728 103.767 41.6402L103.692 41.6588C103.004 41.8263 102.334 41.3984 102.167 40.71L101.981 39.9099Z" fill="#3A4289"/>
<path d="M106.635 38.4214C106.467 37.733 106.895 37.0632 107.584 36.8957L107.658 36.8771C108.347 36.7097 109.016 37.1376 109.184 37.826L109.37 38.6261C109.537 39.3145 109.109 39.9843 108.421 40.1517L108.347 40.1703C107.658 40.3378 106.988 39.9098 106.821 39.2214L106.635 38.4214Z" fill="#3A4289"/>
<path d="M111.098 36.2073C110.93 35.5189 111.358 34.8491 112.047 34.6816L112.121 34.663C112.81 34.4956 113.479 34.9235 113.647 35.6119L113.833 36.4119C114 37.1003 113.572 37.7702 112.884 37.9376L112.81 37.9562C112.121 38.1237 111.451 37.6957 111.284 37.0073L111.098 36.2073Z" fill="#3A4289"/>
<path d="M115.281 34.4399C115.114 33.7515 115.542 33.0817 116.23 32.9143L116.305 32.8957C116.993 32.7282 117.663 33.1562 117.83 33.8446L118.016 34.6446C118.184 35.333 117.756 36.0028 117.068 36.1703L116.993 36.1889C116.305 36.3563 115.635 35.9284 115.467 35.24L115.281 34.4399Z" fill="#3A4289"/>
<path d="M120.217 32.5049C120.05 31.8165 120.477 31.1467 121.166 30.9792L121.24 30.9606C121.929 30.7932 122.598 31.2211 122.766 31.9095L122.952 32.7096C123.119 33.398 122.692 34.0678 122.003 34.2352L121.929 34.2538C121.24 34.4213 120.57 33.9933 120.403 33.3049L120.217 32.5049Z" fill="#3A4289"/>
<path d="M124.771 30.6443C124.603 29.9559 125.031 29.2861 125.72 29.1186L125.794 29.1C126.482 28.9326 127.152 29.3605 127.32 30.0489L127.506 30.849C127.673 31.5374 127.245 32.2072 126.557 32.3746L126.482 32.3932C125.794 32.5607 125.124 32.1327 124.957 31.4443L124.771 30.6443Z" fill="#3A4289"/>
<path d="M129.242 28.4302C129.075 27.7418 129.503 27.072 130.191 26.9045L130.266 26.8859C130.954 26.7185 131.624 27.1464 131.791 27.8348L131.977 28.6348C132.145 29.3233 131.717 29.9931 131.028 30.1605L130.954 30.1791C130.266 30.3466 129.596 29.9186 129.428 29.2302L129.242 28.4302Z" fill="#3A4289"/>
<path d="M133.519 27.0161C133.351 26.3277 133.779 25.6579 134.468 25.4905L134.542 25.4719C135.23 25.3044 135.9 25.7323 136.068 26.4207L136.254 27.2208C136.421 27.9092 135.993 28.579 135.305 28.7464L135.23 28.765C134.542 28.9325 133.872 28.5046 133.705 27.8162L133.519 27.0161Z" fill="#3A4289"/>
<path d="M138.073 25.1743C137.906 24.4859 138.334 23.8161 139.022 23.6487L139.097 23.6301C139.785 23.4626 140.455 23.8905 140.622 24.5789L140.808 25.379C140.976 26.0674 140.548 26.7372 139.86 26.9046L139.785 26.9232C139.097 27.0907 138.427 26.6628 138.259 25.9744L138.073 25.1743Z" fill="#3A4289"/>
<path d="M142.543 22.9602C142.376 22.2718 142.804 21.602 143.492 21.4346L143.566 21.416C144.255 21.2485 144.925 21.6764 145.092 22.3648L145.278 23.1649C145.446 23.8533 145.018 24.5231 144.329 24.6905L144.255 24.7091C143.566 24.8766 142.897 24.4487 142.729 23.7603L142.543 22.9602Z" fill="#3A4289"/>
<path d="M146.821 21.5462C146.654 20.8577 147.082 20.1879 147.77 20.0205L147.845 20.0019C148.533 19.8344 149.203 20.2624 149.37 20.9508L149.556 21.7508C149.724 22.4392 149.296 23.109 148.608 23.2765L148.533 23.2951C147.845 23.4625 147.175 23.0346 147.008 22.3462L146.821 21.5462Z" fill="#3A4289"/>
<path d="M161.8 12.7085L154.06 16.9878C153.483 17.3041 153.204 17.9925 153.427 18.6251C153.669 19.3693 154.004 20.2065 154.153 20.0949C154.432 19.8902 166.637 13.4899 166.637 13.4899L161.8 12.7085Z" fill="#3A4289"/>
</g>
<path opacity="0.5" d="M111.468 200.116C111.205 200.116 110.983 199.934 110.923 199.672C110.862 199.369 111.064 199.087 111.367 199.046C111.629 199.006 111.891 198.945 112.154 198.905C112.456 198.845 112.739 199.026 112.799 199.329C112.86 199.631 112.678 199.914 112.376 199.975C112.113 200.035 111.851 200.075 111.569 200.136C111.528 200.116 111.508 200.116 111.468 200.116ZM114.777 199.349C114.535 199.349 114.313 199.188 114.252 198.945C114.172 198.663 114.333 198.36 114.636 198.28C114.898 198.199 115.14 198.138 115.403 198.058C115.685 197.977 115.988 198.118 116.089 198.421C116.169 198.703 116.028 199.006 115.725 199.107C115.463 199.188 115.201 199.268 114.938 199.349C114.878 199.349 114.817 199.349 114.777 199.349ZM117.985 198.259C117.764 198.259 117.562 198.138 117.481 197.916C117.36 197.634 117.501 197.311 117.784 197.21C118.026 197.109 118.268 197.008 118.51 196.907C118.793 196.786 119.116 196.907 119.237 197.19C119.358 197.472 119.237 197.795 118.954 197.916C118.712 198.017 118.45 198.138 118.207 198.239C118.107 198.239 118.046 198.259 117.985 198.259ZM121.032 196.766C120.851 196.766 120.649 196.665 120.548 196.484C120.407 196.221 120.488 195.898 120.75 195.737C120.972 195.616 121.214 195.475 121.436 195.333C121.698 195.172 122.021 195.253 122.183 195.515C122.344 195.777 122.263 196.1 122.001 196.262C121.759 196.403 121.537 196.544 121.295 196.685C121.214 196.746 121.113 196.766 121.032 196.766ZM123.858 194.91C123.696 194.91 123.535 194.829 123.434 194.688C123.252 194.446 123.293 194.102 123.535 193.921C123.736 193.759 123.958 193.598 124.16 193.437C124.402 193.255 124.745 193.275 124.927 193.517C125.109 193.759 125.088 194.102 124.846 194.284C124.645 194.466 124.423 194.627 124.201 194.789C124.08 194.869 123.958 194.91 123.858 194.91ZM126.38 192.65C126.239 192.65 126.097 192.589 125.997 192.488C125.775 192.286 125.775 191.943 125.976 191.721C126.158 191.54 126.34 191.338 126.521 191.156C126.723 190.934 127.066 190.914 127.288 191.116C127.51 191.318 127.53 191.661 127.328 191.883C127.147 192.085 126.965 192.286 126.763 192.488C126.662 192.609 126.521 192.65 126.38 192.65ZM128.559 190.067C128.458 190.067 128.337 190.026 128.236 189.966C127.994 189.784 127.934 189.441 128.115 189.199C128.277 188.997 128.418 188.775 128.559 188.553C128.721 188.311 129.064 188.23 129.306 188.412C129.548 188.573 129.629 188.916 129.447 189.159C129.286 189.381 129.144 189.623 128.983 189.825C128.902 189.986 128.721 190.067 128.559 190.067ZM130.355 187.181C130.274 187.181 130.174 187.161 130.093 187.121C129.83 186.979 129.73 186.656 129.871 186.394C129.992 186.152 130.113 185.93 130.234 185.688C130.375 185.426 130.698 185.304 130.961 185.446C131.223 185.587 131.344 185.91 131.203 186.172C131.082 186.414 130.961 186.656 130.819 186.899C130.739 187.08 130.537 187.181 130.355 187.181ZM131.727 184.094C131.667 184.094 131.606 184.074 131.526 184.053C131.243 183.952 131.102 183.63 131.203 183.347C131.304 183.105 131.384 182.843 131.465 182.6C131.566 182.318 131.869 182.157 132.151 182.257C132.434 182.358 132.595 182.661 132.494 182.944C132.413 183.206 132.313 183.468 132.212 183.71C132.171 183.973 131.949 184.094 131.727 184.094ZM132.736 180.865C132.696 180.865 132.656 180.865 132.595 180.845C132.313 180.764 132.131 180.482 132.191 180.179C132.252 179.917 132.313 179.675 132.373 179.412C132.434 179.11 132.736 178.928 133.019 179.009C133.321 179.069 133.503 179.372 133.422 179.654C133.362 179.917 133.301 180.179 133.241 180.462C133.221 180.683 132.999 180.865 132.736 180.865ZM133.402 177.536C133.382 177.536 133.342 177.536 133.321 177.536C133.019 177.495 132.817 177.213 132.857 176.91C132.898 176.648 132.938 176.385 132.958 176.123C132.999 175.82 133.261 175.619 133.564 175.639C133.866 175.679 134.068 175.941 134.048 176.244C134.008 176.506 133.987 176.789 133.947 177.051C133.907 177.334 133.664 177.536 133.402 177.536ZM133.725 174.166H133.705C133.402 174.146 133.18 173.903 133.18 173.601C133.2 173.338 133.2 173.076 133.221 172.814C133.221 172.511 133.483 172.269 133.786 172.289C134.088 172.289 134.33 172.551 134.31 172.854C134.31 173.137 134.29 173.399 134.27 173.681C134.25 173.924 134.008 174.166 133.725 174.166ZM133.765 170.755C133.463 170.755 133.221 170.513 133.221 170.231C133.221 169.968 133.2 169.706 133.18 169.424C133.16 169.121 133.402 168.859 133.705 168.859C134.008 168.838 134.27 169.081 134.27 169.383C134.29 169.666 134.29 169.928 134.31 170.211C134.31 170.513 134.088 170.755 133.765 170.755C133.786 170.755 133.765 170.755 133.765 170.755ZM133.543 167.386C133.261 167.386 133.039 167.184 132.999 166.901C132.978 166.639 132.938 166.377 132.918 166.114C132.878 165.812 133.099 165.549 133.402 165.509C133.705 165.469 133.967 165.691 134.008 165.993C134.048 166.256 134.068 166.538 134.108 166.8C134.149 167.103 133.927 167.365 133.624 167.406C133.584 167.386 133.564 167.386 133.543 167.386ZM133.079 164.016C132.817 164.016 132.595 163.834 132.534 163.572C132.494 163.309 132.434 163.047 132.393 162.785C132.333 162.482 132.534 162.2 132.817 162.139C133.12 162.079 133.402 162.28 133.463 162.563C133.523 162.825 133.564 163.108 133.604 163.37C133.664 163.673 133.463 163.955 133.16 163.996C133.14 164.016 133.099 164.016 133.079 164.016ZM132.373 160.686C132.131 160.686 131.909 160.525 131.848 160.262C131.788 160 131.727 159.738 131.647 159.496C131.566 159.213 131.747 158.91 132.03 158.83C132.312 158.749 132.615 158.931 132.696 159.213C132.756 159.475 132.837 159.738 132.898 160C132.978 160.283 132.797 160.585 132.494 160.666C132.454 160.686 132.413 160.686 132.373 160.686ZM131.465 157.417C131.223 157.417 131.021 157.276 130.94 157.034C130.86 156.771 130.779 156.529 130.698 156.267C130.597 155.984 130.759 155.682 131.041 155.581C131.324 155.48 131.626 155.641 131.727 155.924C131.808 156.186 131.889 156.449 131.969 156.691C132.05 156.973 131.889 157.276 131.606 157.377C131.586 157.417 131.526 157.417 131.465 157.417ZM130.375 154.209C130.153 154.209 129.952 154.067 129.871 153.866C129.77 153.624 129.689 153.361 129.588 153.119C129.467 152.837 129.609 152.514 129.891 152.413C130.174 152.292 130.496 152.433 130.597 152.715C130.698 152.958 130.799 153.22 130.9 153.482C131.001 153.765 130.86 154.088 130.577 154.189C130.496 154.209 130.436 154.209 130.375 154.209ZM129.064 151.081C128.862 151.081 128.66 150.96 128.559 150.758C128.458 150.516 128.337 150.274 128.216 150.032C128.095 149.769 128.196 149.426 128.479 149.305C128.741 149.184 129.084 149.285 129.205 149.568C129.326 149.81 129.427 150.052 129.548 150.314C129.669 150.597 129.548 150.92 129.286 151.041C129.205 151.061 129.144 151.081 129.064 151.081ZM127.55 148.034C127.348 148.034 127.167 147.933 127.066 147.751C126.945 147.509 126.804 147.287 126.683 147.045C126.541 146.783 126.622 146.46 126.884 146.299C127.147 146.157 127.47 146.238 127.631 146.5C127.772 146.743 127.893 146.985 128.014 147.207C128.156 147.469 128.055 147.792 127.792 147.953C127.732 148.014 127.631 148.034 127.55 148.034ZM125.835 145.108C125.653 145.108 125.472 145.027 125.371 144.846C125.23 144.624 125.088 144.402 124.947 144.18C124.786 143.938 124.846 143.595 125.109 143.433C125.351 143.272 125.694 143.332 125.855 143.595C125.997 143.817 126.158 144.059 126.299 144.281C126.461 144.543 126.38 144.866 126.138 145.027C126.037 145.088 125.936 145.108 125.835 145.108ZM123.918 142.323C123.757 142.323 123.595 142.243 123.474 142.101C123.313 141.879 123.151 141.678 122.99 141.476C122.808 141.234 122.849 140.891 123.091 140.709C123.333 140.527 123.676 140.568 123.858 140.81C124.019 141.032 124.18 141.234 124.362 141.456C124.544 141.698 124.483 142.041 124.261 142.222C124.14 142.283 124.039 142.323 123.918 142.323ZM121.779 139.7C121.638 139.7 121.476 139.64 121.376 139.518C121.194 139.317 121.012 139.115 120.831 138.933C120.629 138.711 120.629 138.368 120.851 138.166C121.073 137.965 121.416 137.965 121.618 138.187C121.799 138.388 121.981 138.59 122.163 138.792C122.364 139.014 122.344 139.357 122.122 139.559C122.041 139.64 121.9 139.7 121.779 139.7ZM119.398 137.279C119.277 137.279 119.136 137.238 119.035 137.137C118.833 136.956 118.631 136.794 118.45 136.613C118.228 136.411 118.187 136.068 118.389 135.846C118.591 135.624 118.934 135.584 119.156 135.785C119.358 135.967 119.559 136.149 119.781 136.33C120.003 136.532 120.024 136.875 119.822 137.097C119.68 137.218 119.539 137.279 119.398 137.279ZM116.734 135.16C116.633 135.16 116.512 135.119 116.432 135.059C116.21 134.918 115.988 134.756 115.786 134.615C115.544 134.454 115.463 134.111 115.625 133.868C115.786 133.626 116.129 133.546 116.371 133.707C116.593 133.848 116.835 134.01 117.057 134.171C117.299 134.353 117.36 134.676 117.198 134.938C117.077 135.079 116.916 135.16 116.734 135.16ZM113.829 133.424C113.748 133.424 113.667 133.404 113.586 133.364C113.344 133.243 113.102 133.142 112.88 133.041C112.598 132.92 112.477 132.597 112.598 132.315C112.719 132.032 113.042 131.911 113.324 132.032C113.566 132.133 113.829 132.254 114.071 132.375C114.333 132.516 114.454 132.839 114.313 133.102C114.232 133.324 114.03 133.424 113.829 133.424Z" fill="#979AB8"/>
<path opacity="0.5" d="M194.36 73.4525C194.138 73.4525 193.916 73.3516 193.795 73.1498C193.653 72.9279 193.492 72.7059 193.351 72.4839C193.149 72.1611 193.23 71.7373 193.532 71.5355C193.855 71.3337 194.279 71.4144 194.481 71.7171C194.622 71.9391 194.783 72.1611 194.925 72.4032C195.126 72.7261 195.046 73.1498 194.723 73.3516C194.602 73.4121 194.481 73.4525 194.36 73.4525ZM192.443 70.6476C192.221 70.6476 192.019 70.5467 191.878 70.3651C191.716 70.1432 191.575 69.9212 191.414 69.7194C191.192 69.4167 191.272 68.993 191.575 68.771C191.878 68.549 192.301 68.6297 192.523 68.9324C192.685 69.1544 192.846 69.3764 192.987 69.5983C193.209 69.901 193.129 70.3248 192.826 70.5467C192.725 70.6073 192.584 70.6476 192.443 70.6476ZM190.445 67.9033C190.243 67.9033 190.041 67.8024 189.9 67.641C189.739 67.419 189.577 67.2172 189.416 67.0154C189.194 66.7127 189.234 66.289 189.537 66.067C189.84 65.8451 190.263 65.8854 190.485 66.1881C190.647 66.4101 190.808 66.6119 190.99 66.8338C191.212 67.1365 191.151 67.5603 190.869 67.7822C190.748 67.8629 190.586 67.9033 190.445 67.9033ZM188.346 65.2397C188.145 65.2397 187.963 65.159 187.822 64.9975C187.66 64.7957 187.479 64.594 187.317 64.3922C187.075 64.1097 187.115 63.6657 187.398 63.4236C187.68 63.1814 188.124 63.2218 188.367 63.5043C188.548 63.7061 188.71 63.9281 188.891 64.1298C189.133 64.4124 189.093 64.8563 188.81 65.0984C188.649 65.1993 188.488 65.2397 188.346 65.2397ZM186.106 62.6971C185.925 62.6971 185.743 62.6164 185.602 62.4752C185.42 62.2734 185.239 62.0918 185.057 61.89C184.795 61.6075 184.815 61.1837 185.098 60.9214C185.38 60.6591 185.804 60.6792 186.066 60.9618C186.248 61.1635 186.429 61.3653 186.611 61.5671C186.873 61.8496 186.853 62.2734 186.571 62.5357C186.45 62.6366 186.268 62.6971 186.106 62.6971ZM183.766 60.2555C183.584 60.2555 183.423 60.195 183.281 60.0537C183.1 59.8721 182.898 59.6905 182.716 59.5089C182.434 59.2465 182.434 58.8228 182.696 58.5403C182.959 58.2578 183.382 58.2578 183.665 58.5201C183.867 58.7017 184.048 58.9035 184.25 59.0851C184.512 59.3474 184.533 59.7914 184.25 60.0537C184.109 60.195 183.927 60.2555 183.766 60.2555ZM181.264 57.9551C181.102 57.9551 180.941 57.8946 180.82 57.7937C180.618 57.6121 180.416 57.4506 180.214 57.269C179.932 57.0269 179.891 56.6031 180.134 56.3004C180.376 56.0179 180.799 55.9776 181.102 56.2197C181.304 56.4013 181.526 56.5628 181.728 56.7444C182.01 56.9865 182.051 57.4304 181.788 57.7129C181.647 57.8744 181.465 57.9551 181.264 57.9551ZM178.64 55.7959C178.499 55.7959 178.358 55.7556 178.217 55.6547C178.015 55.4933 177.793 55.3318 177.591 55.1704C177.288 54.9484 177.228 54.5247 177.45 54.222C177.672 53.9193 178.095 53.8588 178.398 54.0807C178.62 54.2422 178.842 54.4036 179.044 54.565C179.347 54.787 179.407 55.2309 179.165 55.5134C179.064 55.7152 178.862 55.7959 178.64 55.7959ZM175.896 53.8386C175.775 53.8386 175.634 53.7982 175.513 53.7175C175.291 53.5763 175.069 53.435 174.847 53.2736C174.524 53.0718 174.443 52.648 174.645 52.3252C174.847 52.0023 175.27 51.9216 175.593 52.1234C175.815 52.2646 176.057 52.4261 176.279 52.5673C176.602 52.7691 176.683 53.1929 176.461 53.5157C176.32 53.7175 176.118 53.8386 175.896 53.8386ZM173.01 52.0427C172.889 52.0427 172.788 52.0225 172.667 51.962C172.445 51.8207 172.203 51.6996 171.981 51.5786C171.658 51.3969 171.537 50.9732 171.719 50.6503C171.901 50.3275 172.324 50.2064 172.647 50.388C172.889 50.5091 173.131 50.6503 173.353 50.7916C173.676 50.9732 173.797 51.3969 173.616 51.7198C173.474 51.9216 173.253 52.0427 173.01 52.0427ZM170.004 50.4687C169.903 50.4687 169.802 50.4485 169.701 50.4082C169.459 50.2871 169.217 50.1862 168.975 50.0651C168.632 49.9037 168.49 49.5001 168.652 49.1571C168.813 48.814 169.217 48.6728 169.56 48.8342C169.802 48.9553 170.044 49.0562 170.306 49.1773C170.649 49.3387 170.791 49.7423 170.629 50.0853C170.508 50.3275 170.266 50.4687 170.004 50.4687ZM166.916 49.0966C166.836 49.0966 166.755 49.0764 166.654 49.0562C166.412 48.9553 166.17 48.8544 165.907 48.7737C165.564 48.6324 165.383 48.249 165.524 47.8858C165.665 47.5428 166.049 47.3612 166.412 47.5024C166.674 47.6033 166.916 47.7042 167.179 47.8051C167.522 47.9464 167.703 48.3499 167.562 48.693C167.441 48.9351 167.179 49.0966 166.916 49.0966ZM163.728 47.9262C163.647 47.9262 163.587 47.906 163.506 47.8858C163.264 47.8051 163.002 47.7244 162.739 47.6437C162.376 47.5226 162.174 47.1392 162.295 46.7962C162.416 46.4329 162.8 46.2311 163.143 46.3522C163.405 46.4329 163.668 46.5137 163.93 46.5944C164.293 46.7154 164.475 47.0988 164.354 47.4621C164.293 47.7446 164.011 47.9262 163.728 47.9262ZM160.479 46.9576C160.419 46.9576 160.358 46.9576 160.298 46.9374C160.035 46.8769 159.793 46.7962 159.531 46.7356C159.168 46.6347 158.946 46.2715 159.026 45.9083C159.127 45.5451 159.49 45.3231 159.854 45.4038C160.116 45.4643 160.378 45.5451 160.641 45.6056C161.004 45.7065 161.226 46.0697 161.125 46.4329C161.064 46.7558 160.782 46.9576 160.479 46.9576ZM157.19 46.1706C157.15 46.1706 157.089 46.1706 157.049 46.1504C156.786 46.0899 156.524 46.0495 156.262 45.989C155.899 45.9083 155.656 45.5652 155.717 45.1818C155.798 44.8186 156.141 44.5765 156.524 44.637C156.786 44.6975 157.049 44.7379 157.331 44.7984C157.695 44.8792 157.937 45.2424 157.856 45.6056C157.775 45.9688 157.493 46.1706 157.19 46.1706ZM153.861 45.5652C153.82 45.5652 153.78 45.5652 153.76 45.5652C153.497 45.5249 153.235 45.4845 152.973 45.4442C152.609 45.3836 152.347 45.0406 152.408 44.6774C152.468 44.3141 152.811 44.0518 153.174 44.1124C153.437 44.1527 153.719 44.1931 153.982 44.2334C154.345 44.294 154.607 44.637 154.547 45.0204C154.466 45.3231 154.183 45.5652 153.861 45.5652ZM119.213 45.424C118.87 45.424 118.568 45.1617 118.527 44.7984C118.487 44.415 118.769 44.0922 119.153 44.0518C119.415 44.0316 119.698 44.0115 119.96 43.9711C120.343 43.9307 120.666 44.2132 120.707 44.5966C120.747 44.98 120.464 45.3029 120.081 45.3433C119.819 45.3634 119.556 45.3836 119.274 45.424C119.254 45.424 119.234 45.424 119.213 45.424ZM122.603 45.1213C122.26 45.1213 121.958 44.859 121.917 44.4958C121.897 44.1124 122.159 43.7895 122.543 43.7693C122.805 43.7491 123.088 43.729 123.35 43.7088C123.733 43.6886 124.056 43.9509 124.076 44.3343C124.097 44.7177 123.834 45.0406 123.451 45.0608C123.189 45.0809 122.926 45.1011 122.644 45.1213C122.624 45.1213 122.603 45.1213 122.603 45.1213ZM150.491 45.1011C150.47 45.1011 150.43 45.1011 150.41 45.1011C150.148 45.0608 149.885 45.0406 149.623 45.0204C149.24 44.98 148.977 44.637 149.018 44.2738C149.058 43.8904 149.401 43.6281 149.764 43.6684C150.027 43.6886 150.309 43.729 150.571 43.7491C150.955 43.7895 151.217 44.1325 151.177 44.5159C151.136 44.8388 150.834 45.1011 150.491 45.1011ZM125.973 44.8792C125.61 44.8792 125.307 44.5967 125.287 44.2334C125.267 43.85 125.55 43.5272 125.933 43.507C126.195 43.4868 126.478 43.4666 126.74 43.4465C127.123 43.4263 127.446 43.7088 127.467 44.0922C127.487 44.4756 127.204 44.7984 126.821 44.8186C126.558 44.8388 126.296 44.859 126.014 44.8792C126.014 44.8792 125.993 44.8792 125.973 44.8792ZM147.121 44.7783C147.101 44.7783 147.08 44.7783 147.06 44.7783C146.798 44.7581 146.536 44.7379 146.253 44.7177C145.87 44.6975 145.587 44.3747 145.628 43.9913C145.648 43.6079 145.991 43.3254 146.354 43.3657C146.616 43.3859 146.899 43.4061 147.161 43.4263C147.545 43.4465 147.827 43.7895 147.787 44.1527C147.767 44.4958 147.464 44.7783 147.121 44.7783ZM129.363 44.6774C129 44.6774 128.697 44.3949 128.677 44.0316C128.657 43.6482 128.94 43.3254 129.323 43.3052C129.585 43.285 129.868 43.285 130.13 43.2648C130.514 43.2447 130.836 43.5473 130.836 43.9106C130.857 44.294 130.554 44.6168 130.191 44.6168C129.928 44.637 129.666 44.637 129.384 44.6572C129.384 44.6774 129.384 44.6774 129.363 44.6774ZM143.731 44.5563C143.711 44.5563 143.711 44.5563 143.69 44.5563C143.428 44.5361 143.166 44.5361 142.883 44.5159C142.5 44.4958 142.217 44.1931 142.217 43.8097C142.237 43.4263 142.54 43.1438 142.924 43.1639C143.186 43.1841 143.468 43.1841 143.731 43.2043C144.114 43.2245 144.397 43.5473 144.376 43.9106C144.397 44.2738 144.094 44.5563 143.731 44.5563ZM132.753 44.5361C132.39 44.5361 132.088 44.2536 132.067 43.8702C132.047 43.4868 132.35 43.1841 132.733 43.1639C132.996 43.1639 133.278 43.1438 133.54 43.1438C133.924 43.1236 134.226 43.4263 134.247 43.8097C134.267 44.1931 133.964 44.4958 133.581 44.5159C133.318 44.5159 133.056 44.5361 132.774 44.5361H132.753ZM140.341 44.4554C140.058 44.4554 139.796 44.4554 139.534 44.4352C139.15 44.4352 138.847 44.1124 138.868 43.7491C138.868 43.3657 139.19 43.063 139.554 43.0832C139.816 43.0832 140.099 43.0832 140.361 43.1034C140.744 43.1034 141.047 43.4263 141.027 43.7895C141.027 44.1527 140.724 44.4554 140.341 44.4554ZM136.143 44.4554C135.78 44.4554 135.457 44.1527 135.457 43.7895C135.457 43.4061 135.76 43.1034 136.123 43.1034C136.386 43.1034 136.668 43.1034 136.93 43.1034C137.314 43.1034 137.617 43.4061 137.617 43.7895C137.617 44.1729 137.314 44.4756 136.93 44.4756C136.688 44.4352 136.426 44.4554 136.143 44.4554Z" fill="#4EFDEA"/>
<path opacity="0.5" d="M117.038 132.335C116.674 132.335 116.372 132.032 116.352 131.669C116.352 131.285 116.654 130.983 117.017 130.983L117.825 130.962C118.188 130.962 118.511 131.265 118.511 131.628C118.511 132.012 118.208 132.314 117.845 132.314L117.038 132.335C117.058 132.335 117.038 132.335 117.038 132.335ZM120.428 132.254C120.064 132.254 119.762 131.951 119.742 131.588C119.742 131.205 120.024 130.902 120.408 130.902L121.215 130.882C121.598 130.882 121.901 131.164 121.921 131.548C121.921 131.931 121.638 132.234 121.255 132.254H120.428C120.448 132.254 120.448 132.254 120.428 132.254ZM123.838 132.193C123.475 132.193 123.172 131.891 123.152 131.527C123.152 131.144 123.434 130.841 123.818 130.821L124.625 130.801C125.008 130.801 125.311 131.084 125.331 131.467C125.331 131.85 125.049 132.153 124.665 132.173L123.838 132.193ZM127.228 132.092C126.865 132.092 126.562 131.79 126.542 131.427C126.522 131.043 126.824 130.74 127.208 130.72L128.015 130.7C128.378 130.68 128.701 130.983 128.721 131.366C128.741 131.749 128.439 132.052 128.055 132.072L127.228 132.092C127.248 132.092 127.228 132.092 127.228 132.092ZM130.618 131.992C130.255 131.992 129.952 131.709 129.932 131.326C129.912 130.942 130.214 130.64 130.598 130.619L131.405 130.599C131.788 130.579 132.091 130.882 132.111 131.265C132.131 131.649 131.829 131.951 131.445 131.971L130.638 131.992H130.618ZM134.008 131.85C133.645 131.85 133.342 131.568 133.322 131.205C133.302 130.821 133.605 130.519 133.968 130.498L134.775 130.458C135.158 130.438 135.461 130.74 135.481 131.104C135.501 131.487 135.199 131.79 134.835 131.81L134.028 131.85C134.028 131.85 134.028 131.85 134.008 131.85ZM137.398 131.689C137.035 131.689 136.732 131.406 136.712 131.043C136.692 130.66 136.974 130.337 137.358 130.317C137.62 130.297 137.903 130.297 138.165 130.276C138.548 130.256 138.871 130.539 138.891 130.922C138.912 131.305 138.629 131.628 138.246 131.649C137.983 131.669 137.701 131.669 137.439 131.689C137.439 131.689 137.418 131.689 137.398 131.689ZM140.788 131.487C140.425 131.487 140.122 131.205 140.102 130.841C140.082 130.458 140.364 130.135 140.748 130.115C141.01 130.095 141.293 130.075 141.555 130.054C141.938 130.034 142.261 130.317 142.281 130.68C142.302 131.063 142.019 131.386 141.656 131.406C141.394 131.427 141.111 131.447 140.849 131.467C140.829 131.487 140.808 131.487 140.788 131.487ZM144.178 131.265C143.815 131.265 143.533 131.003 143.492 130.64C143.472 130.256 143.755 129.933 144.118 129.913C144.38 129.893 144.663 129.873 144.925 129.853C145.308 129.832 145.631 130.095 145.651 130.478C145.672 130.862 145.409 131.184 145.026 131.205C144.763 131.225 144.481 131.245 144.219 131.265C144.219 131.265 144.198 131.265 144.178 131.265ZM147.568 130.983C147.225 130.983 146.923 130.72 146.882 130.357C146.842 129.974 147.124 129.651 147.508 129.61C147.77 129.59 148.032 129.57 148.315 129.53C148.698 129.489 149.021 129.772 149.062 130.155C149.102 130.539 148.819 130.862 148.436 130.902C148.174 130.922 147.891 130.942 147.629 130.983C147.609 130.983 147.589 130.983 147.568 130.983ZM150.958 130.64C150.615 130.64 150.313 130.377 150.272 130.034C150.232 129.651 150.494 129.328 150.878 129.288C151.14 129.267 151.423 129.227 151.685 129.207C152.068 129.167 152.391 129.429 152.431 129.812C152.472 130.196 152.21 130.518 151.826 130.559C151.564 130.579 151.281 130.619 151.019 130.64C150.999 130.64 150.979 130.64 150.958 130.64ZM154.328 130.256C153.985 130.256 153.703 129.994 153.642 129.651C153.602 129.267 153.864 128.945 154.227 128.884C154.49 128.844 154.752 128.823 155.035 128.783C155.418 128.743 155.741 129.005 155.801 129.368C155.842 129.752 155.579 130.075 155.216 130.135C154.954 130.175 154.671 130.196 154.409 130.236C154.389 130.256 154.348 130.256 154.328 130.256ZM157.678 129.812C157.335 129.812 157.052 129.57 157.012 129.227C156.952 128.864 157.214 128.501 157.597 128.46C157.86 128.42 158.122 128.38 158.384 128.339C158.768 128.279 159.111 128.541 159.151 128.924C159.212 129.288 158.949 129.651 158.566 129.691C158.304 129.732 158.041 129.772 157.759 129.812C157.759 129.812 157.718 129.812 157.678 129.812ZM161.048 129.288C160.725 129.288 160.422 129.045 160.382 128.723C160.321 128.359 160.564 127.996 160.947 127.936C161.209 127.895 161.472 127.855 161.734 127.794C162.097 127.734 162.46 127.976 162.521 128.359C162.581 128.723 162.339 129.086 161.956 129.146C161.694 129.187 161.431 129.227 161.149 129.288C161.108 129.288 161.068 129.288 161.048 129.288ZM164.377 128.702C164.055 128.702 163.772 128.48 163.711 128.137C163.651 127.774 163.893 127.411 164.256 127.33C164.519 127.29 164.781 127.229 165.043 127.169C165.407 127.088 165.77 127.33 165.85 127.714C165.931 128.077 165.689 128.44 165.306 128.521C165.043 128.581 164.781 128.622 164.519 128.682C164.458 128.702 164.418 128.702 164.377 128.702ZM167.707 128.016C167.384 128.016 167.102 127.794 167.041 127.471C166.96 127.108 167.202 126.745 167.566 126.664C167.828 126.604 168.09 126.543 168.353 126.483C168.716 126.402 169.079 126.624 169.16 127.007C169.241 127.371 169.019 127.734 168.635 127.815C168.373 127.875 168.11 127.936 167.848 127.996C167.808 128.016 167.747 128.016 167.707 128.016ZM171.016 127.25C170.714 127.25 170.431 127.048 170.35 126.725C170.249 126.362 170.471 125.978 170.855 125.898C171.117 125.837 171.379 125.776 171.622 125.696C171.985 125.595 172.368 125.817 172.449 126.18C172.55 126.543 172.328 126.927 171.965 127.007C171.702 127.068 171.44 127.149 171.178 127.209C171.117 127.25 171.077 127.25 171.016 127.25ZM174.285 126.362C173.983 126.362 173.72 126.16 173.64 125.877C173.539 125.514 173.74 125.131 174.104 125.03C174.366 124.949 174.608 124.889 174.87 124.808C175.234 124.707 175.617 124.909 175.718 125.272C175.819 125.635 175.617 126.019 175.254 126.119C174.992 126.2 174.729 126.281 174.467 126.341C174.426 126.362 174.346 126.362 174.285 126.362ZM177.534 125.353C177.252 125.353 176.989 125.171 176.888 124.889C176.767 124.525 176.969 124.142 177.312 124.021C177.574 123.94 177.817 123.859 178.079 123.759C178.442 123.637 178.825 123.819 178.947 124.182C179.068 124.546 178.886 124.929 178.523 125.05C178.26 125.131 178.018 125.232 177.756 125.312C177.675 125.353 177.615 125.353 177.534 125.353ZM180.722 124.223C180.44 124.223 180.198 124.061 180.077 123.779C179.935 123.436 180.117 123.032 180.46 122.891C180.702 122.79 180.964 122.689 181.207 122.608C181.55 122.467 181.953 122.629 182.094 122.992C182.236 123.335 182.074 123.738 181.711 123.88C181.469 123.981 181.207 124.081 180.944 124.182C180.884 124.202 180.803 124.223 180.722 124.223ZM183.85 122.911C183.588 122.911 183.346 122.77 183.225 122.507C183.063 122.164 183.225 121.761 183.568 121.599C183.81 121.499 184.052 121.377 184.294 121.277C184.637 121.115 185.041 121.256 185.202 121.599C185.363 121.942 185.222 122.346 184.879 122.507C184.637 122.629 184.395 122.729 184.133 122.851C184.052 122.891 183.951 122.911 183.85 122.911ZM186.917 121.418C186.675 121.418 186.433 121.277 186.312 121.055C186.13 120.712 186.272 120.308 186.594 120.126C186.837 120.005 187.059 119.884 187.301 119.743C187.624 119.561 188.047 119.682 188.229 120.005C188.41 120.328 188.289 120.752 187.967 120.934C187.724 121.075 187.482 121.196 187.24 121.317C187.119 121.398 187.018 121.418 186.917 121.418ZM189.843 119.723C189.621 119.723 189.399 119.602 189.258 119.4C189.056 119.077 189.157 118.653 189.48 118.452C189.702 118.31 189.924 118.169 190.146 118.028C190.469 117.826 190.893 117.907 191.094 118.23C191.296 118.552 191.215 118.976 190.893 119.178C190.671 119.319 190.428 119.481 190.206 119.622C190.085 119.682 189.964 119.723 189.843 119.723ZM192.628 117.806C192.426 117.806 192.224 117.705 192.083 117.543C191.861 117.241 191.922 116.817 192.204 116.595C192.406 116.434 192.628 116.272 192.83 116.111C193.132 115.869 193.556 115.929 193.798 116.212C194.04 116.514 193.98 116.938 193.697 117.18C193.475 117.342 193.274 117.523 193.052 117.685C192.931 117.745 192.769 117.806 192.628 117.806ZM195.211 115.606C195.029 115.606 194.848 115.526 194.706 115.384C194.444 115.102 194.464 114.678 194.747 114.416C194.948 114.234 195.13 114.052 195.312 113.871C195.574 113.609 196.018 113.609 196.28 113.871C196.543 114.133 196.543 114.577 196.28 114.839C196.078 115.041 195.897 115.223 195.695 115.404C195.554 115.546 195.392 115.606 195.211 115.606ZM197.552 113.165C197.39 113.165 197.249 113.104 197.108 113.003C196.825 112.761 196.785 112.337 197.027 112.035C197.188 111.833 197.37 111.631 197.531 111.429C197.774 111.127 198.197 111.086 198.5 111.308C198.803 111.55 198.843 111.974 198.621 112.277C198.46 112.499 198.278 112.701 198.096 112.922C197.935 113.084 197.733 113.165 197.552 113.165ZM199.549 110.44C199.428 110.44 199.287 110.4 199.186 110.34C198.863 110.138 198.782 109.714 198.984 109.391C199.125 109.169 199.267 108.947 199.388 108.725C199.59 108.402 199.993 108.302 200.316 108.483C200.639 108.685 200.74 109.088 200.558 109.411C200.417 109.653 200.276 109.896 200.134 110.118C199.993 110.319 199.771 110.44 199.549 110.44ZM201.164 107.454C201.063 107.454 200.982 107.434 200.881 107.393C200.538 107.232 200.397 106.828 200.538 106.485C200.639 106.243 200.76 106.001 200.861 105.759C201.002 105.416 201.406 105.254 201.749 105.396C202.092 105.537 202.253 105.941 202.112 106.284C202.011 106.546 201.89 106.788 201.789 107.05C201.668 107.313 201.426 107.454 201.164 107.454ZM202.354 104.306C202.294 104.306 202.233 104.306 202.152 104.286C201.789 104.185 201.587 103.802 201.688 103.438C201.769 103.196 201.829 102.934 201.89 102.692C201.991 102.329 202.354 102.107 202.717 102.207C203.081 102.308 203.303 102.672 203.202 103.035C203.141 103.297 203.06 103.559 202.98 103.822C202.919 104.104 202.657 104.306 202.354 104.306ZM203.101 100.997C203.06 100.997 203.02 100.997 203 100.997C202.637 100.936 202.374 100.593 202.435 100.21C202.475 99.9474 202.516 99.6851 202.556 99.4228C202.596 99.0394 202.939 98.7771 203.323 98.8376C203.706 98.8779 203.968 99.221 203.908 99.6044C203.868 99.8869 203.827 100.149 203.787 100.432C203.726 100.755 203.424 100.997 203.101 100.997ZM203.424 97.647H203.403C203.02 97.6269 202.738 97.3242 202.758 96.9408C202.778 96.6785 202.778 96.4161 202.778 96.1538C202.778 95.7704 203.101 95.4677 203.464 95.4879C203.847 95.4879 204.15 95.8108 204.13 96.174C204.13 96.4565 204.11 96.7188 204.11 97.0013C204.09 97.3444 203.787 97.647 203.424 97.647ZM203.383 94.257C203.02 94.257 202.717 93.9745 202.697 93.6113C202.677 93.3489 202.657 93.0866 202.637 92.8243C202.596 92.4409 202.879 92.118 203.262 92.0777C203.646 92.0373 203.968 92.3198 204.009 92.7032C204.029 92.9857 204.049 93.248 204.069 93.5305C204.09 93.9139 203.807 94.2368 203.424 94.257C203.403 94.257 203.403 94.257 203.383 94.257ZM203 90.8871C202.677 90.8871 202.374 90.6449 202.334 90.3019C202.294 90.0396 202.253 89.7773 202.213 89.5149C202.152 89.1517 202.394 88.7885 202.758 88.728C203.121 88.6674 203.484 88.9096 203.545 89.2728C203.585 89.5351 203.646 89.8176 203.686 90.0799C203.746 90.4432 203.484 90.8064 203.121 90.8669C203.081 90.8871 203.04 90.8871 203 90.8871ZM202.354 87.5576C202.051 87.5576 201.769 87.3356 201.688 87.0329C201.628 86.7706 201.567 86.5285 201.507 86.2661C201.406 85.9029 201.628 85.5195 202.011 85.4388C202.374 85.3379 202.758 85.5599 202.838 85.9433C202.899 86.2056 202.98 86.4679 203.04 86.7302C203.121 87.0935 202.899 87.4567 202.536 87.5576C202.455 87.5374 202.415 87.5576 202.354 87.5576ZM201.466 84.2886C201.164 84.2886 200.901 84.107 200.821 83.8043C200.74 83.542 200.659 83.2998 200.578 83.0375C200.457 82.6743 200.659 82.2909 201.022 82.1698C201.386 82.0487 201.769 82.2505 201.89 82.6137C201.971 82.8761 202.051 83.1384 202.132 83.4007C202.233 83.7639 202.031 84.1473 201.668 84.2482C201.608 84.2684 201.527 84.2886 201.466 84.2886ZM200.397 81.06C200.114 81.06 199.852 80.8784 199.751 80.616C199.65 80.3739 199.569 80.1116 199.469 79.8694C199.327 79.5264 199.509 79.1228 199.872 78.9815C200.215 78.8403 200.619 79.0219 200.76 79.3851C200.861 79.6474 200.962 79.8896 201.042 80.1519C201.164 80.5151 200.982 80.8985 200.639 81.0196C200.558 81.0398 200.477 81.06 200.397 81.06Z" fill="#006BF1"/>
<path opacity="0.5" d="M106.907 130.599C106.887 130.599 106.846 130.599 106.826 130.599H106.745C106.362 130.559 106.1 130.216 106.16 129.833C106.201 129.449 106.544 129.187 106.927 129.247H106.987C107.371 129.288 107.633 129.631 107.593 130.014C107.532 130.337 107.25 130.599 106.907 130.599ZM104.324 129.994C104.243 129.994 104.183 129.974 104.102 129.954C103.84 129.873 103.577 129.772 103.315 129.671C102.972 129.53 102.79 129.126 102.932 128.783C103.073 128.44 103.476 128.259 103.819 128.4C104.062 128.501 104.304 128.581 104.546 128.662C104.909 128.783 105.091 129.167 104.97 129.53C104.869 129.833 104.606 129.994 104.324 129.994ZM101.236 128.581C101.115 128.581 100.994 128.561 100.893 128.481C100.651 128.339 100.409 128.198 100.187 128.037C99.8643 127.835 99.7836 127.411 99.9854 127.088C100.187 126.765 100.611 126.685 100.934 126.886C101.156 127.028 101.378 127.169 101.6 127.29C101.923 127.472 102.044 127.895 101.842 128.218C101.701 128.46 101.479 128.581 101.236 128.581ZM98.472 126.644C98.3106 126.644 98.1693 126.604 98.0482 126.483C97.8263 126.301 97.6245 126.14 97.4227 125.958C97.1402 125.716 97.0998 125.272 97.3622 124.99C97.6043 124.707 98.0482 124.667 98.3307 124.929C98.5325 125.111 98.7343 125.272 98.9361 125.434C99.2186 125.676 99.2791 126.099 99.037 126.402C98.8554 126.564 98.6738 126.644 98.472 126.644ZM95.9698 124.344C95.7882 124.344 95.6066 124.283 95.4855 124.142C95.3039 123.94 95.1021 123.739 94.9205 123.537C94.6582 123.254 94.6784 122.83 94.9609 122.568C95.2434 122.306 95.6671 122.326 95.9295 122.609C96.1111 122.81 96.2927 122.992 96.4743 123.194C96.7366 123.456 96.7366 123.9 96.4541 124.162C96.3128 124.283 96.1514 124.344 95.9698 124.344ZM93.7501 121.781C93.5483 121.781 93.3466 121.7 93.2053 121.519C93.0439 121.297 92.8623 121.095 92.7008 120.873C92.4789 120.57 92.5394 120.147 92.8421 119.925C93.1448 119.703 93.5685 119.763 93.7905 120.066C93.9519 120.288 94.1133 120.49 94.2748 120.692C94.5169 120.994 94.4564 121.418 94.1537 121.66C94.0528 121.741 93.8914 121.781 93.7501 121.781ZM91.7726 119.037C91.5506 119.037 91.3287 118.936 91.2076 118.734C91.0663 118.512 90.9049 118.27 90.7636 118.048C90.5618 117.725 90.6627 117.301 90.9654 117.1C91.2883 116.898 91.7121 116.999 91.9138 117.301C92.0551 117.523 92.1963 117.745 92.3376 117.967C92.5394 118.29 92.4587 118.714 92.1358 118.916C92.0349 118.996 91.8937 119.037 91.7726 119.037ZM90.017 116.131C89.7749 116.131 89.5529 116.01 89.4117 115.788C89.2704 115.546 89.1493 115.304 89.0282 115.062C88.8466 114.739 88.9677 114.315 89.3108 114.133C89.6336 113.952 90.0574 114.073 90.239 114.416C90.3601 114.658 90.4811 114.88 90.6224 115.122C90.804 115.445 90.6829 115.869 90.3601 116.05C90.239 116.111 90.1179 116.131 90.017 116.131ZM88.4632 113.104C88.2009 113.104 87.9588 112.963 87.8377 112.701C87.7166 112.459 87.6157 112.216 87.4947 111.954C87.3332 111.611 87.4947 111.207 87.8377 111.046C88.1807 110.885 88.5843 111.046 88.7458 111.389C88.8466 111.631 88.9677 111.873 89.0686 112.115C89.23 112.459 89.0888 112.862 88.7458 113.024C88.665 113.084 88.5641 113.104 88.4632 113.104ZM87.1314 109.977C86.8489 109.977 86.6068 109.815 86.4857 109.533C86.3848 109.27 86.2839 109.028 86.2032 108.766C86.0821 108.403 86.2436 108.019 86.6068 107.898C86.97 107.777 87.3534 107.938 87.4745 108.302C87.5754 108.544 87.6561 108.806 87.757 109.048C87.8982 109.391 87.7166 109.795 87.3736 109.936C87.3131 109.976 87.2122 109.977 87.1314 109.977ZM86.0216 106.788C85.7391 106.788 85.4566 106.607 85.3759 106.304C85.2952 106.042 85.2144 105.779 85.1337 105.517C85.0328 105.154 85.2346 104.77 85.5978 104.669C85.9611 104.569 86.3445 104.77 86.4454 105.134C86.5261 105.396 86.6068 105.638 86.6875 105.9C86.8086 106.264 86.6068 106.647 86.2436 106.748C86.1628 106.768 86.0821 106.788 86.0216 106.788ZM85.0934 103.519C84.7907 103.519 84.5082 103.317 84.4275 102.995C84.3669 102.732 84.3064 102.47 84.2459 102.208C84.1651 101.844 84.3871 101.481 84.7503 101.38C85.1135 101.3 85.4768 101.522 85.5777 101.885C85.6382 102.147 85.6987 102.409 85.7593 102.652C85.84 103.015 85.618 103.378 85.2548 103.479C85.2144 103.519 85.1539 103.519 85.0934 103.519ZM84.3871 100.19C84.0642 100.19 83.7817 99.9678 83.7212 99.6247C83.6808 99.3624 83.6203 99.0799 83.5799 98.8176C83.5194 98.4543 83.7817 98.0911 84.145 98.0306C84.5082 97.97 84.8714 98.2324 84.9319 98.5956C84.9723 98.8579 85.0126 99.1202 85.0732 99.3826C85.1337 99.7458 84.8916 100.109 84.5284 100.17C84.4678 100.19 84.4275 100.19 84.3871 100.19ZM83.9028 96.84C83.5598 96.84 83.2571 96.5777 83.2167 96.2347C83.1764 95.9723 83.1562 95.6898 83.136 95.4275C83.0957 95.0441 83.3782 94.7212 83.7414 94.6809C84.1248 94.6405 84.4476 94.923 84.488 95.2862C84.5082 95.5486 84.5485 95.8109 84.5687 96.0732C84.6091 96.4566 84.3467 96.7795 83.9633 96.8198C83.9633 96.84 83.923 96.84 83.9028 96.84ZM83.6405 93.4701C83.2773 93.4701 82.9746 93.1876 82.9544 92.8244C82.9342 92.5621 82.9342 92.2796 82.914 91.9971C82.8939 91.6137 83.1965 91.311 83.5799 91.2908C83.9633 91.2706 84.266 91.5733 84.2862 91.9567C84.2862 92.2191 84.3064 92.4814 84.3064 92.7437C84.3266 93.1271 84.0239 93.4298 83.6607 93.45C83.6607 93.4701 83.6405 93.4701 83.6405 93.4701ZM83.6001 90.0599C83.6001 90.0599 83.5799 90.0599 83.6001 90.0599C83.2167 90.0599 82.914 89.737 82.914 89.3536C82.914 89.0711 82.9342 88.8088 82.9342 88.5263C82.9544 88.1429 83.2571 87.8604 83.6405 87.8806C84.0239 87.9008 84.3064 88.2034 84.2862 88.5868C84.266 88.8492 84.266 89.1115 84.266 89.3738C84.266 89.7774 83.9633 90.0599 83.6001 90.0599ZM83.8019 86.69C83.7817 86.69 83.7616 86.69 83.7414 86.69C83.358 86.6497 83.0956 86.3268 83.1158 85.9434C83.136 85.6811 83.1764 85.3986 83.1965 85.1161C83.2369 84.7327 83.58 84.4703 83.9432 84.5107C84.3266 84.5511 84.5889 84.8941 84.5485 85.2573C84.5284 85.5196 84.488 85.782 84.4678 86.0443C84.4476 86.4075 84.145 86.69 83.8019 86.69ZM84.2257 83.3202C84.1853 83.3202 84.145 83.3202 84.1046 83.3202C83.7414 83.2596 83.4791 82.9166 83.5396 82.5332C83.58 82.2708 83.6405 81.9883 83.6808 81.726C83.7414 81.3628 84.1046 81.1005 84.4678 81.1812C84.831 81.2417 85.0934 81.6049 85.0127 81.9682C84.9723 82.2305 84.9118 82.4928 84.8714 82.7551C84.8512 83.078 84.5485 83.3202 84.2257 83.3202ZM84.9118 79.9906C84.8512 79.9906 84.8109 79.9906 84.7503 79.9704C84.3871 79.8897 84.1651 79.5063 84.2459 79.1431C84.3064 78.8808 84.3871 78.6185 84.4476 78.3561C84.5485 77.9929 84.9118 77.7709 85.275 77.8718C85.6382 77.9727 85.8602 78.336 85.7593 78.6992C85.6987 78.9615 85.618 79.2036 85.5575 79.466C85.4969 79.7888 85.2144 79.9906 84.9118 79.9906ZM85.84 76.7216C85.7794 76.7216 85.6987 76.7015 85.6382 76.6813C85.275 76.5602 85.0934 76.1768 85.1943 75.8136C85.275 75.5513 85.3557 75.2889 85.4566 75.0266C85.5777 74.6634 85.9611 74.4818 86.3243 74.6029C86.6875 74.7239 86.8691 75.1073 86.748 75.4705C86.6673 75.7127 86.5866 75.975 86.4857 76.2172C86.3848 76.54 86.1225 76.7216 85.84 76.7216ZM87.0104 73.5535C86.9296 73.5535 86.8287 73.5334 86.748 73.493C86.405 73.3518 86.2234 72.9482 86.3848 72.6051C86.4857 72.363 86.5866 72.1007 86.7077 71.8585C86.8489 71.5155 87.2525 71.3541 87.5956 71.4953C87.9386 71.6366 88.1 72.0401 87.9588 72.3832C87.8579 72.6253 87.757 72.8675 87.6561 73.1096C87.5148 73.3921 87.2727 73.5535 87.0104 73.5535ZM88.4027 70.4662C88.3018 70.4662 88.2009 70.446 88.1 70.3855C87.757 70.224 87.6359 69.8003 87.7973 69.4774C87.9184 69.2353 88.0395 68.9931 88.1807 68.751C88.3624 68.4079 88.7659 68.2869 89.109 68.4685C89.452 68.6501 89.5731 69.0537 89.3915 69.3967C89.2704 69.6388 89.1493 69.8608 89.0282 70.103C88.9072 70.3249 88.665 70.4662 88.4027 70.4662ZM90.0574 67.4999C89.9363 67.4999 89.8152 67.4595 89.7143 67.399C89.3915 67.1972 89.2906 66.7936 89.4924 66.4708C89.6336 66.2286 89.7749 66.0066 89.9161 65.7645C90.1179 65.4416 90.5417 65.3407 90.8645 65.5425C91.1874 65.7443 91.2883 66.1681 91.0865 66.4909C90.9453 66.7129 90.804 66.9349 90.6627 67.1568C90.5215 67.3788 90.2793 67.4999 90.0574 67.4999ZM91.9138 64.6748C91.7726 64.6748 91.6313 64.6345 91.5103 64.5538C91.2076 64.3318 91.1269 63.908 91.3488 63.6053C91.5103 63.3834 91.6717 63.1614 91.8331 62.9394C92.0551 62.6368 92.4788 62.5762 92.7815 62.7982C93.0842 63.0202 93.1448 63.4439 92.9228 63.7466C92.7614 63.9686 92.5999 64.1704 92.4587 64.3923C92.3376 64.5739 92.1358 64.6748 91.9138 64.6748ZM93.9923 61.991C93.8308 61.991 93.6896 61.9305 93.5483 61.8296C93.2658 61.5875 93.2255 61.1637 93.4676 60.861C93.6492 60.6592 93.8106 60.4373 93.9923 60.2355C94.2344 59.953 94.6784 59.9126 94.9609 60.1547C95.2434 60.3969 95.2837 60.8408 95.0416 61.1233C94.86 61.3251 94.6985 61.5269 94.5371 61.7287C94.3757 61.8901 94.194 61.991 93.9923 61.991ZM96.2523 59.4485C96.0909 59.4485 95.9093 59.388 95.7882 59.2669C95.5057 59.0046 95.5057 58.5808 95.768 58.2983C95.9496 58.0965 96.1514 57.9149 96.333 57.7131C96.5954 57.4508 97.0393 57.4508 97.3016 57.7131C97.5639 57.9754 97.5639 58.4194 97.3016 58.6817C97.12 58.8633 96.9384 59.0651 96.7568 59.2467C96.5954 59.3879 96.4339 59.4485 96.2523 59.4485ZM98.6738 57.0876C98.4922 57.0876 98.3106 57.0068 98.1693 56.8656C97.907 56.5831 97.9272 56.1593 98.2097 55.897C98.4114 55.7154 98.6132 55.5338 98.815 55.3522C99.0975 55.11 99.5213 55.1302 99.7836 55.4127C100.026 55.6952 100.006 56.119 99.7231 56.3813C99.5213 56.5629 99.3195 56.7445 99.1379 56.9059C98.9966 57.027 98.8352 57.0876 98.6738 57.0876ZM101.236 54.8679C101.035 54.8679 100.833 54.7872 100.712 54.6055C100.47 54.3029 100.53 53.8791 100.813 53.637C101.015 53.4755 101.236 53.2939 101.458 53.1325C101.761 52.9105 102.185 52.9509 102.407 53.2536C102.629 53.5562 102.588 53.98 102.286 54.202C102.084 54.3634 101.862 54.5248 101.66 54.7064C101.539 54.8275 101.398 54.8679 101.236 54.8679ZM103.94 52.8298C103.719 52.8298 103.517 52.7289 103.375 52.5473C103.153 52.2446 103.234 51.8209 103.537 51.5989C103.759 51.4375 103.981 51.276 104.203 51.1348C104.505 50.9128 104.929 50.9935 105.151 51.3164C105.373 51.6191 105.292 52.0428 104.97 52.2648C104.748 52.4262 104.526 52.5675 104.324 52.7289C104.223 52.7894 104.082 52.8298 103.94 52.8298ZM106.766 50.9532C106.544 50.9532 106.322 50.8321 106.18 50.6303C105.979 50.3074 106.079 49.8837 106.402 49.6819C106.624 49.5406 106.866 49.3994 107.088 49.2581C107.411 49.0563 107.835 49.1572 108.037 49.4801C108.239 49.803 108.138 50.2267 107.815 50.4285C107.593 50.5698 107.371 50.711 107.129 50.8523C107.008 50.9128 106.887 50.9532 106.766 50.9532ZM109.671 49.2178C109.429 49.2178 109.207 49.0967 109.066 48.8747C108.884 48.5519 109.005 48.1281 109.328 47.9465C109.57 47.8052 109.792 47.6842 110.035 47.5429C110.357 47.3613 110.781 47.4824 110.963 47.8254C111.144 48.1483 111.023 48.572 110.68 48.7537C110.438 48.8747 110.216 49.016 109.974 49.1371C109.913 49.1774 109.792 49.2178 109.671 49.2178ZM112.678 47.6236C112.436 47.6236 112.194 47.4824 112.073 47.2402C111.911 46.8972 112.032 46.4936 112.375 46.3322C112.617 46.2111 112.86 46.09 113.102 45.969C113.445 45.8075 113.848 45.9488 114.01 46.2918C114.171 46.6349 114.03 47.0385 113.687 47.1999C113.445 47.321 113.203 47.442 112.96 47.5429C112.88 47.6035 112.779 47.6236 112.678 47.6236Z" fill="#4EFDEA"/>
<path opacity="0.5" d="M225.66 180.643C225.64 180.643 225.6 180.643 225.579 180.643C225.196 180.603 224.934 180.26 224.974 179.876C225.014 179.614 225.035 179.331 225.075 179.069C225.115 178.686 225.458 178.423 225.842 178.484C226.225 178.524 226.487 178.867 226.427 179.251C226.387 179.513 226.366 179.775 226.326 180.058C226.286 180.401 226.003 180.643 225.66 180.643ZM226.104 177.293C226.064 177.293 226.044 177.293 226.003 177.293C225.62 177.233 225.378 176.89 225.418 176.527C225.458 176.264 225.499 176.002 225.539 175.719C225.6 175.356 225.943 175.094 226.306 175.134C226.669 175.195 226.931 175.538 226.891 175.901C226.851 176.163 226.81 176.426 226.77 176.688C226.73 177.031 226.427 177.293 226.104 177.293ZM226.609 173.944C226.568 173.944 226.528 173.944 226.508 173.944C226.144 173.883 225.882 173.54 225.943 173.157C225.983 172.894 226.023 172.632 226.064 172.35C226.124 171.986 226.467 171.724 226.851 171.784C227.214 171.845 227.476 172.188 227.416 172.571C227.375 172.834 227.335 173.096 227.295 173.358C227.214 173.701 226.931 173.944 226.609 173.944ZM227.174 170.594C227.133 170.594 227.093 170.594 227.052 170.574C226.689 170.513 226.427 170.15 226.508 169.787L226.649 169C226.709 168.637 227.073 168.374 227.436 168.455C227.799 168.516 228.061 168.879 227.981 169.242L227.839 170.029C227.779 170.352 227.496 170.594 227.174 170.594ZM227.779 167.264C227.739 167.264 227.698 167.264 227.658 167.244C227.295 167.184 227.052 166.82 227.113 166.457L227.254 165.67C227.315 165.307 227.678 165.065 228.061 165.125C228.425 165.186 228.667 165.549 228.606 165.933L228.465 166.72C228.384 167.022 228.102 167.264 227.779 167.264ZM228.404 163.935C228.364 163.935 228.324 163.935 228.283 163.915C227.92 163.834 227.678 163.491 227.739 163.108L227.9 162.321C227.981 161.957 228.324 161.715 228.707 161.776C229.07 161.856 229.313 162.2 229.252 162.583L229.091 163.37C229.01 163.693 228.727 163.935 228.404 163.935ZM229.05 160.605C229.01 160.605 228.969 160.605 228.909 160.585C228.546 160.504 228.304 160.161 228.364 159.778L228.526 158.991C228.606 158.628 228.949 158.386 229.333 158.446C229.696 158.527 229.938 158.87 229.878 159.253L229.716 160.04C229.656 160.383 229.373 160.605 229.05 160.605ZM229.696 157.276C229.656 157.276 229.615 157.276 229.575 157.256C229.212 157.175 228.969 156.832 229.03 156.449L229.191 155.662C229.272 155.298 229.615 155.056 229.999 155.117C230.362 155.197 230.604 155.54 230.543 155.924L230.382 156.711C230.301 157.054 230.019 157.276 229.696 157.276ZM230.342 153.946C230.301 153.946 230.261 153.946 230.221 153.926C229.857 153.866 229.615 153.502 229.676 153.139L229.817 152.352C229.878 151.989 230.241 151.727 230.604 151.807C230.967 151.868 231.23 152.231 231.149 152.594L231.008 153.381C230.947 153.724 230.665 153.946 230.342 153.946ZM230.947 150.617C230.907 150.617 230.866 150.617 230.826 150.597C230.463 150.536 230.2 150.173 230.281 149.81C230.321 149.547 230.382 149.285 230.422 149.023C230.483 148.659 230.846 148.397 231.209 148.458C231.573 148.518 231.835 148.881 231.774 149.245C231.734 149.507 231.673 149.769 231.633 150.032C231.552 150.375 231.27 150.617 230.947 150.617ZM231.492 147.267C231.451 147.267 231.411 147.267 231.391 147.267C231.028 147.207 230.765 146.864 230.826 146.48C230.866 146.218 230.907 145.955 230.947 145.693C231.008 145.33 231.351 145.068 231.734 145.128C232.097 145.189 232.36 145.532 232.299 145.915C232.259 146.177 232.218 146.44 232.178 146.722C232.117 147.025 231.835 147.267 231.492 147.267ZM231.996 143.917C231.956 143.917 231.936 143.917 231.895 143.917C231.512 143.857 231.27 143.514 231.31 143.151C231.351 142.888 231.391 142.626 231.411 142.364C231.451 141.98 231.795 141.718 232.178 141.778C232.561 141.819 232.824 142.162 232.763 142.545C232.723 142.808 232.682 143.07 232.662 143.352C232.622 143.675 232.339 143.917 231.996 143.917ZM232.42 140.548C232.4 140.548 232.38 140.548 232.339 140.548C231.956 140.507 231.694 140.164 231.734 139.801C231.754 139.539 231.795 139.276 231.815 139.014C231.855 138.631 232.198 138.368 232.561 138.409C232.945 138.449 233.207 138.792 233.167 139.155C233.147 139.418 233.106 139.7 233.086 139.962C233.066 140.305 232.763 140.548 232.42 140.548ZM232.743 137.178C232.723 137.178 232.703 137.178 232.682 137.178C232.299 137.157 232.017 136.814 232.057 136.451C232.077 136.189 232.097 135.927 232.117 135.664C232.138 135.281 232.481 134.998 232.844 135.039C233.227 135.059 233.51 135.382 233.469 135.765C233.449 136.027 233.429 136.31 233.409 136.572C233.389 136.915 233.086 137.178 232.743 137.178ZM232.945 133.808H232.925C232.541 133.788 232.259 133.465 232.279 133.102C232.299 132.839 232.299 132.577 232.299 132.294C232.319 131.911 232.622 131.628 233.005 131.628C233.389 131.649 233.671 131.951 233.671 132.335C233.671 132.597 233.651 132.88 233.651 133.142C233.611 133.505 233.308 133.808 232.945 133.808ZM233.005 130.418C232.622 130.418 232.319 130.115 232.319 129.732C232.319 129.469 232.319 129.207 232.319 128.924C232.319 128.541 232.622 128.238 232.985 128.238C233.368 128.238 233.671 128.541 233.671 128.904C233.671 129.167 233.671 129.449 233.671 129.711C233.691 130.095 233.389 130.418 233.005 130.418ZM232.904 127.028C232.541 127.028 232.238 126.745 232.218 126.382C232.198 126.12 232.198 125.857 232.178 125.595C232.158 125.212 232.44 124.889 232.824 124.868C233.207 124.848 233.53 125.131 233.55 125.514C233.57 125.777 233.59 126.059 233.59 126.321C233.611 126.705 233.328 127.028 232.945 127.048C232.925 127.028 232.925 127.028 232.904 127.028ZM232.642 123.638C232.299 123.638 231.996 123.375 231.956 123.032C231.936 122.77 231.895 122.508 231.855 122.245C231.815 121.862 232.077 121.539 232.44 121.478C232.824 121.438 233.147 121.7 233.207 122.064C233.247 122.326 233.268 122.608 233.308 122.871C233.348 123.254 233.086 123.577 232.703 123.617C232.682 123.638 232.662 123.638 232.642 123.638ZM232.178 120.288C231.855 120.288 231.552 120.046 231.512 119.723C231.472 119.461 231.431 119.198 231.371 118.936C231.31 118.573 231.552 118.209 231.916 118.149C232.279 118.088 232.642 118.331 232.703 118.694C232.743 118.956 232.803 119.239 232.844 119.501C232.904 119.864 232.662 120.227 232.279 120.288C232.259 120.288 232.218 120.288 232.178 120.288ZM231.512 116.958C231.209 116.958 230.927 116.736 230.846 116.434C230.786 116.171 230.725 115.909 230.665 115.667C230.564 115.304 230.786 114.92 231.169 114.84C231.532 114.739 231.916 114.961 231.996 115.344C232.057 115.606 232.117 115.869 232.198 116.131C232.279 116.494 232.057 116.857 231.694 116.958C231.613 116.958 231.552 116.958 231.512 116.958ZM230.624 113.689C230.342 113.689 230.059 113.508 229.978 113.205C229.898 112.943 229.817 112.701 229.736 112.438C229.615 112.075 229.817 111.692 230.18 111.571C230.543 111.45 230.927 111.651 231.048 112.015C231.129 112.277 231.209 112.539 231.29 112.802C231.391 113.165 231.189 113.548 230.846 113.649C230.745 113.669 230.685 113.689 230.624 113.689ZM229.534 110.481C229.252 110.481 228.99 110.319 228.889 110.037C228.788 109.795 228.707 109.533 228.606 109.29C228.465 108.947 228.647 108.544 228.99 108.402C229.333 108.261 229.736 108.443 229.878 108.786C229.978 109.048 230.079 109.29 230.18 109.553C230.321 109.896 230.14 110.299 229.777 110.441C229.696 110.461 229.615 110.481 229.534 110.481ZM228.223 107.353C227.961 107.353 227.718 107.212 227.597 106.95C227.496 106.707 227.375 106.465 227.254 106.223C227.093 105.88 227.234 105.477 227.577 105.315C227.92 105.154 228.324 105.295 228.485 105.638C228.606 105.88 228.727 106.122 228.828 106.385C228.99 106.728 228.828 107.131 228.485 107.293C228.404 107.333 228.324 107.353 228.223 107.353ZM226.709 104.306C226.467 104.306 226.225 104.185 226.104 103.943C225.983 103.701 225.862 103.479 225.721 103.237C225.539 102.914 225.66 102.49 225.983 102.308C226.306 102.127 226.73 102.248 226.911 102.571C227.052 102.813 227.174 103.055 227.295 103.297C227.476 103.62 227.355 104.044 227.012 104.225C226.931 104.286 226.831 104.306 226.709 104.306ZM225.014 101.38C224.792 101.38 224.57 101.259 224.429 101.057C224.288 100.835 224.147 100.613 224.005 100.391C223.804 100.069 223.905 99.6448 224.207 99.4431C224.53 99.2413 224.954 99.3422 225.156 99.6448C225.297 99.8668 225.438 100.109 225.579 100.331C225.781 100.654 225.68 101.078 225.357 101.279C225.277 101.34 225.156 101.38 225.014 101.38ZM223.158 98.535C222.936 98.535 222.734 98.4341 222.593 98.2525C222.432 98.0305 222.29 97.8086 222.129 97.6068C221.907 97.3041 221.988 96.8803 222.29 96.6584C222.593 96.4364 223.017 96.5171 223.239 96.8198C223.4 97.0418 223.562 97.2637 223.703 97.4857C223.925 97.7884 223.844 98.2121 223.541 98.4341C223.44 98.4946 223.299 98.535 223.158 98.535ZM221.14 95.8108C220.938 95.8108 220.736 95.7301 220.595 95.5485C220.434 95.3467 220.272 95.1248 220.091 94.923C219.849 94.6203 219.909 94.1965 220.192 93.9544C220.494 93.7122 220.918 93.7728 221.16 94.0553C221.322 94.2773 221.503 94.479 221.665 94.701C221.907 95.0037 221.846 95.4275 221.544 95.6494C221.443 95.7705 221.281 95.8108 221.14 95.8108ZM218.981 93.1876C218.799 93.1876 218.598 93.1069 218.456 92.9455C218.275 92.7437 218.113 92.5419 217.932 92.3401C217.689 92.0576 217.71 91.6338 217.992 91.3715C218.275 91.1293 218.698 91.1495 218.961 91.432C219.142 91.6338 219.324 91.8356 219.506 92.0374C219.748 92.3199 219.728 92.7437 219.445 93.006C219.304 93.1472 219.142 93.1876 218.981 93.1876ZM216.721 90.6854C216.539 90.6854 216.358 90.6047 216.216 90.4634C216.035 90.2616 215.853 90.08 215.672 89.8783C215.409 89.6159 215.409 89.172 215.692 88.9097C215.954 88.6473 216.398 88.6473 216.66 88.9298C216.842 89.1316 217.044 89.3132 217.225 89.515C217.488 89.7975 217.468 90.2213 217.205 90.4836C217.044 90.6249 216.882 90.6854 216.721 90.6854ZM214.34 88.2639C214.158 88.2639 213.997 88.2034 213.855 88.0621C213.674 87.8805 213.472 87.6989 213.27 87.4971C212.988 87.2348 212.988 86.811 213.25 86.5285C213.512 86.246 213.936 86.246 214.219 86.5084C214.42 86.69 214.602 86.8918 214.804 87.0734C215.066 87.3357 215.086 87.7595 214.824 88.042C214.683 88.2034 214.501 88.2639 214.34 88.2639ZM211.858 85.9434C211.696 85.9434 211.535 85.8828 211.394 85.7617C211.192 85.5801 210.99 85.3985 210.788 85.2371C210.506 84.995 210.486 84.551 210.728 84.2685C210.97 83.986 211.414 83.9658 211.696 84.208C211.898 84.3896 212.1 84.5712 212.302 84.7528C212.584 85.0151 212.604 85.4389 212.342 85.7214C212.221 85.8828 212.039 85.9434 211.858 85.9434ZM209.295 83.7237C209.134 83.7237 208.992 83.6631 208.851 83.5623C208.649 83.4008 208.448 83.2192 208.246 83.0578C207.963 82.8156 207.923 82.3919 208.165 82.0892C208.407 81.8067 208.831 81.7663 209.134 82.0085C209.335 82.1901 209.557 82.3515 209.759 82.5331C210.042 82.7753 210.082 83.199 209.84 83.5017C209.678 83.643 209.497 83.7237 209.295 83.7237ZM206.672 81.5847C206.531 81.5847 206.369 81.5444 206.248 81.4435C206.046 81.282 205.824 81.1206 205.622 80.939C205.32 80.717 205.279 80.2731 205.501 79.9906C205.723 79.6879 206.167 79.6475 206.45 79.8695C206.672 80.0309 206.874 80.2125 207.096 80.374C207.398 80.6161 207.439 81.0399 207.217 81.3426C207.075 81.4838 206.874 81.5847 206.672 81.5847ZM203.988 79.5063C203.847 79.5063 203.705 79.4659 203.584 79.365C203.362 79.2036 203.161 79.0422 202.939 78.8807C202.636 78.6588 202.575 78.235 202.797 77.9323C203.019 77.6296 203.443 77.5691 203.746 77.7911C203.968 77.9525 204.19 78.1139 204.392 78.2754C204.694 78.4973 204.755 78.9211 204.533 79.2238C204.392 79.4256 204.19 79.5063 203.988 79.5063Z" fill="#4EFDEA"/>
<path opacity="0.5" d="M84.7325 230.626C84.6114 230.626 84.4903 230.586 84.3894 230.525C84.0666 230.344 83.9657 229.92 84.1473 229.597C84.2886 229.355 84.4298 229.133 84.5711 228.891C84.7728 228.568 85.1764 228.467 85.4993 228.649C85.8221 228.851 85.923 229.254 85.7414 229.577C85.6002 229.799 85.4589 230.041 85.3379 230.263C85.1966 230.505 84.9545 230.626 84.7325 230.626ZM86.5082 227.741C86.3872 227.741 86.2459 227.7 86.145 227.64C85.8221 227.438 85.7414 227.014 85.9432 226.691C86.0845 226.469 86.2459 226.227 86.3872 226.005C86.5889 225.682 87.0127 225.602 87.3356 225.824C87.6584 226.025 87.7391 226.449 87.5172 226.772C87.3759 226.994 87.2145 227.216 87.0732 227.438C86.9522 227.64 86.7302 227.741 86.5082 227.741ZM88.4252 224.936C88.284 224.936 88.1427 224.895 88.0216 224.815C87.719 224.593 87.6383 224.169 87.8602 223.866C88.0216 223.644 88.1831 223.422 88.3445 223.2C88.5665 222.898 88.9902 222.837 89.2929 223.059C89.5956 223.281 89.6561 223.705 89.4342 224.008C89.2727 224.23 89.1113 224.431 88.9701 224.653C88.849 224.835 88.6472 224.936 88.4252 224.936ZM90.4431 222.212C90.3019 222.212 90.1404 222.171 90.0194 222.07C89.7167 221.848 89.6763 221.404 89.8983 221.122C90.0597 220.9 90.2413 220.698 90.4028 220.476C90.6449 220.174 91.0687 220.133 91.3713 220.355C91.674 220.597 91.7144 221.021 91.4924 221.324C91.331 221.526 91.1696 221.748 90.988 221.949C90.8467 222.131 90.6449 222.212 90.4431 222.212ZM92.5821 219.588C92.4206 219.588 92.2794 219.528 92.1382 219.427C91.8556 219.185 91.8153 218.761 92.0574 218.458C92.239 218.257 92.4005 218.055 92.5821 217.833C92.8242 217.55 93.2682 217.51 93.5507 217.752C93.8332 217.994 93.8735 218.438 93.6314 218.721C93.4498 218.922 93.2884 219.124 93.1068 219.326C92.9655 219.487 92.7839 219.588 92.5821 219.588ZM94.822 217.026C94.6605 217.026 94.4991 216.965 94.3578 216.844C94.0753 216.582 94.0552 216.158 94.3175 215.875C94.4991 215.674 94.6807 215.472 94.8623 215.27C95.1246 214.988 95.5484 214.967 95.8309 215.23C96.1134 215.492 96.1336 215.916 95.8713 216.198C95.6896 216.4 95.508 216.582 95.3264 216.784C95.1852 216.945 95.0036 217.026 94.822 217.026ZM97.1425 214.564C96.9609 214.564 96.7995 214.503 96.6582 214.362C96.3959 214.1 96.3757 213.676 96.6381 213.393C96.8197 213.192 97.0214 213.01 97.2031 212.808C97.4654 212.546 97.9093 212.546 98.1717 212.808C98.434 213.071 98.434 213.515 98.1717 213.777C97.99 213.958 97.7882 214.16 97.6066 214.342C97.5057 214.483 97.3241 214.564 97.1425 214.564ZM99.564 212.163C99.3824 212.163 99.2008 212.102 99.0797 211.961C98.8174 211.678 98.8376 211.254 99.0999 210.992C99.3017 210.811 99.4833 210.609 99.6851 210.427C99.9676 210.165 100.391 210.185 100.654 210.447C100.916 210.73 100.896 211.154 100.633 211.416C100.432 211.598 100.25 211.779 100.048 211.961C99.8868 212.102 99.7254 212.163 99.564 212.163ZM102.046 209.862C101.864 209.862 101.663 209.781 101.542 209.64C101.299 209.358 101.32 208.934 101.602 208.672C101.804 208.49 102.006 208.308 102.207 208.127C102.49 207.885 102.914 207.905 103.176 208.187C103.418 208.47 103.398 208.894 103.115 209.156C102.914 209.337 102.712 209.519 102.51 209.681C102.369 209.802 102.207 209.862 102.046 209.862ZM104.609 207.642C104.407 207.642 104.225 207.562 104.084 207.4C103.842 207.118 103.882 206.674 104.165 206.432C104.367 206.25 104.589 206.089 104.79 205.907C105.073 205.665 105.517 205.705 105.759 205.988C106.001 206.27 105.961 206.714 105.678 206.956C105.476 207.118 105.275 207.299 105.053 207.461C104.911 207.602 104.77 207.642 104.609 207.642ZM107.232 205.503C107.03 205.503 106.828 205.423 106.687 205.241C106.445 204.938 106.506 204.515 106.808 204.273C107.03 204.111 107.232 203.93 107.454 203.768C107.757 203.546 108.18 203.586 108.402 203.889C108.624 204.192 108.584 204.616 108.281 204.838C108.08 204.999 107.858 205.16 107.656 205.342C107.535 205.463 107.393 205.503 107.232 205.503ZM109.936 203.445C109.734 203.445 109.512 203.344 109.391 203.163C109.169 202.86 109.23 202.436 109.532 202.214C109.754 202.053 109.976 201.891 110.178 201.73C110.481 201.508 110.905 201.569 111.127 201.871C111.348 202.174 111.288 202.598 110.985 202.82C110.763 202.981 110.561 203.143 110.34 203.304C110.218 203.405 110.077 203.445 109.936 203.445ZM112.68 201.448C112.458 201.448 112.257 201.347 112.115 201.165C111.893 200.862 111.974 200.439 112.277 200.217C112.499 200.055 112.721 199.914 112.943 199.752C113.245 199.531 113.669 199.611 113.891 199.934C114.113 200.237 114.032 200.661 113.709 200.883C113.487 201.044 113.265 201.185 113.044 201.347C112.963 201.407 112.822 201.448 112.68 201.448ZM115.485 199.551C115.263 199.551 115.041 199.45 114.92 199.248C114.718 198.925 114.799 198.501 115.122 198.3C115.344 198.158 115.566 197.997 115.808 197.856C116.131 197.654 116.555 197.735 116.756 198.057C116.958 198.38 116.878 198.804 116.555 199.006C116.333 199.147 116.111 199.309 115.889 199.45C115.747 199.51 115.606 199.551 115.485 199.551ZM118.351 197.714C118.129 197.714 117.907 197.593 117.765 197.392C117.564 197.069 117.664 196.645 117.987 196.443C118.209 196.302 118.451 196.161 118.673 196.019C118.996 195.818 119.42 195.919 119.622 196.241C119.824 196.564 119.723 196.988 119.4 197.19C119.178 197.331 118.936 197.472 118.714 197.614C118.593 197.674 118.472 197.714 118.351 197.714ZM121.256 195.939C121.014 195.939 120.792 195.818 120.671 195.596C120.49 195.273 120.59 194.849 120.913 194.667C121.155 194.526 121.377 194.385 121.62 194.264C121.942 194.082 122.366 194.183 122.548 194.506C122.729 194.829 122.629 195.253 122.306 195.434C122.063 195.575 121.842 195.697 121.62 195.838C121.478 195.919 121.357 195.939 121.256 195.939ZM124.202 194.244C123.96 194.244 123.738 194.123 123.597 193.901C123.415 193.578 123.537 193.154 123.859 192.972C124.102 192.831 124.344 192.71 124.566 192.569C124.889 192.387 125.312 192.508 125.494 192.831C125.676 193.154 125.554 193.578 125.232 193.759C124.989 193.88 124.767 194.022 124.525 194.143C124.424 194.223 124.324 194.244 124.202 194.244ZM127.189 192.629C126.947 192.629 126.705 192.488 126.584 192.266C126.402 191.923 126.543 191.52 126.866 191.338C127.108 191.217 127.35 191.096 127.593 190.954C127.936 190.773 128.339 190.914 128.521 191.237C128.702 191.58 128.561 191.984 128.238 192.165C127.996 192.286 127.754 192.407 127.532 192.528C127.411 192.609 127.31 192.629 127.189 192.629ZM130.216 191.076C129.974 191.076 129.731 190.934 129.61 190.692C129.449 190.349 129.59 189.946 129.913 189.784C130.155 189.663 130.397 189.542 130.64 189.421C130.983 189.259 131.386 189.401 131.548 189.744C131.709 190.087 131.568 190.49 131.225 190.652C130.983 190.773 130.74 190.894 130.498 191.015C130.418 191.055 130.317 191.076 130.216 191.076ZM133.283 189.603C133.021 189.603 132.779 189.461 132.657 189.219C132.496 188.876 132.637 188.472 132.98 188.311C133.222 188.19 133.465 188.089 133.707 187.968C134.05 187.807 134.453 187.968 134.615 188.311C134.776 188.654 134.615 189.058 134.272 189.219C134.03 189.34 133.787 189.441 133.545 189.562C133.485 189.582 133.384 189.603 133.283 189.603ZM136.37 188.21C136.108 188.21 135.866 188.049 135.745 187.807C135.583 187.464 135.745 187.06 136.088 186.899C136.33 186.798 136.592 186.677 136.834 186.576C137.178 186.434 137.581 186.576 137.743 186.939C137.884 187.282 137.743 187.685 137.379 187.847C137.137 187.948 136.895 188.069 136.633 188.17C136.552 188.19 136.471 188.21 136.37 188.21ZM139.498 186.858C139.236 186.858 138.973 186.697 138.873 186.434C138.731 186.091 138.893 185.688 139.236 185.547C139.478 185.446 139.74 185.345 139.982 185.244C140.325 185.103 140.729 185.264 140.87 185.627C141.012 185.97 140.85 186.374 140.487 186.515C140.245 186.616 139.982 186.717 139.74 186.818C139.68 186.858 139.579 186.858 139.498 186.858ZM142.646 185.607C142.363 185.607 142.121 185.446 142 185.163C141.859 184.82 142.041 184.417 142.384 184.275C142.626 184.174 142.888 184.073 143.13 183.993C143.473 183.852 143.877 184.033 144.018 184.376C144.159 184.719 143.978 185.123 143.635 185.264C143.393 185.365 143.13 185.466 142.888 185.547C142.807 185.587 142.727 185.607 142.646 185.607ZM145.814 184.396C145.532 184.396 145.269 184.215 145.168 183.952C145.047 183.589 145.229 183.206 145.572 183.085C145.834 182.984 146.076 182.903 146.339 182.802C146.702 182.681 147.085 182.863 147.206 183.206C147.328 183.569 147.146 183.952 146.803 184.073C146.561 184.154 146.298 184.255 146.056 184.356C145.976 184.396 145.895 184.396 145.814 184.396ZM149.002 183.286C148.72 183.286 148.458 183.105 148.357 182.822C148.236 182.459 148.417 182.076 148.78 181.955C149.043 181.874 149.285 181.773 149.547 181.692C149.91 181.571 150.294 181.773 150.415 182.116C150.536 182.479 150.334 182.863 149.991 182.984C149.729 183.065 149.487 183.145 149.224 183.246C149.164 183.266 149.083 183.286 149.002 183.286ZM152.231 182.217C151.948 182.217 151.666 182.035 151.585 181.733C151.464 181.37 151.666 180.986 152.029 180.885C152.292 180.804 152.534 180.724 152.796 180.643C153.159 180.522 153.543 180.724 153.644 181.087C153.765 181.45 153.563 181.834 153.2 181.935C152.937 182.015 152.695 182.096 152.433 182.177C152.372 182.217 152.292 182.217 152.231 182.217ZM155.46 181.228C155.157 181.228 154.895 181.026 154.814 180.744C154.713 180.381 154.915 179.997 155.278 179.896C155.54 179.816 155.803 179.755 156.045 179.674C156.408 179.574 156.791 179.775 156.892 180.139C156.993 180.502 156.791 180.885 156.428 180.986C156.166 181.067 155.924 181.127 155.661 181.208C155.601 181.228 155.52 181.228 155.46 181.228ZM158.729 180.32C158.426 180.32 158.143 180.118 158.063 179.816C157.962 179.453 158.184 179.069 158.547 178.988C158.809 178.928 159.072 178.847 159.334 178.787C159.697 178.686 160.081 178.908 160.161 179.271C160.262 179.634 160.04 180.018 159.677 180.098C159.415 180.159 159.152 180.239 158.91 180.3C158.829 180.32 158.769 180.32 158.729 180.32ZM222.998 180.018C222.918 180.018 222.837 179.997 222.756 179.977C222.514 179.876 222.252 179.796 222.01 179.695C221.646 179.553 221.485 179.17 221.606 178.827C221.747 178.464 222.131 178.302 222.474 178.423C222.736 178.524 222.978 178.625 223.241 178.706C223.584 178.847 223.765 179.231 223.624 179.594C223.523 179.856 223.261 180.018 222.998 180.018ZM161.998 179.473C161.695 179.473 161.412 179.271 161.332 178.948C161.251 178.585 161.473 178.222 161.836 178.121C162.098 178.06 162.361 178 162.623 177.919C162.986 177.838 163.35 178.06 163.45 178.423C163.531 178.787 163.309 179.15 162.946 179.251C162.684 179.311 162.421 179.372 162.159 179.432C162.119 179.473 162.058 179.473 161.998 179.473ZM219.79 178.888C219.729 178.888 219.649 178.867 219.588 178.847C219.326 178.766 219.084 178.686 218.821 178.605C218.458 178.504 218.256 178.121 218.377 177.757C218.478 177.394 218.862 177.192 219.225 177.314C219.487 177.394 219.75 177.475 220.012 177.556C220.375 177.677 220.577 178.06 220.456 178.423C220.355 178.706 220.093 178.888 219.79 178.888ZM165.307 178.686C164.984 178.686 164.722 178.464 164.641 178.161C164.56 177.798 164.782 177.435 165.166 177.354C165.428 177.293 165.69 177.233 165.953 177.172C166.316 177.092 166.679 177.334 166.76 177.697C166.841 178.06 166.598 178.423 166.235 178.504C165.973 178.565 165.711 178.625 165.448 178.686C165.408 178.686 165.367 178.686 165.307 178.686ZM168.636 178C168.314 178 168.031 177.778 167.971 177.455C167.89 177.092 168.132 176.728 168.515 176.648C168.778 176.587 169.04 176.547 169.302 176.486C169.666 176.405 170.029 176.648 170.11 177.031C170.19 177.394 169.948 177.757 169.565 177.838C169.302 177.899 169.04 177.939 168.778 178C168.717 177.979 168.677 178 168.636 178ZM216.541 177.939C216.481 177.939 216.42 177.939 216.36 177.919C216.097 177.858 215.835 177.778 215.593 177.717C215.23 177.616 215.008 177.253 215.088 176.89C215.189 176.527 215.552 176.305 215.916 176.385C216.178 176.446 216.44 176.527 216.703 176.587C217.066 176.688 217.288 177.051 217.187 177.414C217.126 177.737 216.844 177.939 216.541 177.939ZM171.966 177.374C171.643 177.374 171.361 177.132 171.3 176.809C171.24 176.446 171.482 176.083 171.845 176.022C172.107 175.982 172.37 175.921 172.652 175.881C173.015 175.82 173.378 176.062 173.439 176.446C173.5 176.809 173.257 177.172 172.874 177.233C172.612 177.273 172.349 177.314 172.087 177.374C172.047 177.374 172.006 177.374 171.966 177.374ZM213.232 177.152C213.191 177.152 213.131 177.152 213.091 177.132C212.828 177.071 212.566 177.031 212.304 176.97C211.94 176.89 211.698 176.547 211.759 176.163C211.84 175.8 212.183 175.558 212.566 175.619C212.828 175.679 213.091 175.719 213.373 175.78C213.736 175.861 213.978 176.224 213.898 176.587C213.837 176.93 213.555 177.152 213.232 177.152ZM175.316 176.829C174.993 176.829 174.69 176.587 174.65 176.244C174.589 175.881 174.852 175.518 175.215 175.457C175.477 175.417 175.76 175.376 176.022 175.336C176.405 175.275 176.748 175.538 176.789 175.921C176.829 176.305 176.587 176.648 176.204 176.688C175.941 176.728 175.679 176.769 175.417 176.809C175.376 176.809 175.336 176.829 175.316 176.829ZM209.902 176.527C209.862 176.527 209.822 176.527 209.781 176.527C209.519 176.486 209.257 176.446 208.994 176.405C208.631 176.345 208.369 176.002 208.429 175.619C208.49 175.255 208.833 174.993 209.216 175.053C209.479 175.094 209.761 175.134 210.023 175.175C210.387 175.235 210.649 175.578 210.588 175.962C210.528 176.284 210.225 176.527 209.902 176.527ZM178.665 176.345C178.322 176.345 178.04 176.103 177.979 175.74C177.939 175.356 178.201 175.033 178.564 174.973C178.827 174.932 179.109 174.912 179.372 174.872C179.755 174.832 180.078 175.094 180.138 175.477C180.199 175.861 179.916 176.184 179.533 176.244C179.271 176.284 179.008 176.305 178.746 176.345C178.726 176.345 178.706 176.345 178.665 176.345ZM206.553 176.042C206.532 176.042 206.492 176.042 206.472 176.042C206.21 176.002 205.947 175.982 205.685 175.941C205.302 175.901 205.039 175.558 205.08 175.195C205.12 174.811 205.463 174.549 205.826 174.589C206.089 174.63 206.371 174.65 206.633 174.69C207.017 174.731 207.279 175.074 207.219 175.457C207.178 175.8 206.896 176.042 206.553 176.042ZM182.035 175.962C181.692 175.962 181.39 175.699 181.349 175.356C181.309 174.973 181.591 174.65 181.955 174.61C182.217 174.589 182.499 174.549 182.762 174.529C183.145 174.488 183.468 174.771 183.508 175.134C183.549 175.518 183.266 175.84 182.903 175.881C182.641 175.901 182.378 175.941 182.096 175.962C182.096 175.962 182.076 175.962 182.035 175.962ZM203.183 175.699C203.163 175.699 203.142 175.699 203.122 175.699C202.86 175.679 202.598 175.659 202.315 175.639C201.932 175.619 201.649 175.275 201.69 174.912C201.71 174.529 202.053 174.246 202.416 174.287C202.678 174.307 202.961 174.327 203.223 174.347C203.607 174.388 203.869 174.71 203.849 175.094C203.828 175.417 203.526 175.699 203.183 175.699ZM185.425 175.659C185.062 175.659 184.78 175.376 184.739 175.033C184.719 174.65 185.002 174.327 185.365 174.307C185.627 174.287 185.91 174.267 186.172 174.246C186.555 174.226 186.878 174.509 186.898 174.872C186.919 175.255 186.636 175.578 186.273 175.598C186.01 175.619 185.748 175.639 185.466 175.659C185.466 175.659 185.445 175.659 185.425 175.659ZM199.793 175.457C199.773 175.457 199.773 175.457 199.752 175.457C199.49 175.437 199.228 175.437 198.945 175.417C198.562 175.397 198.279 175.074 198.299 174.71C198.32 174.327 198.642 174.045 199.006 174.065C199.268 174.085 199.551 174.085 199.813 174.105C200.196 174.125 200.479 174.448 200.459 174.832C200.459 175.175 200.156 175.457 199.793 175.457ZM188.815 175.457C188.452 175.457 188.149 175.175 188.129 174.811C188.109 174.428 188.412 174.105 188.775 174.105C189.037 174.085 189.32 174.085 189.582 174.065C189.966 174.045 190.268 174.347 190.288 174.71C190.309 175.094 190.006 175.397 189.643 175.417C189.38 175.437 189.118 175.437 188.836 175.457H188.815ZM192.205 175.336C191.842 175.336 191.54 175.033 191.519 174.67C191.519 174.287 191.802 173.984 192.185 173.984C192.448 173.984 192.73 173.984 192.992 173.964C193.356 173.964 193.678 174.267 193.678 174.63C193.678 175.013 193.376 175.316 193.013 175.316C192.75 175.336 192.488 175.336 192.205 175.336ZM196.403 175.336C196.403 175.336 196.382 175.336 196.403 175.336C196.12 175.336 195.858 175.336 195.595 175.316C195.212 175.316 194.909 174.993 194.93 174.63C194.93 174.246 195.232 173.944 195.616 173.964C195.878 173.964 196.16 173.964 196.423 173.984C196.806 173.984 197.109 174.307 197.089 174.67C197.069 175.054 196.766 175.336 196.403 175.336Z" fill="#4EFDEA"/>
<path d="M195.704 60.296C202.602 60.296 208.194 54.7037 208.194 47.8052C208.194 40.9068 202.602 35.3145 195.704 35.3145C188.805 35.3145 183.213 40.9068 183.213 47.8052C183.213 54.7037 188.805 60.296 195.704 60.296Z" fill="#4EFDEA"/>
<path d="M208.176 47.1394H195.706H183.215C183.215 47.1394 182.226 54.081 193.365 73.0693C193.849 73.8967 194.737 74.4011 195.706 74.4011C196.674 74.4011 197.562 73.9168 198.046 73.0895C209.185 54.081 208.176 47.1394 208.176 47.1394Z" fill="#4EFDEA"/>
<path opacity="0.8" d="M195.701 74.7844V74.8449C194.611 74.8449 193.602 74.2396 193.058 73.3113C186.54 62.2129 184.159 55.1906 183.291 51.2558C183.049 50.3477 182.908 49.4598 182.867 48.5518C182.786 47.6236 182.847 47.2402 182.847 47.1998L182.887 46.998C183.392 40.2784 188.981 35.0723 195.701 35.0723C202.521 35.0723 208.151 40.3793 208.535 47.1393C208.535 47.22 208.555 47.4621 208.555 47.8253V47.8657C208.555 49.0966 208.373 50.3074 208.03 51.4777C207.142 55.4126 204.741 62.3542 198.344 73.271C197.8 74.2194 196.831 74.7844 195.701 74.7844ZM183.553 47.7043C183.553 47.8859 183.553 48.1684 183.594 48.572C183.634 49.4397 183.775 50.267 183.997 51.1145V51.1347C184.845 55.009 187.206 61.9506 193.683 72.9683C194.107 73.6745 194.874 74.1185 195.701 74.1185V74.4817V74.1185C196.448 74.1185 197.315 73.6745 197.719 72.9481C204.075 62.112 206.456 55.2108 207.324 51.3365V51.3163C207.647 50.2065 207.748 49.0563 207.748 47.9061L207.667 47.8455C207.667 47.4823 207.728 47.2805 207.728 47.2402L207.768 47.22C207.405 40.8434 202.118 35.8391 195.681 35.8391C189.264 35.8391 183.937 40.904 183.573 47.3612L183.553 47.7244V47.7043Z" fill="white"/>
<path d="M195.74 54.9889C199.729 54.9889 202.964 51.7546 202.964 47.7648C202.964 43.7751 199.729 40.5408 195.74 40.5408C191.75 40.5408 188.516 43.7751 188.516 47.7648C188.516 51.7546 191.75 54.9889 195.74 54.9889Z" fill="white"/>
<g clip-path="url(#clip0_310_6760)">
<path d="M198.772 45.2383L198.403 44.8696L195.643 47.6296L192.883 44.8696L192.515 45.2383L195.275 47.9982L192.515 50.7582L192.883 51.1268L195.643 48.3669L198.403 51.1268L198.772 50.7582L196.012 47.9982L198.772 45.2383Z" fill="#979AB8"/>
</g>
<path d="M188.901 40.2583C188.86 40.2583 188.84 40.2381 188.8 40.2179C188.759 40.1574 188.759 40.0969 188.82 40.0565C190.838 38.3211 193.441 37.3525 196.104 37.3525C196.165 37.3525 196.225 37.4131 196.225 37.4736C196.225 37.5342 196.165 37.5947 196.104 37.5947C193.481 37.5947 190.959 38.5229 188.961 40.2381C188.961 40.2381 188.921 40.2583 188.901 40.2583Z" fill="white"/>
<path d="M185.044 48.6528C184.983 48.6528 184.923 48.5923 184.923 48.5317C184.923 46.4331 185.508 44.395 186.598 42.6395C186.638 42.5789 186.699 42.5588 186.759 42.5991C186.82 42.6395 186.84 42.7 186.799 42.7606C185.73 44.4959 185.165 46.4735 185.165 48.5317C185.165 48.6124 185.104 48.6528 185.044 48.6528Z" fill="white"/>
<path d="M225.634 166.296C232.533 166.296 238.125 160.703 238.125 153.805C238.125 146.907 232.533 141.314 225.634 141.314C218.736 141.314 213.144 146.907 213.144 153.805C213.144 160.703 218.736 166.296 225.634 166.296Z" fill="#4EFDEA"/>
<path d="M238.105 153.139H225.634H213.144C213.144 153.139 212.155 160.081 223.294 179.069C223.778 179.896 224.666 180.401 225.634 180.401C226.603 180.401 227.491 179.917 227.975 179.089C239.114 160.081 238.105 153.139 238.105 153.139Z" fill="#4EFDEA"/>
<path opacity="0.8" d="M225.636 180.804V180.865C224.546 180.865 223.537 180.26 222.992 179.331C216.474 168.233 214.093 161.211 213.225 157.276C212.983 156.368 212.842 155.48 212.802 154.572C212.721 153.644 212.782 153.26 212.782 153.22L212.822 153.018C213.326 146.298 218.916 141.092 225.636 141.092C232.456 141.092 238.086 146.399 238.469 153.159C238.469 153.24 238.49 153.482 238.49 153.845V153.886C238.49 155.117 238.308 156.327 237.965 157.498C237.077 161.433 234.676 168.374 228.279 179.291C227.734 180.239 226.745 180.804 225.636 180.804ZM213.488 153.704C213.488 153.886 213.488 154.168 213.528 154.572C213.569 155.439 213.71 156.267 213.932 157.114V157.135C214.779 161.009 217.14 167.95 223.618 178.968C224.041 179.674 224.808 180.118 225.636 180.118V180.482V180.118C226.382 180.118 227.25 179.674 227.653 178.948C234.01 168.112 236.391 161.211 237.259 157.336V157.316C237.581 156.206 237.682 155.056 237.682 153.906L237.602 153.845C237.602 153.482 237.662 153.28 237.662 153.24L237.703 153.22C237.339 146.843 232.052 141.839 225.615 141.839C219.198 141.839 213.871 146.904 213.508 153.361L213.488 153.724V153.704Z" fill="white"/>
<path d="M228.935 160.215C232.497 158.419 233.93 154.075 232.134 150.512C230.338 146.949 225.994 145.517 222.432 147.312C218.869 149.108 217.436 153.452 219.232 157.015C221.028 160.578 225.372 162.01 228.935 160.215Z" fill="white"/>
<g clip-path="url(#clip1_310_6760)">
<path d="M229.012 150.568L228.643 150.199L225.883 152.959L223.124 150.199L222.755 150.568L225.515 153.328L222.755 156.088L223.124 156.456L225.883 153.696L228.643 156.456L229.012 156.088L226.252 153.328L229.012 150.568Z" fill="#979AB8"/>
</g>
<path d="M218.839 146.258C218.799 146.258 218.778 146.238 218.738 146.218C218.698 146.157 218.698 146.097 218.758 146.057C220.776 144.321 223.379 143.353 226.043 143.353C226.103 143.353 226.164 143.413 226.164 143.474C226.164 143.534 226.103 143.595 226.043 143.595C223.42 143.595 220.897 144.523 218.9 146.238C218.9 146.238 218.859 146.258 218.839 146.258Z" fill="white"/>
<path d="M214.964 154.652C214.903 154.652 214.843 154.592 214.843 154.531C214.843 152.433 215.428 150.395 216.518 148.639C216.558 148.578 216.619 148.558 216.679 148.599C216.74 148.639 216.76 148.7 216.719 148.76C215.65 150.495 215.085 152.473 215.085 154.531C215.085 154.612 215.045 154.652 214.964 154.652Z" fill="white"/>
<path d="M112.32 121.619C119.218 121.619 124.811 116.027 124.811 109.129C124.811 102.23 119.218 96.6379 112.32 96.6379C105.421 96.6379 99.8291 102.23 99.8291 109.129C99.8291 116.027 105.421 121.619 112.32 121.619Z" fill="#4EFDEA"/>
<path d="M124.791 108.463H112.321H99.8301C99.8301 108.463 98.8413 115.404 109.98 134.393C110.464 135.22 111.352 135.725 112.321 135.725C113.289 135.725 114.177 135.24 114.662 134.413C125.8 115.404 124.791 108.463 124.791 108.463Z" fill="#4EFDEA"/>
<path opacity="0.8" d="M112.296 136.128V136.189C111.206 136.189 110.197 135.583 109.652 134.655C103.134 123.557 100.753 116.534 99.8857 112.6C99.6435 111.691 99.5023 110.804 99.4619 109.896C99.3812 108.967 99.4417 108.584 99.4417 108.544L99.4821 108.342C99.9865 101.622 105.576 96.416 112.296 96.416C119.116 96.416 124.746 101.723 125.129 108.483C125.129 108.564 125.15 108.806 125.15 109.169V109.209C125.15 110.44 124.968 111.651 124.625 112.821C123.737 116.756 121.336 123.698 114.939 134.615C114.394 135.563 113.426 136.128 112.296 136.128ZM100.148 109.028C100.148 109.209 100.148 109.492 100.188 109.896C100.229 110.763 100.37 111.591 100.592 112.438V112.458C101.439 116.333 103.8 123.274 110.278 134.292C110.702 134.998 111.468 135.442 112.296 135.442V135.805V135.442C113.042 135.442 113.91 134.998 114.314 134.272C120.67 123.436 123.051 116.534 123.919 112.66V112.64C124.242 111.53 124.342 110.38 124.342 109.23L124.262 109.169C124.262 108.806 124.322 108.604 124.322 108.564L124.363 108.544C123.999 102.167 118.713 97.1626 112.276 97.1626C105.859 97.1626 100.531 102.228 100.168 108.685L100.148 109.048V109.028Z" fill="white"/>
<path d="M117.456 114.193C120.277 111.372 120.277 106.798 117.456 103.977C114.635 101.156 110.061 101.156 107.24 103.977C104.419 106.798 104.419 111.372 107.24 114.193C110.061 117.014 114.635 117.014 117.456 114.193Z" fill="white"/>
<path d="M105.496 101.582C105.456 101.582 105.436 101.562 105.395 101.541C105.355 101.481 105.355 101.42 105.416 101.38C107.433 99.6446 110.036 98.676 112.7 98.676C112.761 98.676 112.821 98.7366 112.821 98.7971C112.821 98.8576 112.761 98.9182 112.7 98.9182C110.077 98.9182 107.554 99.8464 105.557 101.562C105.557 101.582 105.537 101.582 105.496 101.582Z" fill="white"/>
<path d="M101.645 109.996C101.584 109.996 101.523 109.936 101.523 109.875C101.523 107.777 102.109 105.739 103.198 103.983C103.239 103.922 103.299 103.902 103.36 103.943C103.42 103.983 103.44 104.044 103.4 104.104C102.331 105.839 101.766 107.817 101.766 109.875C101.766 109.936 101.705 109.996 101.645 109.996Z" fill="white"/>
<defs>
<linearGradient id="paint0_linear_310_6760" x1="143.765" y1="0.554687" x2="143.765" y2="267" gradientUnits="userSpaceOnUse">
<stop stop-color="#D7FFFB"/>
<stop offset="1" stop-color="#D7FFFB" stop-opacity="0"/>
</linearGradient>
<linearGradient id="paint1_linear_310_6760" x1="113.305" y1="30.3092" x2="128.18" y2="30.3092" gradientUnits="userSpaceOnUse">
<stop stop-color="#4EFDEA"/>
<stop offset="1" stop-color="#5766FF"/>
</linearGradient>
<linearGradient id="paint2_linear_310_6760" x1="75.0648" y1="51.1832" x2="166.321" y2="51.1832" gradientUnits="userSpaceOnUse">
<stop stop-color="#4EFDEA"/>
<stop offset="1" stop-color="#5766FF"/>
</linearGradient>
<linearGradient id="paint3_linear_310_6760" x1="64.7264" y1="47.2775" x2="92.301" y2="47.2775" gradientUnits="userSpaceOnUse">
<stop stop-color="#4EFDEA"/>
<stop offset="1" stop-color="#5766FF"/>
</linearGradient>
<linearGradient id="paint4_linear_310_6760" x1="73.9509" y1="55.9215" x2="86.1721" y2="55.9215" gradientUnits="userSpaceOnUse">
<stop stop-color="#4EFDEA"/>
<stop offset="1" stop-color="#5766FF"/>
</linearGradient>
<linearGradient id="paint5_linear_310_6760" x1="118.62" y1="54.0983" x2="136.116" y2="54.0983" gradientUnits="userSpaceOnUse">
<stop stop-color="#4EFDEA"/>
<stop offset="1" stop-color="#5766FF"/>
</linearGradient>
<linearGradient id="paint6_linear_310_6760" x1="107.623" y1="64.0196" x2="129.806" y2="64.0196" gradientUnits="userSpaceOnUse">
<stop stop-color="#4EFDEA"/>
<stop offset="1" stop-color="#5766FF"/>
</linearGradient>
<linearGradient id="paint7_linear_310_6760" x1="64.6328" y1="45.4168" x2="70.7513" y2="45.4168" gradientUnits="userSpaceOnUse">
<stop stop-color="#4EFDEA"/>
<stop offset="1" stop-color="#5766FF"/>
</linearGradient>
<clipPath id="clip0_310_6760">
<rect width="6.25719" height="6.25719" fill="white" transform="translate(192.515 44.8696)"/>
</clipPath>
<clipPath id="clip1_310_6760">
<rect width="6.25719" height="6.25719" fill="white" transform="translate(222.755 150.199)"/>
</clipPath>
</defs>
</svg>
