<svg width="399" height="292" viewBox="0 0 399 292" fill="none" xmlns="http://www.w3.org/2000/svg">
<g clip-path="url(#clip0_307_8814)">
<path d="M112.364 113.325L65.6836 73.121L6.42471 141.628L53.1048 181.832L112.364 113.325Z" fill="url(#paint0_linear_307_8814)"/>
<g opacity="0.2">
<path d="M40.4744 151.051L38.4822 149.166L51.6154 134.701L53.6363 136.605L40.4744 151.051Z" fill="#17BD8D"/>
<path d="M54.0423 148.451L52.1444 150.514L38.0764 137.321L39.9455 135.238L54.0423 148.451Z" fill="#17BD8D"/>
</g>
<path d="M82.9321 108.675C82.9003 108.731 78.141 104.699 72.3621 99.7174C66.571 94.6922 61.8996 90.6353 61.9314 90.5793C61.9632 90.5233 66.7225 94.556 72.5014 99.5373C78.2925 104.563 82.9639 108.619 82.9321 108.675Z" fill="#D6D8EA"/>
<path d="M92.4756 125.566C92.4438 125.622 84.5864 118.943 74.9948 110.614C65.3713 102.341 57.6215 95.5382 57.6533 95.4822C57.6851 95.4262 65.5425 102.105 75.1341 110.434C84.7697 118.751 92.5074 125.51 92.4756 125.566Z" fill="#D6D8EA"/>
<path d="M88.0266 130.711C87.9948 130.767 80.1374 124.089 70.5458 115.76C60.9223 107.487 53.1725 100.684 53.2043 100.628C53.2361 100.572 61.0935 107.251 70.6851 115.58C80.3085 123.853 88.1023 130.643 88.0266 130.711Z" fill="#D6D8EA"/>
<path d="M83.6094 135.801C83.5776 135.857 75.7202 129.178 66.1286 120.849C56.5051 112.577 48.7553 105.774 48.7871 105.718C48.8189 105.662 56.6763 112.34 66.2679 120.669C75.8596 128.998 83.6412 135.745 83.6094 135.801Z" fill="#D6D8EA"/>
<path d="M79.1611 140.947C79.1293 141.003 71.2719 134.324 61.6803 125.995C52.0569 117.723 44.3071 110.92 44.3389 110.864C44.3707 110.808 52.2281 117.486 61.8197 125.815C71.4553 134.132 79.1929 140.891 79.1611 140.947Z" fill="#D6D8EA"/>
<path d="M327.525 111L265 152.748L326.556 244.603L389.081 202.856L327.525 111Z" fill="url(#paint1_linear_307_8814)"/>
<g opacity="0.2">
<path d="M356.083 198.558L355.387 202.722L325.81 198.432L326.442 194.268L356.083 198.558Z" fill="#F53D6B"/>
<path d="M341.167 183.67L345.401 184.238L340.661 213.383L336.427 212.752L341.167 183.67Z" fill="#F53D6B"/>
</g>
<path d="M312.522 144.066C312.588 144.132 306.286 148.436 298.525 153.601C290.764 158.765 284.396 162.937 284.33 162.87C284.263 162.804 290.565 158.5 298.326 153.336C306.154 148.171 312.455 144 312.522 144.066Z" fill="#D6D8EA"/>
<path d="M335.539 138.306C335.606 138.372 325.191 145.457 312.323 154.064C299.454 162.672 288.907 169.558 288.907 169.492C288.84 169.426 299.255 162.341 312.19 153.733C324.992 145.192 335.473 138.239 335.539 138.306Z" fill="#D6D8EA"/>
<path d="M340.117 145.192C340.183 145.258 329.769 152.343 316.9 160.95C304.031 169.558 293.484 176.444 293.484 176.378C293.417 176.312 303.832 169.227 316.767 160.619C329.57 152.078 340.05 145.125 340.117 145.192Z" fill="#D6D8EA"/>
<path d="M344.76 152.078C344.827 152.144 334.412 159.229 321.543 167.836C308.674 176.444 298.127 183.33 298.127 183.264C298.061 183.198 308.475 176.113 321.411 167.505C334.213 158.898 344.694 152.012 344.76 152.078Z" fill="#D6D8EA"/>
<path d="M349.336 158.964C349.403 159.03 338.988 166.115 326.119 174.723C313.251 183.33 302.703 190.217 302.703 190.15C302.637 190.084 313.052 182.999 325.987 174.392C338.789 165.784 349.27 158.898 349.336 158.964Z" fill="#D6D8EA"/>
<g opacity="0.5">
<path d="M165.105 81.3592H245.038C245.038 81.3592 237.675 46.1338 204.508 46.1338C174.923 46.1338 165.105 81.3592 165.105 81.3592Z" fill="#4EFDEA"/>
<path d="M205.901 17H204.177V46.1338H205.901V17Z" fill="#4EFDEA"/>
</g>
<path opacity="0.7" d="M382.947 291.205C382.947 291.272 297.177 291.404 191.44 291.404C85.7038 291.404 0 291.338 0 291.205C0 291.139 85.7038 291.007 191.507 291.007C297.243 291.073 382.947 291.139 382.947 291.205Z" fill="#000034"/>
<path d="M21.2272 249.756C23.4825 249.822 25.6052 251.08 27.0646 252.736C28.5239 254.391 29.4526 256.51 30.0496 258.695C31.1773 262.866 30.5139 267.832 29.2536 272.004C24.7429 270.414 21.8905 265.581 20.6302 262.999C18.6401 258.96 17.4461 250.484 21.2272 249.756Z" fill="#EBECF3"/>
<path d="M35.7542 277.102C34.2949 275.049 34.2949 272.202 35.4226 269.951C36.5502 267.7 38.7393 266.111 41.1273 265.382C42.255 265.051 43.5153 264.919 44.5103 265.515C45.439 266.111 45.7707 267.302 45.7044 268.362C45.5717 269.421 45.041 270.414 44.3777 271.275C42.1223 274.255 39.4689 276.771 35.7542 277.102Z" fill="#EBECF3"/>
<path d="M36.2853 291.073C36.2853 291.073 36.2189 290.742 36.0862 290.212C35.9536 289.616 35.8209 288.822 35.6219 287.829C35.2902 285.842 34.6932 282.995 35.1576 279.817C35.5556 276.705 36.8159 273.99 38.1426 272.401C38.8059 271.606 39.403 271.01 39.8673 270.679C40.0663 270.481 40.2653 270.348 40.398 270.282C40.5306 270.216 40.597 270.15 40.597 270.15C40.6633 270.216 39.5356 270.878 38.2753 272.533C37.0149 274.122 35.8209 276.771 35.4229 279.883C35.0249 282.995 35.5556 285.776 35.8209 287.829C35.9536 288.822 36.0862 289.683 36.2189 290.212C36.2853 290.742 36.2853 291.073 36.2853 291.073Z" fill="#263238"/>
<path d="M22.6872 256.112C22.6872 256.112 22.7535 256.245 22.8862 256.443C23.0188 256.708 23.1515 257.039 23.3505 257.437C23.7485 258.297 24.3455 259.622 25.0089 261.211C26.4019 264.389 28.1929 268.759 30.1166 273.725C32.0403 278.625 33.6323 283.127 34.76 286.372C35.357 288.027 35.755 289.351 36.0867 290.278C36.2193 290.742 36.352 291.073 36.4183 291.338C36.4847 291.603 36.551 291.735 36.4847 291.735C36.4847 291.735 36.4183 291.603 36.352 291.404C36.2193 291.139 36.153 290.808 35.954 290.345C35.6223 289.418 35.158 288.093 34.561 286.504C33.367 283.26 31.7086 278.824 29.7849 273.858C27.8612 268.958 26.0702 264.522 24.7435 261.343C24.0802 259.754 23.5495 258.496 23.2178 257.569C23.0188 257.172 22.8862 256.775 22.8198 256.51C22.6872 256.245 22.6208 256.112 22.6872 256.112Z" fill="#263238"/>
<path d="M30.8458 281.803C28.1925 277.234 23.1511 274.122 17.9107 273.791C16.584 273.725 14.9256 273.924 14.3286 275.116C13.7316 276.307 14.5276 277.764 15.4563 278.757C19.2374 282.863 25.6718 284.319 30.9122 282.2" fill="#EBECF3"/>
<path d="M19.9668 277.367C19.9668 277.367 20.2985 277.367 20.8291 277.367C21.0945 277.367 21.4261 277.433 21.8242 277.499C22.2222 277.565 22.6202 277.632 23.0845 277.764C23.5488 277.897 24.0795 277.963 24.6102 278.161C25.1409 278.294 25.7379 278.559 26.3349 278.824C27.5289 279.353 28.7229 280.015 29.9169 280.942C31.1109 281.869 32.1059 282.863 32.902 283.856C33.3 284.385 33.6316 284.849 33.9633 285.379C34.295 285.842 34.494 286.306 34.7593 286.769C35.0247 287.166 35.1573 287.63 35.29 287.961C35.4227 288.292 35.5553 288.623 35.6217 288.888C35.7543 289.418 35.887 289.682 35.8207 289.682C35.7543 289.682 35.4227 288.557 34.5603 286.835C34.295 286.438 34.096 285.975 33.7643 285.511C33.499 285.048 33.101 284.584 32.703 284.054C31.9069 283.061 30.9119 282.068 29.7843 281.207C28.5902 280.346 27.3962 279.618 26.2685 279.088C25.6715 278.824 25.1409 278.625 24.6102 278.426C24.0795 278.228 23.5488 278.095 23.0845 277.963C21.1608 277.499 19.9668 277.433 19.9668 277.367Z" fill="#263238"/>
<path d="M141.027 155.27L117.545 275.645L114.493 291.404L271.108 290.61C278.14 290.543 284.375 284.319 286.63 275.116L314.424 161.494C316.149 154.475 312.368 147.192 307.061 147.192L148.589 147.391C145.007 147.324 141.956 150.569 141.027 155.27Z" fill="url(#paint2_linear_307_8814)"/>
<g opacity="0.5">
<path d="M141.027 155.27L117.545 275.645L114.493 291.404L271.108 290.61C278.14 290.543 284.375 284.319 286.63 275.116L314.424 161.494C316.149 154.475 312.368 147.192 307.061 147.192L148.589 147.391C145.007 147.324 141.956 150.569 141.027 155.27Z" fill="white"/>
</g>
<path d="M256.116 267.501L239.533 134.148C238.869 128.652 234.491 124.613 229.317 124.613L192.966 124.746C190.247 124.746 187.726 125.871 185.802 127.924L168.555 146.265L67.462 146.795C61.2929 146.795 56.5169 152.688 57.3792 159.243L72.7687 282.532C73.4321 287.961 77.8101 292.066 82.9179 292.066L259.101 291.735C278.736 292.132 280.594 286.372 280.594 286.372C258.106 291.205 256.116 267.501 256.116 267.501Z" fill="url(#paint3_linear_307_8814)"/>
</g>
<defs>
<linearGradient id="paint0_linear_307_8814" x1="89.0237" y1="93.2229" x2="29.912" y2="161.857" gradientUnits="userSpaceOnUse">
<stop stop-color="#EFF0F5"/>
<stop offset="1" stop-color="#EFF0F5" stop-opacity="0"/>
</linearGradient>
<linearGradient id="paint1_linear_307_8814" x1="296.263" y1="131.874" x2="357.663" y2="223.833" gradientUnits="userSpaceOnUse">
<stop stop-color="#EFF0F5"/>
<stop offset="1" stop-color="#EFF0F5" stop-opacity="0"/>
</linearGradient>
<linearGradient id="paint2_linear_307_8814" x1="127.85" y1="291.404" x2="298.985" y2="291.404" gradientUnits="userSpaceOnUse">
<stop stop-color="#4EFDEA"/>
<stop offset="1" stop-color="#5766FF"/>
</linearGradient>
<linearGradient id="paint3_linear_307_8814" x1="72.166" y1="292.066" x2="262.915" y2="292.066" gradientUnits="userSpaceOnUse">
<stop stop-color="#4EFDEA"/>
<stop offset="1" stop-color="#5766FF"/>
</linearGradient>
<clipPath id="clip0_307_8814">
<rect width="399" height="292" fill="white"/>
</clipPath>
</defs>
</svg>
