<svg width="140" height="30" viewBox="0 0 140 30" fill="none" xmlns="http://www.w3.org/2000/svg">
<path d="M10.8819 6.72093C9.20777 6.72093 8.78924 7.46512 8.78924 8.76744V11.186H13.1839L12.7653 15.093H8.78924V26.814H3.55755V15.093H0V11.186H3.55755V8.95349C3.55755 5.04651 5.23169 3 10.2541 3C11.3004 3 12.5561 3 13.1839 3.18605V6.72093" fill="#1877F2"/>
<path d="M13.6025 18.4414C13.6025 14.1623 15.9045 10.8135 20.7176 10.8135C23.4381 10.8135 24.903 11.9298 25.7401 13.6042V11.1856H30.7625V26.6274H25.7401V24.2088C24.903 25.6972 23.4381 26.8135 20.7176 26.8135C15.9045 26.8135 13.6025 23.6507 13.6025 19.1856M18.8342 19.5577C18.8342 21.7902 19.8806 23.4646 22.1825 23.4646C24.2752 23.4646 25.5308 21.9763 25.5308 19.9298V18.2553C25.5308 16.0228 24.4845 14.7205 22.1825 14.7205C19.8806 14.5344 18.8342 16.2088 18.8342 18.4414V19.5577Z" fill="#1877F2"/>
<path d="M41.8535 11C43.9462 11 45.8296 11.3721 46.8759 12.1163L45.6203 15.4651C44.7832 15.093 43.5276 14.7209 42.0628 14.7209C39.133 14.7209 37.8774 16.2093 37.8774 18.6279V19.5581C37.8774 21.9767 39.133 23.4651 42.0628 23.4651C43.5276 23.4651 44.7832 23.093 45.6203 22.7209L46.8759 26.0698C45.8296 26.814 43.9462 27.186 41.8535 27.186C35.5755 27.186 32.855 24.2093 32.855 19.5581V18.6279C32.855 13.7907 35.5755 11 41.8535 11Z" fill="#1877F2"/>
<path d="M47.5039 19.5581V18.2558C47.5039 13.7907 50.2244 11 56.0839 11C61.5248 11 63.8268 13.9767 63.8268 18.2558V20.6744H52.7356C52.9449 22.7209 53.9912 23.6512 56.9209 23.6512C58.8044 23.6512 60.897 23.2791 62.5712 22.7209L63.6175 25.8837C62.1526 26.4419 59.4322 27 56.9209 27C50.0151 27 47.5039 24.2093 47.5039 19.5581ZM52.7356 17.5116H59.0136V17.1395C59.0136 15.4651 58.1766 14.1628 55.8746 14.1628C53.7819 14.1628 52.7356 15.4651 52.7356 17.5116Z" fill="#1877F2"/>
<path d="M83.4976 19.5581C83.4976 23.8372 81.1957 27.186 76.3825 27.186C73.662 27.186 71.9879 26.0698 71.1508 24.5814V27H66.1284V3.37209L71.3601 3V13.4186C72.1972 12.1163 73.8713 11 76.1733 11C80.9864 11 83.2884 14.1628 83.2884 18.6279M78.2659 18.4419C78.2659 16.2093 77.2196 14.7209 74.7084 14.7209C72.6157 14.7209 71.3601 16.0233 71.3601 18.2558V19.7442C71.3601 21.9767 72.6157 23.2791 74.7084 23.2791C77.2196 23.2791 78.2659 21.6047 78.2659 19.5581V18.4419Z" fill="#1877F2"/>
<path d="M85.1719 19.3721V18.6279C85.1719 14.1628 88.1016 11 93.7518 11C99.6113 11 102.541 14.1628 102.541 18.6279V19.3721C102.541 23.8372 99.6113 27 93.9611 27C88.1016 27 85.1719 23.8372 85.1719 19.3721ZM97.3094 18.2558C97.3094 16.2093 96.2631 14.5349 93.9611 14.5349C91.4499 14.5349 90.6128 16.2093 90.6128 18.2558V19.7442C90.6128 21.7907 91.6592 23.4651 93.9611 23.4651C96.4723 23.4651 97.3094 21.7907 97.3094 19.7442V18.2558Z" fill="#1877F2"/>
<path d="M104.215 19.3721V18.6279C104.215 14.1628 107.145 11 112.795 11C118.655 11 121.375 14.1628 121.375 18.6279V19.3721C121.375 23.8372 118.446 27 112.795 27C107.145 27 104.215 23.8372 104.215 19.3721ZM116.353 18.2558C116.353 16.2093 115.307 14.5349 113.005 14.5349C110.493 14.5349 109.656 16.2093 109.656 18.2558V19.7442C109.656 21.7907 110.703 23.4651 113.005 23.4651C115.516 23.4651 116.353 21.7907 116.353 19.7442V18.2558Z" fill="#1877F2"/>
<path d="M128.909 18.6279L134.141 11.186H139.791L134.141 18.814L140 26.814H134.35L128.909 19.186V26.814H123.677V3.37209L128.909 3" fill="#1877F2"/>
</svg>
