<svg width="140" height="30" viewBox="0 0 140 30" fill="none" xmlns="http://www.w3.org/2000/svg">
<g clip-path="url(#clip0_1213_3164)">
<path d="M0.933119 13.652L22.3531 0.43457C23.2865 -0.0654297 24.4298 -0.0654297 25.3631 0.43457L46.7831 13.652C47.6231 14.0433 47.9965 14.978 47.5765 15.7824C47.4131 16.1085 47.1331 16.3694 46.7831 16.5215L43.9131 18.2824C36.8898 7.95631 22.2365 4.89109 11.1531 11.4128C8.18979 13.1737 5.66979 15.4998 3.77979 18.2824L0.886452 16.5215C0.046452 16.1085 -0.280214 15.152 0.139786 14.3694C0.326452 14.065 0.606452 13.8041 0.933119 13.652ZM23.8231 13.4998C17.6865 13.5215 11.9698 16.4563 8.70312 21.3041L13.6265 24.3476C17.0098 19.1085 24.3131 17.4346 29.9131 20.5867C31.5698 21.5215 32.9465 22.8041 33.9498 24.3476L38.8731 21.3041C35.6531 16.4346 29.9598 13.478 23.8231 13.4998ZM23.8231 24.5433C21.6531 24.565 19.6698 25.652 18.5965 27.4128L21.9098 29.4346C22.4465 29.8694 23.1231 30.0867 23.8231 30.0867C24.5231 30.0867 25.2231 29.8476 25.7365 29.4346L29.0498 27.4128C27.9998 25.6302 25.9931 24.5433 23.8231 24.5433Z" fill="url(#paint0_linear_1213_3164)"/>
<path d="M61.0167 15.0003L66.3834 22.1742H62.6034L58.5434 16.609V22.1742H55.4634V7.95678H58.5434V13.6307L62.3934 7.95678H65.94L61.0167 15.0003ZM71.68 8.00025H68.6V22.2177H76.4634V19.3481H71.61L71.68 8.00025ZM85.5634 7.47852L91.98 22.1959H88.5267L87.92 20.6524H82.8567L82.25 22.1959H78.7734L85.19 7.47852H85.5634ZM86.8 18.0003L85.4234 14.3263L84 18.0003H86.8ZM96.2967 15.8916L93.1467 8.00025H89.6934L96.11 22.7176H96.4134L102.83 8.00025H99.3534L96.2967 15.8916ZM105.187 22.2177H108.267V8.00025H105.187V22.2177ZM120.447 8.00025L117.343 12.9133L114.24 8.00025H110.53L115.827 15.8046V22.2177H118.86V15.8046L124.203 8.00025H120.447ZM139.953 14.8481C139.953 18.9133 136.407 22.2177 132.043 22.2177C127.68 22.2177 124.133 18.9133 124.133 14.8481C124.133 10.7829 127.68 7.47852 132.043 7.47852C136.43 7.50025 139.953 10.7829 139.953 14.8481ZM136.99 14.8481C136.99 12.3046 134.773 10.2611 132.067 10.2611C129.337 10.2611 127.143 12.3263 127.143 14.8481C127.143 17.3916 129.36 19.435 132.067 19.435C134.773 19.435 136.99 17.3916 136.99 14.8698C136.99 14.8698 136.99 14.8698 136.99 14.8481Z" fill="#23AC69"/>
</g>
<defs>
<linearGradient id="paint0_linear_1213_3164" x1="23.8427" y1="30.079" x2="23.8427" y2="0.0631592" gradientUnits="userSpaceOnUse">
<stop stop-color="#EFC119"/>
<stop offset="0.3314" stop-color="#92C84E"/>
<stop offset="0.4859" stop-color="#71BF5B"/>
<stop offset="0.7506" stop-color="#15B158"/>
<stop offset="0.903" stop-color="#23AC69"/>
<stop offset="1" stop-color="#23AC69"/>
</linearGradient>
<clipPath id="clip0_1213_3164">
<rect width="140" height="30" fill="white"/>
</clipPath>
</defs>
</svg>
