<svg width="140" height="30" viewBox="0 0 140 30" fill="none" xmlns="http://www.w3.org/2000/svg">
<path d="M31.5173 24.3929C32.7435 24.1966 35.3035 23.7329 35.3748 22.4966C35.3948 22.1491 35.1523 21.8404 34.8123 21.7854V21.7841C31.0285 21.1491 28.646 16.7929 29.0135 15.9216C29.2785 15.2916 30.461 15.0479 30.9823 14.8429C33.4773 13.8429 32.4023 12.1316 30.9285 12.1316C30.2648 12.1316 29.4773 12.8516 28.751 12.5129C28.976 8.68163 29.376 5.98288 26.666 3.37288C23.1485 -0.00962198 16.011 0.384128 13.576 5.94163C12.8523 7.59038 13.1298 10.6041 13.246 12.5129C12.7335 12.7416 12.001 12.4954 11.4948 12.2529C10.2185 11.6454 8.03605 13.6416 11.0185 14.8416C12.311 15.3579 13.5335 15.5054 12.851 16.9179C12.7773 17.0529 12.3623 18.0829 11.3885 19.2354C8.58105 22.5616 6.02355 21.2016 6.69605 22.7954V22.7979C7.1223 23.8116 9.3873 24.2179 10.4823 24.3929C10.7835 24.9666 10.5648 26.2841 11.591 26.2841C12.1423 26.2841 13.1923 25.8279 14.8373 26.1091C17.0548 26.4866 19.5735 31.1766 25.1473 27.1741L25.1485 27.1716C26.3498 26.3091 27.1935 25.6704 29.7485 26.1829C31.601 26.5479 31.086 25.2466 31.5173 24.3929Z" fill="#FFEB3B"/>
<path d="M20.9322 29.3671C20.9534 29.3708 20.8909 29.3746 20.8259 29.3746C18.8459 29.3746 17.5397 28.4346 16.4897 27.6783C12.6534 24.9158 10.9272 29.1096 10.0022 24.9458C4.69966 24.0046 5.74091 21.3896 7.08966 21.1658C8.64341 20.9033 9.91216 20.0171 10.9134 18.8321C11.5697 18.0558 12.5297 16.4383 12.4122 16.1608C12.2872 15.8608 11.1547 15.5696 10.7884 15.4221C7.01716 13.9021 9.70091 10.7108 11.7622 11.6871C12.1234 11.8608 12.3934 11.9346 12.5872 11.9633C12.4722 10.0871 12.2747 7.35208 13.0047 5.68958C15.9659 -1.07792 26.0222 -1.11917 28.9972 5.69083C29.7297 7.35833 29.5284 10.0871 29.4134 11.9371C30.0247 11.7846 30.7072 11.2246 31.7947 11.6746C33.4947 12.2933 33.9172 14.5883 30.7522 15.5821C30.4647 15.6758 29.6922 15.9246 29.5922 16.1633C29.4459 16.5133 31.4009 20.5783 34.9184 21.1683C35.5734 21.2771 36.0397 21.8633 36.0009 22.5333C35.9109 24.1208 33.5834 24.6646 32.0034 24.9458C31.7722 25.9921 31.6009 26.8896 30.4459 26.8896C28.4709 26.7733 27.8447 26.0046 25.5159 27.6821C24.1384 28.6671 22.7834 29.4833 20.9322 29.3671ZM24.6634 26.7521C27.4922 24.7183 28.1809 25.4746 30.4434 25.6383C30.7147 25.6383 30.5209 25.1721 31.1034 23.8258C31.5984 23.7271 34.3972 23.3333 34.7272 22.5546H34.7259L34.7084 22.4021C30.4984 21.6946 28.6647 17.3746 28.5884 17.1908C27.3397 14.6208 30.7847 14.6421 31.6772 13.7108C32.0397 13.3308 31.7797 12.9983 31.3397 12.8383C30.5922 12.5283 30.3422 13.1708 29.1759 13.2246C28.5797 13.1983 28.4422 13.0358 28.1009 12.8983C28.3784 9.00208 28.7609 6.25833 26.2322 3.82208C23.0397 0.752081 16.4109 1.02083 14.1497 6.19083C13.4684 7.74083 13.7734 10.8783 13.8984 12.9071C13.6572 12.9533 12.9809 13.6608 11.2247 12.8146C10.7434 12.5858 9.05966 13.3758 11.2522 14.2608C11.8422 14.4971 13.1772 14.7496 13.5647 15.6796C14.1597 17.1121 11.2659 21.7308 7.29341 22.3983V22.3996L7.27216 22.5546C7.62466 23.3946 10.7647 23.7846 10.8897 23.8233C11.4697 25.2196 11.0947 24.4158 11.4197 25.5358C11.5522 25.9858 12.6609 25.0946 14.9447 25.4921C17.3309 25.8983 19.6672 30.3308 24.6634 26.7521Z" fill="#212121"/>
<path d="M49.6829 22.2197C48.5763 22.2197 47.5163 22.0864 46.5029 21.8197C45.4896 21.5397 44.6563 21.173 44.0029 20.7197L45.0229 17.8597C45.6363 18.273 46.3563 18.5997 47.1829 18.8397C48.0096 19.0797 48.8429 19.1997 49.6829 19.1997C50.5629 19.1997 51.1763 19.0864 51.5229 18.8597C51.8829 18.6197 52.0629 18.3264 52.0629 17.9797C52.0629 17.673 51.9363 17.4264 51.6829 17.2397C51.4429 17.053 51.0096 16.893 50.3829 16.7597L48.0429 16.2597C45.5096 15.713 44.2429 14.3864 44.2429 12.2797C44.2429 11.3597 44.4896 10.553 44.9829 9.85969C45.4896 9.16635 46.1896 8.63302 47.0829 8.25969C47.9763 7.87302 49.0163 7.67969 50.2029 7.67969C51.1763 7.67969 52.0963 7.81969 52.9629 8.09969C53.8429 8.36635 54.5563 8.73302 55.1029 9.19969L54.0829 11.8797C53.5763 11.5064 52.9896 11.2197 52.3229 11.0197C51.6563 10.8064 50.9363 10.6997 50.1629 10.6997C49.4163 10.6997 48.8429 10.833 48.4429 11.0997C48.0429 11.353 47.8429 11.6864 47.8429 12.0997C47.8429 12.393 47.9629 12.633 48.2029 12.8197C48.4429 13.0064 48.8696 13.1664 49.4829 13.2997L51.8029 13.7997C54.3763 14.3464 55.6629 15.6397 55.6629 17.6797C55.6629 18.5997 55.4163 19.3997 54.9229 20.0797C54.4296 20.7597 53.7363 21.2864 52.8429 21.6597C51.9496 22.033 50.8963 22.2197 49.6829 22.2197Z" fill="#212121"/>
<path d="M57.2303 21.9997V12.1597H60.6903V13.4997C61.0369 12.993 61.4836 12.6064 62.0303 12.3397C62.5769 12.073 63.1903 11.9397 63.8703 11.9397C65.0436 11.9397 65.9103 12.2864 66.4703 12.9797C67.0436 13.673 67.3303 14.7397 67.3303 16.1797V21.9997H63.7703V16.3197C63.7703 15.7197 63.6636 15.293 63.4503 15.0397C63.2503 14.7864 62.9503 14.6597 62.5503 14.6597C62.0169 14.6597 61.5903 14.833 61.2703 15.1797C60.9503 15.513 60.7903 15.9664 60.7903 16.5397V21.9997H57.2303Z" fill="#212121"/>
<path d="M72.7792 22.2197C72.0192 22.2197 71.3458 22.0797 70.7592 21.7997C70.1858 21.5197 69.7325 21.1397 69.3992 20.6597C69.0792 20.1664 68.9192 19.6064 68.9192 18.9797C68.9192 18.273 69.1058 17.713 69.4792 17.2997C69.8525 16.873 70.4525 16.573 71.2792 16.3997C72.1058 16.213 73.2058 16.1197 74.5792 16.1197H75.3392V15.8397C75.3392 15.3597 75.2125 15.0197 74.9592 14.8197C74.7192 14.6197 74.2992 14.5197 73.6992 14.5197C73.1925 14.5197 72.6325 14.5997 72.0192 14.7597C71.4058 14.9197 70.8058 15.1664 70.2192 15.4997L69.3192 13.1597C69.6525 12.9197 70.0792 12.7064 70.5992 12.5197C71.1192 12.333 71.6658 12.193 72.2392 12.0997C72.8125 11.993 73.3525 11.9397 73.8592 11.9397C75.4992 11.9397 76.7125 12.293 77.4992 12.9997C78.2992 13.7064 78.6992 14.8197 78.6992 16.3397V21.9997H75.3792V20.5997C75.2058 21.1064 74.8925 21.5064 74.4392 21.7997C73.9858 22.0797 73.4325 22.2197 72.7792 22.2197ZM73.5792 19.8997C74.0725 19.8997 74.4858 19.7397 74.8192 19.4197C75.1658 19.0997 75.3392 18.6797 75.3392 18.1597V17.7997H74.5792C73.7925 17.7997 73.2125 17.8864 72.8392 18.0597C72.4792 18.2197 72.2992 18.4797 72.2992 18.8397C72.2992 19.1464 72.4058 19.3997 72.6192 19.5997C72.8458 19.7997 73.1658 19.8997 73.5792 19.8997Z" fill="#212121"/>
<path d="M80.7264 25.5997V12.1597H84.1864V13.4997C84.453 13.0197 84.8597 12.6397 85.4064 12.3597C85.953 12.0797 86.553 11.9397 87.2064 11.9397C88.0464 11.9397 88.7864 12.1464 89.4264 12.5597C90.0797 12.973 90.5864 13.5664 90.9464 14.3397C91.3197 15.0997 91.5064 16.013 91.5064 17.0797C91.5064 18.133 91.3264 19.0464 90.9664 19.8197C90.6064 20.593 90.0997 21.1864 89.4464 21.5997C88.8064 22.013 88.0597 22.2197 87.2064 22.2197C86.593 22.2197 86.0197 22.093 85.4864 21.8397C84.9664 21.5864 84.5664 21.2464 84.2864 20.8197V25.5997H80.7264ZM86.0864 19.5997C86.6197 19.5997 87.0597 19.3997 87.4064 18.9997C87.753 18.5997 87.9264 17.9597 87.9264 17.0797C87.9264 16.1864 87.753 15.5464 87.4064 15.1597C87.0597 14.7597 86.6197 14.5597 86.0864 14.5597C85.5397 14.5597 85.093 14.7597 84.7464 15.1597C84.3997 15.5464 84.2264 16.1864 84.2264 17.0797C84.2264 17.9597 84.3997 18.5997 84.7464 18.9997C85.093 19.3997 85.5397 19.5997 86.0864 19.5997Z" fill="#212121"/>
<path d="M98.1487 22.2197C97.042 22.2197 96.0754 22.013 95.2487 21.5997C94.4354 21.1864 93.802 20.593 93.3487 19.8197C92.8954 19.0464 92.6687 18.1264 92.6687 17.0597C92.6687 15.993 92.8954 15.0797 93.3487 14.3197C93.802 13.5464 94.4354 12.9597 95.2487 12.5597C96.0754 12.1464 97.042 11.9397 98.1487 11.9397C98.802 11.9397 99.4487 12.033 100.089 12.2197C100.742 12.393 101.275 12.6397 101.689 12.9597L100.749 15.3997C100.442 15.1597 100.082 14.973 99.6687 14.8397C99.2687 14.693 98.8887 14.6197 98.5287 14.6197C97.822 14.6197 97.2754 14.833 96.8887 15.2597C96.502 15.6864 96.3087 16.2864 96.3087 17.0597C96.3087 17.8464 96.502 18.4597 96.8887 18.8997C97.2754 19.3264 97.822 19.5397 98.5287 19.5397C98.8887 19.5397 99.2687 19.473 99.6687 19.3397C100.082 19.193 100.442 18.9997 100.749 18.7597L101.689 21.1997C101.275 21.5197 100.742 21.773 100.089 21.9597C99.4354 22.133 98.7887 22.2197 98.1487 22.2197Z" fill="#212121"/>
<path d="M102.816 21.9997V7.89969H106.376V13.3797C107.083 12.4197 108.11 11.9397 109.456 11.9397C110.63 11.9397 111.496 12.2864 112.056 12.9797C112.63 13.673 112.916 14.7397 112.916 16.1797V21.9997H109.356V16.3197C109.356 15.7197 109.25 15.293 109.036 15.0397C108.836 14.7864 108.536 14.6597 108.136 14.6597C107.603 14.6597 107.176 14.833 106.856 15.1797C106.536 15.513 106.376 15.9664 106.376 16.5397V21.9997H102.816Z" fill="#212121"/>
<path d="M118.365 22.2197C117.605 22.2197 116.932 22.0797 116.345 21.7997C115.772 21.5197 115.318 21.1397 114.985 20.6597C114.665 20.1664 114.505 19.6064 114.505 18.9797C114.505 18.273 114.692 17.713 115.065 17.2997C115.438 16.873 116.038 16.573 116.865 16.3997C117.692 16.213 118.792 16.1197 120.165 16.1197H120.925V15.8397C120.925 15.3597 120.798 15.0197 120.545 14.8197C120.305 14.6197 119.885 14.5197 119.285 14.5197C118.778 14.5197 118.218 14.5997 117.605 14.7597C116.992 14.9197 116.392 15.1664 115.805 15.4997L114.905 13.1597C115.238 12.9197 115.665 12.7064 116.185 12.5197C116.705 12.333 117.252 12.193 117.825 12.0997C118.398 11.993 118.938 11.9397 119.445 11.9397C121.085 11.9397 122.298 12.293 123.085 12.9997C123.885 13.7064 124.285 14.8197 124.285 16.3397V21.9997H120.965V20.5997C120.792 21.1064 120.478 21.5064 120.025 21.7997C119.572 22.0797 119.018 22.2197 118.365 22.2197ZM119.165 19.8997C119.658 19.8997 120.072 19.7397 120.405 19.4197C120.752 19.0997 120.925 18.6797 120.925 18.1597V17.7997H120.165C119.378 17.7997 118.798 17.8864 118.425 18.0597C118.065 18.2197 117.885 18.4797 117.885 18.8397C117.885 19.1464 117.992 19.3997 118.205 19.5997C118.432 19.7997 118.752 19.8997 119.165 19.8997Z" fill="#212121"/>
<path d="M131.472 22.2197C129.979 22.2197 128.872 21.873 128.152 21.1797C127.432 20.4864 127.072 19.4397 127.072 18.0397V14.7797H125.232V12.1597H127.072V9.29969H130.632V12.1597H133.432V14.7797H130.632V17.9197C130.632 18.8797 131.119 19.3597 132.092 19.3597C132.252 19.3597 132.426 19.3464 132.612 19.3197C132.812 19.2797 133.032 19.2264 133.272 19.1597L133.752 21.7197C133.446 21.8797 133.086 21.9997 132.672 22.0797C132.259 22.173 131.859 22.2197 131.472 22.2197Z" fill="#212121"/>
</svg>
