<svg width="140" height="30" viewBox="0 0 140 30" fill="none" xmlns="http://www.w3.org/2000/svg">
<g clip-path="url(#clip0_1213_3185)">
<path d="M37.6757 10.8296C39.6127 12.2136 41.9857 13.0279 44.5487 13.0279V8.09853C44.0636 8.09863 43.5798 8.04808 43.1053 7.94759V11.8277C40.5426 11.8277 38.1699 11.0134 36.2323 9.62953V19.6889C36.2323 24.7211 32.1508 28.8002 27.1163 28.8002C25.2379 28.8002 23.4919 28.2326 22.0415 27.2591C23.6969 28.9509 26.0054 30.0003 28.5594 30.0003C33.5942 30.0003 37.6759 25.9212 37.6759 20.8888V10.8296H37.6757ZM39.4562 5.8565C38.4663 4.77554 37.8163 3.3786 37.6757 1.83421V1.2002H36.3079C36.6522 3.1631 37.8265 4.84009 39.4562 5.8565ZM25.2258 23.3976C24.6727 22.6727 24.3738 21.7861 24.3752 20.8744C24.3752 18.5728 26.242 16.7067 28.5452 16.7067C28.9744 16.7066 29.4011 16.7723 29.8101 16.902V11.8625C29.3321 11.797 28.8496 11.7692 28.3674 11.7794V15.7019C27.958 15.5722 27.5312 15.5063 27.1018 15.5067C24.7986 15.5067 22.9319 17.3726 22.9319 19.6745C22.9319 21.3021 23.865 22.7111 25.2258 23.3976Z" fill="#FF004F"/>
<path d="M36.2323 9.62942C38.1699 11.0133 40.5426 11.8276 43.1053 11.8276V7.94749C41.6748 7.64294 40.4084 6.89577 39.4563 5.8565C37.8264 4.83999 36.6522 3.163 36.3079 1.2002H32.715V20.8886C32.7069 23.1838 30.8433 25.0423 28.545 25.0423C27.1907 25.0423 25.9875 24.3971 25.2255 23.3976C23.8648 22.7111 22.9317 21.302 22.9317 19.6746C22.9317 17.3729 24.7984 15.5068 27.1016 15.5068C27.5429 15.5068 27.9682 15.5755 28.3672 15.702V11.7795C23.4212 11.8816 19.4434 15.9209 19.4434 20.8887C19.4434 23.3685 20.4339 25.6166 22.0416 27.2592C23.492 28.2326 25.238 28.8003 27.1165 28.8003C32.151 28.8003 36.2324 24.721 36.2324 19.6889V9.62942H36.2323Z" fill="black"/>
<path d="M43.1052 7.94728V6.89813C41.8153 6.90009 40.5506 6.53901 39.4562 5.85619C40.425 6.91635 41.7008 7.64736 43.1052 7.94728ZM36.3078 1.19998C36.275 1.01239 36.2497 0.823567 36.2322 0.63402V0H31.2715V19.6886C31.2635 21.9835 29.4 23.842 27.1015 23.842C26.4268 23.842 25.7896 23.6819 25.2254 23.3975C25.9874 24.3969 27.1906 25.042 28.5449 25.042C30.843 25.042 32.7069 23.1837 32.715 20.8885V1.19998H36.3078ZM28.3673 11.7793V10.6624C27.9528 10.6058 27.5349 10.5774 27.1165 10.5776C22.0815 10.5775 18 14.6568 18 19.6886C18 22.8432 19.6041 25.6234 22.0416 27.2588C20.4339 25.6163 19.4434 23.3681 19.4434 20.8884C19.4434 15.9207 23.4211 11.8814 28.3673 11.7793Z" fill="#00F2EA"/>
<path d="M100.586 24.6746C104.188 24.6746 107.109 21.7778 107.109 18.2047C107.109 14.6317 104.188 11.7344 100.586 11.7344H99.603C103.206 11.7344 106.126 14.6316 106.126 18.2047C106.126 21.7778 103.206 24.6746 99.603 24.6746H100.586Z" fill="#FF004F"/>
<path d="M99.5142 11.7344H98.5316C94.9292 11.7344 92.0083 14.6316 92.0083 18.2047C92.0083 21.7778 94.9292 24.6746 98.5316 24.6746H99.5142C95.9114 24.6746 92.9909 21.7778 92.9909 18.2047C92.9908 14.6317 95.9114 11.7344 99.5142 11.7344Z" fill="#00F2EA"/>
<path d="M49.9233 8.81055V12.0901H53.7648V24.5866H57.6079V12.1786H60.7349L61.8071 8.81065H49.9233V8.81055ZM81.3754 8.81055V12.0901H85.2169V24.5866H89.0599V12.1786H92.1869L93.259 8.81065H81.3754V8.81055ZM62.5226 10.6716C62.5226 9.644 63.3613 8.81055 64.3975 8.81055C65.4346 8.81055 66.2742 9.644 66.2742 10.6716C66.2742 11.6994 65.4351 12.5328 64.3975 12.5328C63.3613 12.5323 62.5226 11.6994 62.5226 10.6716ZM62.5226 13.8626H66.2742V24.5866H62.5226V13.8626ZM67.8828 8.81055V24.5865H71.6359V20.5099L72.7976 19.4455L76.4605 24.675H80.4811L75.2089 17.053L79.9447 12.4438H75.3879L71.6359 16.166V8.81055H67.8828ZM108.359 8.81055V24.5865H112.112V20.5099L113.273 19.4455L116.937 24.675H120.958L115.686 17.053L120.422 12.4438H115.865L112.112 16.166V8.81055H108.359Z" fill="black"/>
<path d="M99.6027 24.6746C103.205 24.6746 106.126 21.7778 106.126 18.2047C106.126 14.6317 103.205 11.7344 99.6027 11.7344H99.5137C95.9111 11.7344 92.9907 14.6316 92.9907 18.2047C92.9907 21.7778 95.9111 24.6746 99.5137 24.6746H99.6027ZM96.3861 18.2047C96.3861 16.4667 97.8069 15.0588 99.559 15.0588C101.31 15.0588 102.731 16.4667 102.731 18.2047C102.731 19.9428 101.31 21.3514 99.559 21.3514C97.8069 21.3511 96.3861 19.9428 96.3861 18.2047Z" fill="black"/>
</g>
<defs>
<clipPath id="clip0_1213_3185">
<rect width="140" height="30" fill="white"/>
</clipPath>
</defs>
</svg>
