<svg width="16" height="16" viewBox="0 0 16 16" fill="none" xmlns="http://www.w3.org/2000/svg">
<g clip-path="url(#clip0_2022_4929)">
<path d="M8 0C6.41775 0 4.87104 0.469192 3.55544 1.34824C2.23985 2.22729 1.21447 3.47672 0.608967 4.93853C0.00346629 6.40034 -0.15496 8.00887 0.153721 9.56072C0.462403 11.1126 1.22433 12.538 2.34315 13.6569C3.46197 14.7757 4.88743 15.5376 6.43928 15.8463C7.99113 16.155 9.59966 15.9965 11.0615 15.391C12.5233 14.7855 13.7727 13.7602 14.6518 12.4446C15.5308 11.129 16 9.58225 16 8C15.9977 5.87897 15.1541 3.84547 13.6543 2.34568C12.1545 0.845886 10.121 0.00229405 8 0V0ZM4 6.66667C4 6.31305 4.14048 5.97391 4.39053 5.72386C4.64058 5.47381 4.97972 5.33333 5.33334 5.33333C5.68696 5.33333 6.0261 5.47381 6.27615 5.72386C6.52619 5.97391 6.66667 6.31305 6.66667 6.66667V7.33333H4V6.66667ZM8 12C6.60948 11.9301 5.28125 11.4017 4.22267 10.4973L5.11067 9.50267C5.92548 10.1881 6.93761 10.5958 8 10.6667C9.06302 10.5958 10.0757 10.1875 10.8907 9.50133L11.7773 10.4973C10.7188 11.4017 9.39053 11.9301 8 12ZM9.33334 7.33333V6.66667C9.33334 6.31305 9.47381 5.97391 9.72386 5.72386C9.97391 5.47381 10.313 5.33333 10.6667 5.33333C11.0203 5.33333 11.3594 5.47381 11.6095 5.72386C11.8595 5.97391 12 6.31305 12 6.66667V7.33333H9.33334Z" fill="#D6D8EA"/>
</g>
<defs>
<clipPath id="clip0_2022_4929">
<rect width="16" height="16" fill="white"/>
</clipPath>
</defs>
</svg>
