<svg width="16" height="16" viewBox="0 0 16 16" fill="none" xmlns="http://www.w3.org/2000/svg">
<g clip-path="url(#clip0_936_8352)">
<path d="M10.3333 2H9V0H7V2H5.66667C4.69453 2.00106 3.76252 2.38771 3.07511 3.07511C2.38771 3.76252 2.00106 4.69453 2 5.66667V10C2 11.5913 2.63214 13.1174 3.75736 14.2426C4.88258 15.3679 6.4087 16 8 16C9.5913 16 11.1174 15.3679 12.2426 14.2426C13.3679 13.1174 14 11.5913 14 10V5.66667C13.9989 4.69453 13.6123 3.76252 12.9249 3.07511C12.2375 2.38771 11.3055 2.00106 10.3333 2ZM12 10C12 11.0609 11.5786 12.0783 10.8284 12.8284C10.0783 13.5786 9.06087 14 8 14C6.93913 14 5.92172 13.5786 5.17157 12.8284C4.42143 12.0783 4 11.0609 4 10V5.66667C4 5.22464 4.17559 4.80072 4.48816 4.48816C4.80072 4.17559 5.22464 4 5.66667 4H10.3333C10.7754 4 11.1993 4.17559 11.5118 4.48816C11.8244 4.80072 12 5.22464 12 5.66667V10Z" fill="#D6D8EA"/>
<path d="M9 5.33301H7V8.66633H9V5.33301Z" fill="#374957"/>
</g>
<defs>
<clipPath id="clip0_936_8352">
<rect width="16" height="16" fill="white"/>
</clipPath>
</defs>
</svg>
