<svg width="16" height="16" viewBox="0 0 16 16" fill="none" xmlns="http://www.w3.org/2000/svg">
<g clip-path="url(#clip0_936_8270)">
<path d="M14 10.6667H10.6667V14H2V2.27267C2.00018 2.20041 2.02896 2.13115 2.08006 2.08006C2.13115 2.02896 2.20041 2.00018 2.27267 2H10.1147L12.1147 0H2.27267C1.67013 0.000705748 1.09248 0.240373 0.666428 0.666428C0.240373 1.09248 0.000705748 1.67013 0 2.27267L0 16H12.2327L16 12.232V3.886L14 5.886V10.6667Z" fill="#D6D8EA"/>
<path d="M3.33325 12.6667H5.33325L15.5999 2.40005C15.8651 2.13484 16.0141 1.77513 16.0141 1.40005C16.0141 1.02498 15.8651 0.66527 15.5999 0.400053C15.3347 0.134837 14.975 -0.0141602 14.5999 -0.0141602C14.2248 -0.0141602 13.8651 0.134837 13.5999 0.400053L3.33325 10.6667V12.6667Z" fill="#D6D8EA"/>
</g>
<defs>
<clipPath id="clip0_936_8270">
<rect width="16" height="16" fill="white"/>
</clipPath>
</defs>
</svg>
