<svg width="16" height="16" viewBox="0 0 16 16" fill="none" xmlns="http://www.w3.org/2000/svg">
<g clip-path="url(#clip0_999_10896)">
<path d="M14.364 0H8.66667V2H12.586L0 14.586L1.414 16L14 3.414V7.33333H16V1.636C15.9995 1.20227 15.8269 0.786453 15.5202 0.479758C15.2135 0.173063 14.7977 0.000529264 14.364 0V0Z" fill="#000034"/>
<path d="M4.3335 7.33301C4.92684 7.33301 5.50686 7.15706 6.00021 6.82742C6.49355 6.49777 6.87807 6.02924 7.10513 5.48106C7.3322 4.93288 7.39161 4.32968 7.27585 3.74774C7.1601 3.1658 6.87437 2.63125 6.45482 2.21169C6.03526 1.79213 5.50071 1.50641 4.91877 1.39065C4.33682 1.2749 3.73362 1.33431 3.18545 1.56137C2.63727 1.78843 2.16873 2.17295 1.83909 2.6663C1.50944 3.15965 1.3335 3.73967 1.3335 4.33301C1.33438 5.12839 1.65073 5.89094 2.21315 6.45336C2.77557 7.01577 3.53812 7.33213 4.3335 7.33301ZM4.3335 3.33301C4.53128 3.33301 4.72462 3.39166 4.88907 3.50154C5.05352 3.61142 5.18169 3.7676 5.25738 3.95033C5.33306 4.13305 5.35287 4.33412 5.31428 4.5281C5.2757 4.72208 5.18046 4.90026 5.0406 5.04012C4.90075 5.17997 4.72257 5.27521 4.52859 5.31379C4.33461 5.35238 4.13354 5.33258 3.95081 5.25689C3.76809 5.1812 3.61191 5.05303 3.50203 4.88858C3.39215 4.72413 3.3335 4.53079 3.3335 4.33301C3.3335 4.06779 3.43885 3.81344 3.62639 3.6259C3.81393 3.43837 4.06828 3.33301 4.3335 3.33301Z" fill="#000034"/>
<path d="M11.6665 8.66699C11.0732 8.66699 10.4931 8.84294 9.9998 9.17258C9.50645 9.50223 9.12193 9.97076 8.89487 10.5189C8.6678 11.0671 8.60839 11.6703 8.72415 12.2523C8.83991 12.8342 9.12563 13.3687 9.54519 13.7883C9.96474 14.2079 10.4993 14.4936 11.0812 14.6093C11.6632 14.7251 12.2664 14.6657 12.8146 14.4386C13.3627 14.2116 13.8313 13.827 14.1609 13.3337C14.4906 12.8403 14.6665 12.2603 14.6665 11.667C14.6656 10.8716 14.3493 10.1091 13.7869 9.54664C13.2244 8.98423 12.4619 8.66787 11.6665 8.66699ZM11.6665 12.667C11.4687 12.667 11.2754 12.6083 11.1109 12.4985C10.9465 12.3886 10.8183 12.2324 10.7426 12.0497C10.6669 11.8669 10.6471 11.6659 10.6857 11.4719C10.7243 11.2779 10.8195 11.0997 10.9594 10.9599C11.0993 10.82 11.2774 10.7248 11.4714 10.6862C11.6654 10.6476 11.8665 10.6674 12.0492 10.7431C12.2319 10.8188 12.3881 10.947 12.498 11.1114C12.6079 11.2759 12.6665 11.4692 12.6665 11.667C12.6665 11.9322 12.5611 12.1866 12.3736 12.3741C12.1861 12.5616 11.9317 12.667 11.6665 12.667Z" fill="#000034"/>
</g>
<defs>
<clipPath id="clip0_999_10896">
<rect width="16" height="16" fill="white"/>
</clipPath>
</defs>
</svg>
