<svg width="16" height="16" viewBox="0 0 16 16" fill="none" xmlns="http://www.w3.org/2000/svg">
<g clip-path="url(#clip0_936_8306)">
<path d="M14.364 0H8.66667V2H12.586L0 14.586L1.414 16L14 3.414V7.33333H16V1.636C15.9995 1.20227 15.8269 0.786453 15.5202 0.479758C15.2135 0.173063 14.7977 0.000529264 14.364 0V0Z" fill="#D6D8EA"/>
<path d="M4.33325 7.3335C4.9266 7.3335 5.50662 7.15755 5.99996 6.82791C6.49331 6.49826 6.87783 6.02973 7.10489 5.48155C7.33195 4.93337 7.39136 4.33017 7.27561 3.74823C7.15985 3.16628 6.87413 2.63173 6.45457 2.21218C6.03501 1.79262 5.50047 1.5069 4.91852 1.39114C4.33658 1.27539 3.73338 1.3348 3.1852 1.56186C2.63702 1.78892 2.16849 2.17344 1.83884 2.66679C1.5092 3.16013 1.33325 3.74015 1.33325 4.3335C1.33413 5.12888 1.65049 5.89143 2.21291 6.45384C2.77532 7.01626 3.53787 7.33262 4.33325 7.3335ZM4.33325 3.3335C4.53103 3.3335 4.72437 3.39215 4.88882 3.50203C5.05327 3.61191 5.18144 3.76809 5.25713 3.95081C5.33282 4.13354 5.35262 4.33461 5.31404 4.52859C5.27545 4.72257 5.18021 4.90075 5.04036 5.0406C4.90051 5.18046 4.72232 5.2757 4.52834 5.31428C4.33436 5.35287 4.13329 5.33306 3.95057 5.25738C3.76784 5.18169 3.61166 5.05352 3.50178 4.88907C3.3919 4.72462 3.33325 4.53128 3.33325 4.3335C3.33325 4.06828 3.43861 3.81393 3.62615 3.62639C3.81368 3.43885 4.06804 3.3335 4.33325 3.3335Z" fill="#D6D8EA"/>
<path d="M11.6667 8.6665C11.0734 8.6665 10.4934 8.84245 10 9.17209C9.50669 9.50174 9.12217 9.97027 8.89511 10.5185C8.66805 11.0666 8.60864 11.6698 8.72439 12.2518C8.84015 12.8337 9.12587 13.3683 9.54543 13.7878C9.96499 14.2074 10.4995 14.4931 11.0815 14.6089C11.6634 14.7246 12.2666 14.6652 12.8148 14.4381C13.363 14.2111 13.8315 13.8266 14.1612 13.3332C14.4908 12.8399 14.6668 12.2598 14.6668 11.6665C14.6659 10.8711 14.3495 10.1086 13.7871 9.54616C13.2247 8.98374 12.4621 8.66739 11.6667 8.6665ZM11.6667 12.6665C11.469 12.6665 11.2756 12.6078 11.1112 12.498C10.9467 12.3881 10.8186 12.2319 10.7429 12.0492C10.6672 11.8665 10.6474 11.6654 10.686 11.4714C10.7245 11.2774 10.8198 11.0992 10.9596 10.9594C11.0995 10.8195 11.2777 10.7243 11.4717 10.6857C11.6656 10.6471 11.8667 10.6669 12.0494 10.7426C12.2322 10.8183 12.3883 10.9465 12.4982 11.1109C12.6081 11.2754 12.6667 11.4687 12.6667 11.6665C12.6667 11.9317 12.5614 12.1861 12.3739 12.3736C12.1863 12.5611 11.932 12.6665 11.6667 12.6665Z" fill="#D6D8EA"/>
</g>
<defs>
<clipPath id="clip0_936_8306">
<rect width="16" height="16" fill="white"/>
</clipPath>
</defs>
</svg>
