<svg width="16" height="16" viewBox="0 0 16 16" fill="none" xmlns="http://www.w3.org/2000/svg">
<g clip-path="url(#clip0_1394_16562)">
<path d="M13.6665 4.66667C13.0477 4.66667 12.4542 4.42083 12.0166 3.98325C11.579 3.54566 11.3332 2.95217 11.3332 2.33333C11.3332 1.71449 11.579 1.121 12.0166 0.683417C12.4542 0.245833 13.0477 0 13.6665 0C14.2854 0 14.8789 0.245833 15.3165 0.683417C15.754 1.121 15.9999 1.71449 15.9999 2.33333C15.9999 2.95217 15.754 3.54566 15.3165 3.98325C14.8789 4.42083 14.2854 4.66667 13.6665 4.66667ZM14.0412 16H8.62387C8.28129 16.0031 7.94398 15.9155 7.64614 15.7462C7.3483 15.5769 7.1005 15.3319 6.92787 15.036C6.75895 14.7509 6.66844 14.4263 6.66551 14.0949C6.66259 13.7636 6.74735 13.4373 6.9112 13.1493L9.62187 8.326C9.79734 8.02795 10.0476 7.78087 10.3479 7.60921C10.6481 7.43755 10.988 7.34725 11.3339 7.34725C11.6797 7.34725 12.0196 7.43755 12.3199 7.60921C12.6201 7.78087 12.8704 8.02795 13.0459 8.326L15.7545 13.1473C15.9187 13.4355 16.0036 13.762 16.0007 14.0936C15.9978 14.4252 15.9071 14.7501 15.7379 15.0353C15.5653 15.3315 15.3174 15.5767 15.0194 15.7461C14.7214 15.9155 14.384 16.0031 14.0412 16ZM11.3272 9.34867L8.73787 14H13.9459L11.3272 9.34867ZM5.3332 15C5.3332 14.7348 5.22784 14.4804 5.04031 14.2929C4.85277 14.1054 4.59842 14 4.3332 14H2.47453C2.39241 14.0015 2.31142 13.9807 2.24008 13.94C2.16875 13.8993 2.10971 13.8401 2.0692 13.7687C2.02671 13.6986 2.00342 13.6186 2.00166 13.5367C1.99991 13.4548 2.01975 13.3738 2.0592 13.302L6.2332 5.58133C6.27355 5.5064 6.33344 5.44378 6.4065 5.40014C6.47957 5.3565 6.56309 5.33345 6.6482 5.33345C6.73331 5.33345 6.81683 5.3565 6.8899 5.40014C6.96297 5.44378 7.02285 5.5064 7.0632 5.58133L7.47787 6.348C7.53649 6.4698 7.6192 6.57846 7.721 6.66739C7.8228 6.75633 7.94158 6.8237 8.07015 6.86544C8.19872 6.90718 8.33442 6.92242 8.46905 6.91024C8.60367 6.89806 8.73444 6.85871 8.85343 6.79457C8.97242 6.73042 9.07717 6.64282 9.16135 6.53706C9.24553 6.43129 9.3074 6.30956 9.3432 6.17921C9.37901 6.04886 9.38802 5.91261 9.36969 5.77868C9.35135 5.64475 9.30606 5.51593 9.23653 5.4L8.82187 4.63267C8.60625 4.24524 8.29102 3.92247 7.9088 3.69776C7.52658 3.47306 7.09125 3.35457 6.64787 3.35457C6.20448 3.35457 5.76916 3.47306 5.38693 3.69776C5.00471 3.92247 4.68948 4.24524 4.47387 4.63267L0.299867 12.3473C0.0960985 12.7242 -0.00637042 13.1475 0.00248169 13.5758C0.0113338 14.0041 0.131204 14.4228 0.350368 14.791C0.569532 15.1591 0.880487 15.464 1.25282 15.6759C1.62515 15.8879 2.04611 15.9995 2.47453 16H4.3332C4.59842 16 4.85277 15.8946 5.04031 15.7071C5.22784 15.5196 5.3332 15.2652 5.3332 15Z" fill="#000034"/>
</g>
<defs>
<clipPath id="clip0_1394_16562">
<rect width="16" height="16" fill="white"/>
</clipPath>
</defs>
</svg>
