<svg width="16" height="16" viewBox="0 0 16 16" fill="none" xmlns="http://www.w3.org/2000/svg">
<g clip-path="url(#clip0_936_8224)">
<path d="M14.0119 8.95128C13.4977 8.95137 13.0038 9.15175 12.6349 9.5099L11.8503 9.11759C12.4907 7.01715 11.3072 4.79525 9.20672 4.15481C8.43841 3.92056 7.61713 3.9245 6.8511 4.16609L6.39119 3.33575C7.12938 2.52743 7.07253 1.27375 6.26422 0.53559C5.45591 -0.202598 4.20225 -0.145754 3.46406 0.662559C2.72588 1.47087 2.78272 2.72453 3.59103 3.46272C3.95772 3.79759 4.43675 3.98262 4.93331 3.98118C5.02863 3.97847 5.12363 3.96893 5.2176 3.95268L5.6735 4.77637C3.94666 6.05784 3.55913 8.48375 4.80075 10.2394L2.86972 12.0949C1.84528 11.6361 0.642907 12.0947 0.184126 13.1191C-0.274655 14.1435 0.183876 15.3459 1.20831 15.8047C2.23275 16.2635 3.43513 15.8049 3.89391 14.7805C4.14953 14.2097 4.12813 13.553 3.83591 13.0001L5.7285 11.1811C7.49697 12.4619 9.96885 12.0678 11.2512 10.3004L12.0464 10.698C12.0339 10.7778 12.0264 10.8584 12.0239 10.9392C12.0239 12.0371 12.914 12.9272 14.0119 12.9272C15.1099 12.9272 15.9999 12.0372 15.9999 10.9393C15.9999 9.84137 15.1099 8.95128 14.0119 8.95128Z" fill="#D6D8EA"/>
</g>
<defs>
<clipPath id="clip0_936_8224">
<rect width="16" height="16" fill="white"/>
</clipPath>
</defs>
</svg>
