<svg width="16" height="16" viewBox="0 0 16 16" fill="none" xmlns="http://www.w3.org/2000/svg">
<g clip-path="url(#clip0_999_11717)">
<path d="M14.0122 8.95079C13.498 8.95088 13.0041 9.15126 12.6351 9.50941L11.8505 9.1171C12.491 7.01666 11.3074 4.79476 9.20697 4.15432C8.43865 3.92007 7.61737 3.92401 6.85134 4.1656L6.39143 3.33526C7.12962 2.52695 7.07278 1.27326 6.26446 0.535102C5.45615 -0.203086 4.2025 -0.146242 3.46431 0.662071C2.72612 1.47038 2.78296 2.72404 3.59128 3.46223C3.95796 3.7971 4.437 3.98213 4.93356 3.9807C5.02887 3.97798 5.12387 3.96845 5.21784 3.9522L5.67375 4.77588C3.9469 6.05735 3.55937 8.48326 4.801 10.2389L2.86996 12.0944C1.84553 11.6356 0.643152 12.0942 0.18437 13.1186C-0.274411 14.143 0.18412 15.3454 1.20856 15.8042C2.233 16.263 3.43537 15.8044 3.89415 14.78C4.14978 14.2092 4.12837 13.5525 3.83615 12.9996L5.72875 11.1806C7.49721 12.4614 9.96909 12.0673 11.2515 10.2999L12.0467 10.6975C12.0341 10.7773 12.0266 10.8579 12.0242 10.9387C12.0242 12.0366 12.9142 12.9267 14.0122 12.9267C15.1102 12.9267 16.0002 12.0368 16.0002 10.9388C16.0002 9.84088 15.1101 8.95079 14.0122 8.95079Z" fill="#000034"/>
</g>
<defs>
<clipPath id="clip0_999_11717">
<rect width="16" height="16" fill="white"/>
</clipPath>
</defs>
</svg>
