<svg width="16" height="16" viewBox="0 0 16 16" fill="none" xmlns="http://www.w3.org/2000/svg">
<g clip-path="url(#clip0_1394_16833)">
<path d="M6.93957 13.0582C5.88087 14.156 4.15673 14.2573 2.97682 13.2909C2.27413 12.6825 1.91519 11.7677 2.01664 10.8438C2.1045 10.1626 2.42288 9.53196 2.91881 9.05678L4.83651 7.13777C5.22696 6.74719 5.22696 6.11407 4.83651 5.7235C4.44594 5.33305 3.81282 5.33305 3.42225 5.7235L1.54524 7.6012C0.689644 8.42626 0.150075 9.52493 0.0202691 10.7064C-0.222183 13.3675 1.73847 15.7213 4.39953 15.9637C5.82858 16.0939 7.24171 15.583 8.25712 14.5691L10.2628 12.5641C10.6533 12.1735 10.6533 11.5404 10.2628 11.1498C9.87227 10.7594 9.23915 10.7594 8.84858 11.1498L6.93957 13.0582Z" fill="#000034"/>
<path d="M14.108 0.978624C12.1168 -0.484338 9.35172 -0.254982 7.62878 1.51607L5.74108 3.40442C5.35063 3.795 5.35063 4.42811 5.74108 4.81869C6.13165 5.20914 6.76477 5.20914 7.15534 4.81869L9.07305 2.90299C10.1086 1.83194 11.7841 1.71129 12.9624 2.62293C14.1753 3.61743 14.3523 5.4068 13.3578 6.61962C13.2996 6.6906 13.238 6.75871 13.1731 6.82372L11.1674 8.82944C10.777 9.22001 10.777 9.85313 11.1674 10.2437C11.558 10.6342 12.1911 10.6342 12.5817 10.2437L14.5874 8.23799C16.4757 6.34369 16.4708 3.27734 14.5765 1.38908C14.4293 1.24236 14.2728 1.10527 14.108 0.978624Z" fill="#000034"/>
<path d="M5.74022 8.83124L8.84783 5.72362C9.23844 5.33301 9.87171 5.33301 10.2623 5.72362C10.6529 6.11422 10.6529 6.7475 10.2623 7.1381L7.1547 10.2457C6.7641 10.6363 6.13082 10.6363 5.74022 10.2457C5.34961 9.85512 5.34961 9.22184 5.74022 8.83124Z" fill="#000034"/>
</g>
<defs>
<clipPath id="clip0_1394_16833">
<rect width="16" height="16" fill="white"/>
</clipPath>
</defs>
</svg>
