<svg width="18" height="18" viewBox="0 0 18 18" fill="none" xmlns="http://www.w3.org/2000/svg">
<g clip-path="url(#clip0_311_14383)">
<path d="M11.2503 1.81226V3.38726C12.7515 3.91802 14.0168 4.96241 14.8224 6.33584C15.6281 7.70926 15.9223 9.32329 15.6531 10.8927C15.3838 12.462 14.5684 13.8857 13.351 14.912C12.1336 15.9383 10.5926 16.5012 9.00026 16.5012C7.40797 16.5012 5.86693 15.9383 4.64953 14.912C3.43212 13.8857 2.61673 12.462 2.34747 10.8927C2.07821 9.32329 2.37242 7.70926 3.17809 6.33584C3.98377 4.96241 5.24903 3.91802 6.75026 3.38726V1.81226C4.83448 2.35533 3.17976 3.57299 2.09145 5.24055C1.00314 6.9081 0.554677 8.91301 0.828825 10.8853C1.10297 12.8576 2.08122 14.6642 3.58307 15.9718C5.08491 17.2793 7.00899 17.9995 9.00026 17.9995C10.9915 17.9995 12.9156 17.2793 14.4175 15.9718C15.9193 14.6642 16.8976 12.8576 17.1717 10.8853C17.4459 8.91301 16.9974 6.9081 15.9091 5.24055C14.8208 3.57299 13.166 2.35533 11.2503 1.81226Z" fill="#F53D6B"/>
<path d="M9.75001 0H8.25V6H9.75001V0Z" fill="#F53D6B"/>
</g>
<defs>
<clipPath id="clip0_311_14383">
<rect width="18" height="18" fill="white"/>
</clipPath>
</defs>
</svg>
