<svg width="16" height="16" viewBox="0 0 16 16" fill="none" xmlns="http://www.w3.org/2000/svg">
<path d="M10.6953 9.33325H5.30467C4.42854 9.33431 3.5886 9.68282 2.96908 10.3023C2.34957 10.9219 2.00106 11.7618 2 12.6379V15.9999H14V12.6379C13.9989 11.7618 13.6504 10.9219 13.0309 10.3023C12.4114 9.68282 11.5715 9.33431 10.6953 9.33325Z" fill="#D6D8EA"/>
<path d="M8 8C10.2091 8 12 6.20914 12 4C12 1.79086 10.2091 0 8 0C5.79086 0 4 1.79086 4 4C4 6.20914 5.79086 8 8 8Z" fill="#D6D8EA"/>
<path d="M10.0179 3.99992C10.0179 3.87731 10.0066 3.75496 9.98428 3.63436L10.6666 3.24436L9.99392 2.08881L9.31139 2.4797C9.12294 2.3199 8.90639 2.1959 8.67258 2.11392V1.33325H7.32725V2.11392C7.09345 2.1959 6.87689 2.3199 6.68845 2.4797L6.00592 2.08881L5.33325 3.24436L6.01556 3.63436C5.97074 3.87604 5.97074 4.12379 6.01556 4.36547L5.33325 4.75547L6.00592 5.91103L6.68845 5.52036C6.87691 5.68008 7.09347 5.804 7.32725 5.88592V6.66658H8.67258V5.88592C8.90639 5.80393 9.12294 5.67993 9.31139 5.52014L9.99392 5.91103L10.6666 4.75547L9.98428 4.36547C10.0066 4.24488 10.0179 4.12253 10.0179 3.99992ZM8.67258 3.99992C8.67258 4.13177 8.63313 4.26067 8.55922 4.3703C8.48531 4.47993 8.38025 4.56538 8.25734 4.61584C8.13442 4.6663 7.99917 4.6795 7.86869 4.65378C7.7382 4.62805 7.61835 4.56456 7.52427 4.47132C7.4302 4.37809 7.36613 4.2593 7.34018 4.12998C7.31422 4.00066 7.32755 3.86661 7.37846 3.7448C7.42937 3.62298 7.51559 3.51886 7.62621 3.44561C7.73683 3.37235 7.86688 3.33325 7.99992 3.33325C8.17832 3.33325 8.34942 3.40349 8.47556 3.52851C8.60171 3.65354 8.67258 3.82311 8.67258 3.99992Z" fill="#4B4E68"/>
</svg>
