<svg width="16" height="16" viewBox="0 0 16 16" fill="none" xmlns="http://www.w3.org/2000/svg">
<path d="M10.6953 9.33398H5.30467C4.42854 9.33504 3.5886 9.68355 2.96908 10.3031C2.34957 10.9226 2.00106 11.7625 2 12.6387V16.0007H14V12.6387C13.9989 11.7625 13.6504 10.9226 13.0309 10.3031C12.4114 9.68355 11.5715 9.33504 10.6953 9.33398Z" fill="#000034"/>
<path d="M8 8C10.2091 8 12 6.20914 12 4C12 1.79086 10.2091 0 8 0C5.79086 0 4 1.79086 4 4C4 6.20914 5.79086 8 8 8Z" fill="#000034"/>
<path d="M10.0182 4.00065C10.0181 3.87804 10.0068 3.75569 9.98452 3.6351L10.6668 3.2451L9.99416 2.08954L9.31163 2.48043C9.12319 2.32063 8.90663 2.19664 8.67283 2.11465V1.33398H7.3275V2.11465C7.09369 2.19664 6.87714 2.32063 6.68869 2.48043L6.00616 2.08954L5.3335 3.2451L6.0158 3.6351C5.97098 3.87677 5.97098 4.12453 6.0158 4.36621L5.3335 4.75621L6.00616 5.91176L6.68869 5.52109C6.87716 5.68081 7.09371 5.80473 7.3275 5.88665V6.66732H8.67283V5.88665C8.90663 5.80466 9.12319 5.68067 9.31163 5.52087L9.99416 5.91176L10.6668 4.75621L9.98452 4.36621C10.0068 4.24561 10.0181 4.12326 10.0182 4.00065ZM8.67283 4.00065C8.67283 4.13251 8.63338 4.2614 8.55946 4.37103C8.48555 4.48066 8.38049 4.56611 8.25758 4.61657C8.13467 4.66703 7.99942 4.68023 7.86893 4.65451C7.73845 4.62878 7.61859 4.56529 7.52452 4.47206C7.43044 4.37882 7.36638 4.26003 7.34042 4.13071C7.31447 4.00139 7.32779 3.86735 7.3787 3.74553C7.42961 3.62371 7.51583 3.51959 7.62645 3.44634C7.73707 3.37308 7.86712 3.33398 8.00016 3.33398C8.17856 3.33398 8.34966 3.40422 8.47581 3.52925C8.60196 3.65427 8.67283 3.82384 8.67283 4.00065Z" fill="#4B4E68"/>
</svg>
