<svg width="16" height="16" viewBox="0 0 16 16" fill="none" xmlns="http://www.w3.org/2000/svg">
<g clip-path="url(#clip0_1394_16773)">
<path d="M8 0C6.41775 0 4.87104 0.469192 3.55544 1.34824C2.23985 2.22729 1.21447 3.47672 0.608967 4.93853C0.00346629 6.40034 -0.15496 8.00887 0.153721 9.56072C0.462403 11.1126 1.22433 12.538 2.34315 13.6569C3.46197 14.7757 4.88743 15.5376 6.43928 15.8463C7.99113 16.155 9.59966 15.9965 11.0615 15.391C12.5233 14.7855 13.7727 13.7602 14.6518 12.4446C15.5308 11.129 16 9.58225 16 8C15.9977 5.87897 15.1541 3.84547 13.6543 2.34568C12.1545 0.845886 10.121 0.00229405 8 0V0ZM8 14C6.81332 14 5.65328 13.6481 4.66658 12.9888C3.67989 12.3295 2.91085 11.3925 2.45673 10.2961C2.0026 9.19975 1.88378 7.99335 2.11529 6.82946C2.3468 5.66557 2.91825 4.59647 3.75736 3.75736C4.59648 2.91824 5.66558 2.3468 6.82946 2.11529C7.99335 1.88378 9.19975 2.0026 10.2961 2.45672C11.3925 2.91085 12.3295 3.67988 12.9888 4.66658C13.6481 5.65327 14 6.81331 14 8C13.9981 9.5907 13.3653 11.1157 12.2405 12.2405C11.1157 13.3653 9.59071 13.9981 8 14Z" fill="#000034"/>
<path d="M7.69607 6.3636H7.49607C7.23405 6.35716 6.97908 6.44883 6.78114 6.62062C6.5832 6.79242 6.45657 7.03195 6.42607 7.29226C6.40862 7.55268 6.49369 7.8096 6.66309 8.00815C6.8325 8.2067 7.07282 8.33115 7.33273 8.35493V11.4549C7.33273 11.7201 7.43809 11.9745 7.62563 12.162C7.81317 12.3496 8.06752 12.4549 8.33274 12.4549C8.59796 12.4549 8.85231 12.3496 9.03985 12.162C9.22738 11.9745 9.33274 11.7201 9.33274 11.4549V8.00026C9.33274 7.56619 9.16031 7.1499 8.85337 6.84297C8.54644 6.53603 8.13014 6.3636 7.69607 6.3636Z" fill="#000034"/>
<path d="M7.88619 5.64445C8.11246 5.64445 8.33364 5.57735 8.52177 5.45165C8.7099 5.32594 8.85653 5.14727 8.94312 4.93824C9.0297 4.7292 9.05236 4.49918 9.00822 4.27726C8.96407 4.05535 8.85512 3.85151 8.69513 3.69152C8.53513 3.53152 8.33129 3.42257 8.10938 3.37843C7.88746 3.33429 7.65744 3.35694 7.4484 3.44353C7.23936 3.53011 7.06069 3.67674 6.93499 3.86487C6.80928 4.053 6.74219 4.27418 6.74219 4.50045C6.7421 4.6507 6.77163 4.7995 6.82909 4.93834C6.88655 5.07718 6.97082 5.20332 7.07706 5.30957C7.18331 5.41582 7.30946 5.50008 7.4483 5.55754C7.58713 5.615 7.73593 5.64453 7.88619 5.64445Z" fill="#000034"/>
</g>
<defs>
<clipPath id="clip0_1394_16773">
<rect width="16" height="16" fill="white"/>
</clipPath>
</defs>
</svg>
