<svg width="16" height="16" viewBox="0 0 16 16" fill="none" xmlns="http://www.w3.org/2000/svg">
<g clip-path="url(#clip0_999_11363)">
<path d="M12.1113 10.2369L15.4113 6.93757C15.5971 6.75185 15.7444 6.53136 15.845 6.28868C15.9455 6.04601 15.9972 5.78591 15.9972 5.52324C15.9972 5.26056 15.9455 5.00046 15.845 4.75779C15.7444 4.51512 15.5971 4.29463 15.4113 4.1089L12.1113 0.80957L10.6973 2.22357L13.14 4.66624H2.33333C1.71449 4.66624 1.121 4.91207 0.683417 5.34965C0.245833 5.78724 0 6.38073 0 6.99957L0 13.6662C0 14.2851 0.245833 14.8786 0.683417 15.3162C1.121 15.7537 1.71449 15.9996 2.33333 15.9996H14.6667V13.9996H2.33333C2.24493 13.9996 2.16014 13.9645 2.09763 13.9019C2.03512 13.8394 2 13.7546 2 13.6662V6.99957C2 6.91116 2.03512 6.82638 2.09763 6.76387C2.16014 6.70136 2.24493 6.66624 2.33333 6.66624H12.8547L10.6973 8.8229L12.1113 10.2369Z" fill="#000034"/>
</g>
<defs>
<clipPath id="clip0_999_11363">
<rect width="16" height="16" fill="white"/>
</clipPath>
</defs>
</svg>
