<svg width="16" height="16" viewBox="0 0 16 16" fill="none" xmlns="http://www.w3.org/2000/svg">
<g clip-path="url(#clip0_936_8389)">
<path d="M12.1113 10.2374L15.4113 6.93806C15.5971 6.75234 15.7444 6.53184 15.845 6.28917C15.9455 6.0465 15.9972 5.7864 15.9972 5.52372C15.9972 5.26105 15.9455 5.00095 15.845 4.75828C15.7444 4.51561 15.5971 4.29511 15.4113 4.10939L12.1113 0.810059L10.6973 2.22406L13.14 4.66672H2.33333C1.71449 4.66672 1.121 4.91256 0.683417 5.35014C0.245833 5.78773 0 6.38122 0 7.00006L0 13.6667C0 14.2856 0.245833 14.8791 0.683417 15.3166C1.121 15.7542 1.71449 16.0001 2.33333 16.0001H14.6667V14.0001H2.33333C2.24493 14.0001 2.16014 13.9649 2.09763 13.9024C2.03512 13.8399 2 13.7551 2 13.6667V7.00006C2 6.91165 2.03512 6.82687 2.09763 6.76436C2.16014 6.70184 2.24493 6.66672 2.33333 6.66672H12.8547L10.6973 8.82339L12.1113 10.2374Z" fill="#D6D8EA"/>
</g>
<defs>
<clipPath id="clip0_936_8389">
<rect width="16" height="16" fill="white"/>
</clipPath>
</defs>
</svg>
