<svg width="18" height="18" viewBox="0 0 18 18" fill="none" xmlns="http://www.w3.org/2000/svg">
<path d="M11.2503 18H6.75032V15.3652C5.96826 15.0885 5.24391 14.6701 4.61357 14.1307L2.33057 15.45L0.0805664 11.55L2.36282 10.2338C2.2129 9.41808 2.2129 8.58192 2.36282 7.76625L0.0805664 6.45L2.33057 2.55L4.61357 3.86925C5.24391 3.32994 5.96826 2.91145 6.75032 2.63475V0H11.2503V2.63475C12.0324 2.91145 12.7567 3.32994 13.3871 3.86925L15.6701 2.55L17.9201 6.45L15.6378 7.76625C15.7877 8.58192 15.7877 9.41808 15.6378 10.2338L17.9201 11.55L15.6701 15.45L13.3871 14.1315C12.7567 14.6705 12.0323 15.0888 11.2503 15.3652V18ZM8.25032 16.5H9.75032V14.2297L10.3136 14.0842C11.2376 13.8449 12.0786 13.3576 12.7458 12.675L13.1531 12.2603L15.1203 13.3965L15.8703 12.0975L13.9053 10.9627L14.0598 10.4032C14.3138 9.48295 14.3138 8.51105 14.0598 7.59075L13.9053 7.03125L15.8703 5.8965L15.1203 4.5975L13.1531 5.73675L12.7458 5.325C12.0783 4.64351 11.2372 4.15727 10.3136 3.91875L9.75032 3.77025V1.5H8.25032V3.77025L7.68707 3.91575C6.76306 4.15511 5.92202 4.64241 5.25482 5.325L4.84757 5.73975L2.88032 4.6005L2.13032 5.8995L4.09532 7.03425L3.94082 7.59375C3.68683 8.51405 3.68683 9.48595 3.94082 10.4062L4.09532 10.9657L2.13032 12.1005L2.88032 13.3995L4.84757 12.2633L5.25482 12.678C5.92238 13.3595 6.76339 13.8457 7.68707 14.0842L8.25032 14.2297V16.5ZM9.00032 12C8.40697 12 7.82695 11.8241 7.33361 11.4944C6.84026 11.1648 6.45574 10.6962 6.22868 10.1481C6.00162 9.59987 5.94221 8.99667 6.05796 8.41473C6.17372 7.83279 6.45944 7.29824 6.879 6.87868C7.29855 6.45912 7.8331 6.1734 8.41505 6.05764C8.99699 5.94189 9.60019 6.0013 10.1484 6.22836C10.6965 6.45542 11.1651 6.83994 11.4947 7.33329C11.8244 7.82664 12.0003 8.40666 12.0003 9C12.0003 9.79565 11.6842 10.5587 11.1216 11.1213C10.559 11.6839 9.79597 12 9.00032 12ZM9.00032 7.5C8.70364 7.5 8.41364 7.58797 8.16696 7.7528C7.92029 7.91762 7.72803 8.15189 7.6145 8.42597C7.50097 8.70006 7.47126 9.00166 7.52914 9.29263C7.58702 9.58361 7.72988 9.85088 7.93966 10.0607C8.14944 10.2704 8.41671 10.4133 8.70768 10.4712C8.99865 10.5291 9.30025 10.4994 9.57434 10.3858C9.84843 10.2723 10.0827 10.08 10.2475 9.83335C10.4123 9.58668 10.5003 9.29667 10.5003 9C10.5003 8.60218 10.3423 8.22064 10.061 7.93934C9.77967 7.65804 9.39814 7.5 9.00032 7.5Z" fill="#84849A"/>
</svg>
