<svg width="16" height="16" viewBox="0 0 16 16" fill="none" xmlns="http://www.w3.org/2000/svg">
<g clip-path="url(#clip0_999_10030)">
<path d="M6.64144 5.33333L5.09544 0H6.93344C7.29282 -1.18244e-06 7.64555 0.0968289 7.95456 0.280308C8.26356 0.463788 8.51742 0.727138 8.68944 1.04267L10.8461 5.33333H6.64144ZM14.0001 6.66667H3.32478L1.60011 4.94067C1.44163 4.77366 1.22702 4.67112 0.997524 4.65276C0.768028 4.6344 0.539842 4.70151 0.356826 4.84119C0.173809 4.98087 0.048878 5.18327 0.00604402 5.40948C-0.0367899 5.63569 0.00549638 5.86975 0.124775 6.06667L2.27144 10H7.03678L4.67944 16H6.72144C7.074 16.0014 7.42054 15.9087 7.72526 15.7313C8.02998 15.554 8.28182 15.2986 8.45478 14.9913L11.5128 10H16.0001V8.66667C16.0001 8.13623 15.7894 7.62753 15.4143 7.25245C15.0393 6.87738 14.5305 6.66667 14.0001 6.66667Z" fill="#000034"/>
</g>
<defs>
<clipPath id="clip0_999_10030">
<rect width="16" height="16" fill="white"/>
</clipPath>
</defs>
</svg>
