<svg width="16" height="16" viewBox="0 0 16 16" fill="none" xmlns="http://www.w3.org/2000/svg">
<g clip-path="url(#clip0_936_8295)">
<path d="M6.6412 5.33333L5.0952 0H6.9332C7.29257 -1.18244e-06 7.64531 0.0968289 7.95431 0.280308C8.26332 0.463788 8.51718 0.727138 8.6892 1.04267L10.8459 5.33333H6.6412ZM13.9999 6.66667H3.32453L1.59986 4.94067C1.44139 4.77366 1.22678 4.67112 0.99728 4.65276C0.767783 4.6344 0.539598 4.70151 0.356581 4.84119C0.173565 4.98087 0.0486338 5.18327 0.00579987 5.40948C-0.0370341 5.63569 0.00525223 5.86975 0.124531 6.06667L2.2712 10H7.03653L4.6792 16H6.7212C7.07375 16.0014 7.42029 15.9087 7.72501 15.7313C8.02973 15.554 8.28158 15.2986 8.45453 14.9913L11.5125 10H15.9999V8.66667C15.9999 8.13623 15.7892 7.62753 15.4141 7.25245C15.039 6.87738 14.5303 6.66667 13.9999 6.66667Z" fill="#D6D8EA"/>
</g>
<defs>
<clipPath id="clip0_936_8295">
<rect width="16" height="16" fill="white"/>
</clipPath>
</defs>
</svg>
