<svg width="16" height="16" viewBox="0 0 16 16" fill="none" xmlns="http://www.w3.org/2000/svg">
<path d="M14 8.28234V7.33301C14 5.74171 13.3679 4.21559 12.2427 3.09037C11.1175 1.96515 9.59135 1.33301 8.00005 1.33301C6.40875 1.33301 4.88263 1.96515 3.75741 3.09037C2.63219 4.21559 2.00005 5.74171 2.00005 7.33301V8.28234C1.30082 8.59023 0.728582 9.12897 0.379129 9.80838C0.0296769 10.4878 -0.0757776 11.2666 0.0804202 12.0145C0.236618 12.7624 0.644987 13.4339 1.23716 13.9166C1.82934 14.3994 2.56937 14.6641 3.33338 14.6663C3.687 14.6663 4.02614 14.5259 4.27619 14.2758C4.52624 14.0258 4.66672 13.6866 4.66672 13.333V9.33301C4.66672 8.97939 4.52624 8.64025 4.27619 8.3902C4.02614 8.14015 3.687 7.99967 3.33338 7.99967V7.33301C3.33338 6.09533 3.82505 4.90835 4.70022 4.03318C5.57539 3.15801 6.76237 2.66634 8.00005 2.66634C9.23773 2.66634 10.4247 3.15801 11.2999 4.03318C12.175 4.90835 12.6667 6.09533 12.6667 7.33301V7.99967C12.3131 7.99967 11.974 8.14015 11.7239 8.3902C11.4739 8.64025 11.3334 8.97939 11.3334 9.33301V13.333C11.3334 13.6866 11.4739 14.0258 11.7239 14.2758C11.974 14.5259 12.3131 14.6663 12.6667 14.6663C13.4307 14.6641 14.1708 14.3994 14.7629 13.9166C15.3551 13.4339 15.7635 12.7624 15.9197 12.0145C16.0759 11.2666 15.9704 10.4878 15.621 9.80838C15.2715 9.12897 14.6993 8.59023 14 8.28234Z" fill="#000034"/>
</svg>
