<svg width="16" height="16" viewBox="0 0 16 16" fill="none" xmlns="http://www.w3.org/2000/svg">
<path d="M14 8.28246V7.33313C14 5.74183 13.3679 4.21571 12.2427 3.09049C11.1175 1.96527 9.59135 1.33313 8.00005 1.33313C6.40875 1.33313 4.88263 1.96527 3.75741 3.09049C2.63219 4.21571 2.00005 5.74183 2.00005 7.33313V8.28246C1.30082 8.59035 0.728582 9.1291 0.379129 9.80851C0.0296769 10.4879 -0.0757776 11.2668 0.0804202 12.0146C0.236618 12.7625 0.644987 13.434 1.23716 13.9168C1.82934 14.3995 2.56937 14.6642 3.33338 14.6665C3.687 14.6665 4.02614 14.526 4.27619 14.2759C4.52624 14.0259 4.66672 13.6868 4.66672 13.3331V9.33313C4.66672 8.97951 4.52624 8.64037 4.27619 8.39032C4.02614 8.14027 3.687 7.9998 3.33338 7.9998V7.33313C3.33338 6.09545 3.82505 4.90847 4.70022 4.0333C5.57539 3.15813 6.76237 2.66646 8.00005 2.66646C9.23773 2.66646 10.4247 3.15813 11.2999 4.0333C12.175 4.90847 12.6667 6.09545 12.6667 7.33313V7.9998C12.3131 7.9998 11.974 8.14027 11.7239 8.39032C11.4739 8.64037 11.3334 8.97951 11.3334 9.33313V13.3331C11.3334 13.6868 11.4739 14.0259 11.7239 14.2759C11.974 14.526 12.3131 14.6665 12.6667 14.6665C13.4307 14.6642 14.1708 14.3995 14.7629 13.9168C15.3551 13.434 15.7635 12.7625 15.9197 12.0146C16.0759 11.2668 15.9704 10.4879 15.621 9.80851C15.2715 9.1291 14.6993 8.59035 14 8.28246Z" fill="#D6D8EA"/>
</svg>
