<svg width="16" height="16" viewBox="0 0 16 16" fill="none" xmlns="http://www.w3.org/2000/svg">
<g clip-path="url(#clip0_1394_9811)">
<path d="M16 3.66666C15.9978 1.64253 14.3575 0.00221875 12.3333 0H3.66666C1.64253 0.00221875 0.00221875 1.64253 0 3.66666V4.33331C0.00025 4.94238 0.239656 5.527 0.666656 5.96131V12.3333C0.668875 14.3575 2.30922 15.9978 4.33334 16H11.6667C13.6908 15.9978 15.3312 14.3575 15.3333 12.3333V5.96134C15.7604 5.52703 15.9998 4.94241 16 4.33334V3.66666ZM2 3.66666C2 2.74619 2.74619 2 3.66666 2H12.3333C13.2538 2 14 2.74619 14 3.66666V4.33331C14 4.51741 13.8507 4.66666 13.6667 4.66666H2.33334C2.14925 4.66666 2 4.51741 2 4.33331V3.66666ZM13.3333 12.3333C13.3333 13.2538 12.5872 14 11.6667 14H4.33334C3.41288 14 2.66669 13.2538 2.66669 12.3333V6.66666H13.3333V12.3333Z" fill="#000034"/>
<path d="M6.3335 8H9.66685C10.2191 8 10.6668 8.44772 10.6668 9C10.6668 9.55228 10.2191 10 9.66685 10H6.3335C5.78122 10 5.3335 9.55228 5.3335 9C5.3335 8.44772 5.78122 8 6.3335 8Z" fill="#000034"/>
</g>
<defs>
<clipPath id="clip0_1394_9811">
<rect width="16" height="16" fill="white"/>
</clipPath>
</defs>
</svg>
