<svg width="16" height="16" viewBox="0 0 16 16" fill="none" xmlns="http://www.w3.org/2000/svg">
<g clip-path="url(#clip0_1394_14423)">
<path d="M6.40952 7.74188C7.1459 7.74188 7.74286 7.14492 7.74286 6.40854C7.74286 5.67215 7.1459 5.0752 6.40952 5.0752C5.67313 5.0752 5.07617 5.67215 5.07617 6.40854C5.07617 7.14492 5.67313 7.74188 6.40952 7.74188Z" fill="#D6D8EA"/>
<path d="M13.3333 2.68134C14.0697 2.68134 14.6667 2.08438 14.6667 1.34799C14.6667 0.611607 14.0697 0.0146484 13.3333 0.0146484C12.597 0.0146484 12 0.611607 12 1.34799C12 2.08438 12.597 2.68134 13.3333 2.68134Z" fill="#D6D8EA"/>
<path d="M8.00034 12.0153C8.73673 12.0153 9.33369 11.4184 9.33369 10.682C9.33369 9.94559 8.73673 9.34863 8.00034 9.34863C7.26395 9.34863 6.66699 9.94559 6.66699 10.682C6.66699 11.4184 7.26395 12.0153 8.00034 12.0153Z" fill="#D6D8EA"/>
<path d="M15.9613 7.23534C15.9162 6.75775 15.5382 6.37953 15.0607 6.334C12.2036 6.05737 9.94259 3.79584 9.66669 0.938656C9.62128 0.461563 9.24375 0.08375 8.76669 0.038C8.514 0.0146562 8.25934 0 8 0C3.58172 0 0 3.58172 0 8C0 12.4183 3.58172 16 8 16C12.4183 16 16 12.4183 16 8C16 7.74134 15.986 7.48666 15.9613 7.23534ZM8 14C4.68628 14.0534 1.95672 11.4104 1.90334 8.09666C1.84994 4.78297 4.49297 2.05338 7.80666 2C8.45909 5.11047 10.8895 7.54056 14 8.19266C13.8929 11.4295 11.2386 13.9985 8 14Z" fill="#D6D8EA"/>
</g>
<defs>
<clipPath id="clip0_1394_14423">
<rect width="16" height="16" fill="white"/>
</clipPath>
</defs>
</svg>
