<svg width="62" height="28" viewBox="0 0 62 28" fill="none" xmlns="http://www.w3.org/2000/svg">
<path d="M22.8555 27.4265L61.5461 16.1621V22.4265C61.5461 25.1879 59.3075 27.4265 56.5461 27.4265H22.8555Z" fill="#FD6020"/>
<path fill-rule="evenodd" clip-rule="evenodd" d="M54.1998 0.216797C56.3284 0.216797 57.4991 1.16406 57.4991 2.95335C57.6055 4.32162 56.6477 5.47939 55.3705 5.6899L58.2441 9.58422H56.0091L53.5612 5.79515H53.3484V9.58422H51.5391V0.216797H54.1998ZM53.3496 4.53126H53.8818C55.0525 4.53126 55.5846 4.005 55.5846 3.05773C55.5846 2.21571 55.0525 1.68945 53.8818 1.68945H53.3496V4.53126ZM45.2627 9.58617H50.3713V8.00739H47.072V5.48135H50.2649V3.90257H47.072V1.79753H50.3713V0.21875H45.2627V9.58617ZM39.9378 6.53387L37.4899 0.21875H35.5742L39.5121 9.79668H40.47L44.4078 0.21875H42.4921L39.9378 6.53387ZM18.335 4.95335C18.335 7.58465 20.4635 9.79494 23.1243 9.79494C23.9757 9.79494 24.7207 9.58444 25.4657 9.26868V7.16364C24.9336 7.79515 24.1886 8.21616 23.3371 8.21616C21.6343 8.21616 20.2507 6.95314 20.2507 5.26911V5.0586C20.1443 3.37457 21.5278 1.90104 23.2307 1.79579C24.0821 1.79579 24.9336 2.2168 25.4657 2.84831V0.743273C24.8271 0.322265 23.9757 0.217013 23.2307 0.217013C20.4635 0.00650945 18.335 2.2168 18.335 4.95335ZM15.0364 3.79572C13.9721 3.37471 13.6528 3.16421 13.6528 2.63795C13.7593 2.00644 14.2914 1.48018 14.93 1.58543C15.4621 1.58543 15.9943 1.90118 16.42 2.32219L17.3779 1.05917C16.6328 0.427656 15.675 0.00664843 14.7171 0.00664843C13.2271 -0.0986035 11.95 1.05917 11.8435 2.5327V2.63795C11.8435 3.90097 12.3757 4.63773 14.0786 5.16399C14.5043 5.26925 14.93 5.47975 15.3557 5.69025C15.675 5.90076 15.8878 6.21651 15.8878 6.63752C15.8878 7.37428 15.2493 8.0058 14.6107 8.0058H14.5043C13.6528 8.0058 12.9078 7.47954 12.5885 6.74277L11.4178 7.90055C12.0564 9.05832 13.3335 9.68983 14.6107 9.68983C16.3136 9.79508 17.6971 8.53206 17.8036 6.84803V6.53227C17.6971 5.26925 17.165 4.63773 15.0364 3.79572ZM8.86133 9.58617H10.6706V0.21875H8.86133V9.58617ZM0.454102 0.216797H3.11483H3.64697C6.20127 0.322049 8.22342 2.42709 8.11699 4.95313C8.11699 6.32141 7.47842 7.58443 6.41413 8.5317C5.45627 9.26847 4.28555 9.68947 3.11483 9.58422H0.454102V0.216797ZM2.79679 8.00542C3.64823 8.11067 4.60609 7.79492 5.24466 7.26866C5.88324 6.63715 6.20252 5.79513 6.20252 4.84786C6.20252 4.00585 5.88324 3.16383 5.24466 2.53232C4.60609 2.00606 3.64823 1.69031 2.79679 1.79556H2.26465V8.00542H2.79679Z" fill="black"/>
<path fill-rule="evenodd" clip-rule="evenodd" d="M30.8948 0C28.234 0 25.999 2.10504 25.999 4.84159C25.999 7.47289 28.1276 9.68318 30.8948 9.78843C33.6619 9.89368 35.7905 7.68339 35.8969 4.94684C35.7905 2.21029 33.6619 0 30.8948 0V0Z" fill="#FD6020"/>
</svg>
