<svg width="40" height="31" viewBox="0 0 40 31" fill="none" xmlns="http://www.w3.org/2000/svg">
<path d="M39.8061 24.3584C39.8061 27.7483 37.0458 30.5086 33.6559 30.5086H0.193359V6.15014C0.193359 2.7603 2.95366 0 6.3435 0H39.8061V24.3584Z" fill="white"/>
<path d="M28.9102 18.1096H31.4525C31.5252 18.1096 31.6947 18.0854 31.7673 18.0854C32.2516 17.9886 32.6632 17.5527 32.6632 16.9474C32.6632 16.3663 32.2516 15.9304 31.7673 15.8094C31.6947 15.7852 31.5494 15.7852 31.4525 15.7852H28.9102V18.1096Z" fill="url(#paint0_linear_1381_22219)"/>
<path d="M31.1615 2.05859C28.7402 2.05859 26.7547 4.01986 26.7547 6.46538V11.0417H32.9775C33.1227 11.0417 33.2922 11.0417 33.4133 11.0659C34.8177 11.1385 35.8588 11.8649 35.8588 13.124C35.8588 14.1167 35.1566 14.9642 33.8491 15.1337V15.1821C35.2777 15.279 36.3673 16.078 36.3673 17.3129C36.3673 18.6446 35.1566 19.5163 33.5586 19.5163H26.7305V28.4751H33.1954C35.6167 28.4751 37.6022 26.5139 37.6022 24.0683V2.05859H31.1615Z" fill="url(#paint1_linear_1381_22219)"/>
<path d="M32.3484 13.413C32.3484 12.8319 31.9368 12.4445 31.4525 12.3719C31.4041 12.3719 31.283 12.3477 31.2104 12.3477H28.9102V14.4784H31.2104C31.283 14.4784 31.4283 14.4784 31.4525 14.4542C31.9368 14.3816 32.3484 13.9941 32.3484 13.413Z" fill="url(#paint2_linear_1381_22219)"/>
<path d="M6.80307 2.05859C4.38176 2.05859 2.39628 4.01986 2.39628 6.46539V17.3371C3.63115 17.9424 4.91445 18.3298 6.19775 18.3298C7.72317 18.3298 8.54642 17.4097 8.54642 16.1506V11.0175H12.3237V16.1264C12.3237 18.1119 11.0888 19.7342 6.89993 19.7342C4.35755 19.7342 2.37207 19.1773 2.37207 19.1773V28.4509H8.83698C11.2583 28.4509 13.2438 26.4897 13.2438 24.0441V2.05859H6.80307Z" fill="url(#paint3_linear_1381_22219)"/>
<path d="M18.9849 2.05859C16.5636 2.05859 14.5781 4.01986 14.5781 6.46539V12.2281C15.6919 11.2838 17.629 10.6785 20.7525 10.8238C22.4232 10.8964 24.215 11.3564 24.215 11.3564V13.2209C23.3191 12.7608 22.2537 12.3492 20.8735 12.2523C18.5007 12.0828 17.0721 13.2451 17.0721 15.279C17.0721 17.3371 18.5007 18.4993 20.8735 18.3056C22.2537 18.2088 23.3191 17.7729 24.215 17.3371V19.2015C24.215 19.2015 22.4474 19.6615 20.7525 19.7342C17.629 19.8795 15.6919 19.2741 14.5781 18.3298V28.4993H21.043C23.4643 28.4993 25.4498 26.5381 25.4498 24.0926V2.05859H18.9849Z" fill="url(#paint4_linear_1381_22219)"/>
<defs>
<linearGradient id="paint0_linear_1381_22219" x1="26.7511" y1="16.9503" x2="37.632" y2="16.9503" gradientUnits="userSpaceOnUse">
<stop stop-color="#007940"/>
<stop offset="0.229" stop-color="#00873F"/>
<stop offset="0.743" stop-color="#40A737"/>
<stop offset="1" stop-color="#5CB531"/>
</linearGradient>
<linearGradient id="paint1_linear_1381_22219" x1="26.7503" y1="15.2562" x2="37.6319" y2="15.2562" gradientUnits="userSpaceOnUse">
<stop stop-color="#007940"/>
<stop offset="0.229" stop-color="#00873F"/>
<stop offset="0.743" stop-color="#40A737"/>
<stop offset="1" stop-color="#5CB531"/>
</linearGradient>
<linearGradient id="paint2_linear_1381_22219" x1="26.7508" y1="13.4099" x2="37.632" y2="13.4099" gradientUnits="userSpaceOnUse">
<stop stop-color="#007940"/>
<stop offset="0.229" stop-color="#00873F"/>
<stop offset="0.743" stop-color="#40A737"/>
<stop offset="1" stop-color="#5CB531"/>
</linearGradient>
<linearGradient id="paint3_linear_1381_22219" x1="2.3912" y1="15.2562" x2="13.4404" y2="15.2562" gradientUnits="userSpaceOnUse">
<stop stop-color="#1F286F"/>
<stop offset="0.475" stop-color="#004E94"/>
<stop offset="0.826" stop-color="#0066B1"/>
<stop offset="1" stop-color="#006FBC"/>
</linearGradient>
<linearGradient id="paint4_linear_1381_22219" x1="14.5154" y1="15.2562" x2="25.2469" y2="15.2562" gradientUnits="userSpaceOnUse">
<stop stop-color="#6C2C2F"/>
<stop offset="0.173" stop-color="#882730"/>
<stop offset="0.573" stop-color="#BE1833"/>
<stop offset="0.859" stop-color="#DC0436"/>
<stop offset="1" stop-color="#E60039"/>
</linearGradient>
</defs>
</svg>
