<svg width="20" height="20" viewBox="0 0 20 20" fill="none" xmlns="http://www.w3.org/2000/svg">
<g clip-path="url(#clip0_1381_23121)">
<path d="M15.0837 6.66667V7.41667H15.8337H17.5837V17.5C17.5837 17.9641 17.3993 18.4092 17.0711 18.7374C16.7429 19.0656 16.2978 19.25 15.8337 19.25H4.16699C3.70286 19.25 3.25774 19.0656 2.92956 18.7374C2.60137 18.4092 2.41699 17.9641 2.41699 17.5V7.41667H4.16699H4.91699V6.66667V5.83333C4.91699 4.48515 5.45256 3.19218 6.40587 2.23887C7.35918 1.28556 8.65214 0.75 10.0003 0.75C11.3485 0.75 12.6415 1.28556 13.5948 2.23887C14.5481 3.19218 15.0837 4.48515 15.0837 5.83333V6.66667ZM14.167 7.41667H14.917V6.66667V5.83333C14.917 4.52935 14.399 3.27878 13.4769 2.35672C12.5549 1.43467 11.3043 0.916667 10.0003 0.916667C8.69634 0.916667 7.44577 1.43467 6.52372 2.35672C5.60166 3.27878 5.08366 4.52935 5.08366 5.83333V6.66667V7.41667H5.83366H14.167ZM3.33366 7.58333H2.58366V8.33333V17.5C2.58366 17.9199 2.75047 18.3227 3.04741 18.6196L3.57774 18.0893L3.04741 18.6196C3.34434 18.9165 3.74707 19.0833 4.16699 19.0833H15.8337C16.2536 19.0833 16.6563 18.9165 16.9532 18.6196C17.2502 18.3227 17.417 17.9199 17.417 17.5V8.33333V7.58333H16.667H3.33366Z" fill="#979AB8" stroke="#979AB8" stroke-width="1.5"/>
<path d="M9.91699 14.2493V12.416H10.0837V14.2493H9.91699Z" fill="#979AB8" stroke="#979AB8" stroke-width="1.5"/>
</g>
<defs>
<clipPath id="clip0_1381_23121">
<rect width="20" height="20" fill="white"/>
</clipPath>
</defs>
</svg>
