<svg width="60" height="35" viewBox="0 0 60 35" fill="none" xmlns="http://www.w3.org/2000/svg">
<path fill-rule="evenodd" clip-rule="evenodd" d="M29.9976 30.82C26.8919 33.4265 22.8635 35 18.4616 35C8.63875 35 0.675781 27.165 0.675781 17.5C0.675781 7.83502 8.63875 0 18.4616 0C22.8635 0 26.8919 1.57346 29.9976 4.17995C33.1033 1.57346 37.1317 0 41.5337 0C51.3565 0 59.3194 7.83502 59.3194 17.5C59.3194 27.165 51.3565 35 41.5337 35C37.1317 35 33.1033 33.4265 29.9976 30.82Z" fill="#ED0006"/>
<path fill-rule="evenodd" clip-rule="evenodd" d="M30 30.8183C33.8233 27.6084 36.2476 22.8328 36.2476 17.5C36.2476 12.1672 33.8233 7.39156 30 4.18175C33.106 1.57418 37.1352 0 41.5382 0C51.361 0 59.324 7.83502 59.324 17.5C59.324 27.165 51.361 35 41.5382 35C37.1352 35 33.106 33.4258 30 30.8183Z" fill="#F9A000"/>
<path fill-rule="evenodd" clip-rule="evenodd" d="M29.9987 30.8157C33.8232 27.6059 36.2483 22.8295 36.2483 17.4958C36.2483 12.162 33.8232 7.38561 29.9987 4.17578C26.1742 7.38561 23.749 12.162 23.749 17.4958C23.749 22.8295 26.1742 27.6059 29.9987 30.8157Z" fill="#FF5E00"/>
</svg>
