<svg width="64" height="21" viewBox="0 0 64 21" fill="none" xmlns="http://www.w3.org/2000/svg">
<path fill-rule="evenodd" clip-rule="evenodd" d="M16.068 20.1825H10.5522L6.41603 4.4028C6.21971 3.67693 5.80287 3.03522 5.1897 2.73278C3.65948 1.97272 1.97328 1.36783 0.133789 1.06276V0.455239H9.01929C10.2456 0.455239 11.1654 1.36783 11.3187 2.4277L13.4647 13.8101L18.9778 0.455239H24.3403L16.068 20.1825ZM27.4074 20.1823H22.1982L26.4877 0.455078H31.6969L27.4074 20.1823ZM38.4365 5.92002C38.5898 4.85752 39.5096 4.25 40.5826 4.25C42.2688 4.09747 44.1056 4.40254 45.6385 5.15997L46.5582 0.912593C45.0253 0.305074 43.3391 0 41.8089 0C36.753 0 33.074 2.73252 33.074 6.52491C33.074 9.40997 35.68 10.9248 37.5195 11.8374C39.5096 12.7474 40.276 13.3549 40.1227 14.2649C40.1227 15.6298 38.5898 16.2373 37.0596 16.2373C35.2201 16.2373 33.3806 15.7823 31.6971 15.0223L30.7773 19.2723C32.6168 20.0297 34.6069 20.3348 36.4464 20.3348C42.1155 20.4847 45.6385 17.7548 45.6385 13.6573C45.6385 8.49737 38.4365 8.19493 38.4365 5.92002ZM63.8675 20.1825L59.7314 0.455239H55.2886C54.3689 0.455239 53.4491 1.06276 53.1425 1.97272L45.4834 20.1825H50.8459L51.9162 17.3001H58.505L59.1182 20.1825H63.8675ZM56.0561 5.76953L57.5863 13.2044H53.2969L56.0561 5.76953Z" fill="#172B85"/>
</svg>
