<svg width="450" height="401" viewBox="0 0 450 401" fill="none" xmlns="http://www.w3.org/2000/svg">
<path d="M388.907 311.388C388.809 311.191 388.644 311.093 388.415 311.027C388.218 310.961 387.988 310.994 387.824 311.125L385.199 312.668L383.656 310.042C383.557 309.845 383.393 309.747 383.164 309.681C382.967 309.616 382.737 309.648 382.573 309.78C382.376 309.878 382.278 310.042 382.212 310.272C382.146 310.469 382.179 310.699 382.31 310.863L383.853 313.488L381.227 315.031C381.03 315.129 380.932 315.293 380.866 315.523C380.801 315.72 380.834 315.95 380.965 316.114C381.063 316.311 381.227 316.409 381.457 316.475C381.654 316.54 381.884 316.508 382.048 316.376L384.673 314.834L386.216 317.459C386.38 317.755 386.741 317.886 387.036 317.82C387.135 317.788 387.2 317.788 387.299 317.722C387.66 317.492 387.791 317.033 387.561 316.639L386.019 314.013L388.645 312.471C389.006 312.241 389.137 311.749 388.907 311.388Z" fill="#E4E4FF"/>
<path d="M395.537 328.683C393.633 328.683 392.091 327.141 392.091 325.237C392.091 323.334 393.633 321.791 395.537 321.791C397.44 321.791 398.983 323.334 398.983 325.237C398.983 327.141 397.44 328.683 395.537 328.683ZM395.537 323.662C394.651 323.662 393.929 324.384 393.929 325.27C393.929 326.156 394.651 326.878 395.537 326.878C396.423 326.878 397.145 326.156 397.145 325.27C397.145 324.351 396.423 323.662 395.537 323.662Z" fill="#E4E4FF"/>
<path d="M48.9006 379.062C46.9971 379.062 45.4546 377.519 45.4546 375.616C45.4546 373.712 46.9971 372.17 48.9006 372.17C50.8041 372.17 52.3466 373.712 52.3466 375.616C52.3138 377.519 50.7713 379.062 48.9006 379.062ZM48.9006 374.008C48.0145 374.008 47.2925 374.73 47.2925 375.616C47.2925 376.502 48.0145 377.224 48.9006 377.224C49.7867 377.224 50.5087 376.502 50.5087 375.616C50.4759 374.73 49.7867 374.008 48.9006 374.008Z" fill="#E4E4FF"/>
<path d="M428.947 9.97796C427.043 9.97796 425.5 8.43546 425.5 6.53195C425.5 4.62844 427.043 3.08594 428.947 3.08594C430.85 3.08594 432.393 4.62844 432.393 6.53195C432.393 8.43546 430.85 9.97796 428.947 9.97796ZM428.947 4.95663C428.06 4.95663 427.338 5.67864 427.338 6.56476C427.338 7.45088 428.06 8.17291 428.947 8.17291C429.833 8.17291 430.555 7.45088 430.555 6.56476C430.555 5.67864 429.833 4.95663 428.947 4.95663Z" fill="#E4E4FF"/>
<path d="M405.179 96.9155C404.982 97.0139 404.851 97.178 404.785 97.3749C404.72 97.5718 404.72 97.8016 404.818 97.9657L406.164 100.69L403.44 102.035C403.243 102.134 403.111 102.298 403.046 102.495C402.98 102.692 402.98 102.921 403.079 103.085C403.177 103.282 403.341 103.414 403.538 103.479C403.735 103.545 403.965 103.545 404.129 103.446L406.853 102.101L408.198 104.825C408.297 105.022 408.461 105.153 408.658 105.219C408.855 105.284 409.085 105.284 409.249 105.186C409.446 105.087 409.577 104.923 409.642 104.726C409.708 104.53 409.708 104.3 409.61 104.136L408.264 101.412L410.988 100.066C411.283 99.902 411.447 99.5738 411.415 99.2784C411.415 99.18 411.382 99.1143 411.349 99.0159C411.152 98.6221 410.693 98.458 410.299 98.6549L407.575 100L406.229 97.2765C406.065 96.8826 405.573 96.7186 405.179 96.9155Z" fill="#E4E4FF"/>
<path d="M438.103 162.226C436.2 162.226 434.657 160.684 434.657 158.78C434.657 156.876 436.2 155.334 438.103 155.334C440.007 155.334 441.549 156.876 441.549 158.78C441.549 160.684 440.007 162.226 438.103 162.226ZM438.103 157.205C437.217 157.205 436.495 157.927 436.495 158.813C436.495 159.699 437.217 160.421 438.103 160.421C438.989 160.421 439.711 159.699 439.711 158.813C439.711 157.927 438.989 157.205 438.103 157.205Z" fill="#E4E4FF"/>
<path d="M0.459476 210.076C0.29538 210.207 0.229726 210.404 0.196907 210.634C0.196907 210.831 0.262537 211.06 0.393814 211.192L2.46144 213.391L0.262529 215.458C0.0984335 215.589 0.0328192 215.786 0 216.016C0 216.213 0.0656303 216.443 0.196907 216.574C0.328184 216.738 0.525083 216.804 0.754817 216.837C0.951732 216.837 1.18149 216.771 1.31277 216.64L3.51163 214.572L5.57926 216.771C5.71053 216.935 5.90743 217.001 6.13717 217.033C6.33408 217.033 6.56384 216.968 6.69512 216.837C6.85921 216.705 6.92483 216.508 6.95765 216.279C6.95765 216.082 6.89202 215.852 6.76074 215.721L4.69312 213.522L6.89202 211.454C7.15458 211.224 7.22021 210.863 7.08893 210.568C7.05611 210.502 6.99047 210.404 6.95765 210.338C6.66227 210.01 6.16998 210.01 5.84179 210.306L3.64292 212.373L1.5753 210.174C1.27992 209.78 0.787668 209.78 0.459476 210.076Z" fill="#E4E4FF"/>
<path d="M34.2961 247.818C32.3926 247.818 30.8501 246.275 30.8501 244.372C30.8501 242.468 32.3926 240.926 34.2961 240.926C36.1996 240.926 37.7421 242.468 37.7421 244.372C37.7421 246.275 36.1668 247.818 34.2961 247.818ZM34.2961 242.764C33.41 242.764 32.688 243.486 32.688 244.372C32.688 245.258 33.41 245.98 34.2961 245.98C35.1822 245.98 35.9043 245.258 35.9043 244.372C35.8714 243.486 35.1822 242.764 34.2961 242.764Z" fill="#E4E4FF"/>
<path d="M93.3704 355.693C93.0094 355.693 92.6812 355.398 92.6812 355.037C92.6484 354.643 92.9438 354.315 93.3376 354.315C95.6349 354.184 97.965 353.954 100.262 353.626C100.656 353.56 100.984 353.823 101.05 354.217C101.116 354.61 100.853 354.939 100.459 355.004C98.1292 355.332 95.7662 355.562 93.4032 355.693C93.4032 355.693 93.4032 355.693 93.3704 355.693ZM83.5575 355.661H83.5247C81.1945 355.529 78.7987 355.267 76.5013 354.906C76.1075 354.84 75.8449 354.479 75.9106 354.118C75.9762 353.724 76.3372 353.462 76.6982 353.527C78.9956 353.856 81.3257 354.118 83.6231 354.249C84.0169 354.282 84.3123 354.61 84.2795 355.004C84.2138 355.365 83.9185 355.661 83.5575 355.661ZM110.01 353.068C109.714 353.068 109.419 352.871 109.321 352.543C109.222 352.182 109.452 351.788 109.813 351.689C112.044 351.099 114.276 350.41 116.475 349.655C116.836 349.523 117.23 349.72 117.361 350.081C117.492 350.442 117.296 350.836 116.935 350.967C114.736 351.755 112.438 352.444 110.174 353.035C110.108 353.035 110.043 353.068 110.01 353.068ZM66.951 352.904C66.8853 352.904 66.8197 352.904 66.7541 352.871C64.4895 352.247 62.225 351.525 60.0261 350.705C59.6651 350.574 59.4682 350.18 59.5995 349.819C59.7308 349.458 60.1246 349.261 60.4856 349.392C62.6516 350.18 64.8834 350.902 67.1151 351.493C67.4761 351.591 67.7058 351.985 67.6074 352.346C67.5417 352.707 67.2463 352.904 66.951 352.904ZM125.763 347.16C125.5 347.16 125.271 347.029 125.139 346.767C124.975 346.406 125.107 346.012 125.468 345.815C127.535 344.797 129.603 343.649 131.572 342.467C131.9 342.27 132.327 342.369 132.524 342.697C132.721 343.025 132.622 343.452 132.294 343.649C130.292 344.863 128.192 346.012 126.091 347.062C125.96 347.128 125.861 347.16 125.763 347.16ZM51.2634 346.832C51.1649 346.832 51.0337 346.799 50.9352 346.767C48.8348 345.716 46.7672 344.535 44.7652 343.288C44.437 343.091 44.3386 342.664 44.5355 342.336C44.7324 342.008 45.159 341.909 45.4872 342.106C47.4564 343.321 49.4912 344.469 51.5588 345.519C51.887 345.684 52.0511 346.11 51.8542 346.471C51.7557 346.701 51.4931 346.832 51.2634 346.832ZM139.974 338.201C139.777 338.201 139.547 338.102 139.416 337.938C139.186 337.643 139.219 337.183 139.547 336.954C141.352 335.542 143.157 334 144.831 332.425C145.126 332.162 145.553 332.195 145.815 332.457C146.078 332.753 146.045 333.179 145.783 333.442C144.043 335.05 142.238 336.593 140.4 338.037C140.269 338.168 140.138 338.201 139.974 338.201ZM37.0855 337.774C36.9214 337.774 36.7901 337.709 36.6589 337.61C34.821 336.133 33.016 334.591 31.3094 332.983C31.014 332.72 31.014 332.261 31.2765 331.998C31.5391 331.703 31.9985 331.703 32.2611 331.965C33.9349 333.54 35.7071 335.083 37.5122 336.527C37.8075 336.757 37.8732 337.216 37.6106 337.512C37.5122 337.676 37.2825 337.774 37.0855 337.774ZM152.117 326.55C151.953 326.55 151.788 326.484 151.657 326.386C151.362 326.123 151.329 325.697 151.592 325.401C153.101 323.629 154.545 321.791 155.891 319.921C156.121 319.592 156.547 319.527 156.875 319.756C157.204 319.986 157.269 320.413 157.04 320.741C155.661 322.645 154.217 324.515 152.675 326.32C152.511 326.484 152.314 326.55 152.117 326.55ZM25.0409 326.025C24.844 326.025 24.6471 325.926 24.5158 325.762C23.0061 323.957 21.5621 322.087 20.2165 320.15C19.9867 319.822 20.0852 319.395 20.3806 319.166C20.7088 318.936 21.1354 319.034 21.3651 319.33C22.6779 321.233 24.122 323.071 25.5988 324.843C25.8614 325.139 25.7957 325.565 25.5004 325.828C25.3363 325.992 25.205 326.025 25.0409 326.025ZM161.667 312.7C161.569 312.7 161.437 312.667 161.339 312.602C161.011 312.405 160.879 311.978 161.076 311.65C162.192 309.615 163.242 307.515 164.161 305.414C164.325 305.053 164.719 304.889 165.08 305.053C165.441 305.218 165.605 305.611 165.441 305.972C164.49 308.106 163.439 310.239 162.291 312.306C162.159 312.569 161.93 312.7 161.667 312.7ZM15.589 312.11C15.3264 312.11 15.0967 311.978 14.9654 311.749C13.8496 309.681 12.7993 307.548 11.8804 305.382C11.7163 305.021 11.8804 304.627 12.2414 304.463C12.6024 304.299 12.9963 304.463 13.1604 304.824C14.0793 306.957 15.0967 309.057 16.2126 311.092C16.4095 311.42 16.2782 311.847 15.9172 312.044C15.8187 312.077 15.6874 312.11 15.589 312.11ZM168.264 297.243C168.198 297.243 168.132 297.242 168.067 297.21C167.706 297.111 167.476 296.717 167.607 296.324C168.297 294.125 168.887 291.86 169.38 289.596C169.478 289.235 169.839 288.972 170.2 289.071C170.561 289.169 170.824 289.53 170.725 289.891C170.233 292.188 169.609 294.486 168.92 296.75C168.822 297.046 168.559 297.243 168.264 297.243ZM9.15644 296.553C8.86106 296.553 8.56569 296.356 8.50005 296.061C7.84367 293.829 7.25291 291.499 6.76062 289.202C6.69498 288.808 6.92471 288.447 7.28572 288.381C7.67955 288.316 8.04056 288.545 8.1062 288.906C8.59849 291.171 9.15644 293.435 9.81282 295.667C9.91128 296.028 9.71435 296.422 9.35334 296.52C9.2877 296.553 9.22207 296.553 9.15644 296.553ZM171.578 280.734C171.546 280.734 171.546 280.734 171.513 280.734C171.119 280.702 170.856 280.341 170.889 279.98C171.119 277.682 171.25 275.352 171.283 273.022C171.283 272.628 171.611 272.333 172.005 272.333C172.399 272.333 172.694 272.661 172.694 273.055C172.662 275.418 172.53 277.781 172.3 280.111C172.235 280.472 171.939 280.734 171.578 280.734ZM5.97295 280.045C5.61194 280.045 5.31658 279.783 5.28376 279.422C5.08684 277.092 4.95557 274.696 4.95557 272.366C4.95557 271.972 5.25093 271.676 5.64476 271.676C6.03859 271.676 6.33396 271.972 6.33396 272.366C6.33396 274.663 6.46523 277.026 6.66215 279.323C6.69497 279.717 6.39963 280.045 6.03861 280.078C6.0058 280.045 6.00577 280.045 5.97295 280.045ZM171.513 263.898C171.152 263.898 170.856 263.636 170.824 263.275C170.594 260.977 170.233 258.68 169.806 256.383L169.773 256.284C169.708 255.89 169.937 255.529 170.331 255.464C170.725 255.398 171.086 255.628 171.152 256.022L171.185 256.12C171.644 258.45 171.972 260.78 172.235 263.111C172.268 263.504 172.005 263.833 171.611 263.865C171.546 263.898 171.513 263.898 171.513 263.898ZM6.16986 263.209C6.13704 263.209 6.10424 263.209 6.10424 263.209C5.71041 263.176 5.44785 262.815 5.48067 262.421C5.74322 260.091 6.10425 257.728 6.56371 255.431C6.62935 255.037 7.02318 254.807 7.38419 254.873C7.77802 254.939 8.00774 255.332 7.9421 255.693C7.48263 257.958 7.12165 260.288 6.85909 262.585C6.82627 262.946 6.53087 263.209 6.16986 263.209ZM168.034 247.357C167.739 247.357 167.476 247.16 167.378 246.865C166.688 244.666 165.868 242.467 164.982 240.334C164.851 239.973 165.015 239.579 165.376 239.415C165.737 239.284 166.131 239.448 166.295 239.809C167.181 241.975 168.001 244.207 168.723 246.471C168.854 246.832 168.625 247.226 168.264 247.357C168.165 247.357 168.1 247.357 168.034 247.357ZM9.77997 246.767C9.71433 246.767 9.64871 246.767 9.55025 246.734C9.18924 246.603 8.99232 246.209 9.09077 245.848C9.81279 243.616 10.6661 241.384 11.585 239.218C11.7491 238.857 12.143 238.693 12.504 238.857C12.865 239.021 13.0291 239.415 12.865 239.776C11.946 241.909 11.1256 244.108 10.4035 246.307C10.3379 246.603 10.0425 246.767 9.77997 246.767ZM161.339 231.932C161.109 231.932 160.847 231.801 160.715 231.571C159.6 229.569 158.352 227.567 157.04 225.664C156.81 225.336 156.908 224.909 157.236 224.679C157.565 224.45 157.991 224.548 158.221 224.876C159.534 226.813 160.781 228.847 161.93 230.882C162.127 231.21 161.995 231.637 161.667 231.834C161.569 231.9 161.437 231.932 161.339 231.932ZM16.6064 231.407C16.4751 231.407 16.3766 231.374 16.2454 231.309C15.9172 231.112 15.7859 230.685 15.9828 230.357C17.1643 228.322 18.4114 226.287 19.757 224.351C19.9867 224.023 20.4134 223.957 20.7416 224.187C21.0698 224.417 21.1354 224.843 20.9057 225.172C19.5929 227.075 18.3458 229.044 17.1971 231.079C17.0659 231.276 16.8361 231.407 16.6064 231.407ZM151.657 218.181C151.46 218.181 151.263 218.115 151.132 217.951C149.622 216.212 148.014 214.505 146.341 212.897C146.078 212.635 146.045 212.175 146.341 211.913C146.603 211.65 147.063 211.617 147.325 211.913C148.999 213.554 150.64 215.293 152.182 217.065C152.445 217.361 152.412 217.787 152.117 218.05C151.953 218.115 151.788 218.181 151.657 218.181ZM26.3865 217.722C26.2224 217.722 26.0583 217.656 25.927 217.558C25.6316 217.295 25.5988 216.868 25.8614 216.573C27.4039 214.801 29.0448 213.094 30.7514 211.453C31.014 211.191 31.4734 211.191 31.736 211.486C31.9985 211.749 31.9986 212.208 31.7032 212.471C30.0294 214.079 28.4213 215.753 26.8788 217.492C26.7803 217.623 26.5834 217.722 26.3865 217.722ZM139.383 206.662C139.219 206.662 139.088 206.629 138.956 206.53C137.118 205.119 135.215 203.773 133.246 202.526C132.917 202.329 132.819 201.87 133.049 201.575C133.246 201.246 133.672 201.148 134.001 201.378C135.97 202.658 137.939 204.003 139.809 205.447C140.105 205.677 140.171 206.136 139.941 206.432C139.81 206.563 139.58 206.662 139.383 206.662ZM38.6937 206.268C38.4968 206.268 38.267 206.169 38.1357 206.005C37.906 205.71 37.9716 205.25 38.267 205.021C40.1377 203.609 42.1068 202.264 44.076 200.984C44.4042 200.787 44.8308 200.885 45.0278 201.214C45.2247 201.542 45.1262 201.968 44.798 202.165C42.8289 203.412 40.9254 204.725 39.0875 206.136C38.989 206.235 38.8578 206.268 38.6937 206.268ZM125.074 197.833C124.975 197.833 124.877 197.8 124.778 197.768C122.711 196.75 120.545 195.831 118.379 194.978C118.018 194.847 117.853 194.42 117.985 194.059C118.116 193.698 118.543 193.534 118.904 193.665C121.103 194.518 123.269 195.47 125.402 196.488C125.763 196.652 125.894 197.078 125.73 197.407C125.566 197.669 125.336 197.833 125.074 197.833ZM53.0685 197.538C52.8059 197.538 52.5433 197.407 52.4449 197.144C52.2808 196.783 52.4121 196.389 52.7731 196.225C54.9063 195.208 57.0724 194.289 59.3041 193.468C59.6651 193.337 60.059 193.501 60.1902 193.862C60.3215 194.223 60.1574 194.617 59.7964 194.748C57.6303 195.569 55.4643 196.488 53.3966 197.472C53.2982 197.505 53.1997 197.538 53.0685 197.538ZM109.255 192.024C109.189 192.024 109.124 192.024 109.091 191.991C106.859 191.434 104.562 190.941 102.264 190.547C101.871 190.482 101.641 190.121 101.674 189.76C101.739 189.366 102.1 189.136 102.461 189.169C104.791 189.563 107.122 190.055 109.386 190.613C109.747 190.711 109.977 191.072 109.878 191.466C109.846 191.827 109.583 192.024 109.255 192.024ZM68.9201 191.893C68.5919 191.893 68.3294 191.663 68.2309 191.368C68.1325 191.007 68.3622 190.613 68.756 190.515C70.1344 190.186 71.5785 189.858 72.9897 189.596C73.8758 189.432 74.7947 189.267 75.7137 189.103C76.1075 189.038 76.4685 189.3 76.5013 189.694C76.567 190.088 76.3044 190.449 75.9106 190.482C75.0245 190.613 74.1055 190.777 73.2194 190.941C71.841 191.204 70.4298 191.499 69.0842 191.86C69.0514 191.893 68.9858 191.893 68.9201 191.893ZM92.6155 189.563C92.5827 189.563 92.6155 189.563 92.6155 189.563C91.3684 189.497 90.1213 189.464 88.907 189.464C87.824 189.464 86.7081 189.497 85.6251 189.53C85.2313 189.563 84.903 189.235 84.903 188.874C84.903 188.48 85.1984 188.152 85.5594 188.152C86.6753 188.119 87.7911 188.086 88.8742 188.086C90.1213 188.086 91.3684 188.119 92.6155 188.184C93.0094 188.217 93.3047 188.513 93.2719 188.906C93.3047 189.267 92.9766 189.563 92.6155 189.563Z" fill="#D6D8EE"/>
<path d="M312.53 292.222C312.136 292.255 311.742 292.288 311.316 292.288C310.922 292.32 310.594 292.025 310.594 291.631C310.561 291.237 310.856 290.909 311.25 290.909C313.547 290.778 315.845 290.581 318.109 290.351C318.503 290.318 318.831 290.581 318.864 290.975C318.897 291.369 318.634 291.697 318.241 291.73C316.37 291.959 314.434 292.123 312.53 292.222ZM301.634 292.55C301.601 292.55 301.601 292.55 301.568 292.55C299.271 292.517 296.908 292.452 294.611 292.32C294.217 292.288 293.922 291.959 293.954 291.598C293.987 291.204 294.315 290.909 294.676 290.942C296.974 291.073 299.271 291.139 301.568 291.172C301.962 291.172 302.258 291.5 302.258 291.861C302.29 292.222 301.995 292.517 301.634 292.55ZM327.857 290.45C327.496 290.482 327.2 290.22 327.135 289.859C327.069 289.465 327.331 289.104 327.693 289.038C329.957 288.645 332.221 288.218 334.453 287.726C334.814 287.627 335.208 287.89 335.274 288.251C335.372 288.612 335.11 289.006 334.749 289.071C332.484 289.564 330.187 290.023 327.922 290.417C327.889 290.45 327.857 290.45 327.857 290.45ZM285.06 291.434C285.028 291.434 284.962 291.434 284.929 291.434C282.632 291.139 280.334 290.811 278.037 290.417C277.643 290.351 277.414 289.99 277.479 289.596C277.545 289.203 277.906 288.973 278.3 289.038C280.564 289.432 282.861 289.76 285.126 290.056C285.52 290.089 285.782 290.45 285.717 290.843C285.651 291.139 285.389 291.401 285.06 291.434ZM344.036 286.708C343.708 286.741 343.413 286.511 343.314 286.216C343.216 285.855 343.413 285.461 343.807 285.363C346.006 284.739 348.204 284.017 350.37 283.295C350.732 283.164 351.125 283.361 351.257 283.722C351.388 284.083 351.191 284.477 350.83 284.608C348.631 285.363 346.399 286.052 344.2 286.708C344.135 286.708 344.102 286.708 344.036 286.708ZM268.716 288.415C268.651 288.415 268.585 288.415 268.52 288.382C266.288 287.824 264.023 287.233 261.792 286.577C261.431 286.479 261.201 286.085 261.332 285.724C261.431 285.363 261.824 285.133 262.185 285.264C264.384 285.921 266.616 286.511 268.848 287.069C269.209 287.168 269.438 287.529 269.373 287.923C269.274 288.185 269.012 288.382 268.716 288.415ZM359.691 281.195C359.396 281.227 359.133 281.063 359.002 280.768C358.838 280.407 359.035 280.013 359.363 279.849C361.463 278.963 363.597 278.011 365.664 277.027C366.025 276.862 366.419 276.994 366.583 277.355C366.747 277.716 366.616 278.11 366.255 278.274C364.187 279.258 362.021 280.21 359.888 281.129C359.855 281.162 359.79 281.162 359.691 281.195ZM252.799 283.525C252.701 283.525 252.602 283.525 252.504 283.492C250.338 282.704 248.172 281.818 246.038 280.899C245.677 280.735 245.513 280.341 245.677 279.98C245.841 279.619 246.235 279.455 246.596 279.619C248.697 280.505 250.863 281.392 252.996 282.179C253.357 282.31 253.554 282.704 253.423 283.065C253.291 283.328 253.062 283.492 252.799 283.525ZM374.624 273.876C374.361 273.909 374.099 273.777 373.968 273.515C373.771 273.187 373.902 272.76 374.23 272.563C376.232 271.447 378.201 270.266 380.137 269.052C380.466 268.855 380.892 268.953 381.089 269.281C381.286 269.609 381.188 270.036 380.86 270.233C378.89 271.447 376.888 272.662 374.886 273.778C374.821 273.843 374.722 273.876 374.624 273.876ZM237.538 276.862C237.407 276.862 237.309 276.862 237.177 276.797C235.11 275.747 233.042 274.631 231.04 273.515C230.712 273.318 230.581 272.891 230.777 272.563C230.974 272.235 231.401 272.104 231.729 272.301C233.731 273.417 235.766 274.532 237.801 275.55C238.129 275.714 238.293 276.14 238.096 276.501C238.031 276.698 237.801 276.862 237.538 276.862ZM388.605 264.949C388.375 264.949 388.145 264.851 387.981 264.654C387.752 264.326 387.817 263.899 388.145 263.669C389.983 262.324 391.854 260.912 393.626 259.501C393.922 259.271 394.381 259.304 394.611 259.6C394.84 259.895 394.808 260.354 394.512 260.584C392.707 262.028 390.837 263.439 388.966 264.785C388.835 264.884 388.736 264.916 388.605 264.949ZM223.163 268.526C223.032 268.526 222.868 268.494 222.737 268.428C220.8 267.148 218.897 265.835 217.026 264.457C216.731 264.227 216.632 263.8 216.862 263.472C217.092 263.177 217.519 263.078 217.847 263.308C219.685 264.654 221.588 265.967 223.524 267.246C223.853 267.443 223.951 267.903 223.721 268.198C223.59 268.395 223.393 268.494 223.163 268.526ZM401.47 254.447C401.273 254.447 401.043 254.381 400.912 254.217C400.649 253.922 400.682 253.495 400.945 253.233C402.619 251.69 404.292 250.082 405.901 248.474C406.163 248.211 406.623 248.211 406.885 248.474C407.148 248.736 407.148 249.196 406.885 249.458C405.244 251.099 403.57 252.708 401.864 254.283C401.765 254.381 401.601 254.414 401.47 254.447ZM209.839 258.582C209.675 258.582 209.478 258.549 209.347 258.418C207.574 256.941 205.802 255.399 204.128 253.823C203.833 253.561 203.833 253.134 204.096 252.839C204.358 252.544 204.785 252.544 205.08 252.806C206.754 254.349 208.493 255.891 210.266 257.368C210.561 257.63 210.594 258.057 210.364 258.353C210.2 258.484 210.036 258.582 209.839 258.582ZM413.055 242.534C412.891 242.534 412.694 242.501 412.563 242.37C412.267 242.107 412.235 241.68 412.497 241.385C414.007 239.646 415.484 237.873 416.895 236.068C417.125 235.773 417.584 235.707 417.879 235.937C418.175 236.167 418.241 236.626 418.011 236.922C416.567 238.727 415.09 240.532 413.58 242.271C413.416 242.468 413.252 242.534 413.055 242.534ZM197.729 247.227C197.532 247.227 197.335 247.161 197.171 246.997C195.595 245.323 194.02 243.584 192.51 241.844C192.248 241.549 192.281 241.122 192.576 240.86C192.871 240.597 193.298 240.63 193.561 240.925C195.07 242.665 196.613 244.372 198.188 246.012C198.451 246.308 198.451 246.734 198.155 246.997C198.024 247.161 197.893 247.227 197.729 247.227ZM423.229 229.406C423.065 229.406 422.934 229.373 422.802 229.275C422.474 229.045 422.409 228.618 422.638 228.29C423.951 226.419 425.198 224.45 426.412 222.514C426.609 222.186 427.036 222.087 427.364 222.284C427.692 222.481 427.791 222.908 427.594 223.236C426.38 225.205 425.1 227.174 423.787 229.078C423.656 229.308 423.426 229.406 423.229 229.406ZM186.997 234.559C186.767 234.559 186.537 234.493 186.406 234.296C185.028 232.458 183.649 230.555 182.336 228.651C182.107 228.323 182.205 227.896 182.533 227.667C182.862 227.437 183.288 227.535 183.518 227.863C184.798 229.767 186.143 231.638 187.522 233.443C187.752 233.738 187.686 234.198 187.391 234.427C187.259 234.493 187.128 234.559 186.997 234.559ZM431.861 215.195C431.729 215.195 431.598 215.162 431.499 215.13C431.171 214.933 431.04 214.539 431.204 214.178C432.287 212.143 433.337 210.076 434.289 208.008C434.453 207.647 434.88 207.516 435.208 207.68C435.569 207.844 435.7 208.27 435.536 208.599C434.552 210.699 433.501 212.767 432.418 214.834C432.32 215.064 432.09 215.195 431.861 215.195ZM177.775 220.775C177.512 220.807 177.249 220.676 177.118 220.446C175.937 218.444 174.821 216.41 173.738 214.375C173.574 214.047 173.705 213.62 174.033 213.423C174.361 213.259 174.788 213.39 174.985 213.718C176.035 215.753 177.184 217.755 178.332 219.724C178.529 220.053 178.431 220.479 178.07 220.676C177.971 220.709 177.873 220.742 177.775 220.775ZM438.818 200.098C438.72 200.098 438.621 200.098 438.523 200.066C438.162 199.934 437.998 199.508 438.129 199.147C438.982 197.013 439.77 194.847 440.492 192.649C440.623 192.287 441.017 192.091 441.378 192.222C441.739 192.353 441.936 192.747 441.805 193.108C441.05 195.307 440.262 197.506 439.409 199.639C439.31 199.902 439.081 200.066 438.818 200.098ZM170.161 206.006C169.865 206.039 169.603 205.875 169.471 205.579C168.52 203.479 167.633 201.313 166.813 199.147C166.682 198.786 166.846 198.392 167.207 198.228C167.568 198.096 167.962 198.261 168.126 198.622C168.946 200.755 169.832 202.888 170.751 204.989C170.915 205.35 170.751 205.743 170.39 205.907C170.325 205.973 170.259 205.973 170.161 206.006ZM444.004 184.28C443.938 184.28 443.84 184.28 443.774 184.247C443.413 184.148 443.183 183.755 443.282 183.394C443.872 181.162 444.397 178.93 444.89 176.666C444.955 176.305 445.349 176.042 445.71 176.14C446.071 176.206 446.334 176.6 446.235 176.961C445.743 179.225 445.218 181.49 444.594 183.755C444.562 184.083 444.299 184.28 444.004 184.28ZM164.319 190.45C163.99 190.482 163.695 190.286 163.597 189.957C162.907 187.758 162.251 185.494 161.693 183.262C161.595 182.901 161.824 182.507 162.185 182.409C162.546 182.31 162.94 182.54 163.039 182.901C163.629 185.1 164.253 187.332 164.942 189.531C165.041 189.892 164.844 190.286 164.483 190.417C164.45 190.417 164.384 190.45 164.319 190.45ZM447.351 168.001C447.318 168.001 447.253 168.001 447.22 168.001C446.826 167.936 446.563 167.607 446.629 167.214C446.957 164.949 447.253 162.652 447.45 160.354C447.482 159.961 447.843 159.698 448.204 159.731C448.598 159.764 448.861 160.125 448.828 160.486C448.598 162.783 448.336 165.113 448.008 167.411C447.942 167.739 447.679 167.969 447.351 168.001ZM160.282 174.335C159.921 174.368 159.626 174.106 159.56 173.777C159.133 171.513 158.739 169.216 158.411 166.918C158.346 166.524 158.608 166.196 159.002 166.131C159.396 166.065 159.724 166.328 159.79 166.721C160.118 168.986 160.479 171.283 160.905 173.515C160.971 173.909 160.741 174.27 160.348 174.335C160.348 174.303 160.315 174.303 160.282 174.335ZM448.795 151.428C448.762 151.428 448.762 151.428 448.73 151.428C448.336 151.428 448.04 151.099 448.04 150.706C448.106 148.408 448.106 146.111 448.073 143.814C448.073 143.42 448.369 143.124 448.762 143.092C449.156 143.092 449.452 143.387 449.484 143.781C449.517 146.078 449.517 148.441 449.452 150.738C449.419 151.132 449.156 151.428 448.795 151.428ZM158.116 157.827C157.722 157.86 157.394 157.565 157.361 157.171C157.328 156.613 157.295 156.088 157.263 155.53C157.164 153.758 157.066 151.986 157 150.213C157 149.82 157.295 149.524 157.689 149.491C158.083 149.491 158.411 149.787 158.411 150.18C158.477 151.92 158.543 153.692 158.641 155.464C158.674 155.99 158.707 156.547 158.739 157.073C158.805 157.466 158.51 157.827 158.116 157.827ZM448.336 134.821C447.942 134.854 447.614 134.559 447.581 134.198C447.384 131.933 447.154 129.603 446.826 127.338L446.793 127.109C446.728 126.715 447.023 126.387 447.384 126.321C447.778 126.255 448.106 126.551 448.172 126.912L448.204 127.141C448.5 129.439 448.762 131.769 448.959 134.066C449.025 134.46 448.73 134.788 448.336 134.821ZM157.788 141.221C157.755 141.221 157.755 141.221 157.722 141.221C157.328 141.221 157.033 140.893 157.066 140.499C157.164 138.202 157.295 135.839 157.492 133.541C157.525 133.147 157.853 132.885 158.247 132.918C158.641 132.95 158.903 133.279 158.871 133.672C158.674 135.937 158.542 138.267 158.444 140.565C158.444 140.926 158.149 141.221 157.788 141.221ZM445.973 118.149C445.645 118.182 445.316 117.952 445.251 117.591C444.791 115.359 444.299 113.095 443.741 110.863C443.643 110.502 443.872 110.108 444.233 110.01C444.594 109.911 444.988 110.141 445.087 110.502C445.645 112.734 446.17 115.031 446.629 117.296C446.695 117.69 446.465 118.051 446.071 118.116C446.038 118.149 446.006 118.149 445.973 118.149ZM159.396 124.68C159.33 124.68 159.297 124.68 159.232 124.68C158.838 124.614 158.575 124.253 158.641 123.892C159.002 121.595 159.396 119.298 159.855 117.033C159.921 116.639 160.315 116.41 160.676 116.475C161.07 116.541 161.299 116.935 161.234 117.296C160.774 119.527 160.38 121.825 160.019 124.089C159.987 124.417 159.691 124.68 159.396 124.68ZM441.772 102.068C441.477 102.1 441.148 101.904 441.05 101.575C440.361 99.4093 439.573 97.2104 438.785 95.0771C438.654 94.7161 438.818 94.3223 439.179 94.191C439.54 94.0597 439.934 94.2238 440.065 94.5848C440.886 96.7509 441.641 98.9498 442.363 101.149C442.494 101.51 442.264 101.904 441.903 102.035C441.87 102.068 441.837 102.068 441.772 102.068ZM162.875 108.402C162.809 108.402 162.711 108.402 162.645 108.369C162.284 108.27 162.054 107.877 162.153 107.516C162.776 105.284 163.433 103.052 164.155 100.853C164.286 100.492 164.68 100.295 165.041 100.394C165.402 100.525 165.599 100.919 165.5 101.28C164.778 103.446 164.122 105.678 163.498 107.877C163.4 108.205 163.17 108.402 162.875 108.402ZM435.766 86.577C435.471 86.6098 435.208 86.4457 435.077 86.1831C434.125 84.1155 433.108 82.0151 432.057 79.9803C431.893 79.6521 432.025 79.2255 432.353 79.0286C432.681 78.8645 433.108 78.9957 433.305 79.3239C434.355 81.3915 435.372 83.492 436.324 85.5924C436.488 85.9534 436.324 86.3472 435.963 86.5113C435.93 86.5442 435.832 86.577 435.766 86.577ZM168.191 92.6485C168.093 92.6485 167.994 92.6485 167.896 92.5829C167.535 92.4516 167.371 92.025 167.502 91.6639C168.355 89.5307 169.307 87.3646 170.259 85.2642C170.423 84.9032 170.85 84.7719 171.178 84.936C171.539 85.1001 171.67 85.5268 171.506 85.8549C170.554 87.9226 169.635 90.0558 168.782 92.189C168.684 92.4844 168.454 92.6157 168.191 92.6485ZM428.021 71.874C427.758 71.874 427.528 71.7755 427.364 71.5458C426.183 69.5766 424.936 67.6403 423.689 65.7368C423.459 65.4086 423.557 64.982 423.885 64.7522C424.214 64.5225 424.64 64.6209 424.87 64.9491C426.15 66.8527 427.397 68.8546 428.611 70.8238C428.808 71.152 428.71 71.5786 428.382 71.7755C428.25 71.8412 428.119 71.874 428.021 71.874ZM175.28 77.6173C175.149 77.6173 175.018 77.5845 174.886 77.5189C174.558 77.322 174.427 76.8953 174.591 76.5671C175.707 74.5323 176.856 72.4976 178.07 70.5284C178.267 70.2002 178.693 70.1017 179.022 70.2987C179.35 70.4956 179.448 70.9222 179.251 71.2504C178.07 73.2196 176.921 75.2215 175.805 77.2235C175.74 77.4532 175.51 77.5845 175.28 77.6173ZM418.667 58.1884C418.437 58.1884 418.208 58.1227 418.076 57.9258C416.665 56.1208 415.221 54.3157 413.744 52.5763C413.482 52.2809 413.515 51.8543 413.81 51.5917C414.105 51.3292 414.532 51.362 414.795 51.6574C416.304 53.4296 417.748 55.2347 419.159 57.0725C419.389 57.3679 419.324 57.8274 419.028 58.0571C418.93 58.1228 418.798 58.1884 418.667 58.1884ZM184.043 63.4723C183.879 63.4723 183.748 63.4394 183.584 63.341C183.255 63.1113 183.19 62.6846 183.419 62.3564C184.732 60.4529 186.143 58.5822 187.555 56.7443C187.784 56.449 188.244 56.3833 188.539 56.6131C188.835 56.8428 188.9 57.3023 188.67 57.5976C187.259 59.4027 185.881 61.2734 184.568 63.1441C184.437 63.341 184.24 63.4723 184.043 63.4723ZM407.804 45.6186C407.607 45.6186 407.41 45.553 407.246 45.4217C405.638 43.7808 403.997 42.1726 402.323 40.5973C402.028 40.3348 402.028 39.8753 402.29 39.6127C402.553 39.3174 402.98 39.3174 403.275 39.5799C404.949 41.1552 406.623 42.7962 408.231 44.47C408.493 44.7325 408.493 45.192 408.231 45.4545C408.099 45.553 407.935 45.6186 407.804 45.6186ZM194.315 50.4103C194.151 50.4103 193.954 50.3774 193.823 50.2462C193.528 49.9836 193.495 49.557 193.757 49.2616C195.3 47.5222 196.875 45.8156 198.483 44.1746C198.746 43.9121 199.205 43.8792 199.468 44.1746C199.731 44.4372 199.763 44.8966 199.468 45.1592C197.86 46.8001 196.285 48.5067 194.775 50.2133C194.676 50.3446 194.512 50.4103 194.315 50.4103ZM395.562 34.3945C395.398 34.3945 395.201 34.3617 395.07 34.2304C393.298 32.7864 391.46 31.3423 389.622 29.9967C389.327 29.767 389.261 29.3403 389.491 29.0122C389.721 28.7168 390.147 28.6511 390.475 28.8809C392.346 30.2593 394.184 31.7033 395.956 33.1802C396.252 33.4099 396.284 33.8694 396.055 34.1648C395.923 34.296 395.759 34.3945 395.562 34.3945ZM206.032 38.6282C205.835 38.6282 205.605 38.5625 205.474 38.3984C205.211 38.1031 205.244 37.6764 205.54 37.4138C207.246 35.8713 209.018 34.3617 210.823 32.8848C211.119 32.6551 211.578 32.6879 211.808 32.9833C212.038 33.2786 212.005 33.7381 211.71 33.9678C209.937 35.4119 208.165 36.9216 206.491 38.4641C206.327 38.5625 206.163 38.6282 206.032 38.6282ZM382.139 24.6144C382.008 24.6144 381.844 24.5816 381.713 24.5159C379.776 23.2688 377.807 22.0545 375.838 20.9058C375.51 20.7089 375.379 20.2823 375.576 19.9541C375.773 19.6259 376.199 19.4946 376.527 19.6915C378.529 20.8402 380.531 22.0873 382.468 23.3344C382.796 23.5314 382.894 23.9908 382.665 24.2862C382.533 24.4831 382.336 24.5816 382.139 24.6144ZM218.995 28.2573C218.766 28.2573 218.536 28.1588 218.372 27.9619C218.142 27.6337 218.208 27.2071 218.536 26.9774C220.407 25.6318 222.343 24.319 224.279 23.0719C224.607 22.875 225.034 22.9734 225.231 23.2688C225.428 23.597 225.33 24.0236 225.034 24.2206C223.098 25.4677 221.194 26.7476 219.324 28.0604C219.225 28.1917 219.127 28.2245 218.995 28.2573ZM367.666 16.4096C367.535 16.4096 367.436 16.4096 367.305 16.344C365.238 15.3266 363.137 14.342 361.037 13.423C360.676 13.259 360.512 12.8651 360.676 12.5041C360.84 12.1431 361.234 11.979 361.595 12.1431C363.728 13.062 365.828 14.0466 367.896 15.0968C368.257 15.2609 368.388 15.6876 368.224 16.0486C368.126 16.2455 367.896 16.3768 367.666 16.4096ZM233.042 19.429C232.779 19.4618 232.517 19.2977 232.386 19.0679C232.189 18.7398 232.32 18.3131 232.648 18.1162C234.683 17.0003 236.751 15.9173 238.818 14.8999C239.179 14.7358 239.573 14.8671 239.737 15.2281C239.901 15.5891 239.77 15.9829 239.409 16.147C237.341 17.1644 235.307 18.2146 233.305 19.3305C233.239 19.3961 233.14 19.429 233.042 19.429ZM352.372 9.87858C352.274 9.87858 352.176 9.87857 352.077 9.84575C349.911 9.05809 347.712 8.33608 345.513 7.67969C345.152 7.58124 344.923 7.1874 345.054 6.79357C345.152 6.43256 345.546 6.20284 345.94 6.33412C348.139 7.02332 350.37 7.74532 352.569 8.53298C352.93 8.66426 353.127 9.05809 352.996 9.4191C352.865 9.71448 352.635 9.87858 352.372 9.87858ZM248.04 12.2416C247.745 12.2744 247.45 12.1103 247.351 11.8149C247.22 11.4539 247.384 11.0601 247.745 10.896C249.878 10.0098 252.077 9.18938 254.243 8.40172C254.604 8.27044 254.998 8.46735 255.129 8.82836C255.261 9.18937 255.064 9.58321 254.703 9.71449C252.537 10.4693 250.371 11.2898 248.27 12.1759C248.172 12.2416 248.106 12.2416 248.04 12.2416ZM336.39 5.18544C336.324 5.18544 336.258 5.18543 336.193 5.15261C333.961 4.62751 331.696 4.16804 329.432 3.74139C329.038 3.67575 328.808 3.31474 328.874 2.92091C328.94 2.52708 329.301 2.29735 329.694 2.36298C331.959 2.78963 334.256 3.2491 336.521 3.7742C336.882 3.87266 337.144 4.23368 337.046 4.62751C336.98 4.95571 336.685 5.15263 336.39 5.18544ZM263.728 6.85921C263.4 6.89203 263.104 6.6623 263.006 6.36693C262.907 6.00592 263.104 5.61209 263.498 5.51364C265.73 4.89007 267.994 4.29932 270.226 3.80704C270.587 3.70858 270.981 3.97112 271.079 4.33213C271.178 4.69314 270.915 5.08699 270.554 5.18544C268.323 5.71055 266.091 6.26846 263.859 6.89202C263.826 6.82639 263.794 6.85921 263.728 6.85921ZM320.013 2.33017C319.98 2.33017 319.914 2.33017 319.882 2.33017C317.617 2.06762 315.287 1.8707 313.022 1.7066C312.628 1.67378 312.333 1.34559 312.366 0.951764C312.399 0.557934 312.727 0.262561 313.121 0.295381C315.418 0.459476 317.748 0.656399 320.046 0.918953C320.439 0.951772 320.702 1.31277 320.669 1.7066C320.636 2.06761 320.341 2.29735 320.013 2.33017ZM279.973 3.28192C279.612 3.31474 279.284 3.05219 279.251 2.69118C279.186 2.29735 279.448 1.93635 279.842 1.90353C281.253 1.67379 282.697 1.47687 284.141 1.27996C284.995 1.1815 285.881 1.05022 286.734 0.951764C287.128 0.918945 287.456 1.18151 287.522 1.57534C287.555 1.96917 287.292 2.29735 286.898 2.36298C286.045 2.46144 285.192 2.5599 284.338 2.69118C282.927 2.88809 281.483 3.08501 280.072 3.31475C280.006 3.28193 280.006 3.28192 279.973 3.28192ZM303.439 1.37841H303.406C301.109 1.37841 298.812 1.44405 296.514 1.5425C296.12 1.57532 295.792 1.24713 295.792 0.886122C295.759 0.492291 296.055 0.164096 296.449 0.164096C298.746 0.0656383 301.109 0 303.406 0C303.8 0 304.095 0.328204 304.095 0.689215C304.063 1.05023 303.8 1.34559 303.439 1.37841Z" fill="#D6D8EE"/>
<path d="M358.287 86.8397V327.109H357.63L339.449 309.419L321.267 327.109H319.363L301.181 309.419L282.967 327.109H281.096L262.947 309.452L244.798 327.109H242.927L224.746 309.419L206.564 327.109H204.66L186.478 309.419L168.297 327.109H166.393L148.244 309.452L130.095 327.109H128.914V20.0527H291.5L358.287 86.8397Z" fill="url(#paint0_linear_2219_53983)"/>
<path d="M358.287 86.8397H291.5V20.0527L358.287 86.8397Z" fill="#75ABF5"/>
<path d="M190.646 211.815V202.822H166.393C163.341 202.822 161.043 202.133 159.501 200.755C157.958 199.376 157.204 197.473 157.204 195.11C157.204 194.486 157.302 193.863 157.532 193.239C157.762 192.616 158.09 191.959 158.549 191.27C159.009 190.581 159.468 189.925 159.96 189.268C160.453 188.612 161.043 187.824 161.733 186.905L187.332 152.642C189.005 150.377 190.384 148.736 191.467 147.752C192.55 146.735 193.83 146.242 195.34 146.242C200.23 146.242 202.691 149.032 202.691 154.644V192.025H204.759C207.253 192.025 209.222 192.353 210.732 193.042C212.241 193.732 212.963 195.208 212.963 197.473C212.963 199.344 212.34 200.689 211.126 201.542C209.911 202.396 208.073 202.822 205.612 202.822H202.658V211.815C202.658 214.309 202.1 216.147 201.017 217.361C199.934 218.576 198.457 219.166 196.619 219.166C194.814 219.166 193.37 218.543 192.254 217.296C191.171 216.081 190.646 214.244 190.646 211.815ZM169.872 192.025H190.646V163.965L169.872 192.025Z" fill="white"/>
<path d="M268.887 183.23C268.887 188.514 268.559 193.043 267.935 196.85C267.279 200.657 266.097 204.103 264.358 207.188C262.159 210.995 259.337 213.916 255.858 215.984C252.379 218.051 248.506 219.069 244.273 219.069C239.383 219.069 234.985 217.69 231.112 214.901C227.24 212.144 224.319 208.304 222.349 203.414C221.365 200.756 220.61 197.802 220.151 194.553C219.691 191.304 219.461 187.825 219.461 184.051C219.461 179.193 219.724 174.796 220.249 170.923C220.774 167.017 221.562 163.67 222.678 160.88C224.581 156.253 227.338 152.708 230.948 150.28C234.558 147.851 238.89 146.637 243.912 146.637C247.226 146.637 250.246 147.162 252.937 148.245C255.628 149.328 258.024 150.903 260.059 152.971C262.094 155.038 263.833 157.631 265.244 160.683C267.673 166 268.887 173.516 268.887 183.23ZM255.661 182.278C255.661 176.371 255.3 171.546 254.611 167.805C253.889 164.064 252.707 161.208 251.033 159.305C249.36 157.401 247.03 156.417 244.076 156.417C239.809 156.417 236.856 158.55 235.215 162.849C233.541 167.149 232.72 173.745 232.72 182.672C232.72 188.744 233.081 193.699 233.771 197.539C234.493 201.412 235.674 204.333 237.348 206.302C239.022 208.271 241.286 209.289 244.174 209.289C247.128 209.289 249.458 208.271 251.132 206.204C252.806 204.136 253.987 201.182 254.644 197.375C255.333 193.502 255.661 188.481 255.661 182.278Z" fill="white"/>
<path d="M308.204 211.815V202.822H283.951C280.899 202.822 278.602 202.133 277.059 200.755C275.517 199.376 274.762 197.473 274.762 195.11C274.762 194.486 274.86 193.863 275.09 193.239C275.32 192.616 275.648 191.959 276.107 191.27C276.567 190.581 277.026 189.925 277.518 189.268C278.011 188.612 278.601 187.824 279.291 186.905L304.89 152.642C306.563 150.377 307.942 148.736 309.025 147.752C310.108 146.735 311.388 146.242 312.898 146.242C317.788 146.242 320.249 149.032 320.249 154.644V192.025H322.317C324.811 192.025 326.78 192.353 328.29 193.042C329.799 193.732 330.521 195.208 330.521 197.473C330.521 199.344 329.898 200.689 328.684 201.542C327.469 202.396 325.631 202.822 323.17 202.822H320.216V211.815C320.216 214.309 319.658 216.147 318.575 217.361C317.492 218.576 316.015 219.166 314.177 219.166C312.372 219.166 310.928 218.543 309.813 217.296C308.762 216.081 308.204 214.244 308.204 211.815ZM287.463 192.025H308.237V163.965L287.463 192.025Z" fill="white"/>
<path d="M241.811 397.638C238.661 400.789 233.541 400.789 230.358 397.638L181.227 348.508L174.992 342.272C179.521 339.286 183.426 335.38 186.446 330.818L241.811 386.184C244.962 389.368 244.962 394.488 241.811 397.638Z" fill="#006BF1"/>
<path d="M188.94 333.312L201.74 346.112C198.753 350.641 194.848 354.547 190.286 357.566L183.722 351.002L177.486 344.766C182.048 341.78 185.921 337.874 188.94 333.312Z" fill="#2680F0"/>
<path d="M201.674 306.663C201.575 304.595 201.378 302.56 201.017 300.558C199.081 289.203 193.239 279.193 184.936 271.94C176.37 264.49 165.179 259.961 152.937 259.961C125.993 259.961 104.135 281.819 104.135 308.763C104.135 310.634 104.234 312.472 104.431 314.277C105.054 319.954 106.695 325.337 109.091 330.26C112.57 337.316 117.69 343.42 123.991 348.048C125.008 348.802 126.058 349.524 127.142 350.181C134.624 354.841 143.453 357.532 152.937 357.532C163.505 357.532 173.252 354.185 181.26 348.474C185.691 345.324 189.564 341.451 192.714 337.02C195.865 332.59 198.326 327.601 199.869 322.219C201.116 317.92 201.772 313.391 201.772 308.73C201.739 308.074 201.707 307.352 201.674 306.663ZM152.937 348.901C144.175 348.901 136.036 346.078 129.439 341.287C123.039 336.659 118.051 330.161 115.261 322.58C113.686 318.281 112.832 313.62 112.832 308.763C112.832 306.925 112.964 305.153 113.193 303.381C115.195 288.514 125.336 276.206 138.989 271.152C143.321 269.544 148.047 268.658 152.937 268.658C154.71 268.658 156.449 268.756 158.156 268.986C166.295 270.036 173.646 273.548 179.488 278.701C187.791 286.052 193.01 296.784 193.01 308.763C193.01 309.387 193.01 309.977 192.977 310.601C192.845 313.555 192.386 316.41 191.664 319.167C190.548 323.368 188.743 327.306 186.413 330.85C183.426 335.379 179.521 339.285 174.959 342.304C173.843 343.026 172.695 343.715 171.513 344.339C168.986 345.685 166.262 346.735 163.439 347.49C160.125 348.409 156.58 348.901 152.937 348.901Z" fill="#006BF1"/>
<path d="M122.547 313.194C120.479 313.194 118.805 311.52 118.805 309.452C118.805 300.165 122.415 291.435 128.979 284.838C135.543 278.274 144.273 274.664 153.593 274.664C155.661 274.664 157.335 276.338 157.335 278.405C157.335 280.473 155.661 282.147 153.593 282.147C146.308 282.147 139.448 285.002 134.296 290.155C129.143 295.307 126.288 302.167 126.288 309.452C126.288 311.52 124.614 313.194 122.547 313.194Z" fill="white"/>
<defs>
<linearGradient id="paint0_linear_2219_53983" x1="144.205" y1="327.109" x2="340.128" y2="327.109" gradientUnits="userSpaceOnUse">
<stop stop-color="#4EFDEA"/>
<stop offset="1" stop-color="#5766FF"/>
</linearGradient>
</defs>
</svg>
