<svg width="60" height="60" viewBox="0 0 60 60" fill="none" xmlns="http://www.w3.org/2000/svg">
<path d="M57.2315 44.625C56.8904 43.7278 56.2539 42.9734 55.4269 42.4862C54.5998 41.9989 53.6315 41.8078 52.6813 41.9444L39.9506 43.8298C40.0585 42.9069 39.8499 41.9747 39.3591 41.1857C38.8683 40.3967 38.1242 39.7977 37.2486 39.4867L26.7707 36.0541C24.9544 35.4635 22.9969 35.4685 21.1836 36.0681L13.6601 38.5759C13.4773 37.7408 13.0149 36.993 12.3493 36.4564C11.6838 35.9198 10.8549 35.6265 10 35.625H6.25C5.25577 35.6261 4.30257 36.0216 3.59955 36.7246C2.89652 37.4276 2.50109 38.3808 2.5 39.375V53.125C2.50109 54.1192 2.89652 55.0724 3.59955 55.7755C4.30257 56.4785 5.25577 56.8739 6.25 56.875H10C10.8191 56.8723 11.6147 56.6011 12.2649 56.103C12.9151 55.6049 13.3841 54.9074 13.5999 54.1172L18.9252 53.2299C19.5953 53.1171 20.2839 53.2206 20.8912 53.5253L26.9606 56.5605C28.0054 57.0861 29.144 57.3994 30.3106 57.4824C31.4772 57.5653 32.6487 57.4163 33.7574 57.0439L54.6259 50.087C55.1619 49.9084 55.6564 49.6236 56.0797 49.2495C56.5031 48.8755 56.8466 48.4198 57.0899 47.9099C57.3331 47.4001 57.471 46.8463 57.4954 46.2819C57.5197 45.7175 57.4299 45.154 57.2315 44.625ZM11.25 53.125C11.2496 53.4564 11.1178 53.7741 10.8834 54.0084C10.6491 54.2428 10.3314 54.3746 10 54.375H6.25C5.9186 54.3746 5.6009 54.2428 5.36657 54.0084C5.13223 53.7741 5.0004 53.4564 4.99996 53.125V39.375C5.0004 39.0436 5.13223 38.7259 5.36657 38.4916C5.6009 38.2573 5.9186 38.1254 6.25 38.125H10C10.3314 38.1254 10.6491 38.2573 10.8834 38.4916C11.1178 38.7259 11.2496 39.0436 11.25 39.375V53.125ZM54.8334 46.8329C54.7355 47.0399 54.5965 47.2249 54.4248 47.3765C54.2531 47.5282 54.0524 47.6433 53.8348 47.7148L32.967 54.6716C32.1697 54.9399 31.3271 55.0472 30.488 54.9875C29.6488 54.9278 28.8299 54.7022 28.0786 54.3237L22.0093 51.2886C20.9299 50.7461 19.7055 50.5622 18.5144 50.7637L13.75 51.5575V41.1812L21.9745 38.4399C23.2782 38.008 24.6858 38.0044 25.9918 38.4295L36.4319 41.8492C36.8114 41.987 37.1254 42.2623 37.3115 42.6206C37.4976 42.9789 37.5424 43.3941 37.4369 43.7838C37.3314 44.1736 37.0834 44.5095 36.7419 44.725C36.4004 44.9405 35.9905 45.0199 35.5933 44.9474L24.2017 42.8766C23.8767 42.8202 23.5427 42.8946 23.2723 43.0834C23.0018 43.2723 22.817 43.5604 22.7581 43.8849C22.6992 44.2094 22.7709 44.5441 22.9576 44.8159C23.1443 45.0878 23.431 45.2749 23.755 45.3364L35.1456 47.4073C35.7195 47.5122 36.3092 47.4929 36.875 47.3507C37.4409 47.2086 37.9697 46.9468 38.4258 46.5831L53.0473 44.4173C53.4323 44.3611 53.8249 44.4382 54.1601 44.6356C54.4953 44.8331 54.753 45.1392 54.8905 45.5031C54.9718 45.7171 55.0086 45.9453 54.9988 46.1739C54.989 46.4026 54.9327 46.6268 54.8334 46.833V46.8329Z" fill="#000034"/>
<path d="M30.313 20.9333C30.4748 20.995 30.6225 21.0505 30.7452 21.1045C30.9241 21.1829 31.1297 21.2623 31.3507 21.3469C32.5776 21.8156 33.1251 22.1248 33.1251 22.718C33.1251 22.9777 32.8479 23.3808 32.3188 23.6488C31.9438 23.8383 30.5903 24.3574 28.8654 23.0897C28.5983 22.8934 28.2642 22.8112 27.9365 22.8612C27.6087 22.9112 27.3143 23.0894 27.118 23.3565C26.9216 23.6236 26.8394 23.9577 26.8895 24.2855C26.9395 24.6132 27.1177 24.9076 27.3848 25.1039C28.161 25.6828 29.053 26.0875 29.9999 26.2903V27.4997C30.0031 27.8291 30.1362 28.144 30.3703 28.3758C30.6044 28.6076 30.9205 28.7376 31.2499 28.7376C31.5793 28.7376 31.8955 28.6076 32.1295 28.3758C32.3636 28.144 32.4967 27.8291 32.4999 27.4997V26.2247C32.8265 26.1419 33.1438 26.0263 33.4471 25.8796C34.7905 25.2 35.6249 23.9881 35.6249 22.718C35.6249 20.3039 33.4246 19.463 32.2423 19.0113C32.0646 18.9433 31.8981 18.8804 31.7547 18.8173C31.5972 18.7477 31.4086 18.6754 31.2005 18.5964C30.0169 18.1468 29.375 17.7917 29.375 17.2036C29.375 16.9439 29.6521 16.5408 30.1812 16.2728C30.5562 16.0833 31.9097 15.5642 33.6346 16.8319C33.9018 17.0258 34.2349 17.106 34.5611 17.0552C34.8873 17.0043 35.1801 16.8265 35.3757 16.5605C35.5712 16.2945 35.6536 15.962 35.6048 15.6355C35.556 15.309 35.38 15.015 35.1153 14.8178C34.3389 14.2389 33.4468 13.8343 32.4999 13.6315V12.4999C32.5015 12.3348 32.4703 12.1709 32.4082 12.0179C32.3461 11.8648 32.2543 11.7256 32.1381 11.6082C32.0219 11.4908 31.8835 11.3977 31.7311 11.3341C31.5786 11.2705 31.4151 11.2378 31.2499 11.2378C31.0847 11.2378 30.9212 11.2705 30.7687 11.3341C30.6163 11.3977 30.478 11.4908 30.3617 11.6082C30.2455 11.7256 30.1537 11.8648 30.0916 12.0179C30.0295 12.1709 29.9983 12.3348 29.9999 12.4999V13.6904C29.6731 13.7753 29.3558 13.8931 29.0527 14.042C27.7093 14.7217 26.875 15.9332 26.875 17.2036C26.8749 19.6277 29.1967 20.5097 30.313 20.9333Z" fill="#000034"/>
<path d="M31.2501 33.7499C33.9696 33.7499 36.628 32.9435 38.8891 31.4326C41.1503 29.9217 42.9126 27.7742 43.9533 25.2618C44.994 22.7493 45.2663 19.9846 44.7357 17.3174C44.2052 14.6502 42.8956 12.2002 40.9726 10.2772C39.0496 8.35428 36.5996 7.04474 33.9324 6.5142C31.2652 5.98366 28.5005 6.25597 25.9881 7.29667C23.4756 8.33738 21.3281 10.0997 19.8173 12.3609C18.3064 14.6221 17.5 17.2805 17.5 20C17.5041 23.6454 18.9541 27.1404 21.5319 29.7181C24.1096 32.2959 27.6046 33.7458 31.2501 33.7499ZM31.2501 8.74997C33.4751 8.74997 35.6502 9.40977 37.5002 10.6459C39.3503 11.8821 40.7922 13.6391 41.6437 15.6948C42.4952 17.7504 42.718 20.0124 42.2839 22.1947C41.8498 24.377 40.7784 26.3816 39.205 27.9549C37.6317 29.5283 35.6271 30.5997 33.4448 31.0338C31.2626 31.4679 29.0006 31.2451 26.9449 30.3936C24.8892 29.5421 23.1322 28.1002 21.896 26.2501C20.6599 24.4001 20.0001 22.225 20.0001 20C20.0035 17.0173 21.1899 14.1578 23.2989 12.0488C25.4079 9.93974 28.2674 8.75338 31.2501 8.74997Z" fill="#000034"/>
<path d="M50.3666 38.3838C50.4826 38.4999 50.6204 38.5919 50.772 38.6548C50.9237 38.7176 51.0862 38.7499 51.2503 38.7499C51.4145 38.7499 51.577 38.7176 51.7287 38.6548C51.8803 38.5919 52.0181 38.4999 52.1341 38.3838L55.8841 34.6338C56.1141 34.3985 56.242 34.082 56.2401 33.753C56.2382 33.424 56.1066 33.109 55.874 32.8763C55.6413 32.6437 55.3264 32.5122 54.9974 32.5103C54.6684 32.5084 54.3519 32.6363 54.1166 32.8662L52.5003 34.4824V22.4999C52.5019 22.3348 52.4708 22.1709 52.4087 22.0179C52.3466 21.8648 52.2548 21.7256 52.1385 21.6082C52.0223 21.4908 51.884 21.3977 51.7315 21.3341C51.5791 21.2705 51.4155 21.2378 51.2503 21.2378C51.0852 21.2378 50.9216 21.2705 50.7692 21.3341C50.6167 21.3977 50.4784 21.4908 50.3622 21.6082C50.2459 21.7256 50.1541 21.8648 50.092 22.0179C50.0299 22.1709 49.9988 22.3348 50.0004 22.4999V34.4824L48.3841 32.8661C48.2685 32.7478 48.1307 32.6537 47.9784 32.5891C47.8262 32.5245 47.6627 32.4907 47.4974 32.4898C47.332 32.4888 47.1681 32.5207 47.0152 32.5835C46.8622 32.6464 46.7233 32.7389 46.6063 32.8559C46.4894 32.9728 46.3968 33.1117 46.334 33.2647C46.2712 33.4176 46.2393 33.5815 46.2403 33.7469C46.2412 33.9122 46.275 34.0758 46.3396 34.228C46.4042 34.3802 46.4983 34.5181 46.6166 34.6336L50.3666 38.3838Z" fill="#000034"/>
<path d="M48.7499 12.5002C49.0815 12.5002 49.3994 12.3685 49.6338 12.1341C49.8683 11.8996 50 11.5817 50 11.2501V3.75014C49.9968 3.42072 49.8637 3.10588 49.6296 2.87407C49.3955 2.64225 49.0794 2.51221 48.75 2.51221C48.4205 2.51221 48.1044 2.64225 47.8704 2.87407C47.6363 3.10588 47.5032 3.42072 47.5 3.75014V11.2501C47.5 11.5817 47.6317 11.8996 47.8661 12.134C48.1005 12.3684 48.4184 12.5002 48.7499 12.5002Z" fill="#000034"/>
<path d="M53.75 17.5C54.0815 17.5 54.3995 17.3683 54.6339 17.1338C54.8683 16.8994 55 16.5815 55 16.2499V8.74993C55.0016 8.58477 54.9705 8.42092 54.9084 8.26786C54.8463 8.1148 54.7544 7.97557 54.6382 7.85821C54.522 7.74085 54.3837 7.64769 54.2312 7.58411C54.0788 7.52053 53.9152 7.48779 53.75 7.48779C53.5849 7.48779 53.4213 7.52053 53.2689 7.58411C53.1164 7.64769 52.9781 7.74085 52.8619 7.85821C52.7456 7.97557 52.6538 8.1148 52.5917 8.26786C52.5296 8.42092 52.4985 8.58477 52.5001 8.74993V16.2499C52.5001 16.5814 52.6317 16.8994 52.8661 17.1338C53.1005 17.3682 53.4185 17.4999 53.75 17.5Z" fill="#000034"/>
<path d="M12.5 15C12.8315 15 13.1495 14.8683 13.3839 14.6338C13.6183 14.3994 13.75 14.0815 13.75 13.7499V6.24993C13.7516 6.08477 13.7205 5.92092 13.6584 5.76786C13.5963 5.6148 13.5044 5.47557 13.3882 5.35821C13.272 5.24085 13.1337 5.14769 12.9812 5.08411C12.8288 5.02053 12.6652 4.98779 12.5 4.98779C12.3349 4.98779 12.1713 5.02053 12.0189 5.08411C11.8664 5.14769 11.7281 5.24085 11.6119 5.35821C11.4956 5.47557 11.4038 5.6148 11.3417 5.76786C11.2796 5.92092 11.2485 6.08477 11.2501 6.24993V13.7499C11.2501 14.0814 11.3817 14.3994 11.6161 14.6338C11.8505 14.8682 12.1685 14.9999 12.5 15Z" fill="#000034"/>
<path d="M7.49992 22.5002C7.83145 22.5002 8.14941 22.3685 8.38383 22.1341C8.61826 21.8996 8.74996 21.5817 8.74996 21.2501V13.7501C8.74677 13.4207 8.61367 13.1059 8.3796 12.8741C8.14553 12.6423 7.82942 12.5122 7.49998 12.5122C7.17055 12.5122 6.85443 12.6423 6.62036 12.8741C6.38629 13.1059 6.25319 13.4207 6.25 13.7501V21.2501C6.25 21.5817 6.38168 21.8996 6.61609 22.134C6.85049 22.3684 7.16841 22.5002 7.49992 22.5002Z" fill="#000034"/>
</svg>
