<svg width="48" height="48" viewBox="0 0 48 48" fill="none" xmlns="http://www.w3.org/2000/svg">
<g clip-path="url(#clip0_0_8199)">
<path d="M10.3125 11.8125C9.795 11.8125 9.375 12.2325 9.375 12.75C9.375 13.2675 9.795 13.6875 10.3125 13.6875C10.83 13.6875 11.25 13.2675 11.25 12.75C11.25 12.2325 10.83 11.8125 10.3125 11.8125Z" fill="#000034"/>
<path d="M44.1492 19.8302L42.7927 17.1172C42.3131 16.1579 41.3493 15.5621 40.2772 15.5621H32.4362V8.99991C32.4362 7.44919 31.1746 6.1875 29.6238 6.1875H2.81241C1.26159 6.1875 0 7.44909 0 8.99991V33.3739C0 34.9246 1.26159 36.1863 2.81241 36.1863H5.62481C5.62481 37.6257 6.16903 38.9402 7.06162 39.9361H0.9375C0.419719 39.9361 0 40.3559 0 40.8736C0 41.3913 0.419719 41.8111 0.9375 41.8111H47.0606C47.5784 41.8111 47.9981 41.3913 47.9981 40.8736C47.9981 40.3559 47.5784 39.9361 47.0606 39.9361H44.6863C45.579 38.9401 46.1231 37.6257 46.1231 36.1863C46.1231 36.1328 46.1206 36.0797 46.1191 36.0263C47.2123 35.6405 47.998 34.5975 47.998 33.3739V28.1916C47.998 27.0976 48.2147 28.1189 44.1492 19.8302ZM42.7313 21.1868L45.5437 26.8117H36.186V21.1868H42.7313V21.1868ZM1.87491 28.6866H3.74981V30.5615H1.87491V28.6866ZM11.2495 39.9361C9.18188 39.9361 7.49972 38.2538 7.49972 36.1863C7.49972 35.9309 7.52503 35.6796 7.57566 35.4352C7.92825 33.6976 9.47334 32.4364 11.2495 32.4364C13.0257 32.4364 14.5709 33.6975 14.9234 35.4352C14.9237 35.4366 14.924 35.4378 14.9243 35.4391C14.9741 35.6795 14.9993 35.9309 14.9993 36.1863C14.9993 38.2539 13.3172 39.9361 11.2495 39.9361ZM11.2495 30.5615C8.84756 30.5615 6.72778 32.1002 5.94628 34.3113H2.81241C2.29547 34.3113 1.87491 33.8907 1.87491 33.3738V32.4363H4.68731C5.20509 32.4363 5.62481 32.0165 5.62481 31.4988V27.749C5.62481 27.2313 5.20509 26.8115 4.68731 26.8115H1.87491V8.99991C1.87491 8.48297 2.29547 8.06241 2.81241 8.06241H29.6238C30.1407 8.06241 30.5613 8.48297 30.5613 8.99991C30.5613 9.69731 30.5613 32.0632 30.5613 34.3114H16.5523C15.7694 32.0991 13.6505 30.5615 11.2495 30.5615ZM15.4374 39.9361C16.3301 38.9401 16.8743 37.6257 16.8743 36.1863C17.5941 36.1863 34.567 36.1863 34.8735 36.1863C34.8735 37.6257 35.4177 38.9402 36.3103 39.9361H15.4374ZM40.4983 39.9361C38.4307 39.9361 36.7485 38.2538 36.7485 36.1863C36.7485 35.9309 36.7738 35.6796 36.8244 35.4352C37.177 33.6976 38.7221 32.4364 40.4983 32.4364C42.2745 32.4364 43.8197 33.6975 44.1722 35.4352C44.1725 35.4366 44.1727 35.4378 44.173 35.4391C44.2229 35.6795 44.2481 35.9309 44.2481 36.1863C44.2482 38.2539 42.566 39.9361 40.4983 39.9361ZM46.1231 33.3739C46.1231 33.6857 45.9695 33.9616 45.7346 34.1322C44.903 32.0164 42.8339 30.5616 40.4983 30.5616C38.0963 30.5616 35.9766 32.1003 35.1951 34.3114H32.4361V17.437H40.2771C40.6344 17.437 40.9557 17.6358 41.1157 17.9556L41.7938 19.3119H35.2486C34.7308 19.3119 34.3111 19.7317 34.3111 20.2494V27.7492C34.3111 28.2668 34.7308 28.6867 35.2486 28.6867H46.1231V33.3739Z" fill="#000034"/>
<path d="M25.8736 11.8125H14.0615C13.5437 11.8125 13.124 12.2323 13.124 12.75C13.124 13.2677 13.5437 13.6875 14.0615 13.6875H25.8736C26.3913 13.6875 26.8111 13.2677 26.8111 12.75C26.8111 12.2323 26.3912 11.8125 25.8736 11.8125Z" fill="#000034"/>
<path d="M25.874 15.5625H17.8118C17.294 15.5625 16.8743 15.9823 16.8743 16.5C16.8743 17.0177 17.294 17.4375 17.8118 17.4375H25.874C26.3918 17.4375 26.8115 17.0177 26.8115 16.5C26.8115 15.9823 26.3917 15.5625 25.874 15.5625Z" fill="#000034"/>
<path d="M40.498 34.3125C39.4641 34.3125 38.623 35.1536 38.623 36.1874C38.623 37.2213 39.4642 38.0623 40.498 38.0623C41.5318 38.0623 42.3729 37.2212 42.3729 36.1874C42.3729 35.1535 41.5318 34.3125 40.498 34.3125Z" fill="#000034"/>
<path d="M11.2499 34.3125C10.216 34.3125 9.375 35.1536 9.375 36.1874C9.375 37.2213 10.2161 38.0623 11.2499 38.0623C12.2838 38.0623 13.1248 37.2212 13.1248 36.1874C13.1248 35.1535 12.2838 34.3125 11.2499 34.3125Z" fill="#000034"/>
</g>
<defs>
<clipPath id="clip0_0_8199">
<rect width="48" height="48" fill="white"/>
</clipPath>
</defs>
</svg>
