<svg width="425" height="370" viewBox="0 0 425 370" fill="none" xmlns="http://www.w3.org/2000/svg">
<path d="M201.581 367.302C302.909 367.302 384.993 285.167 384.993 183.889C384.993 82.6113 302.858 0.476562 201.581 0.476562C100.303 0.476562 18.168 82.6113 18.168 183.889C18.168 285.167 100.253 367.302 201.581 367.302Z" fill="url(#paint0_linear_2220_55128)"/>
<path opacity="0.5" d="M343.5 74.5938H110.476V189.603H343.45V74.5938H343.5Z" fill="url(#paint1_linear_2220_55128)"/>
<path d="M343.5 74.5938H366.903C382.137 74.5938 396.77 80.6574 407.544 91.4316C418.318 102.206 424.382 116.839 424.382 132.073C424.382 147.307 418.318 161.94 407.544 172.715C396.77 183.489 382.137 189.552 366.903 189.552H343.5V74.5938Z" fill="url(#paint2_linear_2220_55128)"/>
<path d="M358.584 91.5312H371.964C382.237 91.5312 392.109 95.6405 399.376 102.907C406.642 110.173 410.751 120.045 410.751 130.319V133.877C410.751 144.15 406.642 154.022 399.376 161.288C392.109 168.555 382.237 172.664 371.964 172.664H358.584V91.5312Z" fill="url(#paint3_linear_2220_55128)"/>
<path opacity="0.1" d="M343.5 93.8867H130.07V189.602H343.5V93.8867Z" fill="url(#paint4_linear_2220_55128)"/>
<path d="M141.346 208.744H54.8008V319.543H141.346V208.744Z" fill="url(#paint5_linear_2220_55128)"/>
<path d="M247.634 208.744H161.089V319.543H247.634V208.744Z" fill="url(#paint6_linear_2220_55128)"/>
<path d="M323.555 208.744H267.379V319.543H323.555V208.744Z" fill="url(#paint7_linear_2220_55128)"/>
<path d="M343.5 74.5938H323.605V189.603H343.5V74.5938Z" fill="url(#paint8_linear_2220_55128)"/>
<path d="M161.09 189H141.345V339.288H161.09V189Z" fill="url(#paint9_linear_2220_55128)"/>
<path fill-rule="evenodd" clip-rule="evenodd" d="M42.6735 189H55.6527V339.288H42.6735C38.464 339.288 35.1064 335.88 35.1064 331.721V196.567C35.1064 192.408 38.464 189 42.6735 189ZM256.705 208.744V189H55.6527V208.744H256.705ZM256.705 339.288V319.544H55.6527V339.288H256.705Z" fill="url(#paint10_linear_2220_55128)"/>
<path fill-rule="evenodd" clip-rule="evenodd" d="M267.329 189H255.201C250.992 189 247.634 192.408 247.634 196.567V339.288H267.379H323.555H335.682C339.892 339.288 343.249 335.88 343.249 331.721V189H323.505H267.329ZM323.505 208.744H267.329V319.544H323.505V208.744Z" fill="url(#paint11_linear_2220_55128)"/>
<path d="M126.111 189.854V190.054V196.869V246.731H180.483C181.335 246.731 181.987 246.03 181.987 245.228V196.919V191.407C181.987 190.555 181.285 189.904 180.483 189.904H126.111V189.854Z" fill="url(#paint12_linear_2220_55128)"/>
<path d="M122.804 189.854C121.952 189.854 121.3 190.555 121.3 191.357V245.178C121.3 246.03 122.002 246.681 122.804 246.681H177.176V189.854H122.804Z" fill="url(#paint13_linear_2220_55128)"/>
<path d="M167.855 195.264H130.621C128.968 195.264 127.564 196.617 127.564 198.321V237.759C127.564 239.413 128.918 240.816 130.621 240.816H167.855C169.509 240.816 170.912 239.463 170.912 237.759V198.321C170.912 196.617 169.559 195.264 167.855 195.264Z" fill="url(#paint14_linear_2220_55128)"/>
<path d="M22.9282 151.367L43.9756 203.033C44.2763 203.734 44.6772 204.386 45.2284 204.937C45.7796 205.488 46.381 205.889 47.1327 206.19C47.8343 206.491 48.586 206.641 49.3376 206.641C50.0893 206.641 50.841 206.491 51.5426 206.19L98.6486 187.047C100.102 186.446 101.204 185.343 101.806 183.89C102.407 182.487 102.407 180.883 101.856 179.43L77.5511 119.745C76.9498 118.342 75.8473 117.19 74.4441 116.588C73.041 115.987 71.4374 115.987 69.9841 116.538L30.846 132.474L22.9282 151.367Z" fill="url(#paint15_linear_2220_55128)"/>
<path d="M355.778 120.997L334.781 172.663C334.48 173.365 334.079 174.016 333.528 174.567C332.977 175.119 332.375 175.519 331.624 175.82C330.922 176.121 330.17 176.271 329.419 176.271C328.667 176.271 327.915 176.121 327.214 175.82L280.108 156.677C278.654 156.076 277.552 154.973 276.951 153.52C276.349 152.117 276.349 150.513 276.901 149.06L301.205 89.3255C301.807 87.8722 302.909 86.7698 304.312 86.1684C305.715 85.5671 307.319 85.5671 308.772 86.1183L347.91 102.004L355.778 120.997Z" fill="url(#paint16_linear_2220_55128)"/>
<path d="M22.9287 151.367L36.3088 145.955L30.8465 132.475L22.9287 151.367Z" fill="url(#paint17_linear_2220_55128)"/>
<path d="M355.778 120.999L342.397 115.586L347.86 102.156L355.778 120.999Z" fill="url(#paint18_linear_2220_55128)"/>
<path d="M154.926 219.971C156.63 218.768 157.933 217.014 158.634 215.06C159.286 213.055 159.336 210.901 158.684 208.896C158.033 206.892 156.78 205.138 155.076 203.885C153.373 202.632 151.318 201.98 149.213 201.98C147.108 201.98 145.054 202.632 143.35 203.885C141.646 205.138 140.393 206.892 139.742 208.896C139.09 210.901 139.141 213.055 139.792 215.06C140.443 217.064 141.746 218.768 143.5 219.971L139.241 234.604H159.135L154.926 219.971Z" fill="#006BF1"/>
<path d="M277.452 66.324C277.452 68.4789 277.151 70.5836 276.499 72.5881C275.497 75.8455 273.693 78.8021 271.238 81.2075C270.536 81.9091 269.784 82.6107 268.932 83.212C268.381 83.6129 267.83 84.0138 267.229 84.3646C266.627 84.7154 266.026 85.0662 265.425 85.3168C264.523 85.7678 263.57 86.1687 262.568 86.4694C260.513 87.1208 258.409 87.4215 256.304 87.4215H252.395V189.201H142.749V64.1191C142.749 59.1078 144.753 54.297 148.311 50.7891C151.869 47.2311 156.63 45.2767 161.641 45.2266H256.304C258.96 45.2266 261.566 45.7277 264.021 46.6798C264.723 46.9304 265.374 47.2311 266.026 47.5819C266.327 47.7322 266.677 47.9327 266.978 48.1331C267.229 48.2834 267.479 48.4338 267.73 48.5841C269.033 49.3859 270.185 50.3381 271.288 51.3904C272.741 52.8437 273.944 54.4473 274.896 56.2514C275.547 57.4541 276.099 58.7069 276.499 60.0098L276.8 61.0121C276.95 61.7137 277.101 62.3651 277.201 63.0667C277.351 64.1692 277.452 65.2717 277.452 66.324Z" fill="url(#paint19_linear_2220_55128)"/>
<path d="M277.451 66.3239C277.451 68.4787 277.151 70.5835 276.499 72.588C276.098 73.8909 275.547 75.1437 274.896 76.3464C273.893 78.1505 272.691 79.7541 271.237 81.2074C270.536 81.909 269.784 82.6105 268.932 83.2119C268.381 83.6128 267.83 83.9636 267.228 84.3645C266.627 84.7153 266.026 85.0661 265.424 85.3166C264.522 85.7676 263.57 86.1685 262.568 86.4692C260.513 87.1207 258.409 87.4214 256.304 87.4214H252.395V64.1189C252.395 60.4106 253.498 56.7524 255.602 53.6454C257.657 50.5384 260.613 48.133 264.071 46.6797C264.773 46.9303 265.424 47.2309 266.076 47.5817C266.376 47.7321 266.727 47.9325 267.028 48.133C267.278 48.2833 267.529 48.4336 267.78 48.584C269.083 49.3858 270.235 50.3379 271.338 51.3903C272.791 52.8436 273.994 54.4472 274.946 56.2512C275.597 57.4539 276.148 58.7067 276.549 60.0097L276.85 61.0119C277.05 61.7135 277.151 62.365 277.251 63.0666C277.401 64.169 277.451 65.2715 277.451 66.3239Z" fill="url(#paint20_linear_2220_55128)"/>
<path d="M230.546 152.168H161.29C160.138 152.168 159.186 153.12 159.186 154.273C159.186 155.425 160.138 156.377 161.29 156.377H230.546C231.699 156.377 232.651 155.425 232.651 154.273C232.651 153.12 231.699 152.168 230.546 152.168Z" fill="white"/>
<path d="M230.546 130.721H161.29C160.138 130.721 159.186 131.673 159.186 132.825C159.186 133.978 160.138 134.93 161.29 134.93H230.546C231.699 134.93 232.651 133.978 232.651 132.825C232.651 131.623 231.699 130.721 230.546 130.721Z" fill="white"/>
<path d="M230.546 109.221H185.946C184.793 109.221 183.841 110.173 183.841 111.325C183.841 112.478 184.793 113.43 185.946 113.43H230.546C231.699 113.43 232.651 112.478 232.651 111.325C232.651 110.173 231.699 109.221 230.546 109.221Z" fill="white"/>
<path d="M201.28 87.7227H160.789C159.887 87.7227 159.186 88.4242 159.186 89.3263V90.2784C159.186 91.1804 159.887 91.882 160.789 91.882H201.28C202.182 91.882 202.884 91.1804 202.884 90.2784V89.3764C202.884 88.4743 202.182 87.7227 201.28 87.7227Z" fill="white"/>
<path d="M176.174 109.221H161.29C160.138 109.221 159.186 110.173 159.186 111.325C159.186 112.478 160.138 113.43 161.29 113.43H176.174C177.326 113.43 178.278 112.478 178.278 111.325C178.278 110.173 177.326 109.221 176.174 109.221Z" fill="white"/>
<path opacity="0.2" d="M55.6021 208.744H62.4174V319.543H55.6021V208.744Z" fill="url(#paint21_linear_2220_55128)"/>
<path opacity="0.2" d="M161.089 246.68H167.153V319.544H161.089V246.68Z" fill="url(#paint22_linear_2220_55128)"/>
<path opacity="0.2" d="M267.379 208.744H274.194V319.543H267.379V208.744Z" fill="url(#paint23_linear_2220_55128)"/>
<path d="M26.5868 87.8226C27.7393 96.2416 30.9466 104.26 36.0079 111.075C41.0693 117.89 47.7845 123.353 55.5018 126.86C63.2192 130.418 71.7383 131.922 80.2074 131.27C88.6764 130.619 96.8448 127.863 103.961 123.202L123.354 129.817C123.956 130.018 124.557 130.018 125.159 129.867C125.76 129.717 126.311 129.416 126.712 128.965C127.113 128.514 127.414 127.963 127.514 127.362C127.614 126.76 127.564 126.109 127.313 125.558L119.546 107.016C123.655 100.15 126.111 92.3328 126.612 84.3148C127.113 76.2967 125.71 68.2787 122.503 60.9121C119.295 53.5455 114.334 47.081 108.07 42.0196C101.806 36.9582 94.4394 33.5004 86.5717 31.8467C78.704 30.2431 70.5356 30.4937 62.8183 32.6485C55.1009 34.8034 47.9849 38.8124 42.1217 44.2747C36.2585 49.737 31.7484 56.5523 29.0423 64.1193C26.3863 71.7365 25.5344 79.8547 26.5868 87.8226Z" fill="url(#paint24_linear_2220_55128)"/>
<path d="M75.1466 106.865C80.6089 106.865 84.5177 103.107 84.5177 97.8953C84.5177 92.6836 80.6089 88.9251 75.1466 88.9251C69.7846 88.9251 65.7755 92.6836 65.7755 97.8953C65.7755 103.107 69.7345 106.865 75.1466 106.865ZM82.6134 87.4217C82.6134 82.4606 85.4699 80.7066 89.3285 78.9026C94.4901 76.4971 98.2987 71.6362 98.2987 65.6728C98.2987 56.2516 89.0279 49.6367 76.4496 49.6367C62.9692 49.6367 53.4979 57.2037 52.646 67.7274L69.8347 70.8845C70.2857 66.7753 72.4405 63.8687 75.4974 63.8687C77.8026 63.8687 79.5565 65.4222 79.5565 67.6272C79.5565 70.1829 77.0008 71.7364 74.9963 72.9391C69.5841 76.447 67.5796 80.3558 67.5796 87.4718H82.6134V87.4217Z" fill="white"/>
<path d="M326.612 51.7922C326.612 56.0017 323.204 59.4595 318.945 59.4595C314.735 59.4595 311.277 56.0518 311.277 51.7922C311.277 47.5828 314.685 44.125 318.945 44.125C323.204 44.125 326.612 47.5828 326.612 51.7922Z" stroke="url(#paint25_linear_2220_55128)" stroke-width="8.3379"/>
<path d="M217.667 364.897C221.902 364.897 225.334 361.464 225.334 357.23C225.334 352.995 221.902 349.562 217.667 349.562C213.433 349.562 210 352.995 210 357.23C210 361.464 213.433 364.897 217.667 364.897Z" stroke="url(#paint26_linear_2220_55128)" stroke-width="8.3379"/>
<path d="M16.6145 258.306C18.7193 257.955 20.4231 260.06 19.6714 262.065L14.5098 275.595C13.7581 277.6 11.1021 278 9.74907 276.347L0.628541 265.122C-0.724503 263.468 0.227652 260.962 2.33239 260.611L16.6145 258.306Z" fill="url(#paint27_linear_2220_55128)"/>
<path d="M369.959 246.73C369.408 244.675 371.362 242.771 373.417 243.372L387.348 247.281C389.403 247.883 390.054 250.438 388.551 251.942L378.178 262.065C376.624 263.568 374.068 262.816 373.517 260.762L369.959 246.73Z" fill="url(#paint28_linear_2220_55128)"/>
<defs>
<linearGradient id="paint0_linear_2220_55128" x1="200.162" y1="-59.2676" x2="203.92" y2="584.917" gradientUnits="userSpaceOnUse">
<stop stop-color="#CAE0FF" stop-opacity="0"/>
<stop offset="1" stop-color="#BCD8FF" stop-opacity="0.6"/>
</linearGradient>
<linearGradient id="paint1_linear_2220_55128" x1="226.986" y1="74.612" x2="226.986" y2="189.589" gradientUnits="userSpaceOnUse">
<stop stop-color="#ABCCFF"/>
<stop offset="1" stop-color="#70A8FF"/>
</linearGradient>
<linearGradient id="paint2_linear_2220_55128" x1="383.916" y1="74.612" x2="383.916" y2="189.577" gradientUnits="userSpaceOnUse">
<stop stop-color="#A3C4F6"/>
<stop offset="1" stop-color="#94B8F0"/>
</linearGradient>
<linearGradient id="paint3_linear_2220_55128" x1="411.536" y1="180.52" x2="359.922" y2="112.206" gradientUnits="userSpaceOnUse">
<stop stop-color="#EDF4FF"/>
<stop offset="1" stop-color="#ABCCFF"/>
</linearGradient>
<linearGradient id="paint4_linear_2220_55128" x1="236.77" y1="93.9078" x2="236.77" y2="189.589" gradientUnits="userSpaceOnUse">
<stop stop-color="#2A64BE"/>
<stop offset="1" stop-color="#6095E7"/>
</linearGradient>
<linearGradient id="paint5_linear_2220_55128" x1="181.566" y1="342.843" x2="75.3013" y2="242.652" gradientUnits="userSpaceOnUse">
<stop stop-color="#EDF4FF"/>
<stop offset="1" stop-color="#ABCCFF"/>
</linearGradient>
<linearGradient id="paint6_linear_2220_55128" x1="268.25" y1="290.61" x2="161.985" y2="246.585" gradientUnits="userSpaceOnUse">
<stop stop-color="#EDF4FF"/>
<stop offset="1" stop-color="#ABCCFF"/>
</linearGradient>
<linearGradient id="paint7_linear_2220_55128" x1="355.998" y1="321.436" x2="257.325" y2="228.076" gradientUnits="userSpaceOnUse">
<stop stop-color="#EDF4FF"/>
<stop offset="1" stop-color="#ABCCFF"/>
</linearGradient>
<linearGradient id="paint8_linear_2220_55128" x1="333.536" y1="74.612" x2="333.536" y2="189.589" gradientUnits="userSpaceOnUse">
<stop stop-color="#B9D4FE"/>
<stop offset="1" stop-color="#9AC1FE"/>
</linearGradient>
<linearGradient id="paint9_linear_2220_55128" x1="151.201" y1="189.024" x2="151.201" y2="339.271" gradientUnits="userSpaceOnUse">
<stop stop-color="#B9D4FE"/>
<stop offset="1" stop-color="#9AC1FE"/>
</linearGradient>
<linearGradient id="paint10_linear_2220_55128" x1="33.4594" y1="210.873" x2="250.543" y2="311.065" gradientUnits="userSpaceOnUse">
<stop stop-color="#BAD1F4"/>
<stop offset="1" stop-color="#8DB6F6"/>
</linearGradient>
<linearGradient id="paint11_linear_2220_55128" x1="295.412" y1="189.024" x2="295.412" y2="339.32" gradientUnits="userSpaceOnUse">
<stop stop-color="#A3C4F6"/>
<stop offset="1" stop-color="#94B8F0"/>
</linearGradient>
<linearGradient id="paint12_linear_2220_55128" x1="154.048" y1="189.834" x2="154.048" y2="246.707" gradientUnits="userSpaceOnUse">
<stop stop-color="#70A8FF"/>
<stop offset="1" stop-color="#5597FD"/>
</linearGradient>
<linearGradient id="paint13_linear_2220_55128" x1="149.241" y1="189.834" x2="149.241" y2="246.707" gradientUnits="userSpaceOnUse">
<stop stop-color="#ABCCFF"/>
<stop offset="1" stop-color="#70A8FF"/>
</linearGradient>
<linearGradient id="paint14_linear_2220_55128" x1="149.247" y1="195.276" x2="149.247" y2="240.801" gradientUnits="userSpaceOnUse">
<stop stop-color="#70A8FF"/>
<stop offset="1" stop-color="#5597FD"/>
</linearGradient>
<linearGradient id="paint15_linear_2220_55128" x1="92.8514" y1="164.599" x2="39.437" y2="159.266" gradientUnits="userSpaceOnUse">
<stop stop-color="#C6DDFF"/>
<stop offset="1" stop-color="white"/>
</linearGradient>
<linearGradient id="paint16_linear_2220_55128" x1="285.889" y1="134.235" x2="339.303" y2="128.903" gradientUnits="userSpaceOnUse">
<stop stop-color="#C6DDFF"/>
<stop offset="1" stop-color="white"/>
</linearGradient>
<linearGradient id="paint17_linear_2220_55128" x1="29.629" y1="132.469" x2="29.629" y2="151.345" gradientUnits="userSpaceOnUse">
<stop stop-color="#EDF4FF"/>
<stop offset="1" stop-color="#ABCCFF"/>
</linearGradient>
<linearGradient id="paint18_linear_2220_55128" x1="349.112" y1="102.108" x2="349.112" y2="120.983" gradientUnits="userSpaceOnUse">
<stop stop-color="#EDF4FF"/>
<stop offset="1" stop-color="#ABCCFF"/>
</linearGradient>
<linearGradient id="paint19_linear_2220_55128" x1="151.729" y1="189.2" x2="266.788" y2="189.2" gradientUnits="userSpaceOnUse">
<stop stop-color="#4EFDEA"/>
<stop offset="1" stop-color="#5766FF"/>
</linearGradient>
<linearGradient id="paint20_linear_2220_55128" x1="271.906" y1="77.0412" x2="242.304" y2="54.27" gradientUnits="userSpaceOnUse">
<stop stop-color="#EDF4FF"/>
<stop offset="1" stop-color="#ABCCFF"/>
</linearGradient>
<linearGradient id="paint21_linear_2220_55128" x1="2.8465" y1="270.447" x2="146.543" y2="254.304" gradientUnits="userSpaceOnUse">
<stop offset="0.09375" stop-color="#2A64BE"/>
<stop offset="1" stop-color="#2A64BE" stop-opacity="0"/>
</linearGradient>
<linearGradient id="paint22_linear_2220_55128" x1="114.152" y1="287.257" x2="240.691" y2="268.025" gradientUnits="userSpaceOnUse">
<stop offset="0.09375" stop-color="#2A64BE"/>
<stop offset="1" stop-color="#2A64BE" stop-opacity="0"/>
</linearGradient>
<linearGradient id="paint23_linear_2220_55128" x1="214.623" y1="270.447" x2="358.32" y2="254.304" gradientUnits="userSpaceOnUse">
<stop offset="0.09375" stop-color="#2A64BE"/>
<stop offset="1" stop-color="#2A64BE" stop-opacity="0"/>
</linearGradient>
<linearGradient id="paint24_linear_2220_55128" x1="32.9094" y1="131.418" x2="119.534" y2="131.418" gradientUnits="userSpaceOnUse">
<stop stop-color="#4EFDEA"/>
<stop offset="1" stop-color="#5766FF"/>
</linearGradient>
<linearGradient id="paint25_linear_2220_55128" x1="312.3" y1="59.4595" x2="325.398" y2="59.4595" gradientUnits="userSpaceOnUse">
<stop stop-color="#4EFDEA"/>
<stop offset="1" stop-color="#5766FF"/>
</linearGradient>
<linearGradient id="paint26_linear_2220_55128" x1="211.022" y1="364.897" x2="224.121" y2="364.897" gradientUnits="userSpaceOnUse">
<stop stop-color="#4EFDEA"/>
<stop offset="1" stop-color="#5766FF"/>
</linearGradient>
<linearGradient id="paint27_linear_2220_55128" x1="1.32348" y1="277.377" x2="18.2805" y2="277.377" gradientUnits="userSpaceOnUse">
<stop stop-color="#4EFDEA"/>
<stop offset="1" stop-color="#5766FF"/>
</linearGradient>
<linearGradient id="paint28_linear_2220_55128" x1="371.165" y1="262.856" x2="387.828" y2="262.856" gradientUnits="userSpaceOnUse">
<stop stop-color="#4EFDEA"/>
<stop offset="1" stop-color="#5766FF"/>
</linearGradient>
</defs>
</svg>
