<svg width="36" height="19" viewBox="0 0 36 19" fill="none" xmlns="http://www.w3.org/2000/svg">
<g clip-path="url(#clip0_1618_34492)">
<path opacity="0.3" d="M13.5776 8.00005C5.50648 5.1591 0 19 0 19H45V3.5C45 3.5 42.2845 2.74181e-05 36.8535 0C30.2118 -3.35299e-05 31.4224 12 23.2759 12C18.3482 12 18.3312 9.67328 13.5776 8.00005Z" fill="url(#paint0_linear_1618_34492)"/>
<path d="M0 19C0 19 5.50648 5.1591 13.5776 8.00005C18.3312 9.67328 18.3481 12 23.2759 12C31.4224 12 30.2117 -3.35299e-05 36.8534 0C42.2845 2.74181e-05 45 3.5 45 3.5" stroke="#17BD8D" stroke-width="1.5"/>
</g>
<defs>
<linearGradient id="paint0_linear_1618_34492" x1="22.5" y1="0" x2="22.5" y2="19" gradientUnits="userSpaceOnUse">
<stop stop-color="#17BD8D"/>
<stop offset="1" stop-color="#17BD8D" stop-opacity="0"/>
</linearGradient>
<clipPath id="clip0_1618_34492">
<rect width="36" height="19" fill="white"/>
</clipPath>
</defs>
</svg>
