<svg width="86" height="21" viewBox="0 0 86 21" fill="none" xmlns="http://www.w3.org/2000/svg">
<g clip-path="url(#clip0_0_2096)">
<path d="M21.9207 6.46473C21.2345 5.02512 19.9335 4.09519 17.973 4.09519C17.3713 4.10568 16.78 4.25427 16.2447 4.52942C15.7095 4.8046 15.2446 5.19904 14.886 5.68232L14.8144 5.76949V0.127342C14.8144 0.0947346 14.8015 0.0634644 14.7784 0.0404077C14.7553 0.0173504 14.724 0.00439453 14.6914 0.00439453H11.9195C11.8873 0.00498044 11.8566 0.0181912 11.8341 0.041185C11.8115 0.0641789 11.7988 0.0951184 11.7988 0.127342V16.3117C11.7988 16.3437 11.8116 16.3744 11.8342 16.397C11.8568 16.4197 11.8875 16.4324 11.9195 16.4324H14.8882C14.9204 16.4324 14.9513 16.4198 14.9743 16.3972C14.9973 16.3746 15.0105 16.3439 15.0111 16.3117V9.41099C15.0111 8.06975 15.9053 7.11969 17.3359 7.11969C18.9007 7.11969 19.2964 8.40729 19.2964 9.71945V16.3117C19.2964 16.3437 19.3091 16.3744 19.3317 16.397C19.3544 16.4197 19.3851 16.4324 19.4171 16.4324H22.3789C22.4113 16.4324 22.4422 16.4198 22.4652 16.3972C22.4882 16.3746 22.5014 16.3439 22.502 16.3117V9.32604C22.502 9.08685 22.502 8.85212 22.4707 8.62413C22.4198 7.87694 22.2335 7.14522 21.9207 6.46473Z" fill="white"/>
<path d="M7.0975 8.86334C7.0975 8.86334 5.58636 8.50791 5.02975 8.36484C4.47312 8.22178 3.50071 7.91776 3.50071 7.18231C3.50071 6.44686 4.28534 6.21212 5.08116 6.21212C5.87697 6.21212 6.7622 6.40438 6.83149 7.28737C6.83429 7.31921 6.84893 7.34878 6.87252 7.37034C6.89612 7.39187 6.92695 7.40372 6.9589 7.40362L9.88504 7.39244C9.90226 7.39248 9.91931 7.38897 9.93511 7.38214C9.9509 7.3753 9.96511 7.36527 9.97687 7.35266C9.98862 7.3401 9.99766 7.32521 10.0034 7.30898C10.0091 7.29273 10.0115 7.27548 10.0102 7.2583C9.82917 4.43276 7.35009 3.42236 5.06327 3.42236C2.35171 3.42236 0.368919 5.21069 0.368919 7.18231C0.368919 8.62191 0.775763 9.97211 3.97462 10.911C4.53571 11.0742 5.298 11.2865 5.96416 11.4721C6.76442 11.6956 7.19585 12.0332 7.19585 12.5652C7.19585 13.1821 6.30169 13.6113 5.42318 13.6113C4.15124 13.6113 3.24813 13.1397 3.17435 12.2924C3.17051 12.2614 3.15543 12.2329 3.13192 12.2123C3.10843 12.1917 3.07819 12.1804 3.04693 12.1807L0.127495 12.1941C0.110379 12.1941 0.0934391 12.1975 0.0776812 12.2042C0.0619235 12.2109 0.0476733 12.2207 0.0357809 12.233C0.0238888 12.2453 0.0145966 12.2599 0.00846262 12.2758C0.00232868 12.2918 -0.000522068 12.3089 7.84871e-05 12.326C0.134203 14.9928 2.70939 16.4302 5.11024 16.4302C8.68689 16.4302 10.3031 14.4183 10.3031 12.5339C10.3075 11.6486 10.1041 9.63231 7.0975 8.86334Z" fill="white"/>
<path d="M44.7412 4.09087C43.2549 4.09087 42.0096 4.91349 41.2071 5.90605V4.20711C41.2071 4.17548 41.1946 4.14509 41.1724 4.12254C41.1506 4.09996 41.1202 4.08698 41.0885 4.08643H38.3123C38.2804 4.08643 38.2495 4.09911 38.2269 4.12175C38.2043 4.1444 38.1914 4.17512 38.1914 4.20711V20.0785C38.1922 20.11 38.2053 20.1403 38.2279 20.1623C38.2505 20.1845 38.2808 20.197 38.3123 20.197H41.2832C41.3145 20.197 41.3446 20.1845 41.3668 20.1623C41.389 20.1401 41.4015 20.1098 41.4015 20.0785V14.8611H41.4463C41.9178 15.5808 43.2077 16.4437 44.8934 16.4437C48.0629 16.4437 50.7053 13.8149 50.7053 10.2628C50.7077 6.85385 48.0787 4.09087 44.7412 4.09087ZM44.4663 13.4192C43.8408 13.4348 43.2242 13.2635 42.6964 12.9273C42.1685 12.5911 41.7525 12.1052 41.5018 11.5316C41.2513 10.958 41.1771 10.3228 41.2893 9.7069C41.4011 9.09104 41.6942 8.52254 42.1307 8.07395C42.5673 7.62529 43.1276 7.31693 43.7403 7.18818C44.3527 7.05943 44.9898 7.11609 45.5699 7.35098C46.1502 7.58585 46.6471 7.9883 46.9977 8.50694C47.3482 9.0256 47.5361 9.63687 47.5378 10.2628C47.5442 10.672 47.4697 11.0784 47.3188 11.4588C47.168 11.8391 46.9432 12.1859 46.6578 12.4792C46.3726 12.7725 46.0321 13.0065 45.6557 13.1678C45.2797 13.3291 44.8756 13.4146 44.4663 13.4192Z" fill="white"/>
<path d="M29.4005 3.39355C26.6308 3.39355 25.2493 4.33466 24.1404 5.08801L24.1069 5.11035C24.0498 5.14947 24.0095 5.20877 23.9941 5.27632C23.9788 5.34389 23.9895 5.41473 24.0242 5.47472L25.1195 7.36137C25.1401 7.39669 25.1682 7.42704 25.2017 7.45021C25.2354 7.4734 25.2737 7.48888 25.3141 7.49552C25.3536 7.50263 25.394 7.50091 25.4326 7.49046C25.4713 7.48002 25.5072 7.46117 25.5377 7.43514L25.6247 7.36363C26.1947 6.88525 27.109 6.24591 29.3222 6.07155C30.5538 5.97322 31.618 6.2951 32.4024 7.02831C33.2654 7.82414 33.7819 9.10948 33.7819 10.4664C33.7819 12.9633 32.3109 14.5326 29.9481 14.5639C28.0009 14.5527 26.6932 13.5378 26.6932 12.0379C26.6932 11.242 27.0531 10.7234 27.7552 10.2048C27.8087 10.1665 27.8465 10.1101 27.8618 10.046C27.8771 9.98187 27.8686 9.91442 27.8378 9.85611L26.8541 7.99624C26.8361 7.96296 26.8115 7.93358 26.782 7.9098C26.7525 7.88602 26.7186 7.8683 26.6821 7.85765C26.6448 7.84657 26.6058 7.84344 26.5674 7.84842C26.5287 7.85343 26.4916 7.86647 26.4585 7.88673C25.3544 8.54169 23.9996 9.73987 24.0734 12.0423C24.1628 14.973 26.5995 17.2106 29.7669 17.3022H29.9257H30.1425C33.9068 17.1793 36.6251 14.385 36.6251 10.596C36.6251 7.11772 34.0901 3.39355 29.4005 3.39355Z" fill="white"/>
<path d="M62.4126 5.18164H60.5257C60.4817 5.18222 60.4393 5.20007 60.4079 5.23137C60.3764 5.26269 60.3586 5.305 60.3584 5.3493V9.30818C60.3586 9.35228 60.3766 9.39432 60.4081 9.42528C60.4395 9.45624 60.4817 9.47362 60.5257 9.47362H62.4126C63.5615 9.47362 64.4089 8.56827 64.4089 7.32762C64.4089 6.08697 63.5615 5.18164 62.4126 5.18164Z" fill="white"/>
<path d="M68.209 12.1853C68.209 12.7598 68.694 13.0795 69.5389 13.0795C70.6879 13.0795 71.3673 12.458 71.3673 11.356V11.0386L69.6464 11.128C68.7386 11.1727 68.209 11.5505 68.209 12.1853Z" fill="white"/>
<path d="M82.1806 0.0400588H56.8311C56.4155 0.0400584 56.0034 0.122008 55.6195 0.281219C55.2352 0.440432 54.8862 0.673789 54.5924 0.967954C54.2983 1.26212 54.0652 1.61133 53.9062 1.99563C53.7471 2.37992 53.6656 2.79177 53.666 3.20764V17.085C53.666 17.9247 53.9994 18.7301 54.593 19.324C55.1866 19.918 55.9917 20.252 56.8311 20.2526H82.1806C82.5971 20.2538 83.0097 20.1729 83.3948 20.0145C83.7797 19.8562 84.1298 19.6233 84.4249 19.3296C84.7196 19.0358 84.9541 18.6868 85.1142 18.3024C85.2742 17.918 85.3566 17.5058 85.3574 17.0895V3.2121C85.358 2.79492 85.2766 2.38167 85.1172 1.99612C84.9579 1.61059 84.7238 1.26035 84.4287 0.965566C84.1335 0.670781 83.7829 0.437258 83.3972 0.278427C83.0115 0.119594 82.5981 0.0385846 82.1806 0.0400588ZM62.509 11.0316H60.5151C60.4707 11.0316 60.4283 11.0492 60.3966 11.0806C60.3653 11.1121 60.3474 11.1548 60.3474 11.1992V14.0382C60.3474 14.0826 60.3298 14.1253 60.2985 14.1567C60.267 14.1882 60.2243 14.2058 60.1799 14.2058H58.7759C58.7319 14.2052 58.6893 14.1874 58.6579 14.1561C58.6266 14.1248 58.6092 14.0825 58.6084 14.0382V3.79777C58.6084 3.75333 58.626 3.71068 58.6577 3.67922C58.6891 3.64779 58.7315 3.63013 58.7759 3.63013H62.509C64.6238 3.63013 66.1371 5.17032 66.1371 7.33196C66.1371 9.4936 64.6349 11.036 62.5205 11.036L62.509 11.0316ZM73.0156 14.0359C73.0159 14.0581 73.012 14.0802 73.0035 14.1008C72.9951 14.1214 72.9828 14.1401 72.9674 14.1559C72.9515 14.1717 72.9331 14.1843 72.9125 14.1929C72.8923 14.2014 72.8701 14.2058 72.8479 14.2058H71.5223C71.5001 14.2058 71.4781 14.2014 71.4577 14.1929C71.4371 14.1843 71.4184 14.1717 71.403 14.1559C71.3875 14.1401 71.375 14.1214 71.3669 14.1008C71.3586 14.0802 71.3544 14.0581 71.3548 14.0359V13.7297C71.3568 13.7028 71.3505 13.6759 71.336 13.6531C71.3219 13.6302 71.3007 13.6126 71.2753 13.6028C71.2504 13.593 71.2228 13.5916 71.1968 13.5987C71.1705 13.6059 71.1477 13.6212 71.1312 13.6425C70.7354 14.0739 70.0917 14.3869 69.0656 14.3869C67.5547 14.3869 66.5551 13.6 66.5551 12.2409C66.5407 11.9095 66.609 11.5797 66.7543 11.2814C66.8994 10.9832 67.117 10.726 67.387 10.5331C67.9322 10.124 68.7772 9.91162 70.0312 9.86243L71.3612 9.81774V9.42874C71.3612 8.64412 70.8337 8.31106 69.9864 8.31106C69.1393 8.31106 68.6049 8.6106 68.4801 9.10016C68.47 9.13473 68.4488 9.16498 68.4194 9.18604C68.3905 9.20713 68.355 9.2178 68.3189 9.21639H67.0068C66.9827 9.217 66.9587 9.21229 66.9365 9.20265C66.9147 9.19298 66.8947 9.17859 66.8786 9.16048C66.8627 9.14234 66.8509 9.12099 66.8441 9.09781C66.8372 9.07463 66.8354 9.05028 66.8392 9.02639C67.036 7.86397 67.9971 6.98098 70.0471 6.98098C72.2243 6.98098 73.0088 7.99364 73.0088 9.92724L73.0156 14.0359ZM81.2733 7.39229L78.3226 15.2632C77.6519 17.0917 76.4782 17.5612 75.1928 17.5612C74.9508 17.5671 74.709 17.5377 74.4753 17.474C74.4388 17.4642 74.4069 17.4427 74.3835 17.4128C74.3608 17.3829 74.3483 17.3463 74.3479 17.3086V16.1126C74.3479 16.0876 74.3532 16.0629 74.3637 16.0402C74.3744 16.0175 74.3897 15.9974 74.4089 15.9814C74.4283 15.9654 74.4507 15.9539 74.4749 15.9475C74.4991 15.9412 74.5245 15.9404 74.549 15.945C74.7518 15.9834 74.9575 16.0029 75.1639 16.0031C75.5192 16.0209 75.8705 15.9189 76.1612 15.7134C76.4516 15.5079 76.6649 15.2108 76.7665 14.8697L76.8539 14.5948C76.8674 14.558 76.8674 14.5176 76.8539 14.4808L74.0952 7.39455C74.0868 7.36922 74.0845 7.34222 74.0884 7.31582C74.0926 7.2894 74.1027 7.26429 74.1178 7.24253C74.1334 7.22077 74.1538 7.20295 74.1774 7.1905C74.201 7.17807 74.2274 7.17137 74.2539 7.171H75.5954C75.6296 7.17133 75.6629 7.18192 75.6913 7.20146C75.7196 7.22096 75.7414 7.24851 75.7539 7.28054L77.6273 12.2789C77.6398 12.3116 77.6616 12.3397 77.6904 12.3595C77.7193 12.3794 77.7532 12.39 77.7883 12.39C77.823 12.39 77.8574 12.3794 77.886 12.3595C77.9147 12.3397 77.9369 12.3116 77.949 12.2789L79.5745 7.29396C79.5852 7.25997 79.6068 7.23036 79.6357 7.20945C79.6647 7.18852 79.6993 7.1774 79.735 7.17772H81.1101C81.1365 7.1776 81.1627 7.18378 81.1867 7.19563C81.2102 7.20753 81.2311 7.22481 81.2469 7.24612C81.2628 7.26742 81.2733 7.29214 81.2778 7.31832C81.2826 7.34446 81.281 7.37134 81.2733 7.39677V7.39229Z" fill="white"/>
</g>
<defs>
<clipPath id="clip0_0_2096">
<rect width="85.5641" height="20.5536" fill="white"/>
</clipPath>
</defs>
</svg>
